<?xml version="1.0" encoding="UTF-8" standalone="no"?>
<!DOCTYPE svg PUBLIC "-//W3C//DTD SVG 1.1//EN"
 "http://www.w3.org/Graphics/SVG/1.1/DTD/svg11.dtd">
<!-- Generated by graphviz version 2.38.0 (20140413.2041)
 -->
<!-- Title: %3 Pages: 1 -->
<svg width="540pt" height="164pt"
 viewBox="0.00 0.00 539.77 164.47" xmlns="http://www.w3.org/2000/svg" xmlns:xlink="http://www.w3.org/1999/xlink">
<g id="graph0" class="graph" transform="scale(1 1) rotate(0) translate(4 160.468)">
<title>%3</title>
<polygon fill="white" stroke="none" points="-4,4 -4,-160.468 535.77,-160.468 535.77,4 -4,4"/>
<!-- &#45;1 -->
<g id="node1" class="node"><title>&#45;1</title>
<polygon fill="lightgray" stroke="black" points="214.385,-156.468 190.385,-156.468 190.385,-138.468 214.385,-138.468 214.385,-156.468"/>
<text text-anchor="middle" x="202.385" y="-145.268" font-family="Times New Roman,serif" font-size="9.00">&#45;1</text>
</g>
<!-- 42 -->
<g id="node11" class="node"><title>42</title>
<ellipse fill="white" stroke="black" cx="238.385" cy="-84.0833" rx="18.2703" ry="18.2703"/>
<text text-anchor="middle" x="238.385" y="-81.8833" font-family="Times New Roman,serif" font-size="9.00">42</text>
</g>
<!-- &#45;1&#45;&gt;42 -->
<g id="edge1" class="edge"><title>&#45;1&#45;&gt;42</title>
<path fill="none" stroke="red" stroke-width="0.380728" d="M207.091,-138.443C211.454,-131.003 218.173,-119.548 224.267,-109.156"/>
<polygon fill="red" stroke="red" stroke-width="0.380728" points="227.348,-110.821 229.388,-100.425 221.31,-107.28 227.348,-110.821"/>
</g>
<!-- 43 -->
<g id="node12" class="node"><title>43</title>
<ellipse fill="white" stroke="black" cx="293.385" cy="-84.0833" rx="18.2703" ry="18.2703"/>
<text text-anchor="middle" x="293.385" y="-81.8833" font-family="Times New Roman,serif" font-size="9.00">43</text>
</g>
<!-- &#45;1&#45;&gt;43 -->
<g id="edge2" class="edge"><title>&#45;1&#45;&gt;43</title>
<path fill="none" stroke="red" stroke-width="0.214756" d="M214.281,-138.443C228.312,-128.978 251.975,-113.016 269.773,-101.011"/>
<polygon fill="red" stroke="red" stroke-width="0.214756" points="272.13,-103.643 278.463,-95.1488 268.216,-97.8395 272.13,-103.643"/>
</g>
<!-- 44 -->
<g id="node13" class="node"><title>44</title>
<ellipse fill="white" stroke="black" cx="348.385" cy="-84.0833" rx="18.2703" ry="18.2703"/>
<text text-anchor="middle" x="348.385" y="-81.8833" font-family="Times New Roman,serif" font-size="9.00">44</text>
</g>
<!-- &#45;1&#45;&gt;44 -->
<g id="edge3" class="edge"><title>&#45;1&#45;&gt;44</title>
<path fill="none" stroke="red" stroke-width="0.246578" d="M214.815,-141.712C217.631,-140.641 220.609,-139.512 223.385,-138.468 266.427,-122.283 279.089,-122.697 320.385,-102.468 321.766,-101.792 323.165,-101.066 324.564,-100.308"/>
<polygon fill="red" stroke="red" stroke-width="0.246578" points="326.718,-103.103 333.588,-95.0366 323.188,-97.0587 326.718,-103.103"/>
</g>
<!-- 45 -->
<g id="node14" class="node"><title>45</title>
<ellipse fill="white" stroke="black" cx="403.385" cy="-84.0833" rx="18.2703" ry="18.2703"/>
<text text-anchor="middle" x="403.385" y="-81.8833" font-family="Times New Roman,serif" font-size="9.00">45</text>
</g>
<!-- &#45;1&#45;&gt;45 -->
<g id="edge4" class="edge"><title>&#45;1&#45;&gt;45</title>
<path fill="none" stroke="green" stroke-width="0.191604" d="M214.728,-141.457C217.548,-140.398 220.551,-139.339 223.385,-138.468 289.744,-118.067 311.282,-129.125 375.385,-102.468 376.805,-101.878 378.235,-101.22 379.658,-100.515"/>
<polygon fill="green" stroke="green" stroke-width="0.191604" points="381.751,-103.353 388.752,-95.4008 378.32,-97.2513 381.751,-103.353"/>
</g>
<!-- 46 -->
<g id="node15" class="node"><title>46</title>
<ellipse fill="white" stroke="black" cx="458.385" cy="-84.0833" rx="18.2703" ry="18.2703"/>
<text text-anchor="middle" x="458.385" y="-81.8833" font-family="Times New Roman,serif" font-size="9.00">46</text>
</g>
<!-- &#45;1&#45;&gt;46 -->
<g id="edge5" class="edge"><title>&#45;1&#45;&gt;46</title>
<path fill="none" stroke="red" stroke-width="0.202101" d="M214.691,-141.33C217.513,-140.278 220.526,-139.253 223.385,-138.468 313.43,-113.733 343.119,-135.705 430.385,-102.468 431.822,-101.921 433.266,-101.297 434.699,-100.618"/>
<polygon fill="red" stroke="red" stroke-width="0.202101" points="436.76,-103.479 443.825,-95.5833 433.378,-97.3495 436.76,-103.479"/>
</g>
<!-- 47 -->
<g id="node16" class="node"><title>47</title>
<ellipse fill="white" stroke="black" cx="513.385" cy="-84.0833" rx="18.2703" ry="18.2703"/>
<text text-anchor="middle" x="513.385" y="-81.8833" font-family="Times New Roman,serif" font-size="9.00">47</text>
</g>
<!-- &#45;1&#45;&gt;47 -->
<g id="edge6" class="edge"><title>&#45;1&#45;&gt;47</title>
<path fill="none" stroke="red" stroke-width="0.164989" d="M214.671,-141.254C217.494,-140.206 220.512,-139.202 223.385,-138.468 337.262,-109.358 374.816,-142.34 485.385,-102.468 486.831,-101.946 488.283,-101.343 489.722,-100.68"/>
<polygon fill="red" stroke="red" stroke-width="0.164989" points="491.763,-103.554 498.865,-95.6921 488.41,-97.4085 491.763,-103.554"/>
</g>
<!-- 48 -->
<g id="node17" class="node"><title>48</title>
<ellipse fill="white" stroke="black" cx="18.3848" cy="-84.0833" rx="18.2703" ry="18.2703"/>
<text text-anchor="middle" x="18.3848" y="-81.8833" font-family="Times New Roman,serif" font-size="9.00">48</text>
</g>
<!-- &#45;1&#45;&gt;48 -->
<g id="edge7" class="edge"><title>&#45;1&#45;&gt;48</title>
<path fill="none" stroke="red" stroke-width="0.263608" d="M190.023,-141.516C187.204,-140.454 184.206,-139.379 181.385,-138.468 122.292,-119.389 103.381,-127.113 46.3848,-102.468 44.9733,-101.858 43.5496,-101.184 42.1318,-100.467"/>
<polygon fill="red" stroke="red" stroke-width="0.263608" points="43.4778,-97.2064 33.0528,-95.3167 40.024,-103.295 43.4778,-97.2064"/>
</g>
<!-- 49 -->
<g id="node18" class="node"><title>49</title>
<ellipse fill="white" stroke="black" cx="73.3848" cy="-84.0833" rx="18.2703" ry="18.2703"/>
<text text-anchor="middle" x="73.3848" y="-81.8833" font-family="Times New Roman,serif" font-size="9.00">49</text>
</g>
<!-- &#45;1&#45;&gt;49 -->
<g id="edge8" class="edge"><title>&#45;1&#45;&gt;49</title>
<path fill="none" stroke="red" stroke-width="0.283338" d="M190.306,-141.865C171.091,-134.397 132.548,-118.82 101.385,-102.468 100.055,-101.77 98.7031,-101.033 97.3483,-100.271"/>
<polygon fill="red" stroke="red" stroke-width="0.283338" points="98.9421,-97.1469 88.5555,-95.0567 95.3716,-103.168 98.9421,-97.1469"/>
</g>
<!-- 50 -->
<g id="node19" class="node"><title>50</title>
<ellipse fill="white" stroke="black" cx="128.385" cy="-84.0833" rx="18.2703" ry="18.2703"/>
<text text-anchor="middle" x="128.385" y="-81.8833" font-family="Times New Roman,serif" font-size="9.00">50</text>
</g>
<!-- &#45;1&#45;&gt;50 -->
<g id="edge9" class="edge"><title>&#45;1&#45;&gt;50</title>
<path fill="none" stroke="green" stroke-width="0.138163" d="M192.711,-138.443C181.903,-129.478 164.068,-114.684 149.916,-102.944"/>
<polygon fill="green" stroke="green" stroke-width="0.138163" points="152.021,-100.143 142.09,-96.4518 147.552,-105.53 152.021,-100.143"/>
</g>
<!-- 51 -->
<g id="node20" class="node"><title>51</title>
<ellipse fill="white" stroke="black" cx="183.385" cy="-84.0833" rx="18.2703" ry="18.2703"/>
<text text-anchor="middle" x="183.385" y="-81.8833" font-family="Times New Roman,serif" font-size="9.00">51</text>
</g>
<!-- &#45;1&#45;&gt;51 -->
<g id="edge10" class="edge"><title>&#45;1&#45;&gt;51</title>
<path fill="none" stroke="green" stroke-width="0.355781" d="M199.901,-138.443C197.781,-131.593 194.607,-121.34 191.607,-111.646"/>
<polygon fill="green" stroke="green" stroke-width="0.355781" points="194.894,-110.431 188.594,-101.913 188.207,-112.501 194.894,-110.431"/>
</g>
<!-- &#45;2 -->
<g id="node2" class="node"><title>&#45;2</title>
<polygon fill="lightgray" stroke="black" points="256.385,-156.468 232.385,-156.468 232.385,-138.468 256.385,-138.468 256.385,-156.468"/>
<text text-anchor="middle" x="244.385" y="-145.268" font-family="Times New Roman,serif" font-size="9.00">&#45;2</text>
</g>
<!-- &#45;2&#45;&gt;42 -->
<g id="edge11" class="edge"><title>&#45;2&#45;&gt;42</title>
<path fill="none" stroke="green" stroke-width="0.113139" d="M243.6,-138.443C242.954,-131.832 241.998,-122.05 241.08,-112.661"/>
<polygon fill="green" stroke="green" stroke-width="0.113139" points="244.535,-112.029 240.079,-102.417 237.569,-112.71 244.535,-112.029"/>
</g>
<!-- &#45;2&#45;&gt;43 -->
<g id="edge12" class="edge"><title>&#45;2&#45;&gt;43</title>
<path fill="none" stroke="red" stroke-width="0.180274" d="M250.791,-138.443C257.158,-130.467 267.208,-117.876 275.948,-106.927"/>
<polygon fill="red" stroke="red" stroke-width="0.180274" points="278.789,-108.978 282.293,-98.9789 273.319,-104.611 278.789,-108.978"/>
</g>
<!-- &#45;2&#45;&gt;44 -->
<g id="edge13" class="edge"><title>&#45;2&#45;&gt;44</title>
<path fill="none" stroke="green" stroke-width="0.177123" d="M256.562,-139.572C271.628,-131.004 298.026,-115.877 320.385,-102.468 321.673,-101.696 322.991,-100.899 324.32,-100.091"/>
<polygon fill="green" stroke="green" stroke-width="0.177123" points="326.347,-102.953 333.032,-94.7334 322.681,-96.9899 326.347,-102.953"/>
</g>
<!-- &#45;2&#45;&gt;45 -->
<g id="edge14" class="edge"><title>&#45;2&#45;&gt;45</title>
<path fill="none" stroke="red" stroke-width="0.175058" d="M256.785,-141.632C259.603,-140.564 262.59,-139.457 265.385,-138.468 313.878,-121.307 328.756,-124.19 375.385,-102.468 376.779,-101.819 378.189,-101.114 379.596,-100.373"/>
<polygon fill="red" stroke="red" stroke-width="0.175058" points="381.731,-103.182 388.642,-95.1514 378.232,-97.1189 381.731,-103.182"/>
</g>
<!-- &#45;2&#45;&gt;46 -->
<g id="edge15" class="edge"><title>&#45;2&#45;&gt;46</title>
<path fill="none" stroke="red" stroke-width="0.402689" d="M256.716,-141.42C259.538,-140.363 262.543,-139.314 265.385,-138.468 337.322,-117.048 360.827,-130.673 430.385,-102.468 431.81,-101.89 433.244,-101.242 434.67,-100.545"/>
<polygon fill="red" stroke="red" stroke-width="0.402689" points="436.754,-103.39 443.774,-95.4542 433.338,-97.2799 436.754,-103.39"/>
</g>
<!-- &#45;2&#45;&gt;47 -->
<g id="edge16" class="edge"><title>&#45;2&#45;&gt;47</title>
<path fill="none" stroke="green" stroke-width="0.234998" d="M256.685,-141.308C259.508,-140.257 262.522,-139.239 265.385,-138.468 361.054,-112.701 392.62,-137.27 485.385,-102.468 486.825,-101.928 488.271,-101.31 489.706,-100.635"/>
<polygon fill="green" stroke="green" stroke-width="0.234998" points="491.761,-103.5 498.837,-95.6137 488.388,-97.366 491.761,-103.5"/>
</g>
<!-- &#45;2&#45;&gt;48 -->
<g id="edge17" class="edge"><title>&#45;2&#45;&gt;48</title>
<path fill="none" stroke="red" stroke-width="0.19631" d="M232.062,-141.39C229.24,-140.335 226.232,-139.294 223.385,-138.468 146.285,-116.104 120.991,-132.106 46.3848,-102.468 44.9557,-101.9 43.518,-101.26 42.0894,-100.569"/>
<polygon fill="red" stroke="red" stroke-width="0.19631" points="43.4179,-97.3029 32.9781,-95.497 40.0131,-103.419 43.4179,-97.3029"/>
</g>
<!-- &#45;2&#45;&gt;49 -->
<g id="edge18" class="edge"><title>&#45;2&#45;&gt;49</title>
<path fill="none" stroke="green" stroke-width="0.187371" d="M232.005,-141.571C229.186,-140.506 226.194,-139.416 223.385,-138.468 169.819,-120.392 152.975,-125.587 101.385,-102.468 99.9815,-101.839 98.5642,-101.151 97.1514,-100.422"/>
<polygon fill="green" stroke="green" stroke-width="0.187371" points="98.5056,-97.1648 88.0874,-95.2383 95.0303,-103.241 98.5056,-97.1648"/>
</g>
<!-- &#45;2&#45;&gt;50 -->
<g id="edge19" class="edge"><title>&#45;2&#45;&gt;50</title>
<path fill="none" stroke="red" stroke-width="0.189262" d="M232.246,-140.834C215.102,-132.779 182.925,-117.301 156.385,-102.468 155.074,-101.735 153.737,-100.97 152.394,-100.187"/>
<polygon fill="red" stroke="red" stroke-width="0.189262" points="154.008,-97.0729 143.637,-94.9056 150.393,-103.067 154.008,-97.0729"/>
</g>
<!-- &#45;2&#45;&gt;51 -->
<g id="edge20" class="edge"><title>&#45;2&#45;&gt;51</title>
<path fill="none" stroke="red" stroke-width="0.294237" d="M236.41,-138.443C228.118,-130.099 214.809,-116.705 203.599,-105.425"/>
<polygon fill="red" stroke="red" stroke-width="0.294237" points="205.792,-102.667 196.261,-98.0404 200.827,-107.601 205.792,-102.667"/>
</g>
<!-- &#45;3 -->
<g id="node3" class="node"><title>&#45;3</title>
<polygon fill="lightgray" stroke="black" points="298.385,-156.468 274.385,-156.468 274.385,-138.468 298.385,-138.468 298.385,-156.468"/>
<text text-anchor="middle" x="286.385" y="-145.268" font-family="Times New Roman,serif" font-size="9.00">&#45;3</text>
</g>
<!-- &#45;3&#45;&gt;42 -->
<g id="edge21" class="edge"><title>&#45;3&#45;&gt;42</title>
<path fill="none" stroke="red" stroke-width="0.557161" d="M280.11,-138.443C273.873,-130.467 264.027,-117.876 255.466,-106.927"/>
<polygon fill="red" stroke="red" stroke-width="0.557161" points="258.168,-104.7 249.25,-98.9789 252.653,-109.012 258.168,-104.7"/>
</g>
<!-- &#45;3&#45;&gt;43 -->
<g id="edge22" class="edge"><title>&#45;3&#45;&gt;43</title>
<path fill="none" stroke="red" stroke-width="0.357453" d="M287.3,-138.443C288.062,-131.761 289.193,-121.839 290.274,-112.358"/>
<polygon fill="red" stroke="red" stroke-width="0.357453" points="293.752,-112.749 291.408,-102.417 286.798,-111.956 293.752,-112.749"/>
</g>
<!-- &#45;3&#45;&gt;44 -->
<g id="edge23" class="edge"><title>&#45;3&#45;&gt;44</title>
<path fill="none" stroke="green" stroke-width="0.297486" d="M294.49,-138.443C303.106,-129.912 317.054,-116.103 328.602,-104.67"/>
<polygon fill="green" stroke="green" stroke-width="0.297486" points="331.12,-107.102 335.763,-97.5794 326.195,-102.128 331.12,-107.102"/>
</g>
<!-- &#45;3&#45;&gt;45 -->
<g id="edge24" class="edge"><title>&#45;3&#45;&gt;45</title>
<path fill="none" stroke="green" stroke-width="0.422519" d="M298.668,-140.855C316.016,-132.825 348.569,-117.376 375.385,-102.468 376.698,-101.738 378.035,-100.975 379.38,-100.194"/>
<polygon fill="green" stroke="green" stroke-width="0.422519" points="381.378,-103.076 388.139,-94.9184 377.767,-97.0791 381.378,-103.076"/>
</g>
<!-- &#45;3&#45;&gt;46 -->
<g id="edge25" class="edge"><title>&#45;3&#45;&gt;46</title>
<path fill="none" stroke="red" stroke-width="0.570525" d="M298.763,-141.566C301.582,-140.502 304.574,-139.413 307.385,-138.468 361.375,-120.315 378.379,-125.704 430.385,-102.468 431.789,-101.841 433.207,-101.154 434.62,-100.426"/>
<polygon fill="red" stroke="red" stroke-width="0.570525" points="436.74,-103.246 443.685,-95.2448 433.266,-97.1683 436.74,-103.246"/>
</g>
<!-- &#45;3&#45;&gt;47 -->
<g id="edge26" class="edge"><title>&#45;3&#45;&gt;47</title>
<path fill="none" stroke="green" stroke-width="0.241858" d="M298.707,-141.387C301.529,-140.333 304.537,-139.292 307.385,-138.468 384.915,-116.026 410.358,-132.226 485.385,-102.468 486.814,-101.901 488.252,-101.262 489.681,-100.571"/>
<polygon fill="green" stroke="green" stroke-width="0.241858" points="491.757,-103.421 498.793,-95.5003 488.353,-97.3047 491.757,-103.421"/>
</g>
<!-- &#45;3&#45;&gt;48 -->
<g id="edge27" class="edge"><title>&#45;3&#45;&gt;48</title>
<path fill="none" stroke="red" stroke-width="0.496477" d="M274.084,-141.31C271.261,-140.259 268.248,-139.24 265.385,-138.468 170.149,-112.781 138.726,-137.15 46.3848,-102.468 44.9452,-101.927 43.4993,-101.309 42.0643,-100.634"/>
<polygon fill="red" stroke="red" stroke-width="0.496477" points="43.3826,-97.3648 32.9338,-95.6115 40.0087,-103.498 43.3826,-97.3648"/>
</g>
<!-- &#45;3&#45;&gt;49 -->
<g id="edge28" class="edge"><title>&#45;3&#45;&gt;49</title>
<path fill="none" stroke="green" stroke-width="0.110048" d="M274.052,-141.422C271.231,-140.366 268.226,-139.316 265.385,-138.468 193.877,-117.127 170.522,-130.553 101.385,-102.468 99.9601,-101.889 98.5259,-101.24 97.1,-100.543"/>
<polygon fill="green" stroke="green" stroke-width="0.110048" points="98.4329,-97.2779 87.9968,-95.4503 95.0154,-103.387 98.4329,-97.2779"/>
</g>
<!-- &#45;3&#45;&gt;50 -->
<g id="edge29" class="edge"><title>&#45;3&#45;&gt;50</title>
<path fill="none" stroke="green" stroke-width="0.182013" d="M273.982,-141.637C271.164,-140.569 268.179,-139.461 265.385,-138.468 217.312,-121.383 202.602,-124.075 156.385,-102.468 154.992,-101.817 153.583,-101.111 152.176,-100.368"/>
<polygon fill="green" stroke="green" stroke-width="0.182013" points="153.541,-97.1147 143.131,-95.1434 150.039,-103.176 153.541,-97.1147"/>
</g>
<!-- &#45;3&#45;&gt;51 -->
<g id="edge30" class="edge"><title>&#45;3&#45;&gt;51</title>
<path fill="none" stroke="red" stroke-width="0.127741" d="M274.38,-139.549C259.524,-130.959 233.485,-115.809 211.385,-102.468 210.099,-101.692 208.782,-100.892 207.455,-100.082"/>
<polygon fill="red" stroke="red" stroke-width="0.127741" points="209.097,-96.9822 198.747,-94.7173 205.425,-102.942 209.097,-96.9822"/>
</g>
<!-- &#45;4 -->
<g id="node4" class="node"><title>&#45;4</title>
<polygon fill="lightgray" stroke="black" points="340.385,-156.468 316.385,-156.468 316.385,-138.468 340.385,-138.468 340.385,-156.468"/>
<text text-anchor="middle" x="328.385" y="-145.268" font-family="Times New Roman,serif" font-size="9.00">&#45;4</text>
</g>
<!-- &#45;4&#45;&gt;42 -->
<g id="edge31" class="edge"><title>&#45;4&#45;&gt;42</title>
<path fill="none" stroke="green" stroke-width="0.447629" d="M316.619,-138.443C302.742,-128.978 279.339,-113.016 261.737,-101.011"/>
<polygon fill="green" stroke="green" stroke-width="0.447629" points="263.376,-97.8921 253.143,-95.1488 259.432,-103.675 263.376,-97.8921"/>
</g>
<!-- &#45;4&#45;&gt;43 -->
<g id="edge32" class="edge"><title>&#45;4&#45;&gt;43</title>
<path fill="none" stroke="green" stroke-width="0.201226" d="M323.809,-138.443C319.567,-131.003 313.036,-119.548 307.11,-109.156"/>
<polygon fill="green" stroke="green" stroke-width="0.201226" points="310.126,-107.378 302.132,-100.425 304.045,-110.846 310.126,-107.378"/>
</g>
<!-- &#45;4&#45;&gt;44 -->
<g id="edge33" class="edge"><title>&#45;4&#45;&gt;44</title>
<path fill="none" stroke="green" stroke-width="0.495912" d="M330.999,-138.443C333.247,-131.545 336.619,-121.195 339.797,-111.441"/>
<polygon fill="green" stroke="green" stroke-width="0.495912" points="343.213,-112.254 342.983,-101.662 336.557,-110.086 343.213,-112.254"/>
</g>
<!-- &#45;4&#45;&gt;45 -->
<g id="edge34" class="edge"><title>&#45;4&#45;&gt;45</title>
<path fill="none" stroke="red" stroke-width="0.183814" d="M338.19,-138.443C349.143,-129.478 367.219,-114.684 381.563,-102.944"/>
<polygon fill="red" stroke="red" stroke-width="0.183814" points="383.973,-105.494 389.495,-96.4518 379.539,-100.077 383.973,-105.494"/>
</g>
<!-- &#45;4&#45;&gt;46 -->
<g id="edge35" class="edge"><title>&#45;4&#45;&gt;46</title>
<path fill="none" stroke="green" stroke-width="0.604255" d="M340.588,-141.884C360,-134.442 398.933,-118.9 430.385,-102.468 431.716,-101.773 433.069,-101.037 434.424,-100.277"/>
<polygon fill="green" stroke="green" stroke-width="0.604255" points="436.399,-103.175 443.219,-95.0671 432.832,-97.152 436.399,-103.175"/>
</g>
<!-- &#45;4&#45;&gt;47 -->
<g id="edge36" class="edge"><title>&#45;4&#45;&gt;47</title>
<path fill="none" stroke="red" stroke-width="0.241639" d="M340.745,-141.512C343.565,-140.451 346.562,-139.376 349.385,-138.468 408.904,-119.312 427.971,-127.231 485.385,-102.468 486.797,-101.859 488.221,-101.186 489.639,-100.47"/>
<polygon fill="red" stroke="red" stroke-width="0.241639" points="491.746,-103.299 498.719,-95.3222 488.294,-97.2093 491.746,-103.299"/>
</g>
<!-- &#45;4&#45;&gt;48 -->
<g id="edge37" class="edge"><title>&#45;4&#45;&gt;48</title>
<path fill="none" stroke="red" stroke-width="0.27999" d="M316.099,-141.255C313.275,-140.207 310.257,-139.203 307.385,-138.468 193.942,-109.438 156.529,-142.219 46.3848,-102.468 44.9383,-101.946 43.487,-101.342 42.0478,-100.679"/>
<polygon fill="red" stroke="red" stroke-width="0.27999" points="43.3595,-97.4076 32.9048,-95.6905 40.0068,-103.553 43.3595,-97.4076"/>
</g>
<!-- &#45;4&#45;&gt;49 -->
<g id="edge38" class="edge"><title>&#45;4&#45;&gt;49</title>
<path fill="none" stroke="green" stroke-width="0.368671" d="M316.078,-141.331C313.256,-140.279 310.244,-139.255 307.385,-138.468 217.772,-113.812 188.228,-135.585 101.385,-102.468 99.948,-101.92 98.5042,-101.296 97.0709,-100.617"/>
<polygon fill="green" stroke="green" stroke-width="0.368671" points="98.3919,-97.3482 87.9455,-95.5808 95.0097,-103.477 98.3919,-97.3482"/>
</g>
<!-- &#45;4&#45;&gt;50 -->
<g id="edge39" class="edge"><title>&#45;4&#45;&gt;50</title>
<path fill="none" stroke="green" stroke-width="0.72567" d="M316.041,-141.46C313.22,-140.401 310.218,-139.341 307.385,-138.468 241.454,-118.145 220.068,-129.006 156.385,-102.468 154.965,-101.877 153.535,-101.218 152.113,-100.512"/>
<polygon fill="green" stroke="green" stroke-width="0.72567" points="153.451,-97.2489 143.019,-95.3963 150.019,-103.35 153.451,-97.2489"/>
</g>
<!-- &#45;4&#45;&gt;51 -->
<g id="edge40" class="edge"><title>&#45;4&#45;&gt;51</title>
<path fill="none" stroke="red" stroke-width="0.461771" d="M315.952,-141.719C313.136,-140.647 310.158,-139.516 307.385,-138.468 264.76,-122.357 252.273,-122.584 211.385,-102.468 210.005,-101.789 208.606,-101.061 207.208,-100.302"/>
<polygon fill="red" stroke="red" stroke-width="0.461771" points="208.586,-97.0535 198.187,-95.0267 205.052,-103.096 208.586,-97.0535"/>
</g>
<!-- &#45;5 -->
<g id="node5" class="node"><title>&#45;5</title>
<polygon fill="lightgray" stroke="black" points="382.385,-156.468 358.385,-156.468 358.385,-138.468 382.385,-138.468 382.385,-156.468"/>
<text text-anchor="middle" x="370.385" y="-145.268" font-family="Times New Roman,serif" font-size="9.00">&#45;5</text>
</g>
<!-- &#45;5&#45;&gt;42 -->
<g id="edge41" class="edge"><title>&#45;5&#45;&gt;42</title>
<path fill="none" stroke="green" stroke-width="0.17635" d="M358.375,-141.661C334.816,-132.187 283.358,-111.26 266.385,-102.468 265.019,-101.761 263.632,-101.01 262.242,-100.234"/>
<polygon fill="green" stroke="green" stroke-width="0.17635" points="263.635,-96.9909 253.248,-94.9062 260.068,-103.014 263.635,-96.9909"/>
</g>
<!-- &#45;5&#45;&gt;43 -->
<g id="edge42" class="edge"><title>&#45;5&#45;&gt;43</title>
<path fill="none" stroke="red" stroke-width="0.400751" d="M360.318,-138.443C349.005,-129.424 330.29,-114.504 315.521,-102.731"/>
<polygon fill="red" stroke="red" stroke-width="0.400751" points="317.369,-99.7276 307.368,-96.2307 313.006,-105.201 317.369,-99.7276"/>
</g>
<!-- &#45;5&#45;&gt;44 -->
<g id="edge43" class="edge"><title>&#45;5&#45;&gt;44</title>
<path fill="none" stroke="red" stroke-width="0.569104" d="M367.509,-138.443C365.01,-131.472 361.249,-120.977 357.721,-111.133"/>
<polygon fill="red" stroke="red" stroke-width="0.569104" points="360.995,-109.895 354.327,-101.662 354.406,-112.257 360.995,-109.895"/>
</g>
<!-- &#45;5&#45;&gt;45 -->
<g id="edge44" class="edge"><title>&#45;5&#45;&gt;45</title>
<path fill="none" stroke="red" stroke-width="0.214418" d="M374.699,-138.443C378.605,-131.178 384.569,-120.084 390.049,-109.889"/>
<polygon fill="red" stroke="red" stroke-width="0.214418" points="393.221,-111.382 394.873,-100.916 387.055,-108.067 393.221,-111.382"/>
</g>
<!-- &#45;5&#45;&gt;46 -->
<g id="edge45" class="edge"><title>&#45;5&#45;&gt;46</title>
<path fill="none" stroke="red" stroke-width="0.269769" d="M381.889,-138.443C395.378,-129.034 418.073,-113.203 435.249,-101.222"/>
<polygon fill="red" stroke="red" stroke-width="0.269769" points="437.45,-103.954 443.649,-95.362 433.445,-98.2126 437.45,-103.954"/>
</g>
<!-- &#45;5&#45;&gt;47 -->
<g id="edge46" class="edge"><title>&#45;5&#45;&gt;47</title>
<path fill="none" stroke="green" stroke-width="0.122003" d="M382.541,-141.834C411.863,-130.655 484.164,-103.074 485.385,-102.468 486.762,-101.785 488.159,-101.053 489.556,-100.291"/>
<polygon fill="green" stroke="green" stroke-width="0.122003" points="491.715,-103.083 498.573,-95.0072 488.176,-97.0434 491.715,-103.083"/>
</g>
<!-- &#45;5&#45;&gt;48 -->
<g id="edge47" class="edge"><title>&#45;5&#45;&gt;48</title>
<path fill="none" stroke="green" stroke-width="0.48037" d="M358.109,-141.215C355.285,-140.169 352.264,-139.176 349.385,-138.468 217.694,-106.085 174.373,-147.303 46.3848,-102.468 44.9335,-101.96 43.4783,-101.366 42.0361,-100.712"/>
<polygon fill="green" stroke="green" stroke-width="0.48037" points="43.3433,-97.4391 32.8842,-95.7482 40.006,-103.592 43.3433,-97.4391"/>
</g>
<!-- &#45;5&#45;&gt;49 -->
<g id="edge48" class="edge"><title>&#45;5&#45;&gt;49</title>
<path fill="none" stroke="green" stroke-width="0.247194" d="M358.095,-141.27C355.271,-140.221 352.255,-139.213 349.385,-138.468 241.583,-110.474 206.014,-140.648 101.385,-102.468 99.9402,-101.941 98.4903,-101.333 97.0522,-100.667"/>
<polygon fill="green" stroke="green" stroke-width="0.247194" points="98.3658,-97.3959 87.9126,-95.6688 95.0072,-103.538 98.3658,-97.3959"/>
</g>
<!-- &#45;5&#45;&gt;50 -->
<g id="edge49" class="edge"><title>&#45;5&#45;&gt;50</title>
<path fill="none" stroke="red" stroke-width="0.333617" d="M358.072,-141.355C355.249,-140.302 352.239,-139.271 349.385,-138.468 265.387,-114.841 237.736,-134.023 156.385,-102.468 154.951,-101.912 153.51,-101.281 152.078,-100.597"/>
<polygon fill="red" stroke="red" stroke-width="0.333617" points="153.402,-97.3294 142.959,-95.5462 150.011,-103.453 153.402,-97.3294"/>
</g>
<!-- &#45;5&#45;&gt;51 -->
<g id="edge50" class="edge"><title>&#45;5&#45;&gt;51</title>
<path fill="none" stroke="red" stroke-width="0.483657" d="M358.027,-141.504C355.207,-140.443 352.209,-139.371 349.385,-138.468 289.012,-119.157 269.633,-127.467 211.385,-102.468 209.972,-101.862 208.547,-101.191 207.128,-100.476"/>
<polygon fill="red" stroke="red" stroke-width="0.483657" points="208.472,-97.2151 198.046,-95.3329 205.023,-103.306 208.472,-97.2151"/>
</g>
<!-- &#45;6 -->
<g id="node6" class="node"><title>&#45;6</title>
<polygon fill="lightgray" stroke="black" points="424.385,-156.468 400.385,-156.468 400.385,-138.468 424.385,-138.468 424.385,-156.468"/>
<text text-anchor="middle" x="412.385" y="-145.268" font-family="Times New Roman,serif" font-size="9.00">&#45;6</text>
</g>
<!-- &#45;6&#45;&gt;42 -->
<g id="edge51" class="edge"><title>&#45;6&#45;&gt;42</title>
<path fill="none" stroke="red" stroke-width="0.229439" d="M400.01,-141.557C397.191,-140.493 394.197,-139.407 391.385,-138.468 336.546,-120.161 319.22,-125.938 266.385,-102.468 264.979,-101.844 263.561,-101.159 262.147,-100.433"/>
<polygon fill="red" stroke="red" stroke-width="0.229439" points="263.499,-97.1751 253.079,-95.2577 260.029,-103.254 263.499,-97.1751"/>
</g>
<!-- &#45;6&#45;&gt;43 -->
<g id="edge52" class="edge"><title>&#45;6&#45;&gt;43</title>
<path fill="none" stroke="red" stroke-width="0.120631" d="M400.109,-141.03C382.431,-133.089 348.906,-117.61 321.385,-102.468 320.069,-101.744 318.728,-100.986 317.382,-100.208"/>
<polygon fill="red" stroke="red" stroke-width="0.120631" points="318.991,-97.0913 308.616,-94.9434 315.387,-103.092 318.991,-97.0913"/>
</g>
<!-- &#45;6&#45;&gt;44 -->
<g id="edge53" class="edge"><title>&#45;6&#45;&gt;44</title>
<path fill="none" stroke="red" stroke-width="0.550719" d="M404.018,-138.443C395.124,-129.912 380.726,-116.103 368.806,-104.67"/>
<polygon fill="red" stroke="red" stroke-width="0.550719" points="371.053,-101.976 361.413,-97.5794 366.208,-107.027 371.053,-101.976"/>
</g>
<!-- &#45;6&#45;&gt;45 -->
<g id="edge54" class="edge"><title>&#45;6&#45;&gt;45</title>
<path fill="none" stroke="red" stroke-width="0.11781" d="M411.208,-138.443C410.228,-131.761 408.774,-121.839 407.384,-112.358"/>
<polygon fill="red" stroke="red" stroke-width="0.11781" points="410.84,-111.804 405.926,-102.417 403.914,-112.819 410.84,-111.804"/>
</g>
<!-- &#45;6&#45;&gt;46 -->
<g id="edge55" class="edge"><title>&#45;6&#45;&gt;46</title>
<path fill="none" stroke="green" stroke-width="0.105905" d="M418.398,-138.443C424.24,-130.648 433.385,-118.444 441.456,-107.674"/>
<polygon fill="green" stroke="green" stroke-width="0.105905" points="444.418,-109.557 447.614,-99.4559 438.817,-105.359 444.418,-109.557"/>
</g>
<!-- &#45;6&#45;&gt;47 -->
<g id="edge56" class="edge"><title>&#45;6&#45;&gt;47</title>
<path fill="none" stroke="red" stroke-width="0.313903" d="M424.556,-139.199C439.071,-130.514 464.052,-115.519 485.385,-102.468 486.666,-101.684 487.979,-100.878 489.303,-100.063"/>
<polygon fill="red" stroke="red" stroke-width="0.313903" points="491.338,-102.92 498.003,-94.6843 487.657,-96.9665 491.338,-102.92"/>
</g>
<!-- &#45;6&#45;&gt;48 -->
<g id="edge57" class="edge"><title>&#45;6&#45;&gt;48</title>
<path fill="none" stroke="red" stroke-width="0.512261" d="M400.116,-141.184C397.292,-140.14 394.269,-139.155 391.385,-138.468 241.42,-102.725 192.242,-152.396 46.3848,-102.468 44.9299,-101.97 43.4719,-101.385 42.0275,-100.737"/>
<polygon fill="red" stroke="red" stroke-width="0.512261" points="43.3313,-97.4631 32.869,-95.7921 40.0057,-103.623 43.3313,-97.4631"/>
</g>
<!-- &#45;6&#45;&gt;49 -->
<g id="edge58" class="edge"><title>&#45;6&#45;&gt;49</title>
<path fill="none" stroke="red" stroke-width="0.407563" d="M400.106,-141.226C397.282,-140.179 394.262,-139.184 391.385,-138.468 265.346,-107.124 223.847,-145.728 101.385,-102.468 99.9348,-101.956 98.4807,-101.36 97.0393,-100.703"/>
<polygon fill="red" stroke="red" stroke-width="0.407563" points="98.3478,-97.4303 87.8899,-95.7321 95.0062,-103.581 98.3478,-97.4303"/>
</g>
<!-- &#45;6&#45;&gt;50 -->
<g id="edge59" class="edge"><title>&#45;6&#45;&gt;50</title>
<path fill="none" stroke="green" stroke-width="0.200344" d="M400.09,-141.287C397.267,-140.237 394.252,-139.225 391.385,-138.468 289.219,-111.509 255.502,-139.079 156.385,-102.468 154.942,-101.935 153.494,-101.323 152.057,-100.653"/>
<polygon fill="green" stroke="green" stroke-width="0.200344" points="153.373,-97.3828 142.921,-95.6448 150.008,-103.521 153.373,-97.3828"/>
</g>
<!-- &#45;6&#45;&gt;51 -->
<g id="edge60" class="edge"><title>&#45;6&#45;&gt;51</title>
<path fill="none" stroke="red" stroke-width="0.307522" d="M400.064,-141.383C397.242,-140.328 394.234,-139.289 391.385,-138.468 312.993,-115.868 287.254,-132.465 211.385,-102.468 209.955,-101.903 208.516,-101.264 207.087,-100.575"/>
<polygon fill="red" stroke="red" stroke-width="0.307522" points="208.415,-97.3082 197.974,-95.5068 205.013,-103.426 208.415,-97.3082"/>
</g>
<!-- &#45;7 -->
<g id="node7" class="node"><title>&#45;7</title>
<polygon fill="lightgray" stroke="black" points="130.385,-156.468 106.385,-156.468 106.385,-138.468 130.385,-138.468 130.385,-156.468"/>
<text text-anchor="middle" x="118.385" y="-145.268" font-family="Times New Roman,serif" font-size="9.00">&#45;7</text>
</g>
<!-- &#45;7&#45;&gt;42 -->
<g id="edge61" class="edge"><title>&#45;7&#45;&gt;42</title>
<path fill="none" stroke="green" stroke-width="0.154743" d="M130.504,-141.183C148.304,-133.307 182.431,-117.771 210.385,-102.468 211.702,-101.747 213.044,-100.991 214.391,-100.214"/>
<polygon fill="green" stroke="green" stroke-width="0.154743" points="216.384,-103.1 223.16,-94.9556 212.784,-97.0972 216.384,-103.1"/>
</g>
<!-- &#45;7&#45;&gt;43 -->
<g id="edge62" class="edge"><title>&#45;7&#45;&gt;43</title>
<path fill="none" stroke="green" stroke-width="0.189251" d="M130.758,-141.553C133.577,-140.489 136.571,-139.404 139.385,-138.468 194.648,-120.084 212.134,-126.055 265.385,-102.468 266.791,-101.845 268.21,-101.162 269.625,-100.437"/>
<polygon fill="green" stroke="green" stroke-width="0.189251" points="271.741,-103.259 278.694,-95.2639 268.273,-97.1784 271.741,-103.259"/>
</g>
<!-- &#45;7&#45;&gt;44 -->
<g id="edge63" class="edge"><title>&#45;7&#45;&gt;44</title>
<path fill="none" stroke="green" stroke-width="0.279312" d="M130.705,-141.381C133.527,-140.326 136.535,-139.288 139.385,-138.468 218.207,-115.789 244.094,-132.585 320.385,-102.468 321.815,-101.903 323.254,-101.266 324.683,-100.577"/>
<polygon fill="green" stroke="green" stroke-width="0.279312" points="326.757,-103.428 333.797,-95.51 323.356,-97.31 326.757,-103.428"/>
</g>
<!-- &#45;7&#45;&gt;45 -->
<g id="edge64" class="edge"><title>&#45;7&#45;&gt;45</title>
<path fill="none" stroke="red" stroke-width="0.207857" d="M130.679,-141.285C133.502,-140.236 136.518,-139.224 139.385,-138.468 241.984,-111.429 275.843,-139.199 375.385,-102.468 376.827,-101.936 378.276,-101.324 379.713,-100.654"/>
<polygon fill="red" stroke="red" stroke-width="0.207857" points="381.762,-103.522 388.849,-95.6467 378.397,-97.3839 381.762,-103.522"/>
</g>
<!-- &#45;7&#45;&gt;46 -->
<g id="edge65" class="edge"><title>&#45;7&#45;&gt;46</title>
<path fill="none" stroke="red" stroke-width="0.142917" d="M130.663,-141.225C133.487,-140.179 136.507,-139.183 139.385,-138.468 265.859,-107.044 307.498,-145.849 430.385,-102.468 431.835,-101.956 433.289,-101.36 434.73,-100.703"/>
<polygon fill="red" stroke="red" stroke-width="0.142917" points="436.763,-103.582 443.88,-95.7333 433.422,-97.431 436.763,-103.582"/>
</g>
<!-- &#45;7&#45;&gt;47 -->
<g id="edge66" class="edge"><title>&#45;7&#45;&gt;47</title>
<path fill="none" stroke="green" stroke-width="0.244732" d="M130.653,-141.184C133.478,-140.139 136.5,-139.155 139.385,-138.468 289.785,-102.645 339.102,-152.517 485.385,-102.468 486.84,-101.97 488.298,-101.385 489.742,-100.737"/>
<polygon fill="green" stroke="green" stroke-width="0.244732" points="491.764,-103.623 498.901,-95.793 488.439,-97.4636 491.764,-103.623"/>
</g>
<!-- &#45;7&#45;&gt;48 -->
<g id="edge67" class="edge"><title>&#45;7&#45;&gt;48</title>
<path fill="none" stroke="red" stroke-width="0.329842" d="M106.139,-139.021C91.7987,-130.291 67.3392,-115.376 46.3848,-102.468 45.1059,-101.68 43.795,-100.871 42.4719,-100.054"/>
<polygon fill="red" stroke="red" stroke-width="0.329842" points="44.1214,-96.9584 33.7772,-94.6673 40.4349,-102.909 44.1214,-96.9584"/>
</g>
<!-- &#45;7&#45;&gt;49 -->
<g id="edge68" class="edge"><title>&#45;7&#45;&gt;49</title>
<path fill="none" stroke="green" stroke-width="0.285267" d="M112.502,-138.443C106.787,-130.648 97.841,-118.444 89.9458,-107.674"/>
<polygon fill="green" stroke="green" stroke-width="0.285267" points="92.6562,-105.452 83.9211,-99.4559 87.0107,-109.59 92.6562,-105.452"/>
</g>
<!-- &#45;7&#45;&gt;50 -->
<g id="edge69" class="edge"><title>&#45;7&#45;&gt;50</title>
<path fill="none" stroke="red" stroke-width="0.218157" d="M119.692,-138.443C120.781,-131.761 122.397,-121.839 123.942,-112.358"/>
<polygon fill="red" stroke="red" stroke-width="0.218157" points="127.407,-112.85 125.561,-102.417 120.499,-111.724 127.407,-112.85"/>
</g>
<!-- &#45;7&#45;&gt;51 -->
<g id="edge70" class="edge"><title>&#45;7&#45;&gt;51</title>
<path fill="none" stroke="red" stroke-width="0.100187" d="M126.882,-138.443C135.916,-129.912 150.538,-116.103 162.645,-104.67"/>
<polygon fill="red" stroke="red" stroke-width="0.100187" points="165.285,-106.99 170.153,-97.5794 160.479,-101.901 165.285,-106.99"/>
</g>
<!-- &#45;8 -->
<g id="node8" class="node"><title>&#45;8</title>
<polygon fill="lightgray" stroke="black" points="172.385,-156.468 148.385,-156.468 148.385,-138.468 172.385,-138.468 172.385,-156.468"/>
<text text-anchor="middle" x="160.385" y="-145.268" font-family="Times New Roman,serif" font-size="9.00">&#45;8</text>
</g>
<!-- &#45;8&#45;&gt;42 -->
<g id="edge71" class="edge"><title>&#45;8&#45;&gt;42</title>
<path fill="none" stroke="green" stroke-width="0.168835" d="M170.582,-138.443C182.042,-129.424 201,-114.504 215.961,-102.731"/>
<polygon fill="green" stroke="green" stroke-width="0.168835" points="218.526,-105.166 224.22,-96.2307 214.197,-99.6647 218.526,-105.166"/>
</g>
<!-- &#45;8&#45;&gt;43 -->
<g id="edge72" class="edge"><title>&#45;8&#45;&gt;43</title>
<path fill="none" stroke="red" stroke-width="0.277625" d="M172.511,-141.669C196.3,-132.208 248.258,-111.302 265.385,-102.468 266.751,-101.763 268.14,-101.015 269.53,-100.239"/>
<polygon fill="red" stroke="red" stroke-width="0.277625" points="271.703,-103.021 278.527,-94.9161 268.138,-96.9961 271.703,-103.021"/>
</g>
<!-- &#45;8&#45;&gt;44 -->
<g id="edge73" class="edge"><title>&#45;8&#45;&gt;44</title>
<path fill="none" stroke="red" stroke-width="0.466305" d="M172.741,-141.501C175.561,-140.44 178.56,-139.369 181.385,-138.468 242.184,-119.079 261.719,-127.585 320.385,-102.468 321.798,-101.863 323.224,-101.193 324.643,-100.479"/>
<polygon fill="red" stroke="red" stroke-width="0.466305" points="326.747,-103.31 333.726,-95.3382 323.299,-97.2179 326.747,-103.31"/>
</g>
<!-- &#45;8&#45;&gt;45 -->
<g id="edge74" class="edge"><title>&#45;8&#45;&gt;45</title>
<path fill="none" stroke="red" stroke-width="0.262484" d="M172.697,-141.353C175.52,-140.3 178.53,-139.27 181.385,-138.468 265.814,-114.762 293.611,-134.143 375.385,-102.468 376.819,-101.913 378.26,-101.282 379.692,-100.599"/>
<polygon fill="red" stroke="red" stroke-width="0.262484" points="381.759,-103.455 388.812,-95.549 378.368,-97.331 381.759,-103.455"/>
</g>
<!-- &#45;8&#45;&gt;46 -->
<g id="edge75" class="edge"><title>&#45;8&#45;&gt;46</title>
<path fill="none" stroke="green" stroke-width="0.125028" d="M172.674,-141.269C175.498,-140.22 178.515,-139.212 181.385,-138.468 289.621,-110.395 325.332,-140.769 430.385,-102.468 431.83,-101.941 433.279,-101.334 434.718,-100.668"/>
<polygon fill="green" stroke="green" stroke-width="0.125028" points="436.762,-103.539 443.858,-95.6705 433.404,-97.3968 436.762,-103.539"/>
</g>
<!-- &#45;8&#45;&gt;47 -->
<g id="edge76" class="edge"><title>&#45;8&#45;&gt;47</title>
<path fill="none" stroke="green" stroke-width="0.220488" d="M172.661,-141.214C175.485,-140.168 178.505,-139.176 181.385,-138.468 313.51,-106.005 356.971,-147.424 485.385,-102.468 486.836,-101.96 488.291,-101.367 489.734,-100.712"/>
<polygon fill="green" stroke="green" stroke-width="0.220488" points="491.764,-103.593 498.886,-95.7494 488.427,-97.4397 491.764,-103.593"/>
</g>
<!-- &#45;8&#45;&gt;48 -->
<g id="edge77" class="edge"><title>&#45;8&#45;&gt;48</title>
<path fill="none" stroke="green" stroke-width="0.494753" d="M148.369,-141.9C120.063,-131.129 51.2037,-104.868 46.3848,-102.468 45.0082,-101.783 43.6121,-101.05 42.2157,-100.286"/>
<polygon fill="green" stroke="green" stroke-width="0.494753" points="43.5972,-97.039 33.2006,-94.9987 40.0557,-103.077 43.5972,-97.039"/>
</g>
<!-- &#45;8&#45;&gt;49 -->
<g id="edge78" class="edge"><title>&#45;8&#45;&gt;49</title>
<path fill="none" stroke="green" stroke-width="0.33555" d="M149.011,-138.443C135.675,-129.034 113.238,-113.203 96.2579,-101.222"/>
<polygon fill="green" stroke="green" stroke-width="0.33555" points="98.1415,-98.2674 87.9527,-95.362 94.1058,-103.987 98.1415,-98.2674"/>
</g>
<!-- &#45;8&#45;&gt;50 -->
<g id="edge79" class="edge"><title>&#45;8&#45;&gt;50</title>
<path fill="none" stroke="red" stroke-width="0.179964" d="M156.201,-138.443C152.414,-131.178 146.63,-120.084 141.316,-109.889"/>
<polygon fill="red" stroke="red" stroke-width="0.179964" points="144.365,-108.166 136.639,-100.916 138.158,-111.402 144.365,-108.166"/>
</g>
<!-- &#45;8&#45;&gt;51 -->
<g id="edge80" class="edge"><title>&#45;8&#45;&gt;51</title>
<path fill="none" stroke="green" stroke-width="0.245145" d="M163.392,-138.443C166.004,-131.472 169.936,-120.977 173.624,-111.133"/>
<polygon fill="green" stroke="green" stroke-width="0.245145" points="176.942,-112.254 177.173,-101.662 170.387,-109.798 176.942,-112.254"/>
</g>
<!-- 0 -->
<g id="node9" class="node"><title>0</title>
<ellipse fill="lightblue" stroke="black" cx="240.385" cy="-14.8492" rx="14.7" ry="14.7"/>
<text text-anchor="middle" x="240.385" y="-12.6492" font-family="Times New Roman,serif" font-size="9.00">0</text>
</g>
<!-- 1 -->
<g id="node10" class="node"><title>1</title>
<ellipse fill="lightblue" stroke="black" cx="291.385" cy="-14.8492" rx="14.7" ry="14.7"/>
<text text-anchor="middle" x="291.385" y="-12.6492" font-family="Times New Roman,serif" font-size="9.00">1</text>
</g>
<!-- 42&#45;&gt;0 -->
<g id="edge81" class="edge"><title>42&#45;&gt;0</title>
<path fill="none" stroke="red" stroke-width="0.279468" d="M238.91,-65.4183C239.141,-57.6491 239.416,-48.4001 239.666,-40.0073"/>
<polygon fill="red" stroke="red" stroke-width="0.279468" points="243.165,-40.11 239.964,-30.0103 236.168,-39.9018 243.165,-40.11"/>
</g>
<!-- 42&#45;&gt;1 -->
<g id="edge82" class="edge"><title>42&#45;&gt;1</title>
<path fill="none" stroke="red" stroke-width="0.448634" d="M249.366,-69.1523C257.118,-59.3189 267.605,-46.0157 276.163,-35.1596"/>
<polygon fill="red" stroke="red" stroke-width="0.448634" points="279.081,-37.111 282.523,-27.0909 273.584,-32.7775 279.081,-37.111"/>
</g>
<!-- 43&#45;&gt;0 -->
<g id="edge83" class="edge"><title>43&#45;&gt;0</title>
<path fill="none" stroke="red" stroke-width="0.253267" d="M282.403,-69.1523C274.652,-59.3189 264.165,-46.0157 255.607,-35.1596"/>
<polygon fill="red" stroke="red" stroke-width="0.253267" points="258.186,-32.7775 249.246,-27.0909 252.689,-37.111 258.186,-32.7775"/>
</g>
<!-- 43&#45;&gt;1 -->
<g id="edge84" class="edge"><title>43&#45;&gt;1</title>
<path fill="none" stroke="green" stroke-width="0.216603" d="M292.859,-65.4183C292.628,-57.6491 292.353,-48.4001 292.103,-40.0073"/>
<polygon fill="green" stroke="green" stroke-width="0.216603" points="295.602,-39.9018 291.806,-30.0103 288.605,-40.11 295.602,-39.9018"/>
</g>
<!-- 44&#45;&gt;0 -->
<g id="edge85" class="edge"><title>44&#45;&gt;0</title>
<path fill="none" stroke="green" stroke-width="0.310655" d="M332.911,-73.4503C314.112,-61.7473 282.316,-41.9528 261.335,-28.8915"/>
<polygon fill="green" stroke="green" stroke-width="0.310655" points="263.147,-25.8971 252.808,-23.5834 259.448,-31.8396 263.147,-25.8971"/>
</g>
<!-- 44&#45;&gt;1 -->
<g id="edge86" class="edge"><title>44&#45;&gt;1</title>
<path fill="none" stroke="red" stroke-width="0.20048" d="M336.85,-69.4775C328.347,-59.4482 316.677,-45.6828 307.29,-34.6096"/>
<polygon fill="red" stroke="red" stroke-width="0.20048" points="309.782,-32.1375 300.646,-26.7731 304.443,-36.6642 309.782,-32.1375"/>
</g>
<!-- 45&#45;&gt;0 -->
<g id="edge87" class="edge"><title>45&#45;&gt;0</title>
<path fill="none" stroke="green" stroke-width="0.229184" d="M388.635,-73.0313C384.461,-70.4364 379.84,-67.7886 375.385,-65.6985 329.579,-44.2073 314.03,-49.3013 267.385,-29.6985 265.749,-29.0109 264.076,-28.2645 262.404,-27.4866"/>
<polygon fill="green" stroke="green" stroke-width="0.229184" points="263.619,-24.1827 253.105,-22.8779 260.511,-30.4546 263.619,-24.1827"/>
</g>
<!-- 45&#45;&gt;1 -->
<g id="edge88" class="edge"><title>45&#45;&gt;1</title>
<path fill="none" stroke="red" stroke-width="0.296342" d="M388.014,-73.4632C383.92,-70.9218 379.493,-68.1927 375.385,-65.6985 354.3,-52.8984 330.058,-38.5512 313.053,-28.5471"/>
<polygon fill="red" stroke="red" stroke-width="0.296342" points="314.35,-25.2503 303.955,-23.2032 310.805,-31.286 314.35,-25.2503"/>
</g>
<!-- 46&#45;&gt;0 -->
<g id="edge89" class="edge"><title>46&#45;&gt;0</title>
<path fill="none" stroke="green" stroke-width="0.140821" d="M443.771,-72.7201C439.598,-70.124 434.943,-67.5534 430.385,-65.6985 361.667,-37.7324 337.187,-54.8352 267.385,-29.6985 265.715,-29.0972 264.017,-28.4143 262.328,-27.6818"/>
<polygon fill="green" stroke="green" stroke-width="0.140821" points="263.519,-24.3701 252.993,-23.1648 260.47,-30.6712 263.519,-24.3701"/>
</g>
<!-- 46&#45;&gt;1 -->
<g id="edge90" class="edge"><title>46&#45;&gt;1</title>
<path fill="none" stroke="green" stroke-width="0.206987" d="M443.603,-73.0977C439.43,-70.5031 434.816,-67.8388 430.385,-65.6985 391.492,-46.9119 343.589,-31.2624 315.379,-22.7576"/>
<polygon fill="green" stroke="green" stroke-width="0.206987" points="316.174,-19.3427 305.592,-19.8562 314.185,-26.0541 316.174,-19.3427"/>
</g>
<!-- 47&#45;&gt;0 -->
<g id="edge91" class="edge"><title>47&#45;&gt;0</title>
<path fill="none" stroke="green" stroke-width="0.390934" d="M498.835,-72.5573C494.662,-69.9605 489.991,-67.4303 485.385,-65.6985 393.466,-31.1372 360.638,-60.4775 267.385,-29.6985 265.699,-29.1422 263.99,-28.4926 262.292,-27.7837"/>
<polygon fill="green" stroke="green" stroke-width="0.390934" points="263.473,-24.4689 252.941,-23.3145 260.455,-30.7846 263.473,-24.4689"/>
</g>
<!-- 47&#45;&gt;1 -->
<g id="edge92" class="edge"><title>47&#45;&gt;1</title>
<path fill="none" stroke="green" stroke-width="0.102956" d="M498.728,-72.8226C494.555,-70.227 489.91,-67.6309 485.385,-65.6985 427.169,-40.8398 353.656,-26.129 316.034,-19.7034"/>
<polygon fill="green" stroke="green" stroke-width="0.102956" points="316.428,-16.2211 305.991,-18.0409 315.285,-23.1271 316.428,-16.2211"/>
</g>
<!-- 48&#45;&gt;0 -->
<g id="edge93" class="edge"><title>48&#45;&gt;0</title>
<path fill="none" stroke="red" stroke-width="0.184747" d="M33.0412,-72.8226C37.2144,-70.227 41.8593,-67.6309 46.3848,-65.6985 104.6,-40.8398 178.114,-26.129 215.736,-19.7034"/>
<polygon fill="red" stroke="red" stroke-width="0.184747" points="216.485,-23.1271 225.779,-18.0409 215.341,-16.2211 216.485,-23.1271"/>
</g>
<!-- 48&#45;&gt;1 -->
<g id="edge94" class="edge"><title>48&#45;&gt;1</title>
<path fill="none" stroke="red" stroke-width="0.290449" d="M32.9347,-72.5573C37.1075,-69.9605 41.7788,-67.4303 46.3848,-65.6985 138.303,-31.1372 171.132,-60.4775 264.385,-29.6985 266.07,-29.1422 267.779,-28.4926 269.477,-27.7837"/>
<polygon fill="red" stroke="red" stroke-width="0.290449" points="271.315,-30.7846 278.828,-23.3145 268.296,-24.4689 271.315,-30.7846"/>
</g>
<!-- 49&#45;&gt;0 -->
<g id="edge95" class="edge"><title>49&#45;&gt;0</title>
<path fill="none" stroke="green" stroke-width="0.260757" d="M88.1662,-73.0977C92.34,-70.5031 96.9538,-67.8388 101.385,-65.6985 140.277,-46.9119 188.181,-31.2624 216.39,-22.7576"/>
<polygon fill="green" stroke="green" stroke-width="0.260757" points="217.585,-26.0541 226.178,-19.8562 215.595,-19.3427 217.585,-26.0541"/>
</g>
<!-- 49&#45;&gt;1 -->
<g id="edge96" class="edge"><title>49&#45;&gt;1</title>
<path fill="none" stroke="red" stroke-width="0.115081" d="M87.9984,-72.7201C92.1715,-70.124 96.827,-67.5534 101.385,-65.6985 170.102,-37.7324 194.583,-54.8352 264.385,-29.6985 266.055,-29.0972 267.752,-28.4143 269.442,-27.6818"/>
<polygon fill="red" stroke="red" stroke-width="0.115081" points="271.3,-30.6712 278.776,-23.1648 268.25,-24.3701 271.3,-30.6712"/>
</g>
<!-- 50&#45;&gt;0 -->
<g id="edge97" class="edge"><title>50&#45;&gt;0</title>
<path fill="none" stroke="red" stroke-width="0.169938" d="M143.755,-73.4632C147.849,-70.9218 152.276,-68.1927 156.385,-65.6985 177.469,-52.8984 201.712,-38.5512 218.717,-28.5471"/>
<polygon fill="red" stroke="red" stroke-width="0.169938" points="220.965,-31.286 227.814,-23.2032 217.419,-25.2503 220.965,-31.286"/>
</g>
<!-- 50&#45;&gt;1 -->
<g id="edge98" class="edge"><title>50&#45;&gt;1</title>
<path fill="none" stroke="green" stroke-width="0.206821" d="M143.135,-73.0313C147.308,-70.4364 151.93,-67.7886 156.385,-65.6985 202.19,-44.2073 217.74,-49.3013 264.385,-29.6985 266.021,-29.0109 267.694,-28.2645 269.366,-27.4866"/>
<polygon fill="green" stroke="green" stroke-width="0.206821" points="271.259,-30.4546 278.665,-22.8779 268.15,-24.1827 271.259,-30.4546"/>
</g>
<!-- 51&#45;&gt;0 -->
<g id="edge99" class="edge"><title>51&#45;&gt;0</title>
<path fill="none" stroke="green" stroke-width="0.142687" d="M194.92,-69.4775C203.422,-59.4482 215.092,-45.6828 224.48,-34.6096"/>
<polygon fill="green" stroke="green" stroke-width="0.142687" points="227.327,-36.6642 231.124,-26.7731 221.987,-32.1375 227.327,-36.6642"/>
</g>
<!-- 51&#45;&gt;1 -->
<g id="edge100" class="edge"><title>51&#45;&gt;1</title>
<path fill="none" stroke="green" stroke-width="0.156738" d="M198.859,-73.4503C217.657,-61.7473 249.454,-41.9528 270.435,-28.8915"/>
<polygon fill="green" stroke="green" stroke-width="0.156738" points="272.322,-31.8396 278.961,-23.5834 268.622,-25.8971 272.322,-31.8396"/>
</g>
</g>
</svg>
