<?xml version="1.0" encoding="UTF-8" standalone="no"?>
<!DOCTYPE svg PUBLIC "-//W3C//DTD SVG 1.1//EN"
 "http://www.w3.org/Graphics/SVG/1.1/DTD/svg11.dtd">
<!-- Generated by graphviz version 2.38.0 (20140413.2041)
 -->
<!-- Title: %3 Pages: 1 -->
<svg width="580pt" height="164pt"
 viewBox="0.00 0.00 579.98 164.47" xmlns="http://www.w3.org/2000/svg" xmlns:xlink="http://www.w3.org/1999/xlink">
<g id="graph0" class="graph" transform="scale(1 1) rotate(0) translate(4 160.468)">
<title>%3</title>
<polygon fill="white" stroke="none" points="-4,4 -4,-160.468 575.981,-160.468 575.981,4 -4,4"/>
<!-- &#45;1 -->
<g id="node1" class="node"><title>&#45;1</title>
<polygon fill="lightgray" stroke="black" points="297.487,-156.468 273.487,-156.468 273.487,-138.468 297.487,-138.468 297.487,-156.468"/>
<text text-anchor="middle" x="285.487" y="-145.268" font-family="Times New Roman,serif" font-size="9.00">&#45;1</text>
</g>
<!-- 0 -->
<g id="node2" class="node"><title>0</title>
<ellipse fill="lightblue" stroke="black" cx="258.487" cy="-14.8492" rx="14.7" ry="14.7"/>
<text text-anchor="middle" x="258.487" y="-12.6492" font-family="Times New Roman,serif" font-size="9.00">0</text>
</g>
<!-- &#45;1&#45;&gt;0 -->
<g id="edge31" class="edge"><title>&#45;1&#45;&gt;0</title>
<path fill="none" stroke="green" stroke-width="0.470893" d="M273.459,-146.498C225.129,-146.339 46.0187,-142.987 11.487,-102.468 -50.8933,-29.2712 158.675,-17.8999 233.184,-16.1569"/>
<polygon fill="green" stroke="green" stroke-width="0.470893" points="233.605,-19.6495 243.536,-15.9575 233.47,-12.6508 233.605,-19.6495"/>
</g>
<!-- 1 -->
<g id="node3" class="node"><title>1</title>
<ellipse fill="lightblue" stroke="black" cx="313.487" cy="-14.8492" rx="14.7" ry="14.7"/>
<text text-anchor="middle" x="313.487" y="-12.6492" font-family="Times New Roman,serif" font-size="9.00">1</text>
</g>
<!-- &#45;1&#45;&gt;1 -->
<g id="edge32" class="edge"><title>&#45;1&#45;&gt;1</title>
<path fill="none" stroke="green" stroke-width="0.114835" d="M297.558,-146.505C346.063,-146.375 525.821,-143.122 560.487,-102.468 622.888,-29.289 413.306,-17.9061 338.792,-16.1585"/>
<polygon fill="green" stroke="green" stroke-width="0.114835" points="338.505,-12.6524 328.439,-15.9585 338.37,-19.6511 338.505,-12.6524"/>
</g>
<!-- 72 -->
<g id="node4" class="node"><title>72</title>
<ellipse fill="white" stroke="black" cx="478.487" cy="-84.0833" rx="18.2703" ry="18.2703"/>
<text text-anchor="middle" x="478.487" y="-81.8833" font-family="Times New Roman,serif" font-size="9.00">72</text>
</g>
<!-- &#45;1&#45;&gt;72 -->
<g id="edge1" class="edge"><title>&#45;1&#45;&gt;72</title>
<path fill="none" stroke="green" stroke-width="0.247675" d="M297.489,-144.523C325.267,-139.755 395.791,-126.118 450.487,-102.468 451.898,-101.858 453.322,-101.184 454.74,-100.467"/>
<polygon fill="green" stroke="green" stroke-width="0.247675" points="456.848,-103.295 463.819,-95.3167 453.394,-97.2064 456.848,-103.295"/>
</g>
<!-- 73 -->
<g id="node5" class="node"><title>73</title>
<ellipse fill="white" stroke="black" cx="533.487" cy="-84.0833" rx="18.2703" ry="18.2703"/>
<text text-anchor="middle" x="533.487" y="-81.8833" font-family="Times New Roman,serif" font-size="9.00">73</text>
</g>
<!-- &#45;1&#45;&gt;73 -->
<g id="edge2" class="edge"><title>&#45;1&#45;&gt;73</title>
<path fill="none" stroke="green" stroke-width="0.139404" d="M297.843,-145.549C331.999,-142.686 430.144,-132.257 505.487,-102.468 506.917,-101.903 508.355,-101.264 509.785,-100.575"/>
<polygon fill="green" stroke="green" stroke-width="0.139404" points="511.859,-103.426 518.898,-95.5068 508.457,-97.3082 511.859,-103.426"/>
</g>
<!-- 74 -->
<g id="node6" class="node"><title>74</title>
<ellipse fill="white" stroke="black" cx="38.487" cy="-84.0833" rx="18.2703" ry="18.2703"/>
<text text-anchor="middle" x="38.487" y="-81.8833" font-family="Times New Roman,serif" font-size="9.00">74</text>
</g>
<!-- &#45;1&#45;&gt;74 -->
<g id="edge3" class="edge"><title>&#45;1&#45;&gt;74</title>
<path fill="none" stroke="green" stroke-width="0.143585" d="M273.187,-145.539C239.186,-142.649 141.487,-132.16 66.487,-102.468 65.0572,-101.902 63.619,-101.263 62.19,-100.573"/>
<polygon fill="green" stroke="green" stroke-width="0.143585" points="63.5178,-97.3068 53.0775,-95.5042 60.115,-103.424 63.5178,-97.3068"/>
</g>
<!-- 75 -->
<g id="node7" class="node"><title>75</title>
<ellipse fill="white" stroke="black" cx="93.487" cy="-84.0833" rx="18.2703" ry="18.2703"/>
<text text-anchor="middle" x="93.487" y="-81.8833" font-family="Times New Roman,serif" font-size="9.00">75</text>
</g>
<!-- &#45;1&#45;&gt;75 -->
<g id="edge4" class="edge"><title>&#45;1&#45;&gt;75</title>
<path fill="none" stroke="green" stroke-width="0.292209" d="M273.143,-144.438C245.253,-139.579 175.585,-125.909 121.487,-102.468 120.076,-101.857 118.653,-101.182 117.235,-100.464"/>
<polygon fill="green" stroke="green" stroke-width="0.292209" points="118.582,-97.204 108.157,-95.3122 115.127,-103.292 118.582,-97.204"/>
</g>
<!-- 76 -->
<g id="node8" class="node"><title>76</title>
<ellipse fill="white" stroke="black" cx="148.487" cy="-84.0833" rx="18.2703" ry="18.2703"/>
<text text-anchor="middle" x="148.487" y="-81.8833" font-family="Times New Roman,serif" font-size="9.00">76</text>
</g>
<!-- &#45;1&#45;&gt;76 -->
<g id="edge5" class="edge"><title>&#45;1&#45;&gt;76</title>
<path fill="none" stroke="green" stroke-width="0.116872" d="M273.416,-142.366C252.992,-135.256 210.517,-119.739 176.487,-102.468 175.116,-101.772 173.724,-101.031 172.331,-100.261"/>
<polygon fill="green" stroke="green" stroke-width="0.116872" points="173.718,-97.0158 163.325,-94.9542 170.164,-103.047 173.718,-97.0158"/>
</g>
<!-- 77 -->
<g id="node9" class="node"><title>77</title>
<ellipse fill="white" stroke="black" cx="203.487" cy="-84.0833" rx="18.2703" ry="18.2703"/>
<text text-anchor="middle" x="203.487" y="-81.8833" font-family="Times New Roman,serif" font-size="9.00">77</text>
</g>
<!-- &#45;1&#45;&gt;77 -->
<g id="edge6" class="edge"><title>&#45;1&#45;&gt;77</title>
<path fill="none" stroke="red" stroke-width="0.164592" d="M274.767,-138.443C262.46,-129.23 241.928,-113.86 226.052,-101.976"/>
<polygon fill="red" stroke="red" stroke-width="0.164592" points="227.897,-98.9842 217.794,-95.7932 223.702,-104.588 227.897,-98.9842"/>
</g>
<!-- 78 -->
<g id="node10" class="node"><title>78</title>
<ellipse fill="white" stroke="black" cx="258.487" cy="-84.0833" rx="18.2703" ry="18.2703"/>
<text text-anchor="middle" x="258.487" y="-81.8833" font-family="Times New Roman,serif" font-size="9.00">78</text>
</g>
<!-- &#45;1&#45;&gt;78 -->
<g id="edge7" class="edge"><title>&#45;1&#45;&gt;78</title>
<path fill="none" stroke="green" stroke-width="0.447764" d="M281.957,-138.443C278.838,-131.35 274.113,-120.609 269.718,-110.618"/>
<polygon fill="green" stroke="green" stroke-width="0.447764" points="272.899,-109.157 265.669,-101.412 266.492,-111.975 272.899,-109.157"/>
</g>
<!-- 79 -->
<g id="node11" class="node"><title>79</title>
<ellipse fill="white" stroke="black" cx="313.487" cy="-84.0833" rx="18.2703" ry="18.2703"/>
<text text-anchor="middle" x="313.487" y="-81.8833" font-family="Times New Roman,serif" font-size="9.00">79</text>
</g>
<!-- &#45;1&#45;&gt;79 -->
<g id="edge8" class="edge"><title>&#45;1&#45;&gt;79</title>
<path fill="none" stroke="green" stroke-width="0.257873" d="M289.148,-138.443C292.383,-131.35 297.282,-120.609 301.84,-110.618"/>
<polygon fill="green" stroke="green" stroke-width="0.257873" points="305.073,-111.963 306.039,-101.412 298.704,-109.058 305.073,-111.963"/>
</g>
<!-- 80 -->
<g id="node12" class="node"><title>80</title>
<ellipse fill="white" stroke="black" cx="368.487" cy="-84.0833" rx="18.2703" ry="18.2703"/>
<text text-anchor="middle" x="368.487" y="-81.8833" font-family="Times New Roman,serif" font-size="9.00">80</text>
</g>
<!-- &#45;1&#45;&gt;80 -->
<g id="edge9" class="edge"><title>&#45;1&#45;&gt;80</title>
<path fill="none" stroke="green" stroke-width="0.236392" d="M296.338,-138.443C308.795,-129.23 329.578,-113.86 345.646,-101.976"/>
<polygon fill="green" stroke="green" stroke-width="0.236392" points="348.047,-104.554 354.006,-95.7932 343.885,-98.9255 348.047,-104.554"/>
</g>
<!-- 81 -->
<g id="node13" class="node"><title>81</title>
<ellipse fill="white" stroke="black" cx="423.487" cy="-84.0833" rx="18.2703" ry="18.2703"/>
<text text-anchor="middle" x="423.487" y="-81.8833" font-family="Times New Roman,serif" font-size="9.00">81</text>
</g>
<!-- &#45;1&#45;&gt;81 -->
<g id="edge10" class="edge"><title>&#45;1&#45;&gt;81</title>
<path fill="none" stroke="green" stroke-width="0.160311" d="M297.672,-142.384C318.289,-135.3 361.161,-119.821 395.487,-102.468 396.859,-101.774 398.252,-101.035 399.646,-100.266"/>
<polygon fill="green" stroke="green" stroke-width="0.160311" points="401.812,-103.053 408.653,-94.9633 398.26,-97.0206 401.812,-103.053"/>
</g>
<!-- 72&#45;&gt;0 -->
<g id="edge11" class="edge"><title>72&#45;&gt;0</title>
<path fill="none" stroke="red" stroke-width="0.210952" d="M463.87,-72.7279C459.697,-70.1319 455.042,-67.5593 450.487,-65.6985 382.609,-37.9707 359.086,-52.7679 289.487,-29.6985 286.654,-28.7596 283.73,-27.6504 280.86,-26.4751"/>
<polygon fill="red" stroke="red" stroke-width="0.210952" points="282.094,-23.1943 271.531,-22.3753 279.278,-29.6028 282.094,-23.1943"/>
</g>
<!-- 72&#45;&gt;1 -->
<g id="edge12" class="edge"><title>72&#45;&gt;1</title>
<path fill="none" stroke="red" stroke-width="0.157283" d="M463.699,-73.1112C459.525,-70.5167 454.913,-67.8491 450.487,-65.6985 412.133,-47.0623 364.925,-31.3653 337.129,-22.8103"/>
<polygon fill="red" stroke="red" stroke-width="0.157283" points="338.07,-19.4385 327.485,-19.89 336.041,-26.138 338.07,-19.4385"/>
</g>
<!-- 73&#45;&gt;0 -->
<g id="edge13" class="edge"><title>73&#45;&gt;0</title>
<path fill="none" stroke="red" stroke-width="0.513738" d="M518.935,-72.5618C514.763,-69.9651 510.092,-67.4338 505.487,-65.6985 414.415,-31.378 382.673,-57.7754 289.487,-29.6985 286.63,-28.8376 283.69,-27.7756 280.813,-26.6257"/>
<polygon fill="red" stroke="red" stroke-width="0.513738" points="282.043,-23.3436 271.478,-22.5421 279.237,-29.7568 282.043,-23.3436"/>
</g>
<!-- 73&#45;&gt;1 -->
<g id="edge14" class="edge"><title>73&#45;&gt;1</title>
<path fill="none" stroke="green" stroke-width="0.211742" d="M518.827,-72.8301C514.654,-70.2345 510.01,-67.6366 505.487,-65.6985 448.009,-41.0695 375.476,-26.3001 338.16,-19.7942"/>
<polygon fill="green" stroke="green" stroke-width="0.211742" points="338.631,-16.3242 328.187,-18.1076 337.464,-23.2262 338.631,-16.3242"/>
</g>
<!-- 74&#45;&gt;0 -->
<g id="edge15" class="edge"><title>74&#45;&gt;0</title>
<path fill="none" stroke="red" stroke-width="0.181334" d="M53.1466,-72.8301C57.3199,-70.2345 61.9639,-67.6366 66.487,-65.6985 123.965,-41.0695 196.498,-26.3001 233.814,-19.7942"/>
<polygon fill="red" stroke="red" stroke-width="0.181334" points="234.51,-23.2262 243.787,-18.1076 233.343,-16.3242 234.51,-23.2262"/>
</g>
<!-- 74&#45;&gt;1 -->
<g id="edge16" class="edge"><title>74&#45;&gt;1</title>
<path fill="none" stroke="red" stroke-width="0.273092" d="M53.0386,-72.5618C57.2115,-69.9651 61.8823,-67.4338 66.487,-65.6985 157.559,-31.378 189.301,-57.7754 282.487,-29.6985 285.344,-28.8376 288.284,-27.7756 291.161,-26.6257"/>
<polygon fill="red" stroke="red" stroke-width="0.273092" points="292.737,-29.7568 300.496,-22.5421 289.931,-23.3436 292.737,-29.7568"/>
</g>
<!-- 75&#45;&gt;0 -->
<g id="edge17" class="edge"><title>75&#45;&gt;0</title>
<path fill="none" stroke="red" stroke-width="0.145775" d="M108.275,-73.1112C112.449,-70.5167 117.061,-67.8491 121.487,-65.6985 159.841,-47.0623 207.049,-31.3653 234.845,-22.8103"/>
<polygon fill="red" stroke="red" stroke-width="0.145775" points="235.933,-26.138 244.489,-19.89 233.904,-19.4385 235.933,-26.138"/>
</g>
<!-- 75&#45;&gt;1 -->
<g id="edge18" class="edge"><title>75&#45;&gt;1</title>
<path fill="none" stroke="green" stroke-width="0.68382" d="M108.104,-72.7279C112.277,-70.1319 116.932,-67.5593 121.487,-65.6985 189.365,-37.9707 212.888,-52.7679 282.487,-29.6985 285.32,-28.7596 288.244,-27.6504 291.114,-26.4751"/>
<polygon fill="green" stroke="green" stroke-width="0.68382" points="292.696,-29.6028 300.443,-22.3753 289.88,-23.1943 292.696,-29.6028"/>
</g>
<!-- 76&#45;&gt;0 -->
<g id="edge19" class="edge"><title>76&#45;&gt;0</title>
<path fill="none" stroke="red" stroke-width="0.198183" d="M163.875,-73.4927C167.969,-70.9512 172.392,-68.2145 176.487,-65.6985 197.016,-53.086 220.519,-38.8153 237.085,-28.7848"/>
<polygon fill="red" stroke="red" stroke-width="0.198183" points="239.218,-31.5849 245.962,-23.4135 235.594,-25.5959 239.218,-31.5849"/>
</g>
<!-- 76&#45;&gt;1 -->
<g id="edge20" class="edge"><title>76&#45;&gt;1</title>
<path fill="none" stroke="green" stroke-width="0.243078" d="M163.245,-73.0479C167.418,-70.4531 172.038,-67.8012 176.487,-65.6985 221.47,-44.438 236.168,-47.8652 282.487,-29.6985 285.265,-28.6089 288.157,-27.4086 291.008,-26.1841"/>
<polygon fill="green" stroke="green" stroke-width="0.243078" points="292.603,-29.3057 300.326,-22.0529 289.766,-22.9064 292.603,-29.3057"/>
</g>
<!-- 77&#45;&gt;0 -->
<g id="edge21" class="edge"><title>77&#45;&gt;0</title>
<path fill="none" stroke="green" stroke-width="0.287344" d="M214.883,-69.1523C223.007,-59.2216 234.025,-45.7519 242.954,-34.8379"/>
<polygon fill="green" stroke="green" stroke-width="0.287344" points="245.668,-37.0471 249.291,-27.0909 240.25,-32.6149 245.668,-37.0471"/>
</g>
<!-- 77&#45;&gt;1 -->
<g id="edge22" class="edge"><title>77&#45;&gt;1</title>
<path fill="none" stroke="red" stroke-width="0.279209" d="M218.875,-73.4927C222.969,-70.9512 227.392,-68.2145 231.487,-65.6985 252.016,-53.086 275.519,-38.8153 292.085,-28.7848"/>
<polygon fill="red" stroke="red" stroke-width="0.279209" points="294.218,-31.5849 300.962,-23.4135 290.594,-25.5959 294.218,-31.5849"/>
</g>
<!-- 78&#45;&gt;0 -->
<g id="edge23" class="edge"><title>78&#45;&gt;0</title>
<path fill="none" stroke="green" stroke-width="0.158648" d="M258.487,-65.4183C258.487,-57.7354 258.487,-48.6054 258.487,-40.2874"/>
<polygon fill="green" stroke="green" stroke-width="0.158648" points="261.987,-40.0103 258.487,-30.0103 254.987,-40.0103 261.987,-40.0103"/>
</g>
<!-- 78&#45;&gt;1 -->
<g id="edge24" class="edge"><title>78&#45;&gt;1</title>
<path fill="none" stroke="green" stroke-width="0.337567" d="M269.883,-69.1523C278.007,-59.2216 289.025,-45.7519 297.954,-34.8379"/>
<polygon fill="green" stroke="green" stroke-width="0.337567" points="300.668,-37.0471 304.291,-27.0909 295.25,-32.6149 300.668,-37.0471"/>
</g>
<!-- 79&#45;&gt;0 -->
<g id="edge25" class="edge"><title>79&#45;&gt;0</title>
<path fill="none" stroke="red" stroke-width="0.167979" d="M302.091,-69.1523C293.967,-59.2216 282.949,-45.7519 274.02,-34.8379"/>
<polygon fill="red" stroke="red" stroke-width="0.167979" points="276.724,-32.6149 267.683,-27.0909 271.306,-37.0471 276.724,-32.6149"/>
</g>
<!-- 79&#45;&gt;1 -->
<g id="edge26" class="edge"><title>79&#45;&gt;1</title>
<path fill="none" stroke="green" stroke-width="0.448455" d="M313.487,-65.4183C313.487,-57.7354 313.487,-48.6054 313.487,-40.2874"/>
<polygon fill="green" stroke="green" stroke-width="0.448455" points="316.987,-40.0103 313.487,-30.0103 309.987,-40.0103 316.987,-40.0103"/>
</g>
<!-- 80&#45;&gt;0 -->
<g id="edge27" class="edge"><title>80&#45;&gt;0</title>
<path fill="none" stroke="green" stroke-width="0.269081" d="M353.099,-73.4927C349.005,-70.9512 344.582,-68.2145 340.487,-65.6985 319.958,-53.086 296.455,-38.8153 279.889,-28.7848"/>
<polygon fill="green" stroke="green" stroke-width="0.269081" points="281.38,-25.5959 271.012,-23.4135 277.756,-31.5849 281.38,-25.5959"/>
</g>
<!-- 80&#45;&gt;1 -->
<g id="edge28" class="edge"><title>80&#45;&gt;1</title>
<path fill="none" stroke="red" stroke-width="0.170222" d="M357.091,-69.1523C348.967,-59.2216 337.949,-45.7519 329.02,-34.8379"/>
<polygon fill="red" stroke="red" stroke-width="0.170222" points="331.724,-32.6149 322.683,-27.0909 326.306,-37.0471 331.724,-32.6149"/>
</g>
<!-- 81&#45;&gt;0 -->
<g id="edge29" class="edge"><title>81&#45;&gt;0</title>
<path fill="none" stroke="red" stroke-width="0.283708" d="M408.729,-73.0479C404.556,-70.4531 399.936,-67.8012 395.487,-65.6985 350.504,-44.438 335.806,-47.8652 289.487,-29.6985 286.709,-28.6089 283.817,-27.4086 280.966,-26.1841"/>
<polygon fill="red" stroke="red" stroke-width="0.283708" points="282.208,-22.9064 271.648,-22.0529 279.371,-29.3057 282.208,-22.9064"/>
</g>
<!-- 81&#45;&gt;1 -->
<g id="edge30" class="edge"><title>81&#45;&gt;1</title>
<path fill="none" stroke="green" stroke-width="0.392089" d="M408.099,-73.4927C404.005,-70.9512 399.582,-68.2145 395.487,-65.6985 374.958,-53.086 351.455,-38.8153 334.889,-28.7848"/>
<polygon fill="green" stroke="green" stroke-width="0.392089" points="336.38,-25.5959 326.012,-23.4135 332.756,-31.5849 336.38,-25.5959"/>
</g>
</g>
</svg>
