<?xml version="1.0" encoding="UTF-8" standalone="no"?>
<!DOCTYPE svg PUBLIC "-//W3C//DTD SVG 1.1//EN"
 "http://www.w3.org/Graphics/SVG/1.1/DTD/svg11.dtd">
<!-- Generated by graphviz version 2.38.0 (20140413.2041)
 -->
<!-- Title: %3 Pages: 1 -->
<svg width="608pt" height="170pt"
 viewBox="0.00 0.00 608.15 170.12" xmlns="http://www.w3.org/2000/svg" xmlns:xlink="http://www.w3.org/1999/xlink">
<g id="graph0" class="graph" transform="scale(1 1) rotate(0) translate(4 166.125)">
<title>%3</title>
<polygon fill="white" stroke="none" points="-4,4 -4,-166.125 604.147,-166.125 604.147,4 -4,4"/>
<!-- &#45;1 -->
<g id="node1" class="node"><title>&#45;1</title>
<polygon fill="lightgray" stroke="black" points="267.213,-162.125 243.213,-162.125 243.213,-144.125 267.213,-144.125 267.213,-162.125"/>
<text text-anchor="middle" x="255.213" y="-150.925" font-family="Times New Roman,serif" font-size="9.00">&#45;1</text>
</g>
<!-- 160 -->
<g id="node11" class="node"><title>160</title>
<ellipse fill="white" stroke="black" cx="201.213" cy="-86.9117" rx="21.4286" ry="21.4286"/>
<text text-anchor="middle" x="201.213" y="-84.7117" font-family="Times New Roman,serif" font-size="9.00">160</text>
</g>
<!-- &#45;1&#45;&gt;160 -->
<g id="edge8" class="edge"><title>&#45;1&#45;&gt;160</title>
<path fill="none" stroke="red" stroke-width="0.212045" d="M248.374,-143.992C241.523,-135.845 230.648,-122.914 221.067,-111.52"/>
<polygon fill="red" stroke="red" stroke-width="0.212045" points="223.51,-108.987 214.395,-103.587 218.153,-113.493 223.51,-108.987"/>
</g>
<!-- 161 -->
<g id="node12" class="node"><title>161</title>
<ellipse fill="white" stroke="black" cx="21.2132" cy="-86.9117" rx="21.4286" ry="21.4286"/>
<text text-anchor="middle" x="21.2132" y="-84.7117" font-family="Times New Roman,serif" font-size="9.00">161</text>
</g>
<!-- &#45;1&#45;&gt;161 -->
<g id="edge9" class="edge"><title>&#45;1&#45;&gt;161</title>
<path fill="none" stroke="red" stroke-width="0.232767" d="M242.894,-147.033C240.072,-145.979 237.064,-144.942 234.213,-144.125 154.529,-121.288 127.768,-139.913 51.2132,-108.125 49.6182,-107.463 48.0197,-106.709 46.4368,-105.892"/>
<polygon fill="red" stroke="red" stroke-width="0.232767" points="48.0637,-102.788 37.6757,-100.705 44.4972,-108.811 48.0637,-102.788"/>
</g>
<!-- 152 -->
<g id="node14" class="node"><title>152</title>
<ellipse fill="white" stroke="black" cx="261.213" cy="-86.9117" rx="21.4286" ry="21.4286"/>
<text text-anchor="middle" x="261.213" y="-84.7117" font-family="Times New Roman,serif" font-size="9.00">152</text>
</g>
<!-- &#45;1&#45;&gt;152 -->
<g id="edge1" class="edge"><title>&#45;1&#45;&gt;152</title>
<path fill="none" stroke="green" stroke-width="0.465468" d="M255.973,-143.992C256.589,-137.4 257.498,-127.674 258.386,-118.166"/>
<polygon fill="green" stroke="green" stroke-width="0.465468" points="261.882,-118.375 259.328,-108.093 254.912,-117.724 261.882,-118.375"/>
</g>
<!-- 153 -->
<g id="node15" class="node"><title>153</title>
<ellipse fill="white" stroke="black" cx="321.213" cy="-86.9117" rx="21.4286" ry="21.4286"/>
<text text-anchor="middle" x="321.213" y="-84.7117" font-family="Times New Roman,serif" font-size="9.00">153</text>
</g>
<!-- &#45;1&#45;&gt;153 -->
<g id="edge2" class="edge"><title>&#45;1&#45;&gt;153</title>
<path fill="none" stroke="green" stroke-width="0.106357" d="M263.572,-143.992C272.477,-135.329 286.943,-121.254 299.155,-109.373"/>
<polygon fill="green" stroke="green" stroke-width="0.106357" points="301.671,-111.808 306.398,-102.326 296.79,-106.791 301.671,-111.808"/>
</g>
<!-- 154 -->
<g id="node16" class="node"><title>154</title>
<ellipse fill="white" stroke="black" cx="441.213" cy="-86.9117" rx="21.4286" ry="21.4286"/>
<text text-anchor="middle" x="441.213" y="-84.7117" font-family="Times New Roman,serif" font-size="9.00">154</text>
</g>
<!-- &#45;1&#45;&gt;154 -->
<g id="edge3" class="edge"><title>&#45;1&#45;&gt;154</title>
<path fill="none" stroke="green" stroke-width="0.479091" d="M267.575,-147.173C270.394,-146.111 273.392,-145.036 276.213,-144.125 335.306,-125.046 354.686,-133.828 411.213,-108.125 412.785,-107.41 414.366,-106.615 415.935,-105.767"/>
<polygon fill="green" stroke="green" stroke-width="0.479091" points="417.914,-108.66 424.656,-100.488 414.289,-102.672 417.914,-108.66"/>
</g>
<!-- 155 -->
<g id="node17" class="node"><title>155</title>
<ellipse fill="white" stroke="black" cx="381.213" cy="-86.9117" rx="21.4286" ry="21.4286"/>
<text text-anchor="middle" x="381.213" y="-84.7117" font-family="Times New Roman,serif" font-size="9.00">155</text>
</g>
<!-- &#45;1&#45;&gt;155 -->
<g id="edge4" class="edge"><title>&#45;1&#45;&gt;155</title>
<path fill="none" stroke="green" stroke-width="0.311656" stroke-dasharray="1,5" d="M267.346,-147.314C285.868,-139.804 322.114,-124.453 351.213,-108.125 352.719,-107.28 354.248,-106.383 355.777,-105.455"/>
<polygon fill="green" stroke="green" stroke-width="0.311656" points="357.846,-108.287 364.384,-99.9506 354.074,-102.39 357.846,-108.287"/>
</g>
<!-- 156 -->
<g id="node18" class="node"><title>156</title>
<ellipse fill="white" stroke="black" cx="141.213" cy="-86.9117" rx="21.4286" ry="21.4286"/>
<text text-anchor="middle" x="141.213" y="-84.7117" font-family="Times New Roman,serif" font-size="9.00">156</text>
</g>
<!-- &#45;1&#45;&gt;156 -->
<g id="edge5" class="edge"><title>&#45;1&#45;&gt;156</title>
<path fill="none" stroke="green" stroke-width="0.343319" d="M243.022,-146.267C226.47,-138.197 196.099,-122.965 171.213,-108.125 169.73,-107.24 168.219,-106.313 166.704,-105.361"/>
<polygon fill="green" stroke="green" stroke-width="0.343319" points="168.427,-102.307 158.136,-99.788 164.61,-108.175 168.427,-102.307"/>
</g>
<!-- 157 -->
<g id="node19" class="node"><title>157</title>
<ellipse fill="white" stroke="black" cx="81.2132" cy="-86.9117" rx="21.4286" ry="21.4286"/>
<text text-anchor="middle" x="81.2132" y="-84.7117" font-family="Times New Roman,serif" font-size="9.00">157</text>
</g>
<!-- &#45;1&#45;&gt;157 -->
<g id="edge6" class="edge"><title>&#45;1&#45;&gt;157</title>
<path fill="none" stroke="green" stroke-width="0.619032" d="M242.835,-147.223C240.016,-146.159 237.024,-145.07 234.213,-144.125 180.223,-125.972 162.777,-132.326 111.213,-108.125 109.65,-107.391 108.076,-106.582 106.512,-105.721"/>
<polygon fill="green" stroke="green" stroke-width="0.619032" points="108.166,-102.63 97.806,-100.41 104.52,-108.606 108.166,-102.63"/>
</g>
<!-- 158 -->
<g id="node20" class="node"><title>158</title>
<ellipse fill="white" stroke="black" cx="501.213" cy="-86.9117" rx="21.4286" ry="21.4286"/>
<text text-anchor="middle" x="501.213" y="-84.7117" font-family="Times New Roman,serif" font-size="9.00">158</text>
</g>
<!-- &#45;1&#45;&gt;158 -->
<g id="edge7" class="edge"><title>&#45;1&#45;&gt;158</title>
<path fill="none" stroke="green" stroke-width="1.54682" stroke-dasharray="1,5" d="M267.525,-147.008C270.347,-145.955 273.358,-144.925 276.213,-144.125 361.074,-120.34 389.624,-141.446 471.213,-108.125 472.812,-107.472 474.414,-106.726 475.999,-105.915"/>
<polygon fill="green" stroke="green" stroke-width="1.54682" points="477.931,-108.838 484.767,-100.743 474.375,-102.809 477.931,-108.838"/>
</g>
<!-- &#45;2 -->
<g id="node2" class="node"><title>&#45;2</title>
<polygon fill="lightgray" stroke="black" points="309.213,-162.125 285.213,-162.125 285.213,-144.125 309.213,-144.125 309.213,-162.125"/>
<text text-anchor="middle" x="297.213" y="-150.925" font-family="Times New Roman,serif" font-size="9.00">&#45;2</text>
</g>
<!-- &#45;2&#45;&gt;160 -->
<g id="edge17" class="edge"><title>&#45;2&#45;&gt;160</title>
<path fill="none" stroke="green" stroke-width="0.338383" d="M285.037,-144.033C271.784,-135.22 249.974,-120.699 231.213,-108.125 229.779,-107.163 228.306,-106.175 226.82,-105.177"/>
<polygon fill="green" stroke="green" stroke-width="0.338383" points="228.588,-102.148 218.337,-99.4705 224.681,-107.956 228.588,-102.148"/>
</g>
<!-- &#45;2&#45;&gt;161 -->
<g id="edge18" class="edge"><title>&#45;2&#45;&gt;161</title>
<path fill="none" stroke="red" stroke-width="0.231286" d="M284.915,-146.958C282.092,-145.907 279.078,-144.891 276.213,-144.125 178.379,-117.961 145.418,-145.292 51.2132,-108.125 49.6066,-107.491 47.9991,-106.76 46.4092,-105.96"/>
<polygon fill="red" stroke="red" stroke-width="0.231286" points="48.0268,-102.852 37.6282,-100.822 44.4915,-108.893 48.0268,-102.852"/>
</g>
<!-- &#45;2&#45;&gt;152 -->
<g id="edge10" class="edge"><title>&#45;2&#45;&gt;152</title>
<path fill="none" stroke="red" stroke-width="0.9429" d="M292.654,-143.992C288.498,-136.579 282.121,-125.205 276.194,-114.633"/>
<polygon fill="red" stroke="red" stroke-width="0.9429" points="279.111,-112.679 271.168,-105.668 273.005,-116.102 279.111,-112.679"/>
</g>
<!-- &#45;2&#45;&gt;153 -->
<g id="edge11" class="edge"><title>&#45;2&#45;&gt;153</title>
<path fill="none" stroke="green" stroke-width="0.160672" stroke-dasharray="1,5" d="M300.253,-143.992C302.872,-136.985 306.814,-126.438 310.575,-116.374"/>
<polygon fill="green" stroke="green" stroke-width="0.160672" points="313.854,-117.598 314.077,-107.005 307.297,-115.147 313.854,-117.598"/>
</g>
<!-- &#45;2&#45;&gt;154 -->
<g id="edge12" class="edge"><title>&#45;2&#45;&gt;154</title>
<path fill="none" stroke="red" stroke-width="0.143123" d="M309.542,-147.408C338.542,-136.307 408.827,-109.369 411.213,-108.125 412.745,-107.326 414.293,-106.466 415.838,-105.567"/>
<polygon fill="red" stroke="red" stroke-width="0.143123" points="417.875,-108.42 424.488,-100.143 414.157,-102.49 417.875,-108.42"/>
</g>
<!-- &#45;2&#45;&gt;155 -->
<g id="edge13" class="edge"><title>&#45;2&#45;&gt;155</title>
<path fill="none" stroke="red" stroke-width="0.158026" stroke-dasharray="1,5" d="M307.852,-143.992C320.032,-134.681 340.389,-119.12 356.572,-106.748"/>
<polygon fill="red" stroke="red" stroke-width="0.158026" points="358.77,-109.474 364.589,-100.62 354.519,-103.912 358.77,-109.474"/>
</g>
<!-- &#45;2&#45;&gt;156 -->
<g id="edge14" class="edge"><title>&#45;2&#45;&gt;156</title>
<path fill="none" stroke="green" stroke-width="0.394155" d="M284.802,-147.318C281.985,-146.249 279.001,-145.134 276.213,-144.125 229.823,-127.341 215.383,-130.097 171.213,-108.125 169.667,-107.356 168.107,-106.518 166.553,-105.637"/>
<polygon fill="green" stroke="green" stroke-width="0.394155" points="168.221,-102.553 157.877,-100.264 164.536,-108.504 168.221,-102.553"/>
</g>
<!-- &#45;2&#45;&gt;157 -->
<g id="edge15" class="edge"><title>&#45;2&#45;&gt;157</title>
<path fill="none" stroke="red" stroke-width="0.464681" d="M284.882,-147.076C282.06,-146.02 279.055,-144.971 276.213,-144.125 204.276,-122.705 180.233,-137.621 111.213,-108.125 109.625,-107.446 108.032,-106.68 106.453,-105.853"/>
<polygon fill="red" stroke="red" stroke-width="0.464681" points="108.086,-102.752 97.7042,-100.637 104.501,-108.764 108.086,-102.752"/>
</g>
<!-- &#45;2&#45;&gt;158 -->
<g id="edge16" class="edge"><title>&#45;2&#45;&gt;158</title>
<path fill="none" stroke="red" stroke-width="0.494116" d="M309.555,-147.111C312.376,-146.052 315.378,-144.994 318.213,-144.125 385.001,-123.645 407.202,-136.099 471.213,-108.125 472.796,-107.433 474.384,-106.657 475.96,-105.822"/>
<polygon fill="red" stroke="red" stroke-width="0.494116" points="477.921,-108.727 484.699,-100.584 474.323,-102.723 477.921,-108.727"/>
</g>
<!-- &#45;3 -->
<g id="node3" class="node"><title>&#45;3</title>
<polygon fill="lightgray" stroke="black" points="351.213,-162.125 327.213,-162.125 327.213,-144.125 351.213,-144.125 351.213,-162.125"/>
<text text-anchor="middle" x="339.213" y="-150.925" font-family="Times New Roman,serif" font-size="9.00">&#45;3</text>
</g>
<!-- &#45;3&#45;&gt;160 -->
<g id="edge26" class="edge"><title>&#45;3&#45;&gt;160</title>
<path fill="none" stroke="green" stroke-width="0.816203" stroke-dasharray="1,5" d="M326.857,-147.257C300.432,-136.823 240.101,-112.864 231.213,-108.125 229.689,-107.312 228.147,-106.441 226.607,-105.533"/>
<polygon fill="green" stroke="green" stroke-width="0.816203" points="228.294,-102.459 217.969,-100.085 224.56,-108.38 228.294,-102.459"/>
</g>
<!-- &#45;3&#45;&gt;161 -->
<g id="edge27" class="edge"><title>&#45;3&#45;&gt;161</title>
<path fill="none" stroke="red" stroke-width="0.424696" d="M326.929,-146.905C324.105,-145.858 321.087,-144.856 318.213,-144.125 202.166,-114.617 163.131,-150.694 51.2132,-108.125 49.599,-107.511 47.9854,-106.796 46.3909,-106.008"/>
<polygon fill="red" stroke="red" stroke-width="0.424696" points="48.0023,-102.896 37.5965,-100.904 44.4887,-108.951 48.0023,-102.896"/>
</g>
<!-- &#45;3&#45;&gt;152 -->
<g id="edge19" class="edge"><title>&#45;3&#45;&gt;152</title>
<path fill="none" stroke="red" stroke-width="0.22129" d="M329.334,-143.992C318.266,-134.88 299.928,-119.783 285.064,-107.547"/>
<polygon fill="red" stroke="red" stroke-width="0.22129" points="287.178,-104.754 277.233,-101.1 282.729,-110.158 287.178,-104.754"/>
</g>
<!-- &#45;3&#45;&gt;153 -->
<g id="edge20" class="edge"><title>&#45;3&#45;&gt;153</title>
<path fill="none" stroke="red" stroke-width="0.753642" d="M336.933,-143.992C335.038,-137.23 332.218,-127.17 329.488,-117.43"/>
<polygon fill="red" stroke="red" stroke-width="0.753642" points="332.787,-116.231 326.717,-107.547 326.046,-118.121 332.787,-116.231"/>
</g>
<!-- &#45;3&#45;&gt;154 -->
<g id="edge21" class="edge"><title>&#45;3&#45;&gt;154</title>
<path fill="none" stroke="red" stroke-width="0.183004" d="M351.289,-144.968C365.675,-136.391 390.38,-121.5 411.213,-108.125 412.667,-107.192 414.154,-106.226 415.651,-105.245"/>
<polygon fill="red" stroke="red" stroke-width="0.183004" points="417.774,-108.037 424.166,-99.588 413.9,-102.206 417.774,-108.037"/>
</g>
<!-- &#45;3&#45;&gt;155 -->
<g id="edge22" class="edge"><title>&#45;3&#45;&gt;155</title>
<path fill="none" stroke="red" stroke-width="0.580529" d="M344.533,-143.992C349.549,-136.323 357.338,-124.414 364.451,-113.539"/>
<polygon fill="red" stroke="red" stroke-width="0.580529" points="367.399,-115.425 369.944,-105.141 361.541,-111.594 367.399,-115.425"/>
</g>
<!-- &#45;3&#45;&gt;156 -->
<g id="edge23" class="edge"><title>&#45;3&#45;&gt;156</title>
<path fill="none" stroke="green" stroke-width="0.738965" d="M326.865,-147.13C324.045,-146.07 321.044,-145.007 318.213,-144.125 253.995,-124.114 232.726,-135.34 171.213,-108.125 169.634,-107.426 168.048,-106.644 166.474,-105.805"/>
<polygon fill="green" stroke="green" stroke-width="0.738965" points="168.114,-102.707 157.74,-100.554 164.507,-108.707 168.114,-102.707"/>
</g>
<!-- &#45;3&#45;&gt;157 -->
<g id="edge24" class="edge"><title>&#45;3&#45;&gt;157</title>
<path fill="none" stroke="green" stroke-width="0.424754" d="M326.907,-146.986C324.085,-145.934 321.072,-144.91 318.213,-144.125 228.168,-119.39 197.844,-142.983 111.213,-108.125 109.611,-107.48 108.007,-106.741 106.42,-105.934"/>
<polygon fill="green" stroke="green" stroke-width="0.424754" points="108.041,-102.827 97.646,-100.777 104.493,-108.862 108.041,-102.827"/>
</g>
<!-- &#45;3&#45;&gt;158 -->
<g id="edge25" class="edge"><title>&#45;3&#45;&gt;158</title>
<path fill="none" stroke="green" stroke-width="0.247096" d="M351.612,-147.283C354.43,-146.216 357.417,-145.11 360.213,-144.125 409.128,-126.888 424.587,-130.836 471.213,-108.125 472.766,-107.369 474.331,-106.542 475.888,-105.668"/>
<polygon fill="green" stroke="green" stroke-width="0.247096" points="477.897,-108.541 484.576,-100.317 474.226,-102.581 477.897,-108.541"/>
</g>
<!-- &#45;4 -->
<g id="node4" class="node"><title>&#45;4</title>
<polygon fill="lightgray" stroke="black" points="393.213,-162.125 369.213,-162.125 369.213,-144.125 393.213,-144.125 393.213,-162.125"/>
<text text-anchor="middle" x="381.213" y="-150.925" font-family="Times New Roman,serif" font-size="9.00">&#45;4</text>
</g>
<!-- &#45;4&#45;&gt;160 -->
<g id="edge35" class="edge"><title>&#45;4&#45;&gt;160</title>
<path fill="none" stroke="red" stroke-width="0.413515" d="M368.844,-147.197C366.025,-146.134 363.03,-145.052 360.213,-144.125 303.675,-125.51 285.256,-133.075 231.213,-108.125 229.645,-107.401 228.068,-106.599 226.501,-105.745"/>
<polygon fill="red" stroke="red" stroke-width="0.413515" points="228.151,-102.652 217.787,-100.451 224.516,-108.634 228.151,-102.652"/>
</g>
<!-- &#45;4&#45;&gt;161 -->
<g id="edge36" class="edge"><title>&#45;4&#45;&gt;161</title>
<path fill="none" stroke="green" stroke-width="0.332033" d="M368.938,-146.867C366.114,-145.821 363.093,-144.83 360.213,-144.125 225.913,-111.262 180.881,-156.111 51.2132,-108.125 49.5935,-107.525 47.9756,-106.822 46.3778,-106.043"/>
<polygon fill="green" stroke="green" stroke-width="0.332033" points="47.9849,-102.929 37.5739,-100.964 44.4872,-108.993 47.9849,-102.929"/>
</g>
<!-- 582 -->
<g id="node13" class="node"><title>582</title>
<ellipse fill="white" stroke="black" cx="561.213" cy="-86.9117" rx="21.4286" ry="21.4286"/>
<text text-anchor="middle" x="561.213" y="-84.7117" font-family="Times New Roman,serif" font-size="9.00">582</text>
</g>
<!-- &#45;4&#45;&gt;582 -->
<g id="edge87" class="edge"><title>&#45;4&#45;&gt;582</title>
<path fill="none" stroke="green" stroke-width="0.312503" d="M393.583,-147.197C396.402,-146.134 399.397,-145.052 402.213,-144.125 458.752,-125.51 477.171,-133.075 531.213,-108.125 532.781,-107.401 534.359,-106.599 535.925,-105.745"/>
<polygon fill="green" stroke="green" stroke-width="0.312503" points="537.91,-108.634 544.639,-100.451 534.276,-102.652 537.91,-108.634"/>
</g>
<!-- &#45;4&#45;&gt;152 -->
<g id="edge28" class="edge"><title>&#45;4&#45;&gt;152</title>
<path fill="none" stroke="red" stroke-width="0.292197" d="M369.001,-146.804C351.432,-139.004 318.171,-123.697 291.213,-108.125 289.718,-107.261 288.197,-106.35 286.675,-105.411"/>
<polygon fill="red" stroke="red" stroke-width="0.292197" points="288.387,-102.351 278.086,-99.8734 284.594,-108.234 288.387,-102.351"/>
</g>
<!-- &#45;4&#45;&gt;153 -->
<g id="edge29" class="edge"><title>&#45;4&#45;&gt;153</title>
<path fill="none" stroke="red" stroke-width="0.242378" stroke-dasharray="1,5" d="M373.614,-143.992C365.75,-135.576 353.116,-122.055 342.224,-110.397"/>
<polygon fill="red" stroke="red" stroke-width="0.242378" points="344.77,-107.996 335.385,-103.078 339.655,-112.775 344.77,-107.996"/>
</g>
<!-- &#45;4&#45;&gt;154 -->
<g id="edge30" class="edge"><title>&#45;4&#45;&gt;154</title>
<path fill="none" stroke="red" stroke-width="0.731891" d="M388.812,-143.992C396.676,-135.576 409.31,-122.055 420.203,-110.397"/>
<polygon fill="red" stroke="red" stroke-width="0.731891" points="422.772,-112.775 427.042,-103.078 417.657,-107.996 422.772,-112.775"/>
</g>
<!-- &#45;4&#45;&gt;155 -->
<g id="edge31" class="edge"><title>&#45;4&#45;&gt;155</title>
<path fill="none" stroke="red" stroke-width="0.271842" d="M381.213,-143.992C381.213,-137.449 381.213,-127.82 381.213,-118.381"/>
<polygon fill="red" stroke="red" stroke-width="0.271842" points="384.713,-118.367 381.213,-108.367 377.713,-118.367 384.713,-118.367"/>
</g>
<!-- &#45;4&#45;&gt;156 -->
<g id="edge32" class="edge"><title>&#45;4&#45;&gt;156</title>
<path fill="none" stroke="green" stroke-width="0.122994" stroke-dasharray="1,5" d="M368.898,-147.02C366.076,-145.967 363.066,-144.933 360.213,-144.125 277.942,-120.814 250.284,-140.679 171.213,-108.125 169.616,-107.467 168.016,-106.718 166.432,-105.904"/>
<polygon fill="green" stroke="green" stroke-width="0.122994" points="168.057,-102.799 157.668,-100.725 164.496,-108.825 168.057,-102.799"/>
</g>
<!-- &#45;4&#45;&gt;157 -->
<g id="edge33" class="edge"><title>&#45;4&#45;&gt;157</title>
<path fill="none" stroke="green" stroke-width="0.207371" d="M368.924,-146.926C366.1,-145.877 363.083,-144.869 360.213,-144.125 251.977,-116.051 215.534,-148.377 111.213,-108.125 109.602,-107.503 107.991,-106.782 106.398,-105.989"/>
<polygon fill="green" stroke="green" stroke-width="0.207371" points="108.012,-102.879 97.6086,-100.872 104.49,-108.928 108.012,-102.879"/>
</g>
<!-- &#45;4&#45;&gt;158 -->
<g id="edge34" class="edge"><title>&#45;4&#45;&gt;158</title>
<path fill="none" stroke="red" stroke-width="0.451479" d="M393.425,-146.804C410.995,-139.004 444.255,-123.697 471.213,-108.125 472.709,-107.261 474.229,-106.35 475.752,-105.411"/>
<polygon fill="red" stroke="red" stroke-width="0.451479" points="477.832,-108.234 484.34,-99.8734 474.039,-102.351 477.832,-108.234"/>
</g>
<!-- &#45;5 -->
<g id="node5" class="node"><title>&#45;5</title>
<polygon fill="lightgray" stroke="black" points="183.213,-162.125 159.213,-162.125 159.213,-144.125 183.213,-144.125 183.213,-162.125"/>
<text text-anchor="middle" x="171.213" y="-150.925" font-family="Times New Roman,serif" font-size="9.00">&#45;5</text>
</g>
<!-- &#45;5&#45;&gt;160 -->
<g id="edge44" class="edge"><title>&#45;5&#45;&gt;160</title>
<path fill="none" stroke="green" stroke-width="0.24616" d="M175.013,-143.992C178.369,-136.809 183.462,-125.907 188.269,-115.619"/>
<polygon fill="green" stroke="green" stroke-width="0.24616" points="191.482,-117.009 192.544,-106.467 185.14,-114.046 191.482,-117.009"/>
</g>
<!-- &#45;5&#45;&gt;161 -->
<g id="edge45" class="edge"><title>&#45;5&#45;&gt;161</title>
<path fill="none" stroke="green" stroke-width="0.873302" stroke-dasharray="1,5" d="M158.788,-147.356C155.972,-146.285 152.992,-145.159 150.213,-144.125 106.336,-127.791 92.9376,-129.363 51.2132,-108.125 49.6741,-107.341 48.1194,-106.493 46.5703,-105.603"/>
<polygon fill="green" stroke="green" stroke-width="0.873302" points="48.2446,-102.522 37.9062,-100.205 44.5431,-108.463 48.2446,-102.522"/>
</g>
<!-- &#45;5&#45;&gt;152 -->
<g id="edge37" class="edge"><title>&#45;5&#45;&gt;152</title>
<path fill="none" stroke="red" stroke-width="0.416989" d="M182.612,-143.992C196.026,-134.422 218.695,-118.248 236.251,-105.722"/>
<polygon fill="red" stroke="red" stroke-width="0.416989" points="238.288,-108.568 244.395,-99.9108 234.222,-102.87 238.288,-108.568"/>
</g>
<!-- &#45;5&#45;&gt;153 -->
<g id="edge38" class="edge"><title>&#45;5&#45;&gt;153</title>
<path fill="none" stroke="green" stroke-width="0.540909" stroke-dasharray="1,5" d="M183.638,-147.356C186.455,-146.285 189.434,-145.159 192.213,-144.125 236.09,-127.791 249.489,-129.363 291.213,-108.125 292.752,-107.341 294.307,-106.493 295.856,-105.603"/>
<polygon fill="green" stroke="green" stroke-width="0.540909" points="297.883,-108.463 304.52,-100.205 294.182,-102.522 297.883,-108.463"/>
</g>
<!-- &#45;5&#45;&gt;154 -->
<g id="edge39" class="edge"><title>&#45;5&#45;&gt;154</title>
<path fill="none" stroke="red" stroke-width="0.223874" stroke-dasharray="1,5" d="M183.514,-146.967C186.337,-145.916 189.35,-144.897 192.213,-144.125 287.449,-118.438 319.534,-144.521 411.213,-108.125 412.818,-107.488 414.425,-106.754 416.014,-105.952"/>
<polygon fill="red" stroke="red" stroke-width="0.223874" points="417.934,-108.884 424.793,-100.808 414.395,-102.844 417.934,-108.884"/>
</g>
<!-- &#45;5&#45;&gt;155 -->
<g id="edge40" class="edge"><title>&#45;5&#45;&gt;155</title>
<path fill="none" stroke="green" stroke-width="0.161165" d="M183.55,-147.093C186.371,-146.036 189.375,-144.982 192.213,-144.125 261.574,-123.176 284.699,-136.859 351.213,-108.125 352.799,-107.44 354.39,-106.669 355.967,-105.838"/>
<polygon fill="green" stroke="green" stroke-width="0.161165" points="357.923,-108.746 364.711,-100.612 354.332,-102.738 357.923,-108.746"/>
</g>
<!-- &#45;5&#45;&gt;156 -->
<g id="edge41" class="edge"><title>&#45;5&#45;&gt;156</title>
<path fill="none" stroke="green" stroke-width="0.278109" d="M167.414,-143.992C164.058,-136.809 158.964,-125.907 154.158,-115.619"/>
<polygon fill="green" stroke="green" stroke-width="0.278109" points="157.286,-114.046 149.882,-106.467 150.944,-117.009 157.286,-114.046"/>
</g>
<!-- &#45;5&#45;&gt;157 -->
<g id="edge42" class="edge"><title>&#45;5&#45;&gt;157</title>
<path fill="none" stroke="red" stroke-width="0.415966" d="M159.815,-143.992C146.401,-134.422 123.732,-118.248 106.176,-105.722"/>
<polygon fill="red" stroke="red" stroke-width="0.415966" points="108.204,-102.87 98.031,-99.9108 104.139,-108.568 108.204,-102.87"/>
</g>
<!-- &#45;5&#45;&gt;158 -->
<g id="edge43" class="edge"><title>&#45;5&#45;&gt;158</title>
<path fill="none" stroke="green" stroke-width="0.108951" stroke-dasharray="1,5" d="M183.495,-146.893C186.318,-145.846 189.337,-144.847 192.213,-144.125 313.473,-113.659 354.227,-152.241 471.213,-108.125 472.829,-107.515 474.444,-106.804 476.04,-106.019"/>
<polygon fill="green" stroke="green" stroke-width="0.108951" points="477.938,-108.964 484.837,-100.923 474.43,-102.907 477.938,-108.964"/>
</g>
<!-- &#45;6 -->
<g id="node6" class="node"><title>&#45;6</title>
<polygon fill="lightgray" stroke="black" points="141.213,-162.125 117.213,-162.125 117.213,-144.125 141.213,-144.125 141.213,-162.125"/>
<text text-anchor="middle" x="129.213" y="-150.925" font-family="Times New Roman,serif" font-size="9.00">&#45;6</text>
</g>
<!-- &#45;6&#45;&gt;160 -->
<g id="edge52" class="edge"><title>&#45;6&#45;&gt;160</title>
<path fill="none" stroke="green" stroke-width="0.684931" d="M138.332,-143.992C148.328,-135.078 164.747,-120.434 178.301,-108.346"/>
<polygon fill="green" stroke="green" stroke-width="0.684931" points="180.747,-110.854 185.881,-101.586 176.088,-105.63 180.747,-110.854"/>
</g>
<!-- &#45;6&#45;&gt;161 -->
<g id="edge53" class="edge"><title>&#45;6&#45;&gt;161</title>
<path fill="none" stroke="red" stroke-width="0.185523" d="M117.149,-145.706C101.674,-137.384 74.098,-122.258 51.2132,-108.125 49.7438,-107.217 48.2439,-106.272 46.737,-105.306"/>
<polygon fill="red" stroke="red" stroke-width="0.185523" points="48.4733,-102.259 38.1938,-99.6933 44.6296,-108.11 48.4733,-102.259"/>
</g>
<!-- &#45;6&#45;&gt;152 -->
<g id="edge46" class="edge"><title>&#45;6&#45;&gt;152</title>
<path fill="none" stroke="green" stroke-width="0.351119" d="M141.375,-147.211C164.685,-137.738 214.797,-117.095 231.213,-108.125 232.729,-107.297 234.265,-106.413 235.8,-105.496"/>
<polygon fill="green" stroke="green" stroke-width="0.351119" points="237.857,-108.336 244.423,-100.021 234.105,-102.426 237.857,-108.336"/>
</g>
<!-- &#45;6&#45;&gt;153 -->
<g id="edge47" class="edge"><title>&#45;6&#45;&gt;153</title>
<path fill="none" stroke="red" stroke-width="0.252378" d="M141.568,-147.15C144.388,-146.09 147.387,-145.021 150.213,-144.125 211.867,-124.581 232.195,-134.583 291.213,-108.125 292.789,-107.418 294.373,-106.63 295.944,-105.787"/>
<polygon fill="red" stroke="red" stroke-width="0.252378" points="297.917,-108.684 304.672,-100.522 294.301,-102.69 297.917,-108.684"/>
</g>
<!-- &#45;6&#45;&gt;154 -->
<g id="edge48" class="edge"><title>&#45;6&#45;&gt;154</title>
<path fill="none" stroke="green" stroke-width="0.293795" stroke-dasharray="1,5" d="M141.499,-146.912C144.323,-145.864 147.341,-144.86 150.213,-144.125 263.656,-115.095 301.828,-149.922 411.213,-108.125 412.827,-107.508 414.439,-106.791 416.033,-106.002"/>
<polygon fill="green" stroke="green" stroke-width="0.293795" points="417.937,-108.944 424.826,-100.894 414.421,-102.891 417.937,-108.944"/>
</g>
<!-- &#45;6&#45;&gt;155 -->
<g id="edge49" class="edge"><title>&#45;6&#45;&gt;155</title>
<path fill="none" stroke="green" stroke-width="0.384277" d="M141.522,-146.997C144.344,-145.945 147.356,-144.917 150.213,-144.125 237.666,-119.865 267.104,-142.214 351.213,-108.125 352.814,-107.476 354.417,-106.734 356.003,-105.925"/>
<polygon fill="green" stroke="green" stroke-width="0.384277" points="357.932,-108.851 364.774,-100.761 354.381,-102.818 357.932,-108.851"/>
</g>
<!-- &#45;6&#45;&gt;156 -->
<g id="edge50" class="edge"><title>&#45;6&#45;&gt;156</title>
<path fill="none" stroke="green" stroke-width="0.804838" d="M130.733,-143.992C131.974,-137.35 133.81,-127.528 135.599,-117.952"/>
<polygon fill="green" stroke="green" stroke-width="0.804838" points="139.096,-118.292 137.493,-107.82 132.215,-117.006 139.096,-118.292"/>
</g>
<!-- &#45;6&#45;&gt;157 -->
<g id="edge51" class="edge"><title>&#45;6&#45;&gt;157</title>
<path fill="none" stroke="green" stroke-width="0.129191" d="M123.134,-143.992C117.224,-136.086 107.945,-123.673 99.6179,-112.533"/>
<polygon fill="green" stroke="green" stroke-width="0.129191" points="102.298,-110.272 93.5072,-104.358 96.6911,-114.463 102.298,-110.272"/>
</g>
<!-- &#45;7 -->
<g id="node7" class="node"><title>&#45;7</title>
<polygon fill="lightgray" stroke="black" points="225.213,-162.125 201.213,-162.125 201.213,-144.125 225.213,-144.125 225.213,-162.125"/>
<text text-anchor="middle" x="213.213" y="-150.925" font-family="Times New Roman,serif" font-size="9.00">&#45;7</text>
</g>
<!-- &#45;7&#45;&gt;160 -->
<g id="edge61" class="edge"><title>&#45;7&#45;&gt;160</title>
<path fill="none" stroke="green" stroke-width="0.278324" d="M211.693,-143.992C210.452,-137.35 208.617,-127.528 206.827,-117.952"/>
<polygon fill="green" stroke="green" stroke-width="0.278324" points="210.211,-117.006 204.934,-107.82 203.33,-118.292 210.211,-117.006"/>
</g>
<!-- &#45;7&#45;&gt;161 -->
<g id="edge62" class="edge"><title>&#45;7&#45;&gt;161</title>
<path fill="none" stroke="green" stroke-width="0.418313" stroke-dasharray="1,5" d="M200.859,-147.15C198.039,-146.09 195.04,-145.021 192.213,-144.125 130.56,-124.581 110.231,-134.583 51.2132,-108.125 49.6373,-107.418 48.0537,-106.63 46.4824,-105.787"/>
<polygon fill="green" stroke="green" stroke-width="0.418313" points="48.1251,-102.69 37.7544,-100.522 44.5098,-108.684 48.1251,-102.69"/>
</g>
<!-- &#45;7&#45;&gt;152 -->
<g id="edge54" class="edge"><title>&#45;7&#45;&gt;152</title>
<path fill="none" stroke="red" stroke-width="0.308524" d="M219.292,-143.992C225.203,-136.086 234.481,-123.673 242.808,-112.533"/>
<polygon fill="red" stroke="red" stroke-width="0.308524" points="245.735,-114.463 248.919,-104.358 240.129,-110.272 245.735,-114.463"/>
</g>
<!-- &#45;7&#45;&gt;153 -->
<g id="edge55" class="edge"><title>&#45;7&#45;&gt;153</title>
<path fill="none" stroke="red" stroke-width="0.624844" stroke-dasharray="1,5" d="M225.277,-145.706C240.753,-137.384 268.328,-122.258 291.213,-108.125 292.683,-107.217 294.183,-106.272 295.689,-105.306"/>
<polygon fill="red" stroke="red" stroke-width="0.624844" points="297.797,-108.11 304.233,-99.6933 293.953,-102.259 297.797,-108.11"/>
</g>
<!-- &#45;7&#45;&gt;154 -->
<g id="edge56" class="edge"><title>&#45;7&#45;&gt;154</title>
<path fill="none" stroke="red" stroke-width="0.264307" d="M225.536,-147.047C228.358,-145.992 231.366,-144.951 234.213,-144.125 311.313,-121.761 337.173,-139.148 411.213,-108.125 412.806,-107.457 414.403,-106.7 415.985,-105.88"/>
<polygon fill="red" stroke="red" stroke-width="0.264307" points="417.928,-108.797 424.742,-100.684 414.356,-102.777 417.928,-108.797"/>
</g>
<!-- &#45;7&#45;&gt;155 -->
<g id="edge57" class="edge"><title>&#45;7&#45;&gt;155</title>
<path fill="none" stroke="green" stroke-width="0.296433" d="M225.601,-147.252C228.419,-146.186 231.409,-145.089 234.213,-144.125 285.662,-126.431 302.122,-131.579 351.213,-108.125 352.772,-107.38 354.341,-106.563 355.902,-105.696"/>
<polygon fill="green" stroke="green" stroke-width="0.296433" points="357.902,-108.575 364.599,-100.366 354.244,-102.607 357.902,-108.575"/>
</g>
<!-- &#45;7&#45;&gt;156 -->
<g id="edge58" class="edge"><title>&#45;7&#45;&gt;156</title>
<path fill="none" stroke="red" stroke-width="0.521803" stroke-dasharray="1,5" d="M204.094,-143.992C194.099,-135.078 177.679,-120.434 164.125,-108.346"/>
<polygon fill="red" stroke="red" stroke-width="0.521803" points="166.339,-105.63 156.546,-101.586 161.679,-110.854 166.339,-105.63"/>
</g>
<!-- &#45;7&#45;&gt;157 -->
<g id="edge59" class="edge"><title>&#45;7&#45;&gt;157</title>
<path fill="none" stroke="red" stroke-width="0.329231" d="M201.051,-147.211C177.741,-137.738 127.63,-117.095 111.213,-108.125 109.698,-107.297 108.161,-106.413 106.627,-105.496"/>
<polygon fill="red" stroke="red" stroke-width="0.329231" points="108.322,-102.426 98.0034,-100.021 104.569,-108.336 108.322,-102.426"/>
</g>
<!-- &#45;7&#45;&gt;158 -->
<g id="edge60" class="edge"><title>&#45;7&#45;&gt;158</title>
<path fill="none" stroke="red" stroke-width="0.488182" stroke-dasharray="1,5" d="M225.507,-146.941C228.33,-145.891 231.346,-144.88 234.213,-144.125 337.246,-117.007 371.952,-146.833 471.213,-108.125 472.822,-107.497 474.432,-106.772 476.023,-105.976"/>
<polygon fill="red" stroke="red" stroke-width="0.488182" points="477.936,-108.912 484.809,-100.848 474.408,-102.866 477.936,-108.912"/>
</g>
<!-- &#45;8 -->
<g id="node8" class="node"><title>&#45;8</title>
<polygon fill="lightgray" stroke="black" points="435.213,-162.125 411.213,-162.125 411.213,-144.125 435.213,-144.125 435.213,-162.125"/>
<text text-anchor="middle" x="423.213" y="-150.925" font-family="Times New Roman,serif" font-size="9.00">&#45;8</text>
</g>
<!-- 0 -->
<g id="node9" class="node"><title>0</title>
<ellipse fill="lightblue" stroke="black" cx="291.213" cy="-14.8492" rx="14.7" ry="14.7"/>
<text text-anchor="middle" x="291.213" y="-12.6492" font-family="Times New Roman,serif" font-size="9.00">0</text>
</g>
<!-- &#45;8&#45;&gt;0 -->
<g id="edge86" class="edge"><title>&#45;8&#45;&gt;0</title>
<path fill="none" stroke="red" stroke-width="0.223117" d="M435.41,-150.83C470.733,-146.804 571.824,-133.246 591.213,-108.125 602.734,-93.1978 603.405,-80.0831 591.213,-65.6985 555.958,-24.1021 382.297,-17.1776 316.523,-16.0545"/>
<polygon fill="red" stroke="red" stroke-width="0.223117" points="316.286,-12.551 306.238,-15.9122 316.189,-19.5503 316.286,-12.551"/>
</g>
<!-- &#45;8&#45;&gt;160 -->
<g id="edge69" class="edge"><title>&#45;8&#45;&gt;160</title>
<path fill="none" stroke="green" stroke-width="0.725367" d="M410.886,-147.061C408.065,-146.005 405.058,-144.961 402.213,-144.125 327.696,-122.234 302.742,-138.384 231.213,-108.125 229.623,-107.452 228.028,-106.69 226.447,-105.867"/>
<polygon fill="green" stroke="green" stroke-width="0.725367" points="228.078,-102.765 217.694,-100.661 224.5,-108.781 228.078,-102.765"/>
</g>
<!-- &#45;8&#45;&gt;152 -->
<g id="edge63" class="edge"><title>&#45;8&#45;&gt;152</title>
<path fill="none" stroke="green" stroke-width="0.281953" d="M410.814,-147.283C407.997,-146.216 405.01,-145.11 402.213,-144.125 353.298,-126.888 337.839,-130.836 291.213,-108.125 289.661,-107.369 288.095,-106.542 286.538,-105.668"/>
<polygon fill="green" stroke="green" stroke-width="0.281953" points="288.201,-102.581 277.85,-100.317 284.53,-108.541 288.201,-102.581"/>
</g>
<!-- &#45;8&#45;&gt;153 -->
<g id="edge64" class="edge"><title>&#45;8&#45;&gt;153</title>
<path fill="none" stroke="green" stroke-width="0.347309" stroke-dasharray="1,5" d="M411.137,-144.968C396.752,-136.391 372.047,-121.5 351.213,-108.125 349.76,-107.192 348.273,-106.226 346.775,-105.245"/>
<polygon fill="green" stroke="green" stroke-width="0.347309" points="348.526,-102.206 338.26,-99.588 344.653,-108.037 348.526,-102.206"/>
</g>
<!-- &#45;8&#45;&gt;154 -->
<g id="edge65" class="edge"><title>&#45;8&#45;&gt;154</title>
<path fill="none" stroke="red" stroke-width="0.613807" stroke-dasharray="1,5" d="M425.493,-143.992C427.389,-137.23 430.209,-127.17 432.939,-117.43"/>
<polygon fill="red" stroke="red" stroke-width="0.613807" points="436.38,-118.121 435.709,-107.547 429.64,-116.231 436.38,-118.121"/>
</g>
<!-- &#45;8&#45;&gt;155 -->
<g id="edge66" class="edge"><title>&#45;8&#45;&gt;155</title>
<path fill="none" stroke="green" stroke-width="0.339187" d="M417.894,-143.992C412.878,-136.323 405.088,-124.414 397.976,-113.539"/>
<polygon fill="green" stroke="green" stroke-width="0.339187" points="400.885,-111.594 392.482,-105.141 395.027,-115.425 400.885,-111.594"/>
</g>
<!-- &#45;8&#45;&gt;156 -->
<g id="edge67" class="edge"><title>&#45;8&#45;&gt;156</title>
<path fill="none" stroke="green" stroke-width="0.275219" stroke-dasharray="1,5" d="M410.917,-146.949C408.094,-145.899 405.079,-144.885 402.213,-144.125 301.781,-117.484 267.946,-146.062 171.213,-108.125 169.605,-107.494 167.997,-106.766 166.406,-105.968"/>
<polygon fill="green" stroke="green" stroke-width="0.275219" points="168.023,-102.859 157.623,-100.836 164.491,-108.903 168.023,-102.859"/>
</g>
<!-- &#45;8&#45;&gt;158 -->
<g id="edge68" class="edge"><title>&#45;8&#45;&gt;158</title>
<path fill="none" stroke="green" stroke-width="0.781054" stroke-dasharray="1,5" d="M433.092,-143.992C444.16,-134.88 462.499,-119.783 477.362,-107.547"/>
<polygon fill="green" stroke="green" stroke-width="0.781054" points="479.697,-110.158 485.193,-101.1 475.248,-104.754 479.697,-110.158"/>
</g>
<!-- 1 -->
<g id="node10" class="node"><title>1</title>
<ellipse fill="lightblue" stroke="black" cx="201.213" cy="-14.8492" rx="14.7" ry="14.7"/>
<text text-anchor="middle" x="201.213" y="-12.6492" font-family="Times New Roman,serif" font-size="9.00">1</text>
</g>
<!-- 160&#45;&gt;0 -->
<g id="edge82" class="edge"><title>160&#45;&gt;0</title>
<path fill="none" stroke="red" stroke-width="0.872838" stroke-dasharray="1,5" d="M217.721,-73.0612C232.964,-61.1949 255.616,-43.5605 271.738,-31.0101"/>
<polygon fill="red" stroke="red" stroke-width="0.872838" points="274.193,-33.5343 279.934,-24.6296 269.893,-28.0107 274.193,-33.5343"/>
</g>
<!-- 160&#45;&gt;1 -->
<g id="edge83" class="edge"><title>160&#45;&gt;1</title>
<path fill="none" stroke="red" stroke-width="0.130953" d="M201.213,-65.6467C201.213,-57.6662 201.213,-48.4341 201.213,-40.1031"/>
<polygon fill="red" stroke="red" stroke-width="0.130953" points="204.713,-39.8511 201.213,-29.8512 197.713,-39.8512 204.713,-39.8511"/>
</g>
<!-- 161&#45;&gt;0 -->
<g id="edge84" class="edge"><title>161&#45;&gt;0</title>
<path fill="none" stroke="green" stroke-width="0.269901" d="M37.6892,-73.1508C41.9164,-70.3528 46.5826,-67.6479 51.2132,-65.6985 123.998,-35.0576 147.902,-45.8074 225.213,-29.6985 238.954,-26.8354 254.299,-23.6167 266.732,-21.0034"/>
<polygon fill="green" stroke="green" stroke-width="0.269901" points="267.73,-24.3702 276.796,-18.8868 266.289,-17.52 267.73,-24.3702"/>
</g>
<!-- 161&#45;&gt;1 -->
<g id="edge85" class="edge"><title>161&#45;&gt;1</title>
<path fill="none" stroke="green" stroke-width="0.146278" d="M37.8617,-73.5294C42.0838,-70.72 46.7043,-67.9149 51.2132,-65.6985 93.5109,-44.9065 146.569,-29.5757 176.911,-21.7369"/>
<polygon fill="green" stroke="green" stroke-width="0.146278" points="177.803,-25.1218 186.642,-19.28 176.089,-18.3348 177.803,-25.1218"/>
</g>
<!-- 152&#45;&gt;0 -->
<g id="edge70" class="edge"><title>152&#45;&gt;0</title>
<path fill="none" stroke="red" stroke-width="0.537715" d="M269.253,-67.1362C273.076,-58.2061 277.676,-47.4651 281.675,-38.1251"/>
<polygon fill="red" stroke="red" stroke-width="0.537715" points="284.995,-39.2626 285.714,-28.6921 278.56,-36.5072 284.995,-39.2626"/>
</g>
<!-- 152&#45;&gt;1 -->
<g id="edge71" class="edge"><title>152&#45;&gt;1</title>
<path fill="none" stroke="red" stroke-width="0.544514" d="M247.897,-70.3626C238.873,-59.8254 226.897,-45.84 217.334,-34.6731"/>
<polygon fill="red" stroke="red" stroke-width="0.544514" points="219.743,-32.1057 210.58,-26.7869 214.426,-36.6589 219.743,-32.1057"/>
</g>
<!-- 153&#45;&gt;0 -->
<g id="edge72" class="edge"><title>153&#45;&gt;0</title>
<path fill="none" stroke="green" stroke-width="0.687978" stroke-dasharray="1,5" d="M313.174,-67.1362C309.35,-58.2061 304.751,-47.4651 300.752,-38.1251"/>
<polygon fill="green" stroke="green" stroke-width="0.687978" points="303.866,-36.5072 296.712,-28.6921 297.431,-39.2626 303.866,-36.5072"/>
</g>
<!-- 153&#45;&gt;1 -->
<g id="edge73" class="edge"><title>153&#45;&gt;1</title>
<path fill="none" stroke="green" stroke-width="0.229189" d="M304.247,-74.1064C300.035,-71.2795 295.498,-68.3218 291.213,-65.6985 268.487,-51.7847 241.683,-37.1584 223.273,-27.3753"/>
<polygon fill="green" stroke="green" stroke-width="0.229189" points="224.71,-24.1759 214.232,-22.6021 221.441,-30.3661 224.71,-24.1759"/>
</g>
<!-- 154&#45;&gt;0 -->
<g id="edge74" class="edge"><title>154&#45;&gt;0</title>
<path fill="none" stroke="green" stroke-width="0.380677" d="M424.446,-73.7602C420.227,-70.9438 415.638,-68.0777 411.213,-65.6985 378.875,-48.312 339.154,-32.8847 314.508,-23.9526"/>
<polygon fill="green" stroke="green" stroke-width="0.380677" points="315.528,-20.6005 304.933,-20.5354 313.175,-27.1932 315.528,-20.6005"/>
</g>
<!-- 155&#45;&gt;0 -->
<g id="edge75" class="edge"><title>155&#45;&gt;0</title>
<path fill="none" stroke="green" stroke-width="0.263661" d="M364.706,-73.0612C349.463,-61.1949 326.81,-43.5605 310.688,-31.0101"/>
<polygon fill="green" stroke="green" stroke-width="0.263661" points="312.533,-28.0107 302.492,-24.6296 308.233,-33.5343 312.533,-28.0107"/>
</g>
<!-- 156&#45;&gt;0 -->
<g id="edge76" class="edge"><title>156&#45;&gt;0</title>
<path fill="none" stroke="red" stroke-width="1.42275" d="M157.98,-73.7602C162.199,-70.9438 166.788,-68.0777 171.213,-65.6985 203.551,-48.312 243.272,-32.8847 267.919,-23.9526"/>
<polygon fill="red" stroke="red" stroke-width="1.42275" points="269.251,-27.1932 277.493,-20.5354 266.898,-20.6005 269.251,-27.1932"/>
</g>
<!-- 156&#45;&gt;1 -->
<g id="edge77" class="edge"><title>156&#45;&gt;1</title>
<path fill="none" stroke="red" stroke-width="0.148552" d="M154.529,-70.3626C163.553,-59.8254 175.53,-45.84 185.093,-34.6731"/>
<polygon fill="red" stroke="red" stroke-width="0.148552" points="188,-36.6589 191.846,-26.7869 182.683,-32.1057 188,-36.6589"/>
</g>
<!-- 157&#45;&gt;0 -->
<g id="edge78" class="edge"><title>157&#45;&gt;0</title>
<path fill="none" stroke="green" stroke-width="0.283977" d="M97.7842,-73.3664C102.009,-70.5619 106.65,-67.7999 111.213,-65.6985 139.18,-52.8201 224.708,-31.6167 267.007,-21.5265"/>
<polygon fill="green" stroke="green" stroke-width="0.283977" points="267.845,-24.9249 276.768,-19.2125 266.23,-18.1137 267.845,-24.9249"/>
</g>
<!-- 157&#45;&gt;1 -->
<g id="edge79" class="edge"><title>157&#45;&gt;1</title>
<path fill="none" stroke="green" stroke-width="0.10254" stroke-dasharray="1,5" d="M98.1793,-74.1064C102.392,-71.2795 106.928,-68.3218 111.213,-65.6985 133.94,-51.7847 160.743,-37.1584 179.153,-27.3753"/>
<polygon fill="green" stroke="green" stroke-width="0.10254" points="180.985,-30.3661 188.194,-22.6021 177.717,-24.1759 180.985,-30.3661"/>
</g>
<!-- 158&#45;&gt;0 -->
<g id="edge80" class="edge"><title>158&#45;&gt;0</title>
<path fill="none" stroke="red" stroke-width="0.278491" stroke-dasharray="1,5" d="M484.642,-73.3664C480.418,-70.5619 475.777,-67.7999 471.213,-65.6985 418.363,-41.3616 351.167,-26.6506 315.701,-20.0281"/>
<polygon fill="red" stroke="red" stroke-width="0.278491" points="316.228,-16.5666 305.765,-18.2308 314.982,-23.4548 316.228,-16.5666"/>
</g>
<!-- 158&#45;&gt;1 -->
<g id="edge81" class="edge"><title>158&#45;&gt;1</title>
<path fill="none" stroke="red" stroke-width="0.490095" d="M484.777,-73.0542C480.549,-70.2591 475.872,-67.5797 471.213,-65.6985 385.843,-31.225 357.611,-47.1544 267.213,-29.6985 253.432,-27.0373 238.084,-23.8315 225.66,-21.1746"/>
<polygon fill="red" stroke="red" stroke-width="0.490095" points="226.119,-17.6934 215.606,-19.0087 224.645,-24.5364 226.119,-17.6934"/>
</g>
</g>
</svg>
