<?xml version="1.0" encoding="UTF-8" standalone="no"?>
<!DOCTYPE svg PUBLIC "-//W3C//DTD SVG 1.1//EN"
 "http://www.w3.org/Graphics/SVG/1.1/DTD/svg11.dtd">
<!-- Generated by graphviz version 2.38.0 (20140413.2041)
 -->
<!-- Title: %3 Pages: 1 -->
<svg width="917pt" height="249pt"
 viewBox="0.00 0.00 917.22 248.55" xmlns="http://www.w3.org/2000/svg" xmlns:xlink="http://www.w3.org/1999/xlink">
<g id="graph0" class="graph" transform="scale(1 1) rotate(0) translate(4 244.551)">
<title>%3</title>
<polygon fill="white" stroke="none" points="-4,4 -4,-244.551 913.224,-244.551 913.224,4 -4,4"/>
<!-- &#45;1 -->
<g id="node1" class="node"><title>&#45;1</title>
<polygon fill="lightgray" stroke="black" points="277.116,-240.551 253.116,-240.551 253.116,-222.551 277.116,-222.551 277.116,-240.551"/>
<text text-anchor="middle" x="265.116" y="-229.351" font-family="Times New Roman,serif" font-size="9.00">&#45;1</text>
</g>
<!-- 132 -->
<g id="node11" class="node"><title>132</title>
<ellipse fill="white" stroke="black" cx="344.116" cy="-165.338" rx="21.4286" ry="21.4286"/>
<text text-anchor="middle" x="344.116" y="-163.138" font-family="Times New Roman,serif" font-size="9.00">132</text>
</g>
<!-- &#45;1&#45;&gt;132 -->
<g id="edge1" class="edge"><title>&#45;1&#45;&gt;132</title>
<path fill="none" stroke="green" stroke-width="0.391121" d="M275.121,-222.419C286.331,-213.307 304.905,-198.21 319.959,-185.974"/>
<polygon fill="green" stroke="green" stroke-width="0.391121" points="322.338,-188.55 327.89,-179.526 317.923,-183.118 322.338,-188.55"/>
</g>
<!-- 133 -->
<g id="node12" class="node"><title>133</title>
<ellipse fill="white" stroke="black" cx="616.116" cy="-165.338" rx="21.4286" ry="21.4286"/>
<text text-anchor="middle" x="616.116" y="-163.138" font-family="Times New Roman,serif" font-size="9.00">133</text>
</g>
<!-- &#45;1&#45;&gt;133 -->
<g id="edge2" class="edge"><title>&#45;1&#45;&gt;133</title>
<path fill="none" stroke="red" stroke-width="0.115826" stroke-dasharray="1,5" d="M277.414,-225.386C280.237,-224.335 283.251,-223.318 286.116,-222.551 383.516,-196.467 410.803,-203.997 510.116,-186.551 535.529,-182.087 564.28,-176.576 585.42,-172.436"/>
<polygon fill="red" stroke="red" stroke-width="0.115826" points="586.294,-175.831 595.431,-170.467 584.943,-168.963 586.294,-175.831"/>
</g>
<!-- 134 -->
<g id="node13" class="node"><title>134</title>
<ellipse fill="white" stroke="black" cx="676.116" cy="-165.338" rx="21.4286" ry="21.4286"/>
<text text-anchor="middle" x="676.116" y="-163.138" font-family="Times New Roman,serif" font-size="9.00">134</text>
</g>
<!-- &#45;1&#45;&gt;134 -->
<g id="edge3" class="edge"><title>&#45;1&#45;&gt;134</title>
<path fill="none" stroke="green" stroke-width="0.331794" d="M277.382,-225.258C280.207,-224.214 283.23,-223.233 286.116,-222.551 442.612,-185.607 494.863,-241.127 646.116,-186.551 647.74,-185.965 649.362,-185.272 650.963,-184.501"/>
<polygon fill="green" stroke="green" stroke-width="0.331794" points="652.843,-187.457 659.775,-179.445 649.359,-181.385 652.843,-187.457"/>
</g>
<!-- 135 -->
<g id="node14" class="node"><title>135</title>
<ellipse fill="white" stroke="black" cx="284.116" cy="-165.338" rx="21.4286" ry="21.4286"/>
<text text-anchor="middle" x="284.116" y="-163.138" font-family="Times New Roman,serif" font-size="9.00">135</text>
</g>
<!-- &#45;1&#45;&gt;135 -->
<g id="edge4" class="edge"><title>&#45;1&#45;&gt;135</title>
<path fill="none" stroke="red" stroke-width="0.565542" d="M267.522,-222.419C269.523,-215.656 272.5,-205.596 275.381,-195.856"/>
<polygon fill="red" stroke="red" stroke-width="0.565542" points="278.824,-196.556 278.306,-185.974 272.112,-194.57 278.824,-196.556"/>
</g>
<!-- 136 -->
<g id="node15" class="node"><title>136</title>
<ellipse fill="white" stroke="black" cx="431.116" cy="-86.9117" rx="21.4286" ry="21.4286"/>
<text text-anchor="middle" x="431.116" y="-84.7117" font-family="Times New Roman,serif" font-size="9.00">136</text>
</g>
<!-- &#45;1&#45;&gt;136 -->
<g id="edge5" class="edge"><title>&#45;1&#45;&gt;136</title>
<path fill="none" stroke="green" stroke-width="0.214244" d="M253.054,-230.525C194.213,-230.017 -57.1051,-223.252 12.1156,-144.125 37.6528,-114.933 306.687,-95.6233 399.694,-89.779"/>
<polygon fill="green" stroke="green" stroke-width="0.214244" points="400.123,-93.2593 409.888,-89.1484 399.691,-86.2726 400.123,-93.2593"/>
</g>
<!-- 137 -->
<g id="node16" class="node"><title>137</title>
<ellipse fill="white" stroke="black" cx="480.116" cy="-165.338" rx="21.4286" ry="21.4286"/>
<text text-anchor="middle" x="480.116" y="-163.138" font-family="Times New Roman,serif" font-size="9.00">137</text>
</g>
<!-- &#45;1&#45;&gt;137 -->
<g id="edge6" class="edge"><title>&#45;1&#45;&gt;137</title>
<path fill="none" stroke="red" stroke-width="0.307368" d="M277.492,-225.644C280.311,-224.58 283.304,-223.492 286.116,-222.551 343.41,-203.373 411.462,-184.546 449.836,-174.286"/>
<polygon fill="red" stroke="red" stroke-width="0.307368" points="451.075,-177.578 459.839,-171.625 449.275,-170.813 451.075,-177.578"/>
</g>
<!-- 138 -->
<g id="node17" class="node"><title>138</title>
<ellipse fill="white" stroke="black" cx="224.116" cy="-165.338" rx="21.4286" ry="21.4286"/>
<text text-anchor="middle" x="224.116" y="-163.138" font-family="Times New Roman,serif" font-size="9.00">138</text>
</g>
<!-- &#45;1&#45;&gt;138 -->
<g id="edge7" class="edge"><title>&#45;1&#45;&gt;138</title>
<path fill="none" stroke="green" stroke-width="0.334887" d="M259.923,-222.419C255.075,-214.825 247.572,-203.076 240.685,-192.289"/>
<polygon fill="green" stroke="green" stroke-width="0.334887" points="243.448,-190.112 235.116,-183.567 237.548,-193.879 243.448,-190.112"/>
</g>
<!-- 139 -->
<g id="node18" class="node"><title>139</title>
<ellipse fill="white" stroke="black" cx="567.116" cy="-86.9117" rx="21.4286" ry="21.4286"/>
<text text-anchor="middle" x="567.116" y="-84.7117" font-family="Times New Roman,serif" font-size="9.00">139</text>
</g>
<!-- &#45;1&#45;&gt;139 -->
<g id="edge8" class="edge"><title>&#45;1&#45;&gt;139</title>
<path fill="none" stroke="green" stroke-width="0.341622" stroke-dasharray="1,5" d="M252.99,-229.03C219.322,-224.533 125.989,-210.122 108.116,-186.551 96.7225,-171.526 95.4767,-158.118 108.116,-144.125 160.968,-85.6085 383.092,-119.521 461.116,-108.125 486.648,-104.396 515.389,-98.8285 536.496,-94.4803"/>
<polygon fill="green" stroke="green" stroke-width="0.341622" points="537.413,-97.8643 546.488,-92.3956 535.984,-91.0119 537.413,-97.8643"/>
</g>
<!-- 140 -->
<g id="node19" class="node"><title>140</title>
<ellipse fill="white" stroke="black" cx="736.116" cy="-165.338" rx="21.4286" ry="21.4286"/>
<text text-anchor="middle" x="736.116" y="-163.138" font-family="Times New Roman,serif" font-size="9.00">140</text>
</g>
<!-- &#45;1&#45;&gt;140 -->
<g id="edge9" class="edge"><title>&#45;1&#45;&gt;140</title>
<path fill="none" stroke="red" stroke-width="0.348236" d="M277.375,-225.228C280.2,-224.186 283.225,-223.212 286.116,-222.551 468.755,-180.799 529.44,-248.89 706.116,-186.551 707.785,-185.962 709.45,-185.258 711.093,-184.471"/>
<polygon fill="red" stroke="red" stroke-width="0.348236" points="713.186,-187.304 720.108,-179.283 709.695,-181.237 713.186,-187.304"/>
</g>
<!-- 141 -->
<g id="node20" class="node"><title>141</title>
<ellipse fill="white" stroke="black" cx="164.116" cy="-165.338" rx="21.4286" ry="21.4286"/>
<text text-anchor="middle" x="164.116" y="-163.138" font-family="Times New Roman,serif" font-size="9.00">141</text>
</g>
<!-- &#45;1&#45;&gt;141 -->
<g id="edge10" class="edge"><title>&#45;1&#45;&gt;141</title>
<path fill="none" stroke="green" stroke-width="0.260699" d="M252.967,-223.216C238.759,-214.593 214.576,-199.777 194.116,-186.551 192.665,-185.614 191.18,-184.644 189.685,-183.661"/>
<polygon fill="green" stroke="green" stroke-width="0.260699" points="191.438,-180.624 181.175,-177.996 187.559,-186.451 191.438,-180.624"/>
</g>
<!-- &#45;2 -->
<g id="node2" class="node"><title>&#45;2</title>
<polygon fill="lightgray" stroke="black" points="361.116,-240.551 337.116,-240.551 337.116,-222.551 361.116,-222.551 361.116,-240.551"/>
<text text-anchor="middle" x="349.116" y="-229.351" font-family="Times New Roman,serif" font-size="9.00">&#45;2</text>
</g>
<!-- &#45;2&#45;&gt;132 -->
<g id="edge11" class="edge"><title>&#45;2&#45;&gt;132</title>
<path fill="none" stroke="red" stroke-width="0.425131" d="M348.482,-222.419C347.969,-215.826 347.212,-206.101 346.471,-196.593"/>
<polygon fill="red" stroke="red" stroke-width="0.425131" points="349.953,-196.217 345.687,-186.519 342.974,-196.761 349.953,-196.217"/>
</g>
<!-- &#45;2&#45;&gt;133 -->
<g id="edge12" class="edge"><title>&#45;2&#45;&gt;133</title>
<path fill="none" stroke="red" stroke-width="0.454782" d="M361.17,-226.817C365.823,-225.418 371.201,-223.854 376.116,-222.551 450.951,-202.718 539.871,-182.844 585.597,-172.891"/>
<polygon fill="red" stroke="red" stroke-width="0.454782" points="586.438,-176.29 595.469,-170.751 584.955,-169.449 586.438,-176.29"/>
</g>
<!-- &#45;2&#45;&gt;134 -->
<g id="edge13" class="edge"><title>&#45;2&#45;&gt;134</title>
<path fill="none" stroke="green" stroke-width="0.326708" stroke-dasharray="1,5" d="M361.378,-226.479C365.962,-225.074 371.239,-223.592 376.116,-222.551 494.51,-197.279 532.931,-229.507 646.116,-186.551 647.73,-185.938 649.344,-185.224 650.939,-184.437"/>
<polygon fill="green" stroke="green" stroke-width="0.326708" points="652.84,-187.38 659.734,-179.335 649.328,-181.325 652.84,-187.38"/>
</g>
<!-- &#45;2&#45;&gt;135 -->
<g id="edge14" class="edge"><title>&#45;2&#45;&gt;135</title>
<path fill="none" stroke="red" stroke-width="0.242448" d="M340.883,-222.419C332.113,-213.755 317.866,-199.68 305.839,-187.799"/>
<polygon fill="red" stroke="red" stroke-width="0.242448" points="308.28,-185.291 298.707,-180.753 303.361,-190.27 308.28,-185.291"/>
</g>
<!-- &#45;2&#45;&gt;136 -->
<g id="edge15" class="edge"><title>&#45;2&#45;&gt;136</title>
<path fill="none" stroke="red" stroke-width="0.397656" stroke-dasharray="1,5" d="M336.818,-225.381C333.995,-224.331 330.981,-223.315 328.116,-222.551 278.766,-209.39 134.282,-225.392 101.116,-186.551 88.8709,-172.212 88.9532,-158.534 101.116,-144.125 139.167,-99.0438 324.402,-90.1117 399.449,-88.3455"/>
<polygon fill="red" stroke="red" stroke-width="0.397656" points="399.766,-91.8398 409.691,-88.1335 399.621,-84.8413 399.766,-91.8398"/>
</g>
<!-- &#45;2&#45;&gt;137 -->
<g id="edge16" class="edge"><title>&#45;2&#45;&gt;137</title>
<path fill="none" stroke="red" stroke-width="0.264422" d="M361.205,-224.625C381.716,-214.571 423.847,-193.92 452.046,-180.097"/>
<polygon fill="red" stroke="red" stroke-width="0.264422" points="453.943,-183.065 461.381,-175.521 450.862,-176.78 453.943,-183.065"/>
</g>
<!-- &#45;2&#45;&gt;138 -->
<g id="edge17" class="edge"><title>&#45;2&#45;&gt;138</title>
<path fill="none" stroke="green" stroke-width="0.28162" d="M337.115,-225.719C318.792,-218.182 282.933,-202.796 254.116,-186.551 252.611,-185.703 251.084,-184.804 249.556,-183.875"/>
<polygon fill="green" stroke="green" stroke-width="0.28162" points="251.26,-180.81 240.952,-178.365 247.485,-186.705 251.26,-180.81"/>
</g>
<!-- &#45;2&#45;&gt;139 -->
<g id="edge18" class="edge"><title>&#45;2&#45;&gt;139</title>
<path fill="none" stroke="green" stroke-width="0.448168" stroke-dasharray="1,5" d="M336.803,-225.437C333.981,-224.384 330.97,-223.353 328.116,-222.551 243.686,-198.845 190.183,-253.98 134.116,-186.551 122.06,-172.053 121.533,-158.169 134.116,-144.125 182.899,-89.6763 388.82,-118.98 461.116,-108.125 486.633,-104.293 515.375,-98.7339 536.486,-94.4148"/>
<polygon fill="green" stroke="green" stroke-width="0.448168" points="537.397,-97.8004 546.48,-92.3462 535.979,-90.9457 537.397,-97.8004"/>
</g>
<!-- &#45;2&#45;&gt;140 -->
<g id="edge19" class="edge"><title>&#45;2&#45;&gt;140</title>
<path fill="none" stroke="green" stroke-width="0.223497" d="M361.365,-226.416C365.947,-225.004 371.227,-223.534 376.116,-222.551 520.759,-193.478 567.563,-237.25 706.116,-186.551 707.738,-185.958 709.357,-185.259 710.956,-184.483"/>
<polygon fill="green" stroke="green" stroke-width="0.223497" points="712.842,-187.436 719.764,-179.415 709.351,-181.369 712.842,-187.436"/>
</g>
<!-- &#45;2&#45;&gt;141 -->
<g id="edge20" class="edge"><title>&#45;2&#45;&gt;141</title>
<path fill="none" stroke="red" stroke-width="0.147501" d="M336.753,-225.603C333.933,-224.541 330.936,-223.465 328.116,-222.551 269.449,-203.55 250.229,-212.129 194.116,-186.551 192.544,-185.835 190.964,-185.039 189.395,-184.19"/>
<polygon fill="red" stroke="red" stroke-width="0.147501" points="191.042,-181.095 180.675,-178.908 187.416,-187.082 191.042,-181.095"/>
</g>
<!-- &#45;3 -->
<g id="node3" class="node"><title>&#45;3</title>
<polygon fill="lightgray" stroke="black" points="319.116,-240.551 295.116,-240.551 295.116,-222.551 319.116,-222.551 319.116,-240.551"/>
<text text-anchor="middle" x="307.116" y="-229.351" font-family="Times New Roman,serif" font-size="9.00">&#45;3</text>
</g>
<!-- &#45;3&#45;&gt;132 -->
<g id="edge21" class="edge"><title>&#45;3&#45;&gt;132</title>
<path fill="none" stroke="green" stroke-width="0.665874" stroke-dasharray="1,5" d="M311.802,-222.419C316.073,-215.006 322.627,-203.631 328.719,-193.059"/>
<polygon fill="green" stroke="green" stroke-width="0.665874" points="331.924,-194.506 333.884,-184.095 325.859,-191.012 331.924,-194.506"/>
</g>
<!-- &#45;3&#45;&gt;133 -->
<g id="edge22" class="edge"><title>&#45;3&#45;&gt;133</title>
<path fill="none" stroke="red" stroke-width="0.278067" d="M319.434,-225.456C322.256,-224.402 325.265,-223.366 328.116,-222.551 340.491,-219.014 512.859,-186.02 584.862,-172.289"/>
<polygon fill="red" stroke="red" stroke-width="0.278067" points="585.954,-175.644 595.122,-170.334 584.643,-168.768 585.954,-175.644"/>
</g>
<!-- &#45;3&#45;&gt;134 -->
<g id="edge23" class="edge"><title>&#45;3&#45;&gt;134</title>
<path fill="none" stroke="green" stroke-width="0.184194" d="M319.389,-225.286C322.213,-224.241 325.234,-223.251 328.116,-222.551 466.33,-188.969 512.641,-235.7 646.116,-186.551 647.736,-185.955 649.355,-185.253 650.953,-184.475"/>
<polygon fill="green" stroke="green" stroke-width="0.184194" points="652.842,-187.427 659.759,-179.401 649.347,-181.362 652.842,-187.427"/>
</g>
<!-- &#45;3&#45;&gt;135 -->
<g id="edge24" class="edge"><title>&#45;3&#45;&gt;135</title>
<path fill="none" stroke="red" stroke-width="0.343029" d="M304.203,-222.419C301.719,-215.483 297.993,-205.081 294.422,-195.112"/>
<polygon fill="red" stroke="red" stroke-width="0.343029" points="297.622,-193.666 290.955,-185.432 291.032,-196.026 297.622,-193.666"/>
</g>
<!-- &#45;3&#45;&gt;136 -->
<g id="edge25" class="edge"><title>&#45;3&#45;&gt;136</title>
<path fill="none" stroke="green" stroke-width="0.436517" stroke-dasharray="1,5" d="M294.83,-225.338C292.006,-224.29 288.988,-223.286 286.116,-222.551 229.394,-208.036 63.5838,-230.69 25.1156,-186.551 12.7266,-172.336 12.7303,-158.343 25.1156,-144.125 73.9092,-88.11 313.179,-86.0732 399.766,-87.2269"/>
<polygon fill="green" stroke="green" stroke-width="0.436517" points="399.725,-90.7266 409.778,-87.3842 399.835,-83.7274 399.725,-90.7266"/>
</g>
<!-- &#45;3&#45;&gt;137 -->
<g id="edge26" class="edge"><title>&#45;3&#45;&gt;137</title>
<path fill="none" stroke="green" stroke-width="0.823021" d="M319.545,-225.793C322.361,-224.722 325.34,-223.593 328.116,-222.551 370.714,-206.561 420.15,-188.341 450.785,-177.089"/>
<polygon fill="green" stroke="green" stroke-width="0.823021" points="452.235,-180.285 460.417,-173.554 449.823,-173.714 452.235,-180.285"/>
</g>
<!-- &#45;3&#45;&gt;138 -->
<g id="edge27" class="edge"><title>&#45;3&#45;&gt;138</title>
<path fill="none" stroke="red" stroke-width="0.642085" d="M296.604,-222.419C284.568,-213.107 264.454,-197.546 248.463,-185.175"/>
<polygon fill="red" stroke="red" stroke-width="0.642085" points="250.593,-182.397 240.542,-179.046 246.309,-187.933 250.593,-182.397"/>
</g>
<!-- &#45;3&#45;&gt;139 -->
<g id="edge28" class="edge"><title>&#45;3&#45;&gt;139</title>
<path fill="none" stroke="green" stroke-width="0.207678" d="M294.784,-225.503C291.963,-224.446 288.957,-223.397 286.116,-222.551 214.178,-201.132 168.194,-245.009 121.116,-186.551 109.288,-171.865 108.504,-158.143 121.116,-144.125 171.933,-87.6427 385.957,-119.25 461.116,-108.125 486.64,-104.347 515.382,-98.783 536.491,-94.4488"/>
<polygon fill="green" stroke="green" stroke-width="0.207678" points="537.406,-97.8336 546.484,-92.3718 535.981,-90.98 537.406,-97.8336"/>
</g>
<!-- &#45;3&#45;&gt;140 -->
<g id="edge29" class="edge"><title>&#45;3&#45;&gt;140</title>
<path fill="none" stroke="green" stroke-width="0.107308" d="M319.38,-225.248C322.204,-224.205 325.228,-223.226 328.116,-222.551 492.452,-184.166 547.239,-243.455 706.116,-186.551 707.782,-185.954 709.445,-185.244 711.086,-184.452"/>
<polygon fill="green" stroke="green" stroke-width="0.107308" points="713.185,-187.282 720.097,-179.252 709.686,-181.219 713.185,-187.282"/>
</g>
<!-- &#45;3&#45;&gt;141 -->
<g id="edge30" class="edge"><title>&#45;3&#45;&gt;141</title>
<path fill="none" stroke="red" stroke-width="0.173734" d="M294.782,-225.833C266.459,-214.986 198.826,-189.016 194.116,-186.551 192.585,-185.751 191.038,-184.889 189.494,-183.988"/>
<polygon fill="red" stroke="red" stroke-width="0.173734" points="191.176,-180.911 180.845,-178.56 187.455,-186.84 191.176,-180.911"/>
</g>
<!-- &#45;4 -->
<g id="node4" class="node"><title>&#45;4</title>
<polygon fill="lightgray" stroke="black" points="409.116,-240.551 385.116,-240.551 385.116,-222.551 409.116,-222.551 409.116,-240.551"/>
<text text-anchor="middle" x="397.116" y="-229.351" font-family="Times New Roman,serif" font-size="9.00">&#45;4</text>
</g>
<!-- &#45;4&#45;&gt;132 -->
<g id="edge31" class="edge"><title>&#45;4&#45;&gt;132</title>
<path fill="none" stroke="red" stroke-width="0.46579" d="M390.403,-222.419C383.724,-214.326 373.148,-201.512 363.79,-190.175"/>
<polygon fill="red" stroke="red" stroke-width="0.46579" points="366.33,-187.753 357.265,-182.269 360.931,-192.209 366.33,-187.753"/>
</g>
<!-- &#45;4&#45;&gt;133 -->
<g id="edge32" class="edge"><title>&#45;4&#45;&gt;133</title>
<path fill="none" stroke="green" stroke-width="0.296599" stroke-dasharray="1,5" d="M409.301,-226.577C413.369,-225.271 417.931,-223.827 422.116,-222.551 479.909,-204.935 547.788,-185.568 585.996,-174.786"/>
<polygon fill="green" stroke="green" stroke-width="0.296599" points="587.277,-178.062 595.953,-171.982 585.379,-171.324 587.277,-178.062"/>
</g>
<!-- &#45;4&#45;&gt;134 -->
<g id="edge33" class="edge"><title>&#45;4&#45;&gt;134</title>
<path fill="none" stroke="red" stroke-width="0.254275" stroke-dasharray="1,5" d="M409.219,-226.274C413.281,-224.947 417.861,-223.568 422.116,-222.551 520.188,-199.119 552.331,-223.59 646.116,-186.551 647.722,-185.917 649.329,-185.186 650.919,-184.385"/>
<polygon fill="red" stroke="red" stroke-width="0.254275" points="652.837,-187.318 659.7,-179.246 649.301,-181.277 652.837,-187.318"/>
</g>
<!-- &#45;4&#45;&gt;135 -->
<g id="edge34" class="edge"><title>&#45;4&#45;&gt;135</title>
<path fill="none" stroke="red" stroke-width="0.584881" stroke-dasharray="1,5" d="M385.077,-224.671C368.732,-216.575 338.733,-201.314 314.116,-186.551 312.634,-185.663 311.125,-184.732 309.611,-183.779"/>
<polygon fill="red" stroke="red" stroke-width="0.584881" points="311.337,-180.726 301.048,-178.199 307.516,-186.591 311.337,-180.726"/>
</g>
<!-- &#45;4&#45;&gt;136 -->
<g id="edge35" class="edge"><title>&#45;4&#45;&gt;136</title>
<path fill="none" stroke="red" stroke-width="0.286899" d="M399.041,-222.474C403.756,-202.691 416.075,-151.01 424.001,-117.759"/>
<polygon fill="red" stroke="red" stroke-width="0.286899" points="427.491,-118.214 426.405,-107.675 420.681,-116.591 427.491,-118.214"/>
</g>
<!-- &#45;4&#45;&gt;137 -->
<g id="edge36" class="edge"><title>&#45;4&#45;&gt;137</title>
<path fill="none" stroke="green" stroke-width="0.146809" d="M407.628,-222.419C419.663,-213.107 439.777,-197.546 455.768,-185.175"/>
<polygon fill="green" stroke="green" stroke-width="0.146809" points="457.922,-187.933 463.69,-179.046 453.639,-182.397 457.922,-187.933"/>
</g>
<!-- &#45;4&#45;&gt;138 -->
<g id="edge37" class="edge"><title>&#45;4&#45;&gt;138</title>
<path fill="none" stroke="green" stroke-width="0.108099" d="M385.044,-226.942C351.676,-216.952 260.239,-189.477 254.116,-186.551 252.557,-185.807 250.988,-184.989 249.427,-184.122"/>
<polygon fill="green" stroke="green" stroke-width="0.108099" points="251.085,-181.033 240.729,-178.792 247.427,-187.002 251.085,-181.033"/>
</g>
<!-- &#45;4&#45;&gt;139 -->
<g id="edge38" class="edge"><title>&#45;4&#45;&gt;139</title>
<path fill="none" stroke="red" stroke-width="0.36196" d="M409.41,-226.285C437.004,-216.636 502.086,-193.44 510.116,-186.551 521.962,-176.388 540.868,-141.261 553.626,-115.816"/>
<polygon fill="red" stroke="red" stroke-width="0.36196" points="556.883,-117.125 558.186,-106.611 550.611,-114.018 556.883,-117.125"/>
</g>
<!-- &#45;4&#45;&gt;140 -->
<g id="edge39" class="edge"><title>&#45;4&#45;&gt;140</title>
<path fill="none" stroke="red" stroke-width="0.295916" d="M409.2,-226.191C413.261,-224.858 417.844,-223.497 422.116,-222.551 546.339,-195.047 587.017,-231.312 706.116,-186.551 707.732,-185.944 709.348,-185.233 710.944,-184.449"/>
<polygon fill="red" stroke="red" stroke-width="0.295916" points="712.841,-187.396 719.742,-179.357 709.334,-181.337 712.841,-187.396"/>
</g>
<!-- &#45;4&#45;&gt;141 -->
<g id="edge40" class="edge"><title>&#45;4&#45;&gt;141</title>
<path fill="none" stroke="green" stroke-width="0.299809" d="M385.08,-226.743C380.429,-225.336 375.048,-223.784 370.116,-222.551 292.656,-203.192 267.737,-217.447 194.116,-186.551 192.523,-185.883 190.927,-185.125 189.345,-184.304"/>
<polygon fill="green" stroke="green" stroke-width="0.299809" points="190.974,-181.201 180.588,-179.106 187.401,-187.221 190.974,-181.201"/>
</g>
<!-- &#45;5 -->
<g id="node5" class="node"><title>&#45;5</title>
<polygon fill="lightgray" stroke="black" points="455.116,-240.551 431.116,-240.551 431.116,-222.551 455.116,-222.551 455.116,-240.551"/>
<text text-anchor="middle" x="443.116" y="-229.351" font-family="Times New Roman,serif" font-size="9.00">&#45;5</text>
</g>
<!-- &#45;5&#45;&gt;132 -->
<g id="edge41" class="edge"><title>&#45;5&#45;&gt;132</title>
<path fill="none" stroke="red" stroke-width="0.873054" d="M430.976,-222.677C415.932,-212.919 389.88,-196.021 370.221,-183.27"/>
<polygon fill="red" stroke="red" stroke-width="0.873054" points="371.995,-180.25 361.701,-177.744 368.186,-186.122 371.995,-180.25"/>
</g>
<!-- &#45;5&#45;&gt;133 -->
<g id="edge42" class="edge"><title>&#45;5&#45;&gt;133</title>
<path fill="none" stroke="red" stroke-width="0.421467" d="M455.183,-226.046C458.399,-224.877 461.88,-223.641 465.116,-222.551 516.274,-205.323 531.658,-208.184 581.116,-186.551 583.828,-185.365 586.597,-184.021 589.33,-182.603"/>
<polygon fill="red" stroke="red" stroke-width="0.421467" points="591.289,-185.519 598.35,-177.621 587.904,-179.392 591.289,-185.519"/>
</g>
<!-- &#45;5&#45;&gt;134 -->
<g id="edge43" class="edge"><title>&#45;5&#45;&gt;134</title>
<path fill="none" stroke="red" stroke-width="0.359454" stroke-dasharray="1,5" d="M455.573,-225.648C458.662,-224.536 461.984,-223.427 465.116,-222.551 544.108,-200.472 570.399,-218.085 646.116,-186.551 647.71,-185.887 649.308,-185.133 650.89,-184.315"/>
<polygon fill="red" stroke="red" stroke-width="0.359454" points="652.831,-187.233 659.65,-179.124 649.263,-181.211 652.831,-187.233"/>
</g>
<!-- &#45;5&#45;&gt;135 -->
<g id="edge44" class="edge"><title>&#45;5&#45;&gt;135</title>
<path fill="none" stroke="red" stroke-width="0.302489" stroke-dasharray="1,5" d="M431.09,-226.65C401.165,-216.915 324.978,-191.944 314.116,-186.551 312.569,-185.783 311.008,-184.947 309.454,-184.066"/>
<polygon fill="red" stroke="red" stroke-width="0.302489" points="311.122,-180.982 300.777,-178.695 307.438,-186.934 311.122,-180.982"/>
</g>
<!-- &#45;5&#45;&gt;136 -->
<g id="edge45" class="edge"><title>&#45;5&#45;&gt;136</title>
<path fill="none" stroke="red" stroke-width="0.485266" d="M442.436,-222.474C440.781,-202.797 436.471,-151.565 433.672,-118.297"/>
<polygon fill="red" stroke="red" stroke-width="0.485266" points="437.148,-117.861 432.822,-108.19 430.172,-118.448 437.148,-117.861"/>
</g>
<!-- &#45;5&#45;&gt;137 -->
<g id="edge46" class="edge"><title>&#45;5&#45;&gt;137</title>
<path fill="none" stroke="green" stroke-width="0.540136" d="M447.802,-222.419C452.073,-215.006 458.627,-203.631 464.719,-193.059"/>
<polygon fill="green" stroke="green" stroke-width="0.540136" points="467.924,-194.506 469.884,-184.095 461.859,-191.012 467.924,-194.506"/>
</g>
<!-- &#45;5&#45;&gt;138 -->
<g id="edge47" class="edge"><title>&#45;5&#45;&gt;138</title>
<path fill="none" stroke="green" stroke-width="0.329579" stroke-dasharray="1,5" d="M430.976,-226.415C426.912,-225.097 422.34,-223.688 418.116,-222.551 346.055,-203.158 322.718,-215.92 254.116,-186.551 252.528,-185.872 250.935,-185.105 249.357,-184.277"/>
<polygon fill="green" stroke="green" stroke-width="0.329579" points="250.99,-181.176 240.608,-179.059 247.404,-187.188 250.99,-181.176"/>
</g>
<!-- &#45;5&#45;&gt;139 -->
<g id="edge48" class="edge"><title>&#45;5&#45;&gt;139</title>
<path fill="none" stroke="green" stroke-width="0.216065" stroke-dasharray="1,5" d="M455.26,-225.907C480.563,-216.133 537.085,-193.747 543.116,-186.551 558.997,-167.599 564.68,-139.794 566.572,-118.532"/>
<polygon fill="green" stroke="green" stroke-width="0.216065" points="570.075,-118.597 567.238,-108.39 563.09,-118.139 570.075,-118.597"/>
</g>
<!-- &#45;5&#45;&gt;140 -->
<g id="edge49" class="edge"><title>&#45;5&#45;&gt;140</title>
<path fill="none" stroke="green" stroke-width="0.466096" d="M455.544,-225.541C458.634,-224.432 461.964,-223.351 465.116,-222.551 570.088,-195.912 605.168,-225.774 706.116,-186.551 707.725,-185.926 709.336,-185.201 710.927,-184.407"/>
<polygon fill="green" stroke="green" stroke-width="0.466096" points="712.839,-187.344 719.714,-179.283 709.312,-181.297 712.839,-187.344"/>
</g>
<!-- &#45;5&#45;&gt;141 -->
<g id="edge50" class="edge"><title>&#45;5&#45;&gt;141</title>
<path fill="none" stroke="red" stroke-width="0.139635" d="M431.012,-226.274C426.95,-224.947 422.371,-223.568 418.116,-222.551 320.043,-199.119 287.9,-223.59 194.116,-186.551 192.509,-185.917 190.902,-185.186 189.312,-184.385"/>
<polygon fill="red" stroke="red" stroke-width="0.139635" points="190.93,-181.277 180.531,-179.246 187.394,-187.318 190.93,-181.277"/>
</g>
<!-- &#45;6 -->
<g id="node6" class="node"><title>&#45;6</title>
<polygon fill="lightgray" stroke="black" points="621.116,-240.551 597.116,-240.551 597.116,-222.551 621.116,-222.551 621.116,-240.551"/>
<text text-anchor="middle" x="609.116" y="-229.351" font-family="Times New Roman,serif" font-size="9.00">&#45;6</text>
</g>
<!-- &#45;6&#45;&gt;132 -->
<g id="edge51" class="edge"><title>&#45;6&#45;&gt;132</title>
<path fill="none" stroke="green" stroke-width="0.337673" d="M597.04,-227.625C557.768,-218.109 432.852,-187.84 374.586,-173.721"/>
<polygon fill="green" stroke="green" stroke-width="0.337673" points="375.061,-170.235 364.518,-171.282 373.412,-177.038 375.061,-170.235"/>
</g>
<!-- &#45;6&#45;&gt;133 -->
<g id="edge52" class="edge"><title>&#45;6&#45;&gt;133</title>
<path fill="none" stroke="red" stroke-width="0.219789" stroke-dasharray="1,5" d="M610.002,-222.419C610.721,-215.826 611.781,-206.101 612.817,-196.593"/>
<polygon fill="red" stroke="red" stroke-width="0.219789" points="616.311,-196.84 613.916,-186.519 609.352,-196.081 616.311,-196.84"/>
</g>
<!-- &#45;6&#45;&gt;134 -->
<g id="edge53" class="edge"><title>&#45;6&#45;&gt;134</title>
<path fill="none" stroke="green" stroke-width="0.580298" d="M617.601,-222.419C626.641,-213.755 641.326,-199.68 653.723,-187.799"/>
<polygon fill="green" stroke="green" stroke-width="0.580298" points="656.278,-190.199 661.076,-180.753 651.434,-185.145 656.278,-190.199"/>
</g>
<!-- &#45;6&#45;&gt;135 -->
<g id="edge54" class="edge"><title>&#45;6&#45;&gt;135</title>
<path fill="none" stroke="red" stroke-width="0.234419" d="M596.899,-227.383C590.451,-225.786 582.389,-223.905 575.116,-222.551 459.996,-201.118 423.5,-228.348 314.116,-186.551 312.502,-185.935 310.889,-185.218 309.295,-184.428"/>
<polygon fill="red" stroke="red" stroke-width="0.234419" points="310.908,-181.317 300.503,-179.32 307.391,-187.37 310.908,-181.317"/>
</g>
<!-- &#45;6&#45;&gt;136 -->
<g id="edge55" class="edge"><title>&#45;6&#45;&gt;136</title>
<path fill="none" stroke="green" stroke-width="0.262863" stroke-dasharray="1,5" d="M621.267,-229.729C660.242,-226.815 780.927,-215.556 804.116,-186.551 815.89,-171.824 816.526,-158.321 804.116,-144.125 764.711,-99.0505 596.209,-117.736 537.116,-108.125 511.647,-103.983 482.901,-98.4469 461.776,-94.2159"/>
<polygon fill="green" stroke="green" stroke-width="0.262863" points="462.269,-90.7448 451.774,-92.1961 460.884,-97.6063 462.269,-90.7448"/>
</g>
<!-- &#45;6&#45;&gt;137 -->
<g id="edge56" class="edge"><title>&#45;6&#45;&gt;137</title>
<path fill="none" stroke="red" stroke-width="0.24851" d="M596.747,-224.394C576.439,-214.285 535.538,-193.926 507.982,-180.209"/>
<polygon fill="red" stroke="red" stroke-width="0.24851" points="509.359,-176.985 498.847,-175.662 506.24,-183.252 509.359,-176.985"/>
</g>
<!-- &#45;6&#45;&gt;138 -->
<g id="edge57" class="edge"><title>&#45;6&#45;&gt;138</title>
<path fill="none" stroke="red" stroke-width="0.276012" d="M596.913,-227.307C590.469,-225.689 582.405,-223.813 575.116,-222.551 433.658,-198.067 388.86,-236.087 254.116,-186.551 252.495,-185.955 250.876,-185.254 249.277,-184.477"/>
<polygon fill="red" stroke="red" stroke-width="0.276012" points="250.883,-181.363 240.471,-179.405 247.389,-187.429 250.883,-181.363"/>
</g>
<!-- &#45;6&#45;&gt;139 -->
<g id="edge58" class="edge"><title>&#45;6&#45;&gt;139</title>
<path fill="none" stroke="red" stroke-width="0.703319" d="M621.41,-230.93C685.199,-232.516 972.619,-234.808 896.116,-144.125 858.188,-99.167 673.509,-90.1627 598.688,-88.3613"/>
<polygon fill="red" stroke="red" stroke-width="0.703319" points="598.548,-84.8577 588.476,-88.1444 598.399,-91.8561 598.548,-84.8577"/>
</g>
<!-- &#45;6&#45;&gt;140 -->
<g id="edge59" class="edge"><title>&#45;6&#45;&gt;140</title>
<path fill="none" stroke="green" stroke-width="0.209037" d="M621.38,-225.761C640.102,-218.278 676.733,-202.963 706.116,-186.551 707.623,-185.709 709.153,-184.815 710.684,-183.889"/>
<polygon fill="green" stroke="green" stroke-width="0.209037" points="712.75,-186.722 719.293,-178.389 708.982,-180.823 712.75,-186.722"/>
</g>
<!-- &#45;6&#45;&gt;141 -->
<g id="edge60" class="edge"><title>&#45;6&#45;&gt;141</title>
<path fill="none" stroke="green" stroke-width="0.178294" d="M596.922,-227.255C590.48,-225.622 582.416,-223.749 575.116,-222.551 407.273,-195.008 354.264,-243.843 194.116,-186.551 192.449,-185.955 190.785,-185.245 189.145,-184.453"/>
<polygon fill="green" stroke="green" stroke-width="0.178294" points="190.544,-181.22 180.133,-179.254 187.046,-187.283 190.544,-181.22"/>
</g>
<!-- &#45;7 -->
<g id="node7" class="node"><title>&#45;7</title>
<polygon fill="lightgray" stroke="black" points="498.116,-240.551 474.116,-240.551 474.116,-222.551 498.116,-222.551 498.116,-240.551"/>
<text text-anchor="middle" x="486.116" y="-229.351" font-family="Times New Roman,serif" font-size="9.00">&#45;7</text>
</g>
<!-- &#45;7&#45;&gt;132 -->
<g id="edge61" class="edge"><title>&#45;7&#45;&gt;132</title>
<path fill="none" stroke="red" stroke-width="0.846542" d="M474.009,-225.077C451.738,-215.005 403.718,-193.291 372.716,-179.272"/>
<polygon fill="red" stroke="red" stroke-width="0.846542" points="373.857,-175.946 363.303,-175.015 370.973,-182.324 373.857,-175.946"/>
</g>
<!-- &#45;7&#45;&gt;133 -->
<g id="edge62" class="edge"><title>&#45;7&#45;&gt;133</title>
<path fill="none" stroke="green" stroke-width="0.118793" d="M498.281,-225.337C516.516,-217.427 551.915,-201.706 581.116,-186.551 583.831,-185.142 586.636,-183.627 589.422,-182.082"/>
<polygon fill="green" stroke="green" stroke-width="0.118793" points="591.154,-185.124 598.122,-177.143 587.698,-179.037 591.154,-185.124"/>
</g>
<!-- &#45;7&#45;&gt;134 -->
<g id="edge63" class="edge"><title>&#45;7&#45;&gt;134</title>
<path fill="none" stroke="red" stroke-width="0.184013" d="M498.219,-228.609C525.553,-223.93 593.758,-210.604 646.116,-186.551 647.685,-185.83 649.263,-185.031 650.831,-184.178"/>
<polygon fill="red" stroke="red" stroke-width="0.184013" points="652.814,-187.069 659.547,-178.889 649.182,-181.085 652.814,-187.069"/>
</g>
<!-- &#45;7&#45;&gt;135 -->
<g id="edge64" class="edge"><title>&#45;7&#45;&gt;135</title>
<path fill="none" stroke="green" stroke-width="0.145655" stroke-dasharray="1,5" d="M474.094,-225.902C470.877,-224.734 467.385,-223.535 464.116,-222.551 398.461,-202.805 376.877,-214.145 314.116,-186.551 312.535,-185.856 310.947,-185.077 309.373,-184.24"/>
<polygon fill="green" stroke="green" stroke-width="0.145655" points="311.011,-181.142 300.636,-178.996 307.408,-187.143 311.011,-181.142"/>
</g>
<!-- &#45;7&#45;&gt;136 -->
<g id="edge65" class="edge"><title>&#45;7&#45;&gt;136</title>
<path fill="none" stroke="green" stroke-width="0.227749" d="M498.477,-228.394C507.95,-226.754 521.351,-224.461 533.116,-222.551 584.831,-214.155 732.014,-226.326 766.116,-186.551 778.389,-172.236 778.37,-158.456 766.116,-144.125 732.637,-104.973 587.868,-116.951 537.116,-108.125 511.694,-103.704 482.945,-98.1894 461.806,-94.0374"/>
<polygon fill="green" stroke="green" stroke-width="0.227749" points="462.285,-90.5645 451.797,-92.0615 460.93,-97.432 462.285,-90.5645"/>
</g>
<!-- &#45;7&#45;&gt;137 -->
<g id="edge66" class="edge"><title>&#45;7&#45;&gt;137</title>
<path fill="none" stroke="red" stroke-width="0.351802" d="M485.356,-222.419C484.74,-215.826 483.831,-206.101 482.943,-196.593"/>
<polygon fill="red" stroke="red" stroke-width="0.351802" points="486.417,-196.15 482.001,-186.519 479.447,-196.802 486.417,-196.15"/>
</g>
<!-- &#45;7&#45;&gt;138 -->
<g id="edge67" class="edge"><title>&#45;7&#45;&gt;138</title>
<path fill="none" stroke="red" stroke-width="0.217959" stroke-dasharray="1,5" d="M473.674,-225.589C470.585,-224.479 467.258,-223.385 464.116,-222.551 372.586,-198.273 342.008,-221.794 254.116,-186.551 252.513,-185.909 250.908,-185.171 249.32,-184.365"/>
<polygon fill="red" stroke="red" stroke-width="0.217959" points="250.941,-181.258 240.545,-179.212 247.396,-187.294 250.941,-181.258"/>
</g>
<!-- &#45;7&#45;&gt;139 -->
<g id="edge68" class="edge"><title>&#45;7&#45;&gt;139</title>
<path fill="none" stroke="red" stroke-width="0.190901" d="M498.471,-228.356C507.941,-226.695 521.34,-224.394 533.116,-222.551 589.004,-213.804 748.052,-229.286 785.116,-186.551 840.372,-122.84 670.889,-98.1445 598.366,-90.6513"/>
<polygon fill="red" stroke="red" stroke-width="0.190901" points="598.704,-87.1676 588.408,-89.6679 598.016,-94.1337 598.704,-87.1676"/>
</g>
<!-- &#45;7&#45;&gt;140 -->
<g id="edge69" class="edge"><title>&#45;7&#45;&gt;140</title>
<path fill="none" stroke="red" stroke-width="0.225142" d="M498.22,-228.418C541.432,-220.764 686.568,-194.704 706.116,-186.551 707.71,-185.886 709.307,-185.131 710.89,-184.313"/>
<polygon fill="red" stroke="red" stroke-width="0.225142" points="712.831,-187.231 719.649,-179.121 709.262,-181.209 712.831,-187.231"/>
</g>
<!-- &#45;7&#45;&gt;141 -->
<g id="edge70" class="edge"><title>&#45;7&#45;&gt;141</title>
<path fill="none" stroke="red" stroke-width="0.445733" stroke-dasharray="1,5" d="M473.696,-225.506C470.606,-224.398 467.273,-223.326 464.116,-222.551 346.543,-193.697 307.3,-229.507 194.116,-186.551 192.501,-185.938 190.887,-185.224 189.292,-184.437"/>
<polygon fill="red" stroke="red" stroke-width="0.445733" points="190.903,-181.325 180.497,-179.335 187.391,-187.38 190.903,-181.325"/>
</g>
<!-- &#45;8 -->
<g id="node8" class="node"><title>&#45;8</title>
<polygon fill="lightgray" stroke="black" points="566.116,-240.551 542.116,-240.551 542.116,-222.551 566.116,-222.551 566.116,-240.551"/>
<text text-anchor="middle" x="554.116" y="-229.351" font-family="Times New Roman,serif" font-size="9.00">&#45;8</text>
</g>
<!-- &#45;8&#45;&gt;132 -->
<g id="edge71" class="edge"><title>&#45;8&#45;&gt;132</title>
<path fill="none" stroke="red" stroke-width="0.251936" stroke-dasharray="1,5" d="M541.917,-226.821C509.541,-216.921 420.72,-189.762 373.899,-175.445"/>
<polygon fill="red" stroke="red" stroke-width="0.251936" points="374.896,-172.09 364.31,-172.513 372.85,-178.784 374.896,-172.09"/>
</g>
<!-- &#45;8&#45;&gt;133 -->
<g id="edge72" class="edge"><title>&#45;8&#45;&gt;133</title>
<path fill="none" stroke="red" stroke-width="0.917003" d="M561.968,-222.419C570.094,-214.003 583.149,-200.481 594.405,-188.824"/>
<polygon fill="red" stroke="red" stroke-width="0.917003" points="597.043,-191.13 601.472,-181.505 592.008,-186.268 597.043,-191.13"/>
</g>
<!-- &#45;8&#45;&gt;134 -->
<g id="edge73" class="edge"><title>&#45;8&#45;&gt;134</title>
<path fill="none" stroke="green" stroke-width="0.218063" d="M566.312,-225.403C584.207,-217.698 618.451,-202.373 646.116,-186.551 647.615,-185.694 649.138,-184.787 650.663,-183.852"/>
<polygon fill="green" stroke="green" stroke-width="0.218063" points="652.739,-186.679 659.258,-178.326 648.954,-180.791 652.739,-186.679"/>
</g>
<!-- &#45;8&#45;&gt;135 -->
<g id="edge74" class="edge"><title>&#45;8&#45;&gt;135</title>
<path fill="none" stroke="green" stroke-width="0.303224" d="M541.852,-228.447C494.396,-220.283 324.903,-190.949 314.116,-186.551 312.516,-185.899 310.914,-185.154 309.329,-184.343"/>
<polygon fill="green" stroke="green" stroke-width="0.303224" points="310.953,-181.238 300.561,-179.174 307.397,-187.268 310.953,-181.238"/>
</g>
<!-- &#45;8&#45;&gt;136 -->
<g id="edge75" class="edge"><title>&#45;8&#45;&gt;136</title>
<path fill="none" stroke="red" stroke-width="0.15521" d="M566.358,-227.514C572.813,-225.952 580.874,-224.064 588.116,-222.551 631.678,-213.452 756.616,-220.731 785.116,-186.551 797.191,-172.069 797.454,-158.384 785.116,-144.125 748.676,-102.013 592.036,-117.343 537.116,-108.125 511.669,-103.854 482.921,-98.3277 461.79,-94.1333"/>
<polygon fill="red" stroke="red" stroke-width="0.15521" points="462.277,-90.6614 451.784,-92.1338 460.905,-97.5257 462.277,-90.6614"/>
</g>
<!-- &#45;8&#45;&gt;137 -->
<g id="edge76" class="edge"><title>&#45;8&#45;&gt;137</title>
<path fill="none" stroke="green" stroke-width="0.587169" stroke-dasharray="1,5" d="M544.743,-222.419C534.47,-213.504 517.594,-198.86 503.664,-186.772"/>
<polygon fill="green" stroke="green" stroke-width="0.587169" points="505.721,-183.923 495.874,-180.013 501.133,-189.21 505.721,-183.923"/>
</g>
<!-- &#45;8&#45;&gt;138 -->
<g id="edge77" class="edge"><title>&#45;8&#45;&gt;138</title>
<path fill="none" stroke="red" stroke-width="0.270648" d="M541.761,-228.354C532.291,-226.692 518.892,-224.391 507.116,-222.551 394.9,-205.021 360.124,-227.318 254.116,-186.551 252.504,-185.931 250.892,-185.211 249.299,-184.42"/>
<polygon fill="red" stroke="red" stroke-width="0.270648" points="250.912,-181.309 240.508,-179.306 247.392,-187.36 250.912,-181.309"/>
</g>
<!-- &#45;8&#45;&gt;139 -->
<g id="edge78" class="edge"><title>&#45;8&#45;&gt;139</title>
<path fill="none" stroke="red" stroke-width="0.566761" stroke-dasharray="1,5" d="M566.325,-227.347C572.771,-225.739 580.834,-223.861 588.116,-222.551 651.378,-211.174 832.587,-234.748 875.116,-186.551 953.732,-97.4577 691.903,-88.2571 598.762,-87.7446"/>
<polygon fill="red" stroke="red" stroke-width="0.566761" points="598.532,-84.2441 588.524,-87.7201 598.515,-91.2441 598.532,-84.2441"/>
</g>
<!-- &#45;8&#45;&gt;140 -->
<g id="edge79" class="edge"><title>&#45;8&#45;&gt;140</title>
<path fill="none" stroke="green" stroke-width="0.217041" d="M566.312,-227.543C597.679,-219.724 680.482,-198.536 706.116,-186.551 707.68,-185.82 709.255,-185.012 710.819,-184.153"/>
<polygon fill="green" stroke="green" stroke-width="0.217041" points="712.81,-187.039 719.527,-178.846 709.167,-181.062 712.81,-187.039"/>
</g>
<!-- &#45;8&#45;&gt;141 -->
<g id="edge80" class="edge"><title>&#45;8&#45;&gt;141</title>
<path fill="none" stroke="red" stroke-width="0.231125" stroke-dasharray="1,5" d="M541.775,-228.263C532.312,-226.554 518.915,-224.233 507.116,-222.551 368.488,-202.796 325.475,-235.054 194.116,-186.551 192.495,-185.953 190.877,-185.25 189.279,-184.472"/>
<polygon fill="red" stroke="red" stroke-width="0.231125" points="190.886,-181.358 180.474,-179.396 187.39,-187.423 190.886,-181.358"/>
</g>
<!-- 0 -->
<g id="node9" class="node"><title>0</title>
<ellipse fill="lightblue" stroke="black" cx="518.116" cy="-14.8492" rx="14.7" ry="14.7"/>
<text text-anchor="middle" x="518.116" y="-12.6492" font-family="Times New Roman,serif" font-size="9.00">0</text>
</g>
<!-- 1 -->
<g id="node10" class="node"><title>1</title>
<ellipse fill="lightblue" stroke="black" cx="450.116" cy="-14.8492" rx="14.7" ry="14.7"/>
<text text-anchor="middle" x="450.116" y="-12.6492" font-family="Times New Roman,serif" font-size="9.00">1</text>
</g>
<!-- 132&#45;&gt;0 -->
<g id="edge81" class="edge"><title>132&#45;&gt;0</title>
<path fill="none" stroke="green" stroke-width="0.458239" d="M350.873,-145.194C359.466,-123.324 376.24,-87.7279 401.116,-65.6985 415.532,-52.9316 464.623,-34.4189 494.442,-23.918"/>
<polygon fill="green" stroke="green" stroke-width="0.458239" points="495.802,-27.1508 504.097,-20.5604 493.503,-20.5392 495.802,-27.1508"/>
</g>
<!-- 132&#45;&gt;1 -->
<g id="edge82" class="edge"><title>132&#45;&gt;1</title>
<path fill="none" stroke="green" stroke-width="0.261912" d="M344.601,-143.923C346.061,-122.534 351.153,-88.884 368.116,-65.6985 382.791,-45.6387 408.21,-32.0297 426.867,-24.1654"/>
<polygon fill="green" stroke="green" stroke-width="0.261912" points="428.163,-27.4168 436.169,-20.4779 425.583,-20.9094 428.163,-27.4168"/>
</g>
<!-- 133&#45;&gt;0 -->
<g id="edge83" class="edge"><title>133&#45;&gt;0</title>
<path fill="none" stroke="red" stroke-width="0.49497" d="M625.552,-146.023C634.968,-124.933 645.943,-90.0678 630.116,-65.6985 610.96,-36.2057 569.873,-24.0177 543.146,-19.0826"/>
<polygon fill="red" stroke="red" stroke-width="0.49497" points="543.444,-15.5851 533.011,-17.4295 542.317,-22.4938 543.444,-15.5851"/>
</g>
<!-- 133&#45;&gt;1 -->
<g id="edge84" class="edge"><title>133&#45;&gt;1</title>
<path fill="none" stroke="red" stroke-width="0.361037" d="M617.789,-144.029C618.453,-122.095 616.026,-87.3876 597.116,-65.6985 595.008,-63.2811 514.7,-36.8783 473.696,-23.5104"/>
<polygon fill="red" stroke="red" stroke-width="0.361037" points="474.551,-20.108 463.959,-20.3402 472.384,-26.7642 474.551,-20.108"/>
</g>
<!-- 134&#45;&gt;0 -->
<g id="edge85" class="edge"><title>134&#45;&gt;0</title>
<path fill="none" stroke="green" stroke-width="0.318911" d="M675.53,-144.025C673.837,-122.088 667.934,-87.3771 648.116,-65.6985 620.493,-35.4837 572.521,-23.4295 543.214,-18.7312"/>
<polygon fill="green" stroke="green" stroke-width="0.318911" points="543.372,-15.2183 532.978,-17.2681 542.382,-22.1479 543.372,-15.2183"/>
</g>
<!-- 134&#45;&gt;1 -->
<g id="edge86" class="edge"><title>134&#45;&gt;1</title>
<path fill="none" stroke="green" stroke-width="0.1389" d="M670.032,-144.634C662.112,-122.238 646.121,-86.1484 620.116,-65.6985 574.334,-29.6975 549.898,-46.4429 494.116,-29.6985 487.471,-27.704 480.286,-25.4736 473.686,-23.3952"/>
<polygon fill="green" stroke="green" stroke-width="0.1389" points="474.549,-19.9972 463.958,-20.3102 472.432,-26.6696 474.549,-19.9972"/>
</g>
<!-- 135&#45;&gt;0 -->
<g id="edge87" class="edge"><title>135&#45;&gt;0</title>
<path fill="none" stroke="green" stroke-width="0.227143" d="M294.389,-146.389C307.895,-124.331 333.64,-87.1913 365.116,-65.6985 367.874,-63.815 451.936,-36.9134 494.258,-23.4335"/>
<polygon fill="green" stroke="green" stroke-width="0.227143" points="495.576,-26.687 504.044,-20.3189 493.453,-20.0167 495.576,-26.687"/>
</g>
<!-- 135&#45;&gt;1 -->
<g id="edge88" class="edge"><title>135&#45;&gt;1</title>
<path fill="none" stroke="red" stroke-width="0.48121" d="M292.285,-145.424C302.442,-123.77 321.6,-88.3764 347.116,-65.6985 370.446,-44.9631 403.936,-30.903 426.328,-23.1349"/>
<polygon fill="red" stroke="red" stroke-width="0.48121" points="427.654,-26.3826 436.046,-19.916 425.453,-19.7376 427.654,-26.3826"/>
</g>
<!-- 136&#45;&gt;0 -->
<g id="edge89" class="edge"><title>136&#45;&gt;0</title>
<path fill="none" stroke="red" stroke-width="0.391047" d="M447.48,-72.7335C462.099,-60.9606 483.526,-43.7051 498.943,-31.2891"/>
<polygon fill="red" stroke="red" stroke-width="0.391047" points="501.216,-33.953 506.809,-24.9548 496.825,-28.501 501.216,-33.953"/>
</g>
<!-- 136&#45;&gt;1 -->
<g id="edge90" class="edge"><title>136&#45;&gt;1</title>
<path fill="none" stroke="red" stroke-width="0.481697" d="M436.509,-66.022C438.756,-57.7386 441.381,-48.0566 443.724,-39.4193"/>
<polygon fill="red" stroke="red" stroke-width="0.481697" points="447.156,-40.1335 446.396,-29.566 440.4,-38.3013 447.156,-40.1335"/>
</g>
<!-- 137&#45;&gt;0 -->
<g id="edge91" class="edge"><title>137&#45;&gt;0</title>
<path fill="none" stroke="green" stroke-width="0.156956" d="M485.162,-144.62C492.138,-117.358 504.709,-68.2375 512.144,-39.1826"/>
<polygon fill="green" stroke="green" stroke-width="0.156956" points="515.543,-40.0192 514.632,-29.4636 508.762,-38.2837 515.543,-40.0192"/>
</g>
<!-- 137&#45;&gt;1 -->
<g id="edge92" class="edge"><title>137&#45;&gt;1</title>
<path fill="none" stroke="green" stroke-width="0.238813" d="M476.416,-144.281C472.697,-124.328 466.726,-92.8541 461.116,-65.6985 459.37,-57.2497 457.362,-48.0186 455.542,-39.8216"/>
<polygon fill="green" stroke="green" stroke-width="0.238813" points="458.898,-38.7886 453.298,-29.7945 452.067,-40.3175 458.898,-38.7886"/>
</g>
<!-- 137&#45;&gt;136 -->
<g id="edge101" class="edge"><title>137&#45;&gt;136</title>
<path fill="none" stroke="red" stroke-width="0.347012" stroke-dasharray="1,5" d="M468.997,-146.996C462.732,-137.224 454.783,-124.826 447.786,-113.913"/>
<polygon fill="red" stroke="red" stroke-width="0.347012" points="450.534,-111.715 442.19,-105.185 444.641,-115.493 450.534,-111.715"/>
</g>
<!-- 137&#45;&gt;139 -->
<g id="edge100" class="edge"><title>137&#45;&gt;139</title>
<path fill="none" stroke="green" stroke-width="0.273509" d="M495.669,-150.675C509.071,-138.902 528.61,-121.737 543.869,-108.333"/>
<polygon fill="green" stroke="green" stroke-width="0.273509" points="546.2,-110.944 551.403,-101.715 541.58,-105.685 546.2,-110.944"/>
</g>
<!-- 138&#45;&gt;0 -->
<g id="edge93" class="edge"><title>138&#45;&gt;0</title>
<path fill="none" stroke="green" stroke-width="0.974544" d="M241.251,-152.411C255.781,-141.799 276.663,-125.334 292.116,-108.125 307.21,-91.3149 301.579,-78.614 320.116,-65.6985 377.787,-25.5157 406.322,-48.2633 474.116,-29.6985 480.806,-27.8662 488.007,-25.6882 494.607,-23.6083"/>
<polygon fill="green" stroke="green" stroke-width="0.974544" points="495.874,-26.8773 504.323,-20.4842 493.731,-20.2133 495.874,-26.8773"/>
</g>
<!-- 138&#45;&gt;1 -->
<g id="edge94" class="edge"><title>138&#45;&gt;1</title>
<path fill="none" stroke="green" stroke-width="0.314792" d="M234.946,-146.916C249.363,-125.058 276.831,-87.7704 309.116,-65.6985 345.576,-40.7715 395.84,-26.9612 425.463,-20.5002"/>
<polygon fill="green" stroke="green" stroke-width="0.314792" points="426.297,-23.9017 435.379,-18.4453 424.877,-17.0473 426.297,-23.9017"/>
</g>
<!-- 139&#45;&gt;0 -->
<g id="edge95" class="edge"><title>139&#45;&gt;0</title>
<path fill="none" stroke="green" stroke-width="0.315751" d="M555.254,-68.9515C548.332,-59.0535 539.555,-46.5049 532.273,-36.0917"/>
<polygon fill="green" stroke="green" stroke-width="0.315751" points="534.941,-33.7995 526.341,-27.6107 529.204,-37.8113 534.941,-33.7995"/>
</g>
<!-- 139&#45;&gt;1 -->
<g id="edge96" class="edge"><title>139&#45;&gt;1</title>
<path fill="none" stroke="red" stroke-width="0.460564" d="M549.346,-75.2707C528.426,-62.7433 493.71,-41.9548 471.381,-28.5832"/>
<polygon fill="red" stroke="red" stroke-width="0.460564" points="473.023,-25.4871 462.645,-23.3523 469.427,-31.4927 473.023,-25.4871"/>
</g>
<!-- 140&#45;&gt;0 -->
<g id="edge97" class="edge"><title>140&#45;&gt;0</title>
<path fill="none" stroke="red" stroke-width="1.27252" d="M728.656,-145.169C719.056,-122.938 700.312,-86.6659 673.116,-65.6985 633.896,-35.4611 575.763,-23.2634 542.973,-18.5758"/>
<polygon fill="red" stroke="red" stroke-width="1.27252" points="543.257,-15.0833 532.888,-17.2588 542.35,-22.0243 543.257,-15.0833"/>
</g>
<!-- 140&#45;&gt;1 -->
<g id="edge98" class="edge"><title>140&#45;&gt;1</title>
<path fill="none" stroke="red" stroke-width="0.145552" d="M725.908,-146.711C711.965,-124.276 684.803,-86.005 651.116,-65.6985 589.804,-28.7407 563.202,-48.46 494.116,-29.6985 487.421,-27.8804 480.219,-25.707 473.619,-23.6269"/>
<polygon fill="red" stroke="red" stroke-width="0.145552" points="474.496,-20.2322 463.904,-20.4994 472.351,-26.8954 474.496,-20.2322"/>
</g>
<!-- 141&#45;&gt;1 -->
<g id="edge99" class="edge"><title>141&#45;&gt;1</title>
<path fill="none" stroke="red" stroke-width="0.221606" d="M175.902,-147.676C192.417,-125.582 224.555,-86.9158 261.116,-65.6985 314.542,-34.6934 387.549,-22.5772 425.278,-18.164"/>
<polygon fill="red" stroke="red" stroke-width="0.221606" points="425.802,-21.6278 435.367,-17.0715 425.049,-14.6685 425.802,-21.6278"/>
</g>
</g>
</svg>
