<?xml version="1.0" encoding="UTF-8" standalone="no"?>
<!DOCTYPE svg PUBLIC "-//W3C//DTD SVG 1.1//EN"
 "http://www.w3.org/Graphics/SVG/1.1/DTD/svg11.dtd">
<!-- Generated by graphviz version 2.38.0 (20140413.2041)
 -->
<!-- Title: %3 Pages: 1 -->
<svg width="652pt" height="164pt"
 viewBox="0.00 0.00 652.01 164.47" xmlns="http://www.w3.org/2000/svg" xmlns:xlink="http://www.w3.org/1999/xlink">
<g id="graph0" class="graph" transform="scale(1 1) rotate(0) translate(4 160.468)">
<title>%3</title>
<polygon fill="white" stroke="none" points="-4,4 -4,-160.468 648.009,-160.468 648.009,4 -4,4"/>
<!-- &#45;1 -->
<g id="node1" class="node"><title>&#45;1</title>
<polygon fill="lightgray" stroke="black" points="291.045,-156.468 267.045,-156.468 267.045,-138.468 291.045,-138.468 291.045,-156.468"/>
<text text-anchor="middle" x="279.045" y="-145.268" font-family="Times New Roman,serif" font-size="9.00">&#45;1</text>
</g>
<!-- 0 -->
<g id="node3" class="node"><title>0</title>
<ellipse fill="lightblue" stroke="black" cx="341.045" cy="-14.8492" rx="14.7" ry="14.7"/>
<text text-anchor="middle" x="341.045" y="-12.6492" font-family="Times New Roman,serif" font-size="9.00">0</text>
</g>
<!-- &#45;1&#45;&gt;0 -->
<g id="edge41" class="edge"><title>&#45;1&#45;&gt;0</title>
<path fill="none" stroke="green" stroke-width="0.272063" d="M291.243,-144.083C299.396,-142.49 310.363,-140.35 320.045,-138.468 361.372,-130.437 479.252,-134.943 506.045,-102.468 547.544,-52.1657 421.406,-27.3776 365.884,-19.11"/>
<polygon fill="green" stroke="green" stroke-width="0.272063" points="366.185,-15.6177 355.792,-17.6741 365.199,-22.5479 366.185,-15.6177"/>
</g>
<!-- 1 -->
<g id="node4" class="node"><title>1</title>
<ellipse fill="lightblue" stroke="black" cx="276.045" cy="-14.8492" rx="14.7" ry="14.7"/>
<text text-anchor="middle" x="276.045" y="-12.6492" font-family="Times New Roman,serif" font-size="9.00">1</text>
</g>
<!-- &#45;1&#45;&gt;1 -->
<g id="edge42" class="edge"><title>&#45;1&#45;&gt;1</title>
<path fill="none" stroke="red" stroke-width="0.198368" d="M266.999,-146.443C219.423,-146.063 45.5594,-141.958 12.0445,-102.468 -54.4463,-24.1232 172.521,-16.1861 250.6,-15.7292"/>
<polygon fill="red" stroke="red" stroke-width="0.198368" points="250.994,-19.2285 260.987,-15.7085 250.98,-12.2285 250.994,-19.2285"/>
</g>
<!-- 82 -->
<g id="node5" class="node"><title>82</title>
<ellipse fill="white" stroke="black" cx="259.045" cy="-84.0833" rx="18.2703" ry="18.2703"/>
<text text-anchor="middle" x="259.045" y="-81.8833" font-family="Times New Roman,serif" font-size="9.00">82</text>
</g>
<!-- &#45;1&#45;&gt;82 -->
<g id="edge1" class="edge"><title>&#45;1&#45;&gt;82</title>
<path fill="none" stroke="red" stroke-width="0.207706" stroke-dasharray="1,5" d="M276.43,-138.443C274.182,-131.545 270.81,-121.195 267.632,-111.441"/>
<polygon fill="red" stroke="red" stroke-width="0.207706" points="270.872,-110.086 264.446,-101.662 264.216,-112.254 270.872,-110.086"/>
</g>
<!-- 83 -->
<g id="node6" class="node"><title>83</title>
<ellipse fill="white" stroke="black" cx="314.045" cy="-84.0833" rx="18.2703" ry="18.2703"/>
<text text-anchor="middle" x="314.045" y="-81.8833" font-family="Times New Roman,serif" font-size="9.00">83</text>
</g>
<!-- &#45;1&#45;&gt;83 -->
<g id="edge2" class="edge"><title>&#45;1&#45;&gt;83</title>
<path fill="none" stroke="red" stroke-width="0.145308" d="M283.62,-138.443C287.862,-131.003 294.394,-119.548 300.319,-109.156"/>
<polygon fill="red" stroke="red" stroke-width="0.145308" points="303.384,-110.846 305.297,-100.425 297.303,-107.378 303.384,-110.846"/>
</g>
<!-- 84 -->
<g id="node7" class="node"><title>84</title>
<ellipse fill="white" stroke="black" cx="369.045" cy="-84.0833" rx="18.2703" ry="18.2703"/>
<text text-anchor="middle" x="369.045" y="-81.8833" font-family="Times New Roman,serif" font-size="9.00">84</text>
</g>
<!-- &#45;1&#45;&gt;84 -->
<g id="edge3" class="edge"><title>&#45;1&#45;&gt;84</title>
<path fill="none" stroke="red" stroke-width="0.145668" d="M290.81,-138.443C304.687,-128.978 328.09,-113.016 345.692,-101.011"/>
<polygon fill="red" stroke="red" stroke-width="0.145668" points="347.998,-103.675 354.287,-95.1488 344.053,-97.8921 347.998,-103.675"/>
</g>
<!-- 85 -->
<g id="node8" class="node"><title>85</title>
<ellipse fill="white" stroke="black" cx="424.045" cy="-84.0833" rx="18.2703" ry="18.2703"/>
<text text-anchor="middle" x="424.045" y="-81.8833" font-family="Times New Roman,serif" font-size="9.00">85</text>
</g>
<!-- &#45;1&#45;&gt;85 -->
<g id="edge4" class="edge"><title>&#45;1&#45;&gt;85</title>
<path fill="none" stroke="red" stroke-width="0.163921" d="M291.331,-142.728C313.013,-135.937 359.25,-120.591 396.045,-102.468 397.424,-101.789 398.822,-101.06 400.221,-100.301"/>
<polygon fill="red" stroke="red" stroke-width="0.163921" points="402.377,-103.094 409.241,-95.0239 398.842,-97.0521 402.377,-103.094"/>
</g>
<!-- 86 -->
<g id="node9" class="node"><title>86</title>
<ellipse fill="white" stroke="black" cx="479.045" cy="-84.0833" rx="18.2703" ry="18.2703"/>
<text text-anchor="middle" x="479.045" y="-81.8833" font-family="Times New Roman,serif" font-size="9.00">86</text>
</g>
<!-- &#45;1&#45;&gt;86 -->
<g id="edge5" class="edge"><title>&#45;1&#45;&gt;86</title>
<path fill="none" stroke="red" stroke-width="0.106734" d="M291.312,-143.841C325.524,-136.434 421.416,-115.101 451.045,-102.468 452.459,-101.865 453.885,-101.197 455.305,-100.484"/>
<polygon fill="red" stroke="red" stroke-width="0.106734" points="457.408,-103.316 464.39,-95.3471 453.962,-97.2226 457.408,-103.316"/>
</g>
<!-- 87 -->
<g id="node10" class="node"><title>87</title>
<ellipse fill="white" stroke="black" cx="609.045" cy="-84.0833" rx="18.2703" ry="18.2703"/>
<text text-anchor="middle" x="609.045" y="-81.8833" font-family="Times New Roman,serif" font-size="9.00">87</text>
</g>
<!-- &#45;1&#45;&gt;87 -->
<g id="edge6" class="edge"><title>&#45;1&#45;&gt;87</title>
<path fill="none" stroke="green" stroke-width="0.170083" d="M291.226,-143.993C299.372,-142.361 310.337,-140.213 320.045,-138.468 417.129,-121.021 442.434,-122.372 539.045,-102.468 553.034,-99.586 568.453,-95.821 581.252,-92.5319"/>
<polygon fill="green" stroke="green" stroke-width="0.170083" points="582.504,-95.8223 591.297,-89.9109 580.737,-89.049 582.504,-95.8223"/>
</g>
<!-- 88 -->
<g id="node11" class="node"><title>88</title>
<ellipse fill="white" stroke="black" cx="94.0445" cy="-84.0833" rx="18.2703" ry="18.2703"/>
<text text-anchor="middle" x="94.0445" y="-81.8833" font-family="Times New Roman,serif" font-size="9.00">88</text>
</g>
<!-- &#45;1&#45;&gt;88 -->
<g id="edge7" class="edge"><title>&#45;1&#45;&gt;88</title>
<path fill="none" stroke="red" stroke-width="0.313328" d="M266.829,-144.269C239.875,-139.157 173.607,-125.151 122.045,-102.468 120.637,-101.849 119.216,-101.168 117.801,-100.445"/>
<polygon fill="red" stroke="red" stroke-width="0.313328" points="119.151,-97.1864 108.729,-95.279 115.687,-103.269 119.151,-97.1864"/>
</g>
<!-- 89 -->
<g id="node12" class="node"><title>89</title>
<ellipse fill="white" stroke="black" cx="149.045" cy="-84.0833" rx="18.2703" ry="18.2703"/>
<text text-anchor="middle" x="149.045" y="-81.8833" font-family="Times New Roman,serif" font-size="9.00">89</text>
</g>
<!-- &#45;1&#45;&gt;89 -->
<g id="edge8" class="edge"><title>&#45;1&#45;&gt;89</title>
<path fill="none" stroke="red" stroke-width="0.26303" d="M266.842,-141.884C247.43,-134.442 208.496,-118.9 177.045,-102.468 175.713,-101.773 174.361,-101.037 173.005,-100.277"/>
<polygon fill="red" stroke="red" stroke-width="0.26303" points="174.597,-97.152 164.21,-95.0671 171.03,-103.175 174.597,-97.152"/>
</g>
<!-- 90 -->
<g id="node13" class="node"><title>90</title>
<ellipse fill="white" stroke="black" cx="39.0445" cy="-84.0833" rx="18.2703" ry="18.2703"/>
<text text-anchor="middle" x="39.0445" y="-81.8833" font-family="Times New Roman,serif" font-size="9.00">90</text>
</g>
<!-- &#45;1&#45;&gt;90 -->
<g id="edge9" class="edge"><title>&#45;1&#45;&gt;90</title>
<path fill="none" stroke="red" stroke-width="0.124544" d="M266.659,-145.422C233.316,-142.289 139.301,-131.34 67.0445,-102.468 65.6165,-101.897 64.1798,-101.255 62.7519,-100.562"/>
<polygon fill="red" stroke="red" stroke-width="0.124544" points="64.0815,-97.2964 53.6426,-95.4849 60.6734,-103.411 64.0815,-97.2964"/>
</g>
<!-- 91 -->
<g id="node14" class="node"><title>91</title>
<ellipse fill="white" stroke="black" cx="204.045" cy="-84.0833" rx="18.2703" ry="18.2703"/>
<text text-anchor="middle" x="204.045" y="-81.8833" font-family="Times New Roman,serif" font-size="9.00">91</text>
</g>
<!-- &#45;1&#45;&gt;91 -->
<g id="edge10" class="edge"><title>&#45;1&#45;&gt;91</title>
<path fill="none" stroke="green" stroke-width="0.33098" d="M269.24,-138.443C258.286,-129.478 240.21,-114.684 225.867,-102.944"/>
<polygon fill="green" stroke="green" stroke-width="0.33098" points="227.89,-100.077 217.935,-96.4518 223.456,-105.494 227.89,-100.077"/>
</g>
<!-- &#45;2 -->
<g id="node2" class="node"><title>&#45;2</title>
<polygon fill="lightgray" stroke="black" points="353.045,-156.468 329.045,-156.468 329.045,-138.468 353.045,-138.468 353.045,-156.468"/>
<text text-anchor="middle" x="341.045" y="-145.268" font-family="Times New Roman,serif" font-size="9.00">&#45;2</text>
</g>
<!-- &#45;2&#45;&gt;0 -->
<g id="edge43" class="edge"><title>&#45;2&#45;&gt;0</title>
<path fill="none" stroke="red" stroke-width="0.154005" d="M353.287,-146.65C404.233,-147.121 598.519,-146.006 636.045,-102.468 646.714,-90.0895 646.594,-78.1797 636.045,-65.6985 601.497,-24.8229 431.406,-17.4534 366.383,-16.1336"/>
<polygon fill="red" stroke="red" stroke-width="0.154005" points="366.257,-12.6311 356.199,-15.96 366.138,-19.6301 366.257,-12.6311"/>
</g>
<!-- &#45;2&#45;&gt;1 -->
<g id="edge44" class="edge"><title>&#45;2&#45;&gt;1</title>
<path fill="none" stroke="red" stroke-width="0.26722" d="M353.275,-145.108C388.198,-140.947 487.079,-127.153 506.045,-102.468 516.001,-89.509 516.463,-78.2888 506.045,-65.6985 451.529,0.180813 399.747,-51.4324 317.045,-29.6985 311.322,-28.1947 305.241,-26.3055 299.562,-24.4104"/>
<polygon fill="red" stroke="red" stroke-width="0.26722" points="300.537,-21.0438 289.942,-21.0747 298.244,-27.6576 300.537,-21.0438"/>
</g>
<!-- &#45;2&#45;&gt;82 -->
<g id="edge11" class="edge"><title>&#45;2&#45;&gt;82</title>
<path fill="none" stroke="green" stroke-width="0.119552" d="M330.324,-138.443C318.017,-129.23 297.485,-113.86 281.61,-101.976"/>
<polygon fill="green" stroke="green" stroke-width="0.119552" points="283.454,-98.9842 273.351,-95.7932 279.259,-104.588 283.454,-98.9842"/>
</g>
<!-- &#45;2&#45;&gt;83 -->
<g id="edge12" class="edge"><title>&#45;2&#45;&gt;83</title>
<path fill="none" stroke="green" stroke-width="0.103977" d="M337.515,-138.443C334.395,-131.35 329.67,-120.609 325.276,-110.618"/>
<polygon fill="green" stroke="green" stroke-width="0.103977" points="328.457,-109.157 321.227,-101.412 322.049,-111.975 328.457,-109.157"/>
</g>
<!-- &#45;2&#45;&gt;84 -->
<g id="edge13" class="edge"><title>&#45;2&#45;&gt;84</title>
<path fill="none" stroke="green" stroke-width="0.234344" d="M344.705,-138.443C347.94,-131.35 352.84,-120.609 357.397,-110.618"/>
<polygon fill="green" stroke="green" stroke-width="0.234344" points="360.63,-111.963 361.596,-101.412 354.262,-109.058 360.63,-111.963"/>
</g>
<!-- &#45;2&#45;&gt;85 -->
<g id="edge14" class="edge"><title>&#45;2&#45;&gt;85</title>
<path fill="none" stroke="red" stroke-width="0.395171" d="M351.895,-138.443C364.353,-129.23 385.135,-113.86 401.204,-101.976"/>
<polygon fill="red" stroke="red" stroke-width="0.395171" points="403.604,-104.554 409.563,-95.7932 399.442,-98.9255 403.604,-104.554"/>
</g>
<!-- &#45;2&#45;&gt;86 -->
<g id="edge15" class="edge"><title>&#45;2&#45;&gt;86</title>
<path fill="none" stroke="green" stroke-width="0.147456" d="M353.229,-142.384C373.846,-135.3 416.719,-119.821 451.045,-102.468 452.417,-101.774 453.81,-101.035 455.204,-100.266"/>
<polygon fill="green" stroke="green" stroke-width="0.147456" points="457.369,-103.053 464.211,-94.9633 453.818,-97.0206 457.369,-103.053"/>
</g>
<!-- &#45;2&#45;&gt;87 -->
<g id="edge16" class="edge"><title>&#45;2&#45;&gt;87</title>
<path fill="none" stroke="green" stroke-width="0.109083" d="M353.176,-145.552C388.594,-142.595 494.56,-131.738 577.045,-102.468 579.636,-101.548 582.271,-100.439 584.86,-99.2315"/>
<polygon fill="green" stroke="green" stroke-width="0.109083" points="586.586,-102.28 593.873,-94.5887 583.38,-96.0568 586.586,-102.28"/>
</g>
<!-- &#45;2&#45;&gt;88 -->
<g id="edge17" class="edge"><title>&#45;2&#45;&gt;88</title>
<path fill="none" stroke="red" stroke-width="0.291013" d="M328.952,-144.099C283.741,-135.233 126.98,-104.422 122.045,-102.468 120.615,-101.902 119.177,-101.263 117.748,-100.573"/>
<polygon fill="red" stroke="red" stroke-width="0.291013" points="119.075,-97.3068 108.635,-95.5042 115.672,-103.424 119.075,-97.3068"/>
</g>
<!-- &#45;2&#45;&gt;89 -->
<g id="edge18" class="edge"><title>&#45;2&#45;&gt;89</title>
<path fill="none" stroke="red" stroke-width="0.196078" d="M328.877,-143.693C295.859,-136.086 205.176,-114.657 177.045,-102.468 175.634,-101.857 174.21,-101.182 172.793,-100.464"/>
<polygon fill="red" stroke="red" stroke-width="0.196078" points="174.139,-97.204 163.715,-95.3122 170.684,-103.292 174.139,-97.204"/>
</g>
<!-- &#45;2&#45;&gt;90 -->
<g id="edge19" class="edge"><title>&#45;2&#45;&gt;90</title>
<path fill="none" stroke="green" stroke-width="0.173547" d="M328.868,-143.962C320.724,-142.318 309.76,-140.166 300.045,-138.468 196.824,-120.431 165.315,-138.837 67.0445,-102.468 65.6024,-101.934 64.1544,-101.321 62.7178,-100.651"/>
<polygon fill="green" stroke="green" stroke-width="0.173547" points="64.0337,-97.3807 53.5826,-95.6409 60.6676,-103.518 64.0337,-97.3807"/>
</g>
<!-- &#45;2&#45;&gt;91 -->
<g id="edge20" class="edge"><title>&#45;2&#45;&gt;91</title>
<path fill="none" stroke="red" stroke-width="0.125123" d="M328.974,-142.366C308.549,-135.256 266.074,-119.739 232.045,-102.468 230.673,-101.772 229.281,-101.031 227.888,-100.261"/>
<polygon fill="red" stroke="red" stroke-width="0.125123" points="229.275,-97.0158 218.883,-94.9542 225.721,-103.047 229.275,-97.0158"/>
</g>
<!-- 82&#45;&gt;0 -->
<g id="edge21" class="edge"><title>82&#45;&gt;0</title>
<path fill="none" stroke="red" stroke-width="0.123151" d="M272.955,-71.6779C286.4,-60.6538 306.88,-43.8614 321.869,-31.572"/>
<polygon fill="red" stroke="red" stroke-width="0.123151" points="324.451,-33.9812 329.964,-24.9342 320.012,-28.5681 324.451,-33.9812"/>
</g>
<!-- 82&#45;&gt;1 -->
<g id="edge22" class="edge"><title>82&#45;&gt;1</title>
<path fill="none" stroke="red" stroke-width="0.259513" d="M263.334,-66.1173C265.399,-57.9528 267.906,-48.0354 270.147,-39.1739"/>
<polygon fill="red" stroke="red" stroke-width="0.259513" points="273.554,-39.9776 272.612,-29.4247 266.767,-38.2616 273.554,-39.9776"/>
</g>
<!-- 83&#45;&gt;0 -->
<g id="edge23" class="edge"><title>83&#45;&gt;0</title>
<path fill="none" stroke="red" stroke-width="0.295205" d="M320.58,-66.8078C324.019,-58.2457 328.287,-47.6168 332.035,-38.2851"/>
<polygon fill="red" stroke="red" stroke-width="0.295205" points="335.354,-39.4116 335.833,-28.8276 328.858,-36.803 335.354,-39.4116"/>
</g>
<!-- 83&#45;&gt;1 -->
<g id="edge24" class="edge"><title>83&#45;&gt;1</title>
<path fill="none" stroke="green" stroke-width="0.271354" d="M305.422,-67.8268C300.311,-58.7838 293.754,-47.1837 288.133,-37.2373"/>
<polygon fill="green" stroke="green" stroke-width="0.271354" points="291.075,-35.3288 283.107,-28.3452 284.981,-38.7731 291.075,-35.3288"/>
</g>
<!-- 84&#45;&gt;0 -->
<g id="edge25" class="edge"><title>84&#45;&gt;0</title>
<path fill="none" stroke="green" stroke-width="0.114444" d="M362.267,-66.8078C358.701,-58.2457 354.274,-47.6168 350.388,-38.2851"/>
<polygon fill="green" stroke="green" stroke-width="0.114444" points="353.525,-36.7134 346.449,-28.8276 347.063,-39.4046 353.525,-36.7134"/>
</g>
<!-- 84&#45;&gt;1 -->
<g id="edge26" class="edge"><title>84&#45;&gt;1</title>
<path fill="none" stroke="green" stroke-width="0.325198" d="M354.513,-72.5779C338.852,-61.2557 313.814,-43.1543 296.242,-30.451"/>
<polygon fill="green" stroke="green" stroke-width="0.325198" points="297.978,-27.3869 287.823,-24.3645 293.876,-33.0597 297.978,-27.3869"/>
</g>
<!-- 85&#45;&gt;0 -->
<g id="edge27" class="edge"><title>85&#45;&gt;0</title>
<path fill="none" stroke="red" stroke-width="0.649442" d="M409.965,-71.6779C396.355,-60.6538 375.625,-43.8614 360.454,-31.572"/>
<polygon fill="red" stroke="red" stroke-width="0.649442" points="362.233,-28.509 352.26,-24.9342 357.827,-33.9483 362.233,-28.509"/>
</g>
<!-- 85&#45;&gt;1 -->
<g id="edge28" class="edge"><title>85&#45;&gt;1</title>
<path fill="none" stroke="red" stroke-width="0.289531" d="M409.191,-73.2415C405.017,-70.6475 400.421,-67.9476 396.045,-65.6985 363.564,-49.0079 324.18,-33.4936 299.61,-24.3415"/>
<polygon fill="red" stroke="red" stroke-width="0.289531" points="300.643,-20.9925 290.05,-20.8238 298.226,-27.5618 300.643,-20.9925"/>
</g>
<!-- 86&#45;&gt;0 -->
<g id="edge29" class="edge"><title>86&#45;&gt;0</title>
<path fill="none" stroke="red" stroke-width="0.476826" d="M463.852,-73.1519C459.756,-70.613 455.284,-67.9629 451.045,-65.6985 421.695,-50.0228 386.463,-34.6258 363.919,-25.1859"/>
<polygon fill="red" stroke="red" stroke-width="0.476826" points="365.099,-21.8862 354.521,-21.2882 362.417,-28.3522 365.099,-21.8862"/>
</g>
<!-- 86&#45;&gt;1 -->
<g id="edge30" class="edge"><title>86&#45;&gt;1</title>
<path fill="none" stroke="green" stroke-width="0.436091" d="M464.374,-72.8554C460.201,-70.2598 455.559,-67.6557 451.045,-65.6985 394.465,-41.1712 376.064,-47.5749 317.045,-29.6985 311.382,-27.9833 305.323,-26.0129 299.648,-24.1065"/>
<polygon fill="green" stroke="green" stroke-width="0.436091" points="300.61,-20.7366 290.016,-20.8132 298.346,-27.3601 300.61,-20.7366"/>
</g>
<!-- 87&#45;&gt;0 -->
<g id="edge31" class="edge"><title>87&#45;&gt;0</title>
<path fill="none" stroke="red" stroke-width="0.14442" d="M593.844,-73.6576C588.664,-70.7655 582.74,-67.7963 577.045,-65.6985 502.782,-38.3451 409.551,-24.2111 365.828,-18.6855"/>
<polygon fill="red" stroke="red" stroke-width="0.14442" points="366.171,-15.2015 355.82,-17.4634 365.322,-22.1499 366.171,-15.2015"/>
</g>
<!-- 87&#45;&gt;1 -->
<g id="edge32" class="edge"><title>87&#45;&gt;1</title>
<path fill="none" stroke="red" stroke-width="0.275134" d="M593.927,-73.4205C588.752,-70.5127 582.81,-67.5941 577.045,-65.6985 466.222,-29.2648 430.586,-56.4835 317.045,-29.6985 311.195,-28.3184 304.997,-26.4485 299.24,-24.5295"/>
<polygon fill="red" stroke="red" stroke-width="0.275134" points="300.119,-21.1288 289.525,-21.1178 297.8,-27.7334 300.119,-21.1288"/>
</g>
<!-- 88&#45;&gt;0 -->
<g id="edge33" class="edge"><title>88&#45;&gt;0</title>
<path fill="none" stroke="red" stroke-width="0.488234" d="M108.637,-72.6662C112.81,-70.07 117.47,-67.5127 122.045,-65.6985 197.071,-35.9408 222.1,-50.6551 300.045,-29.6985 305.758,-28.1623 311.836,-26.2607 317.514,-24.3638"/>
<polygon fill="red" stroke="red" stroke-width="0.488234" points="318.831,-27.612 327.136,-21.0346 316.542,-20.9968 318.831,-27.612"/>
</g>
<!-- 88&#45;&gt;1 -->
<g id="edge34" class="edge"><title>88&#45;&gt;1</title>
<path fill="none" stroke="green" stroke-width="0.19657" d="M108.782,-73.0056C112.956,-70.4106 117.581,-67.7692 122.045,-65.6985 166.056,-45.282 220.746,-29.7313 251.694,-21.769"/>
<polygon fill="green" stroke="green" stroke-width="0.19657" points="252.753,-25.1116 261.594,-19.2735 251.042,-18.3239 252.753,-25.1116"/>
</g>
<!-- 89&#45;&gt;0 -->
<g id="edge35" class="edge"><title>89&#45;&gt;0</title>
<path fill="none" stroke="green" stroke-width="0.154905" d="M163.744,-72.9217C167.918,-70.3264 172.552,-67.7058 177.045,-65.6985 229.05,-42.4629 245.718,-46.8163 300.045,-29.6985 305.688,-27.9204 311.739,-25.9257 317.413,-24.016"/>
<polygon fill="green" stroke="green" stroke-width="0.154905" points="318.711,-27.2714 327.049,-20.7352 316.455,-20.6449 318.711,-27.2714"/>
</g>
<!-- 89&#45;&gt;1 -->
<g id="edge36" class="edge"><title>89&#45;&gt;1</title>
<path fill="none" stroke="green" stroke-width="0.577187" d="M164.302,-73.2689C168.397,-70.7291 172.852,-68.0493 177.045,-65.6985 202.864,-51.2205 233.4,-36.1428 253.662,-26.4137"/>
<polygon fill="green" stroke="green" stroke-width="0.577187" points="255.199,-29.5583 262.717,-22.0933 252.185,-23.2405 255.199,-29.5583"/>
</g>
<!-- 90&#45;&gt;0 -->
<g id="edge37" class="edge"><title>90&#45;&gt;0</title>
<path fill="none" stroke="green" stroke-width="0.193454" d="M53.5826,-72.5256C57.7554,-69.9288 62.4296,-67.4064 67.0445,-65.6985 165.315,-29.3291 198.252,-54.5575 300.045,-29.6985 305.883,-28.2725 312.077,-26.3854 317.833,-24.4644"/>
<polygon fill="green" stroke="green" stroke-width="0.193454" points="319.269,-27.6701 327.551,-21.0627 316.956,-21.0632 319.269,-27.6701"/>
</g>
<!-- 90&#45;&gt;1 -->
<g id="edge38" class="edge"><title>90&#45;&gt;1</title>
<path fill="none" stroke="green" stroke-width="0.355023" d="M53.6789,-72.7705C57.8521,-70.1746 62.5024,-67.5915 67.0445,-65.6985 130.62,-39.2018 211.21,-24.9949 251.199,-19.1334"/>
<polygon fill="green" stroke="green" stroke-width="0.355023" points="251.942,-22.5633 261.354,-17.6982 250.962,-15.6322 251.942,-22.5633"/>
</g>
<!-- 91&#45;&gt;0 -->
<g id="edge39" class="edge"><title>91&#45;&gt;0</title>
<path fill="none" stroke="green" stroke-width="0.646927" d="M219.243,-73.1618C223.338,-70.6228 227.809,-67.9702 232.045,-65.6985 260.987,-50.176 295.672,-34.846 318.019,-25.371"/>
<polygon fill="green" stroke="green" stroke-width="0.646927" points="319.489,-28.5498 327.353,-21.45 316.778,-22.0961 319.489,-28.5498"/>
</g>
<!-- 91&#45;&gt;1 -->
<g id="edge40" class="edge"><title>91&#45;&gt;1</title>
<path fill="none" stroke="green" stroke-width="0.145122" d="M217.25,-70.7515C228.573,-60.1782 245.007,-44.8325 257.623,-33.0514"/>
<polygon fill="green" stroke="green" stroke-width="0.145122" points="260.35,-35.2935 265.27,-25.9103 255.573,-30.1773 260.35,-35.2935"/>
</g>
</g>
</svg>
