<?xml version="1.0" encoding="UTF-8" standalone="no"?>
<!DOCTYPE svg PUBLIC "-//W3C//DTD SVG 1.1//EN"
 "http://www.w3.org/Graphics/SVG/1.1/DTD/svg11.dtd">
<!-- Generated by graphviz version 2.38.0 (20140413.2041)
 -->
<!-- Title: %3 Pages: 1 -->
<svg width="799pt" height="164pt"
 viewBox="0.00 0.00 799.39 164.47" xmlns="http://www.w3.org/2000/svg" xmlns:xlink="http://www.w3.org/1999/xlink">
<g id="graph0" class="graph" transform="scale(1 1) rotate(0) translate(4 160.468)">
<title>%3</title>
<polygon fill="white" stroke="none" points="-4,4 -4,-160.468 795.394,-160.468 795.394,4 -4,4"/>
<!-- &#45;1 -->
<g id="node1" class="node"><title>&#45;1</title>
<polygon fill="lightgray" stroke="black" points="463.907,-156.468 439.907,-156.468 439.907,-138.468 463.907,-138.468 463.907,-156.468"/>
<text text-anchor="middle" x="451.907" y="-145.268" font-family="Times New Roman,serif" font-size="9.00">&#45;1</text>
</g>
<!-- 0 -->
<g id="node9" class="node"><title>0</title>
<ellipse fill="lightblue" stroke="black" cx="441.907" cy="-14.8492" rx="14.7" ry="14.7"/>
<text text-anchor="middle" x="441.907" y="-12.6492" font-family="Times New Roman,serif" font-size="9.00">0</text>
</g>
<!-- &#45;1&#45;&gt;0 -->
<g id="edge101" class="edge"><title>&#45;1&#45;&gt;0</title>
<path fill="none" stroke="green" stroke-width="0.4143" d="M464.19,-141.243C467.014,-140.196 470.032,-139.195 472.907,-138.468 532.016,-123.514 704.721,-148.323 744.907,-102.468 755.678,-90.1777 755.483,-78.1567 744.907,-65.6985 709.275,-23.7258 533.892,-17.0322 467.467,-16.0124"/>
<polygon fill="green" stroke="green" stroke-width="0.4143" points="467.122,-12.508 457.081,-15.8866 467.037,-19.5075 467.122,-12.508"/>
</g>
<!-- 1 -->
<g id="node10" class="node"><title>1</title>
<ellipse fill="lightblue" stroke="black" cx="335.907" cy="-14.8492" rx="14.7" ry="14.7"/>
<text text-anchor="middle" x="335.907" y="-12.6492" font-family="Times New Roman,serif" font-size="9.00">1</text>
</g>
<!-- &#45;1&#45;&gt;1 -->
<g id="edge102" class="edge"><title>&#45;1&#45;&gt;1</title>
<path fill="none" stroke="red" stroke-width="0.137635" d="M464.24,-141.425C467.061,-140.368 470.066,-139.318 472.907,-138.468 543.985,-117.205 589.446,-160.309 635.907,-102.468 646.141,-89.7272 646.479,-78.1599 635.907,-65.6985 604.142,-28.2574 466.337,-37.787 417.907,-29.6985 398.7,-26.4907 376.97,-22.8187 360.707,-20.0621"/>
<polygon fill="red" stroke="red" stroke-width="0.137635" points="360.865,-16.5389 350.42,-18.3169 359.694,-23.4403 360.865,-16.5389"/>
</g>
<!-- 2 -->
<g id="node11" class="node"><title>2</title>
<ellipse fill="white" stroke="black" cx="467.907" cy="-84.0833" rx="14.7" ry="14.7"/>
<text text-anchor="middle" x="467.907" y="-81.8833" font-family="Times New Roman,serif" font-size="9.00">2</text>
</g>
<!-- &#45;1&#45;&gt;2 -->
<g id="edge1" class="edge"><title>&#45;1&#45;&gt;2</title>
<path fill="none" stroke="red" stroke-width="0.263886" d="M453.999,-138.443C455.955,-130.936 458.977,-119.341 461.705,-108.875"/>
<polygon fill="red" stroke="red" stroke-width="0.263886" points="465.149,-109.538 464.285,-98.9789 458.376,-107.773 465.149,-109.538"/>
</g>
<!-- 3 -->
<g id="node12" class="node"><title>3</title>
<ellipse fill="white" stroke="black" cx="515.907" cy="-84.0833" rx="14.7" ry="14.7"/>
<text text-anchor="middle" x="515.907" y="-81.8833" font-family="Times New Roman,serif" font-size="9.00">3</text>
</g>
<!-- &#45;1&#45;&gt;3 -->
<g id="edge2" class="edge"><title>&#45;1&#45;&gt;3</title>
<path fill="none" stroke="green" stroke-width="0.3001" d="M460.274,-138.443C469.835,-129.272 485.756,-114.002 498.122,-102.141"/>
<polygon fill="green" stroke="green" stroke-width="0.3001" points="500.839,-104.385 505.633,-94.9373 495.993,-99.3334 500.839,-104.385"/>
</g>
<!-- 4 -->
<g id="node13" class="node"><title>4</title>
<ellipse fill="white" stroke="black" cx="563.907" cy="-84.0833" rx="14.7" ry="14.7"/>
<text text-anchor="middle" x="563.907" y="-81.8833" font-family="Times New Roman,serif" font-size="9.00">4</text>
</g>
<!-- &#45;1&#45;&gt;4 -->
<g id="edge3" class="edge"><title>&#45;1&#45;&gt;4</title>
<path fill="none" stroke="green" stroke-width="0.193672" d="M464.197,-141.095C481.521,-133.35 513.912,-118.237 539.907,-102.468 541.226,-101.668 542.566,-100.816 543.904,-99.9361"/>
<polygon fill="green" stroke="green" stroke-width="0.193672" points="546.257,-102.562 552.449,-93.9654 542.247,-96.8238 546.257,-102.562"/>
</g>
<!-- 5 -->
<g id="node14" class="node"><title>5</title>
<ellipse fill="white" stroke="black" cx="611.907" cy="-84.0833" rx="14.7" ry="14.7"/>
<text text-anchor="middle" x="611.907" y="-81.8833" font-family="Times New Roman,serif" font-size="9.00">5</text>
</g>
<!-- &#45;1&#45;&gt;5 -->
<g id="edge4" class="edge"><title>&#45;1&#45;&gt;5</title>
<path fill="none" stroke="green" stroke-width="0.160729" d="M464.298,-141.605C467.116,-140.539 470.105,-139.439 472.907,-138.468 523.51,-120.927 540.04,-126.491 587.907,-102.468 589.286,-101.776 590.672,-101.007 592.044,-100.189"/>
<polygon fill="green" stroke="green" stroke-width="0.160729" points="594.338,-102.863 600.674,-94.3712 590.425,-97.059 594.338,-102.863"/>
</g>
<!-- 6 -->
<g id="node15" class="node"><title>6</title>
<ellipse fill="white" stroke="black" cx="166.907" cy="-84.0833" rx="14.7" ry="14.7"/>
<text text-anchor="middle" x="166.907" y="-81.8833" font-family="Times New Roman,serif" font-size="9.00">6</text>
</g>
<!-- &#45;1&#45;&gt;6 -->
<g id="edge5" class="edge"><title>&#45;1&#45;&gt;6</title>
<path fill="none" stroke="green" stroke-width="0.225236" d="M439.614,-141.28C436.791,-140.231 433.775,-139.22 430.907,-138.468 326.574,-111.111 290.754,-143.265 190.907,-102.468 189.478,-101.884 188.054,-101.199 186.655,-100.443"/>
<polygon fill="green" stroke="green" stroke-width="0.225236" points="188.245,-97.3017 177.955,-94.7781 184.425,-103.168 188.245,-97.3017"/>
</g>
<!-- 7 -->
<g id="node16" class="node"><title>7</title>
<ellipse fill="white" stroke="black" cx="214.907" cy="-84.0833" rx="14.7" ry="14.7"/>
<text text-anchor="middle" x="214.907" y="-81.8833" font-family="Times New Roman,serif" font-size="9.00">7</text>
</g>
<!-- &#45;1&#45;&gt;7 -->
<g id="edge6" class="edge"><title>&#45;1&#45;&gt;7</title>
<path fill="none" stroke="red" stroke-width="0.142501" d="M439.593,-141.357C436.771,-140.304 433.761,-139.272 430.907,-138.468 347.341,-114.92 318.665,-136.766 238.907,-102.468 237.489,-101.858 236.074,-101.153 234.68,-100.382"/>
<polygon fill="red" stroke="red" stroke-width="0.142501" points="236.276,-97.2431 225.996,-94.6808 232.434,-103.095 236.276,-97.2431"/>
</g>
<!-- 8 -->
<g id="node17" class="node"><title>8</title>
<ellipse fill="white" stroke="black" cx="262.907" cy="-84.0833" rx="14.7" ry="14.7"/>
<text text-anchor="middle" x="262.907" y="-81.8833" font-family="Times New Roman,serif" font-size="9.00">8</text>
</g>
<!-- &#45;1&#45;&gt;8 -->
<g id="edge7" class="edge"><title>&#45;1&#45;&gt;8</title>
<path fill="none" stroke="green" stroke-width="0.62364" d="M439.556,-141.483C436.735,-140.423 433.736,-139.357 430.907,-138.468 367.972,-118.691 346.707,-130.324 286.907,-102.468 285.508,-101.816 284.107,-101.079 282.724,-100.284"/>
<polygon fill="green" stroke="green" stroke-width="0.62364" points="284.331,-97.149 274.066,-94.5233 280.453,-102.977 284.331,-97.149"/>
</g>
<!-- 9 -->
<g id="node18" class="node"><title>9</title>
<ellipse fill="white" stroke="black" cx="310.907" cy="-84.0833" rx="14.7" ry="14.7"/>
<text text-anchor="middle" x="310.907" y="-81.8833" font-family="Times New Roman,serif" font-size="9.00">9</text>
</g>
<!-- &#45;1&#45;&gt;9 -->
<g id="edge8" class="edge"><title>&#45;1&#45;&gt;9</title>
<path fill="none" stroke="red" stroke-width="0.294143" d="M439.474,-141.719C436.658,-140.647 433.68,-139.516 430.907,-138.468 388.282,-122.357 375.052,-124.027 334.907,-102.468 333.547,-101.738 332.176,-100.94 330.816,-100.1"/>
<polygon fill="red" stroke="red" stroke-width="0.294143" points="332.446,-96.9757 322.214,-94.2289 328.5,-102.757 332.446,-96.9757"/>
</g>
<!-- 10 -->
<g id="node19" class="node"><title>10</title>
<ellipse fill="white" stroke="black" cx="361.907" cy="-84.0833" rx="18.2703" ry="18.2703"/>
<text text-anchor="middle" x="361.907" y="-81.8833" font-family="Times New Roman,serif" font-size="9.00">10</text>
</g>
<!-- &#45;1&#45;&gt;10 -->
<g id="edge9" class="edge"><title>&#45;1&#45;&gt;10</title>
<path fill="none" stroke="green" stroke-width="0.309509" d="M440.141,-138.443C426.264,-128.978 402.861,-113.016 385.259,-101.011"/>
<polygon fill="green" stroke="green" stroke-width="0.309509" points="386.898,-97.8921 376.665,-95.1488 382.954,-103.675 386.898,-97.8921"/>
</g>
<!-- 11 -->
<g id="node20" class="node"><title>11</title>
<ellipse fill="white" stroke="black" cx="416.907" cy="-84.0833" rx="18.2703" ry="18.2703"/>
<text text-anchor="middle" x="416.907" y="-81.8833" font-family="Times New Roman,serif" font-size="9.00">11</text>
</g>
<!-- &#45;1&#45;&gt;11 -->
<g id="edge10" class="edge"><title>&#45;1&#45;&gt;11</title>
<path fill="none" stroke="green" stroke-width="0.110765" d="M447.331,-138.443C443.089,-131.003 436.558,-119.548 430.632,-109.156"/>
<polygon fill="green" stroke="green" stroke-width="0.110765" points="433.648,-107.378 425.654,-100.425 427.567,-110.846 433.648,-107.378"/>
</g>
<!-- &#45;2 -->
<g id="node2" class="node"><title>&#45;2</title>
<polygon fill="lightgray" stroke="black" points="547.907,-156.468 523.907,-156.468 523.907,-138.468 547.907,-138.468 547.907,-156.468"/>
<text text-anchor="middle" x="535.907" y="-145.268" font-family="Times New Roman,serif" font-size="9.00">&#45;2</text>
</g>
<!-- &#45;2&#45;&gt;0 -->
<g id="edge103" class="edge"><title>&#45;2&#45;&gt;0</title>
<path fill="none" stroke="red" stroke-width="0.160154" d="M548.272,-146.545C606.252,-146.517 845.662,-141.863 779.907,-65.6985 739.342,-18.7122 539.171,-15.235 467.494,-15.5299"/>
<polygon fill="red" stroke="red" stroke-width="0.160154" points="467.113,-12.0324 457.138,-15.6035 467.163,-19.0323 467.113,-12.0324"/>
</g>
<!-- &#45;2&#45;&gt;1 -->
<g id="edge104" class="edge"><title>&#45;2&#45;&gt;1</title>
<path fill="none" stroke="red" stroke-width="0.331128" d="M548.214,-146.767C575.553,-146.676 641.183,-142.132 669.907,-102.468 679.492,-89.2322 680.614,-78.0441 669.907,-65.6985 632.843,-22.9636 473.801,-38.4095 417.907,-29.6985 398.666,-26.6998 376.938,-23.0167 360.685,-20.2026"/>
<polygon fill="red" stroke="red" stroke-width="0.331128" points="360.857,-16.68 350.405,-18.4124 359.656,-23.5762 360.857,-16.68"/>
</g>
<!-- &#45;2&#45;&gt;2 -->
<g id="edge11" class="edge"><title>&#45;2&#45;&gt;2</title>
<path fill="none" stroke="red" stroke-width="0.40118" d="M527.017,-138.443C516.761,-129.185 499.619,-113.71 486.428,-101.803"/>
<polygon fill="red" stroke="red" stroke-width="0.40118" points="488.591,-99.0401 478.823,-94.9373 483.9,-104.236 488.591,-99.0401"/>
</g>
<!-- &#45;2&#45;&gt;3 -->
<g id="edge12" class="edge"><title>&#45;2&#45;&gt;3</title>
<path fill="none" stroke="green" stroke-width="0.183693" d="M533.292,-138.443C530.789,-130.759 526.89,-118.793 523.418,-108.138"/>
<polygon fill="green" stroke="green" stroke-width="0.183693" points="526.706,-106.931 520.28,-98.507 520.051,-109.099 526.706,-106.931"/>
</g>
<!-- &#45;2&#45;&gt;4 -->
<g id="edge13" class="edge"><title>&#45;2&#45;&gt;4</title>
<path fill="none" stroke="green" stroke-width="0.103864" d="M539.567,-138.443C543.154,-130.581 548.785,-118.234 553.729,-107.397"/>
<polygon fill="green" stroke="green" stroke-width="0.103864" points="557.031,-108.591 557.997,-98.0404 550.662,-105.686 557.031,-108.591"/>
</g>
<!-- &#45;2&#45;&gt;5 -->
<g id="edge14" class="edge"><title>&#45;2&#45;&gt;5</title>
<path fill="none" stroke="red" stroke-width="0.421344" d="M545.842,-138.443C557.682,-128.88 577.733,-112.685 592.647,-100.639"/>
<polygon fill="red" stroke="red" stroke-width="0.421344" points="595.153,-103.114 600.734,-94.1078 590.755,-97.6684 595.153,-103.114"/>
</g>
<!-- &#45;2&#45;&gt;6 -->
<g id="edge15" class="edge"><title>&#45;2&#45;&gt;6</title>
<path fill="none" stroke="red" stroke-width="0.267062" d="M523.635,-141.199C520.81,-140.153 517.789,-139.165 514.907,-138.468 374.082,-104.406 326.052,-154.696 190.907,-102.468 189.467,-101.912 188.035,-101.247 186.629,-100.507"/>
<polygon fill="red" stroke="red" stroke-width="0.267062" points="188.214,-97.364 177.914,-94.8809 184.417,-103.245 188.214,-97.364"/>
</g>
<!-- &#45;2&#45;&gt;7 -->
<g id="edge16" class="edge"><title>&#45;2&#45;&gt;7</title>
<path fill="none" stroke="green" stroke-width="0.136528" d="M523.625,-141.239C520.801,-140.192 517.782,-139.193 514.907,-138.468 394.951,-108.242 353.866,-148.157 238.907,-102.468 237.472,-101.898 236.045,-101.223 234.642,-100.475"/>
<polygon fill="green" stroke="green" stroke-width="0.136528" points="236.229,-97.3329 225.934,-94.8296 232.421,-103.206 236.229,-97.3329"/>
</g>
<!-- &#45;2&#45;&gt;8 -->
<g id="edge17" class="edge"><title>&#45;2&#45;&gt;8</title>
<path fill="none" stroke="red" stroke-width="0.251467" d="M523.61,-141.296C520.787,-140.246 517.772,-139.231 514.907,-138.468 415.774,-112.066 381.724,-141.637 286.907,-102.468 285.48,-101.879 284.058,-101.189 282.66,-100.43"/>
<polygon fill="red" stroke="red" stroke-width="0.251467" points="284.251,-97.2893 273.963,-94.7575 280.427,-103.152 284.251,-97.2893"/>
</g>
<!-- &#45;2&#45;&gt;9 -->
<g id="edge18" class="edge"><title>&#45;2&#45;&gt;9</title>
<path fill="none" stroke="green" stroke-width="0.316007" d="M523.586,-141.383C520.764,-140.328 517.756,-139.289 514.907,-138.468 436.515,-115.868 409.66,-135.149 334.907,-102.468 333.493,-101.85 332.08,-101.138 330.689,-100.362"/>
<polygon fill="green" stroke="green" stroke-width="0.316007" points="332.287,-97.2239 322.01,-94.6488 328.438,-103.071 332.287,-97.2239"/>
</g>
<!-- &#45;2&#45;&gt;10 -->
<g id="edge19" class="edge"><title>&#45;2&#45;&gt;10</title>
<path fill="none" stroke="green" stroke-width="0.174356" d="M523.532,-141.557C520.713,-140.493 517.719,-139.407 514.907,-138.468 460.068,-120.161 442.742,-125.938 389.907,-102.468 388.501,-101.844 387.083,-101.159 385.669,-100.433"/>
<polygon fill="green" stroke="green" stroke-width="0.174356" points="387.021,-97.1751 376.601,-95.2577 383.551,-103.254 387.021,-97.1751"/>
</g>
<!-- &#45;2&#45;&gt;11 -->
<g id="edge20" class="edge"><title>&#45;2&#45;&gt;11</title>
<path fill="none" stroke="red" stroke-width="0.205299" d="M523.754,-141.244C505.913,-133.443 471.734,-118 443.907,-102.468 442.784,-101.841 441.645,-101.187 440.5,-100.514"/>
<polygon fill="red" stroke="red" stroke-width="0.205299" points="442.187,-97.442 431.838,-95.1717 438.513,-103.4 442.187,-97.442"/>
</g>
<!-- &#45;3 -->
<g id="node3" class="node"><title>&#45;3</title>
<polygon fill="lightgray" stroke="black" points="253.907,-156.468 229.907,-156.468 229.907,-138.468 253.907,-138.468 253.907,-156.468"/>
<text text-anchor="middle" x="241.907" y="-145.268" font-family="Times New Roman,serif" font-size="9.00">&#45;3</text>
</g>
<!-- &#45;3&#45;&gt;0 -->
<g id="edge105" class="edge"><title>&#45;3&#45;&gt;0</title>
<path fill="none" stroke="red" stroke-width="0.224654" d="M229.614,-146.281C204.205,-145.149 146.169,-138.536 120.907,-102.468 111.531,-89.0828 110.247,-78.0848 120.907,-65.6985 155.943,-24.9893 306.869,-38.1711 359.907,-29.6985 379.136,-26.6267 400.864,-22.9475 417.121,-20.1535"/>
<polygon fill="red" stroke="red" stroke-width="0.224654" points="418.144,-23.5287 427.404,-18.379 416.954,-16.6307 418.144,-23.5287"/>
</g>
<!-- &#45;3&#45;&gt;1 -->
<g id="edge106" class="edge"><title>&#45;3&#45;&gt;1</title>
<path fill="none" stroke="red" stroke-width="0.156308" d="M229.826,-146.393C174.27,-145.658 -51.352,-138.235 10.9068,-65.6985 49.7265,-20.4705 241.476,-15.8598 310.823,-15.6962"/>
<polygon fill="red" stroke="red" stroke-width="0.156308" points="310.857,-19.1961 320.86,-15.7026 310.862,-12.1961 310.857,-19.1961"/>
</g>
<!-- &#45;3&#45;&gt;2 -->
<g id="edge21" class="edge"><title>&#45;3&#45;&gt;2</title>
<path fill="none" stroke="red" stroke-width="0.204609" d="M254.227,-141.381C257.049,-140.326 260.057,-139.288 262.907,-138.468 341.729,-115.789 368.737,-135.283 443.907,-102.468 445.321,-101.851 446.734,-101.139 448.126,-100.364"/>
<polygon fill="red" stroke="red" stroke-width="0.204609" points="450.376,-103.073 456.805,-94.6516 446.528,-97.2256 450.376,-103.073"/>
</g>
<!-- &#45;3&#45;&gt;3 -->
<g id="edge22" class="edge"><title>&#45;3&#45;&gt;3</title>
<path fill="none" stroke="green" stroke-width="0.446007" d="M254.203,-141.295C257.026,-140.245 260.041,-139.23 262.907,-138.468 362.473,-111.986 396.671,-141.772 491.907,-102.468 493.334,-101.879 494.756,-101.19 496.154,-100.431"/>
<polygon fill="green" stroke="green" stroke-width="0.446007" points="498.387,-103.154 504.851,-94.7593 494.563,-97.2904 498.387,-103.154"/>
</g>
<!-- &#45;3&#45;&gt;4 -->
<g id="edge23" class="edge"><title>&#45;3&#45;&gt;4</title>
<path fill="none" stroke="red" stroke-width="0.263429" d="M254.189,-141.238C257.012,-140.191 260.031,-139.192 262.907,-138.468 383.297,-108.162 424.528,-148.293 539.907,-102.468 541.341,-101.898 542.769,-101.223 544.172,-100.476"/>
<polygon fill="red" stroke="red" stroke-width="0.263429" points="546.393,-103.207 552.88,-94.8309 542.585,-97.3336 546.393,-103.207"/>
</g>
<!-- &#45;3&#45;&gt;5 -->
<g id="edge24" class="edge"><title>&#45;3&#45;&gt;5</title>
<path fill="none" stroke="red" stroke-width="0.185817" d="M254.179,-141.198C257.003,-140.153 260.025,-139.165 262.907,-138.468 404.167,-104.326 452.341,-154.832 587.907,-102.468 589.347,-101.912 590.779,-101.247 592.185,-100.507"/>
<polygon fill="red" stroke="red" stroke-width="0.185817" points="594.396,-103.246 600.9,-94.8819 590.6,-97.3646 594.396,-103.246"/>
</g>
<!-- &#45;3&#45;&gt;6 -->
<g id="edge25" class="edge"><title>&#45;3&#45;&gt;6</title>
<path fill="none" stroke="red" stroke-width="0.183754" d="M232.102,-138.443C220.418,-128.88 200.631,-112.685 185.913,-100.639"/>
<polygon fill="red" stroke="red" stroke-width="0.183754" points="187.888,-97.733 177.933,-94.1078 183.455,-103.15 187.888,-97.733"/>
</g>
<!-- &#45;3&#45;&gt;7 -->
<g id="edge26" class="edge"><title>&#45;3&#45;&gt;7</title>
<path fill="none" stroke="red" stroke-width="0.131336" d="M238.377,-138.443C234.919,-130.581 229.488,-118.234 224.721,-107.397"/>
<polygon fill="red" stroke="red" stroke-width="0.131336" points="227.836,-105.785 220.606,-98.0404 221.429,-108.603 227.836,-105.785"/>
</g>
<!-- &#45;3&#45;&gt;8 -->
<g id="edge27" class="edge"><title>&#45;3&#45;&gt;8</title>
<path fill="none" stroke="red" stroke-width="0.431886" d="M244.652,-138.443C247.281,-130.759 251.375,-118.793 255.02,-108.138"/>
<polygon fill="red" stroke="red" stroke-width="0.431886" points="258.389,-109.102 258.314,-98.507 251.766,-106.836 258.389,-109.102"/>
</g>
<!-- &#45;3&#45;&gt;9 -->
<g id="edge28" class="edge"><title>&#45;3&#45;&gt;9</title>
<path fill="none" stroke="red" stroke-width="0.493274" d="M250.927,-138.443C261.455,-129.077 279.134,-113.35 292.578,-101.389"/>
<polygon fill="red" stroke="red" stroke-width="0.493274" points="295.155,-103.781 300.3,-94.5191 290.503,-98.551 295.155,-103.781"/>
</g>
<!-- &#45;3&#45;&gt;10 -->
<g id="edge29" class="edge"><title>&#45;3&#45;&gt;10</title>
<path fill="none" stroke="red" stroke-width="0.263526" d="M254.198,-141.264C272.241,-133.49 306.8,-118.079 334.907,-102.468 336.031,-101.844 337.171,-101.191 338.317,-100.52"/>
<polygon fill="red" stroke="red" stroke-width="0.263526" points="340.302,-103.407 346.982,-95.1833 336.631,-97.4469 340.302,-103.407"/>
</g>
<!-- &#45;3&#45;&gt;11 -->
<g id="edge30" class="edge"><title>&#45;3&#45;&gt;11</title>
<path fill="none" stroke="red" stroke-width="0.257951" d="M254.28,-141.553C257.099,-140.489 260.093,-139.404 262.907,-138.468 318.17,-120.084 335.656,-126.055 388.907,-102.468 390.313,-101.845 391.732,-101.162 393.147,-100.437"/>
<polygon fill="red" stroke="red" stroke-width="0.257951" points="395.263,-103.259 402.216,-95.2639 391.795,-97.1784 395.263,-103.259"/>
</g>
<!-- &#45;4 -->
<g id="node4" class="node"><title>&#45;4</title>
<polygon fill="lightgray" stroke="black" points="505.907,-156.468 481.907,-156.468 481.907,-138.468 505.907,-138.468 505.907,-156.468"/>
<text text-anchor="middle" x="493.907" y="-145.268" font-family="Times New Roman,serif" font-size="9.00">&#45;4</text>
</g>
<!-- &#45;4&#45;&gt;0 -->
<g id="edge107" class="edge"><title>&#45;4&#45;&gt;0</title>
<path fill="none" stroke="red" stroke-width="0.438154" d="M506.197,-141.27C509.02,-140.221 512.037,-139.213 514.907,-138.468 568.808,-124.471 726.467,-144.579 762.907,-102.468 773.6,-90.1103 773.539,-78.109 762.907,-65.6985 724.674,-21.0705 535.966,-16.0674 467.109,-15.7499"/>
<polygon fill="red" stroke="red" stroke-width="0.438154" points="466.776,-12.2495 456.771,-15.7344 466.765,-19.2494 466.776,-12.2495"/>
</g>
<!-- &#45;4&#45;&gt;1 -->
<g id="edge108" class="edge"><title>&#45;4&#45;&gt;1</title>
<path fill="none" stroke="red" stroke-width="0.401894" d="M506.265,-141.504C509.085,-140.443 512.083,-139.371 514.907,-138.468 575.279,-119.157 614.154,-152.628 652.907,-102.468 662.898,-89.536 663.552,-78.0981 652.907,-65.6985 618.494,-25.6123 470.066,-38.0979 417.907,-29.6985 398.682,-26.6026 376.953,-22.9247 360.695,-20.1373"/>
<polygon fill="red" stroke="red" stroke-width="0.401894" points="360.861,-16.6144 350.412,-18.368 359.674,-23.5131 360.861,-16.6144"/>
</g>
<!-- &#45;4&#45;&gt;2 -->
<g id="edge31" class="edge"><title>&#45;4&#45;&gt;2</title>
<path fill="none" stroke="green" stroke-width="0.130079" d="M490.508,-138.443C487.178,-130.581 481.948,-118.234 477.358,-107.397"/>
<polygon fill="green" stroke="green" stroke-width="0.130079" points="480.518,-105.883 473.395,-98.0404 474.072,-108.614 480.518,-105.883"/>
</g>
<!-- &#45;4&#45;&gt;3 -->
<g id="edge32" class="edge"><title>&#45;4&#45;&gt;3</title>
<path fill="none" stroke="red" stroke-width="0.177258" d="M496.783,-138.443C499.537,-130.759 503.825,-118.793 507.644,-108.138"/>
<polygon fill="red" stroke="red" stroke-width="0.177258" points="511.017,-109.102 511.096,-98.507 504.427,-106.74 511.017,-109.102"/>
</g>
<!-- &#45;4&#45;&gt;4 -->
<g id="edge33" class="edge"><title>&#45;4&#45;&gt;4</title>
<path fill="none" stroke="red" stroke-width="0.556595" d="M503.058,-138.443C513.738,-129.077 531.673,-113.35 545.313,-101.389"/>
<polygon fill="red" stroke="red" stroke-width="0.556595" points="547.936,-103.744 553.147,-94.5191 543.32,-98.4809 547.936,-103.744"/>
</g>
<!-- &#45;4&#45;&gt;5 -->
<g id="edge34" class="edge"><title>&#45;4&#45;&gt;5</title>
<path fill="none" stroke="red" stroke-width="0.185091" d="M506.148,-141.614C524.451,-134.163 559.806,-119.021 587.907,-102.468 589.237,-101.685 590.585,-100.846 591.928,-99.9761"/>
<polygon fill="red" stroke="red" stroke-width="0.185091" points="594.272,-102.609 600.488,-94.0296 590.278,-96.8605 594.272,-102.609"/>
</g>
<!-- &#45;4&#45;&gt;6 -->
<g id="edge35" class="edge"><title>&#45;4&#45;&gt;6</title>
<path fill="none" stroke="green" stroke-width="0.190374" d="M481.626,-141.233C478.802,-140.186 475.783,-139.189 472.907,-138.468 350.344,-107.763 308.387,-148.974 190.907,-102.468 189.472,-101.9 188.043,-101.226 186.64,-100.479"/>
<polygon fill="green" stroke="green" stroke-width="0.190374" points="188.227,-97.3373 177.931,-94.837 184.421,-103.212 188.227,-97.3373"/>
</g>
<!-- &#45;4&#45;&gt;7 -->
<g id="edge36" class="edge"><title>&#45;4&#45;&gt;7</title>
<path fill="none" stroke="red" stroke-width="0.182248" d="M481.612,-141.288C478.789,-140.238 475.774,-139.225 472.907,-138.468 371.174,-111.589 336.238,-142.451 238.907,-102.468 237.479,-101.882 236.056,-101.194 234.657,-100.437"/>
<polygon fill="red" stroke="red" stroke-width="0.182248" points="236.248,-97.2957 225.959,-94.7681 232.426,-103.16 236.248,-97.2957"/>
</g>
<!-- &#45;4&#45;&gt;8 -->
<g id="edge37" class="edge"><title>&#45;4&#45;&gt;8</title>
<path fill="none" stroke="green" stroke-width="0.449215" d="M481.59,-141.37C478.768,-140.316 475.758,-139.281 472.907,-138.468 391.929,-115.394 364.161,-135.957 286.907,-102.468 285.491,-101.854 284.077,-101.145 282.684,-100.372"/>
<polygon fill="green" stroke="green" stroke-width="0.449215" points="284.281,-97.2338 274.002,-94.6653 280.436,-103.083 284.281,-97.2338"/>
</g>
<!-- &#45;4&#45;&gt;9 -->
<g id="edge38" class="edge"><title>&#45;4&#45;&gt;9</title>
<path fill="none" stroke="green" stroke-width="0.11736" d="M481.549,-141.504C478.729,-140.443 475.731,-139.371 472.907,-138.468 412.534,-119.157 392.227,-129.526 334.907,-102.468 333.511,-101.809 332.113,-101.066 330.732,-100.267"/>
<polygon fill="green" stroke="green" stroke-width="0.11736" points="332.34,-97.1331 322.079,-94.4966 328.457,-102.957 332.34,-97.1331"/>
</g>
<!-- &#45;4&#45;&gt;10 -->
<g id="edge39" class="edge"><title>&#45;4&#45;&gt;10</title>
<path fill="none" stroke="red" stroke-width="0.357546" d="M481.897,-141.661C458.338,-132.187 406.88,-111.26 389.907,-102.468 388.541,-101.761 387.154,-101.01 385.764,-100.234"/>
<polygon fill="red" stroke="red" stroke-width="0.357546" points="387.157,-96.9909 376.77,-94.9062 383.59,-103.014 387.157,-96.9909"/>
</g>
<!-- &#45;4&#45;&gt;11 -->
<g id="edge40" class="edge"><title>&#45;4&#45;&gt;11</title>
<path fill="none" stroke="green" stroke-width="0.130005" d="M483.84,-138.443C472.527,-129.424 453.812,-114.504 439.043,-102.731"/>
<polygon fill="green" stroke="green" stroke-width="0.130005" points="440.891,-99.7276 430.89,-96.2307 436.528,-105.201 440.891,-99.7276"/>
</g>
<!-- &#45;5 -->
<g id="node5" class="node"><title>&#45;5</title>
<polygon fill="lightgray" stroke="black" points="337.907,-156.468 313.907,-156.468 313.907,-138.468 337.907,-138.468 337.907,-156.468"/>
<text text-anchor="middle" x="325.907" y="-145.268" font-family="Times New Roman,serif" font-size="9.00">&#45;5</text>
</g>
<!-- &#45;5&#45;&gt;0 -->
<g id="edge109" class="edge"><title>&#45;5&#45;&gt;0</title>
<path fill="none" stroke="red" stroke-width="0.256162" d="M313.573,-141.428C310.752,-140.371 307.747,-139.32 304.907,-138.468 234.258,-117.284 189.058,-160.001 142.907,-102.468 132.681,-89.7206 132.339,-78.1638 142.907,-65.6985 174.516,-28.4129 311.696,-37.7687 359.907,-29.6985 379.112,-26.4835 400.842,-22.812 417.105,-20.0574"/>
<polygon fill="red" stroke="red" stroke-width="0.256162" points="418.118,-23.4357 427.393,-18.3137 416.949,-16.5341 418.118,-23.4357"/>
</g>
<!-- &#45;5&#45;&gt;1 -->
<g id="edge110" class="edge"><title>&#45;5&#45;&gt;1</title>
<path fill="none" stroke="green" stroke-width="0.414754" d="M313.623,-141.244C310.8,-140.197 307.781,-139.196 304.907,-138.468 246.015,-123.554 73.9362,-148.167 33.9068,-102.468 23.1389,-90.1752 23.334,-78.1595 33.9068,-65.6985 69.4129,-23.8512 244.222,-17.0806 310.43,-16.0264"/>
<polygon fill="green" stroke="green" stroke-width="0.414754" points="310.828,-19.5217 320.783,-15.8951 310.739,-12.5223 310.828,-19.5217"/>
</g>
<!-- &#45;5&#45;&gt;2 -->
<g id="edge41" class="edge"><title>&#45;5&#45;&gt;2</title>
<path fill="none" stroke="red" stroke-width="0.161561" d="M338.337,-141.712C341.153,-140.641 344.131,-139.512 346.907,-138.468 389.949,-122.283 403.358,-124.156 443.907,-102.468 445.268,-101.74 446.639,-100.944 448.001,-100.106"/>
<polygon fill="red" stroke="red" stroke-width="0.161561" points="450.315,-102.764 456.604,-94.2376 446.371,-96.9807 450.315,-102.764"/>
</g>
<!-- &#45;5&#45;&gt;3 -->
<g id="edge42" class="edge"><title>&#45;5&#45;&gt;3</title>
<path fill="none" stroke="green" stroke-width="0.262541" d="M338.257,-141.48C341.077,-140.42 344.077,-139.355 346.907,-138.468 410.27,-118.613 431.693,-130.458 491.907,-102.468 493.306,-101.817 494.708,-101.081 496.091,-100.287"/>
<polygon fill="green" stroke="green" stroke-width="0.262541" points="498.361,-102.98 504.749,-94.5276 494.485,-97.1515 498.361,-102.98"/>
</g>
<!-- &#45;5&#45;&gt;4 -->
<g id="edge43" class="edge"><title>&#45;5&#45;&gt;4</title>
<path fill="none" stroke="red" stroke-width="0.142045" d="M338.22,-141.355C341.042,-140.302 344.052,-139.271 346.907,-138.468 430.904,-114.841 459.731,-136.901 539.907,-102.468 541.325,-101.859 542.74,-101.154 544.134,-100.384"/>
<polygon fill="red" stroke="red" stroke-width="0.142045" points="546.379,-103.097 552.819,-94.6833 542.538,-97.2446 546.379,-103.097"/>
</g>
<!-- &#45;5&#45;&gt;5 -->
<g id="edge44" class="edge"><title>&#45;5&#45;&gt;5</title>
<path fill="none" stroke="green" stroke-width="0.282042" d="M338.199,-141.279C341.022,-140.229 344.038,-139.219 346.907,-138.468 451.673,-111.032 487.641,-143.4 587.907,-102.468 589.336,-101.885 590.759,-101.199 592.159,-100.444"/>
<polygon fill="green" stroke="green" stroke-width="0.282042" points="594.389,-103.169 600.859,-94.7798 590.569,-97.3027 594.389,-103.169"/>
</g>
<!-- &#45;5&#45;&gt;6 -->
<g id="edge45" class="edge"><title>&#45;5&#45;&gt;6</title>
<path fill="none" stroke="green" stroke-width="0.243236" d="M313.514,-141.61C310.696,-140.544 307.707,-139.443 304.907,-138.468 254.726,-121.003 238.365,-126.36 190.907,-102.468 189.528,-101.774 188.143,-101.004 186.772,-100.185"/>
<polygon fill="green" stroke="green" stroke-width="0.243236" points="188.391,-97.0552 178.143,-94.3647 184.476,-102.858 188.391,-97.0552"/>
</g>
<!-- &#45;5&#45;&gt;7 -->
<g id="edge46" class="edge"><title>&#45;5&#45;&gt;7</title>
<path fill="none" stroke="red" stroke-width="0.10694" d="M313.763,-141.071C296.643,-133.298 264.63,-118.153 238.907,-102.468 237.589,-101.664 236.25,-100.811 234.914,-99.929"/>
<polygon fill="red" stroke="red" stroke-width="0.10694" points="236.572,-96.8173 226.371,-93.9541 232.56,-102.554 236.572,-96.8173"/>
</g>
<!-- &#45;5&#45;&gt;8 -->
<g id="edge47" class="edge"><title>&#45;5&#45;&gt;8</title>
<path fill="none" stroke="green" stroke-width="0.213826" d="M317.671,-138.443C308.368,-129.379 292.95,-114.356 280.839,-102.556"/>
<polygon fill="green" stroke="green" stroke-width="0.213826" points="283.061,-99.8339 273.456,-95.362 278.176,-104.848 283.061,-99.8339"/>
</g>
<!-- &#45;5&#45;&gt;9 -->
<g id="edge48" class="edge"><title>&#45;5&#45;&gt;9</title>
<path fill="none" stroke="red" stroke-width="0.106944" d="M323.946,-138.443C322.111,-130.936 319.278,-119.341 316.721,-108.875"/>
<polygon fill="red" stroke="red" stroke-width="0.106944" points="320.076,-107.862 314.302,-98.9789 313.276,-109.524 320.076,-107.862"/>
</g>
<!-- &#45;5&#45;&gt;10 -->
<g id="edge49" class="edge"><title>&#45;5&#45;&gt;10</title>
<path fill="none" stroke="green" stroke-width="0.218069" d="M330.613,-138.443C334.977,-131.003 341.695,-119.548 347.789,-109.156"/>
<polygon fill="green" stroke="green" stroke-width="0.218069" points="350.87,-110.821 352.91,-100.425 344.832,-107.28 350.87,-110.821"/>
</g>
<!-- &#45;5&#45;&gt;11 -->
<g id="edge50" class="edge"><title>&#45;5&#45;&gt;11</title>
<path fill="none" stroke="red" stroke-width="0.45057" d="M337.803,-138.443C351.834,-128.978 375.497,-113.016 393.295,-101.011"/>
<polygon fill="red" stroke="red" stroke-width="0.45057" points="395.652,-103.643 401.985,-95.1488 391.738,-97.8395 395.652,-103.643"/>
</g>
<!-- &#45;6 -->
<g id="node6" class="node"><title>&#45;6</title>
<polygon fill="lightgray" stroke="black" points="421.907,-156.468 397.907,-156.468 397.907,-138.468 421.907,-138.468 421.907,-156.468"/>
<text text-anchor="middle" x="409.907" y="-145.268" font-family="Times New Roman,serif" font-size="9.00">&#45;6</text>
</g>
<!-- &#45;6&#45;&gt;0 -->
<g id="edge111" class="edge"><title>&#45;6&#45;&gt;0</title>
<path fill="none" stroke="green" stroke-width="0.264906" d="M422.189,-141.239C425.013,-140.192 428.032,-139.193 430.907,-138.468 490.885,-123.355 666.097,-148.947 706.907,-102.468 774.937,-24.9879 546.255,-16.4764 467.556,-15.8023"/>
<polygon fill="green" stroke="green" stroke-width="0.264906" points="467.103,-12.3002 457.087,-15.7524 467.07,-19.3001 467.103,-12.3002"/>
</g>
<!-- &#45;6&#45;&gt;1 -->
<g id="edge112" class="edge"><title>&#45;6&#45;&gt;1</title>
<path fill="none" stroke="green" stroke-width="0.354859" d="M397.616,-141.272C394.793,-140.223 391.776,-139.215 388.907,-138.468 335.439,-124.551 179.035,-144.268 142.907,-102.468 93.5172,-45.3246 248.03,-24.0928 310.717,-17.9517"/>
<polygon fill="green" stroke="green" stroke-width="0.354859" points="311.316,-21.4112 320.951,-17.0042 310.671,-14.441 311.316,-21.4112"/>
</g>
<!-- &#45;6&#45;&gt;2 -->
<g id="edge51" class="edge"><title>&#45;6&#45;&gt;2</title>
<path fill="none" stroke="red" stroke-width="0.307547" d="M417.489,-138.443C425.972,-129.465 439.978,-114.642 451.078,-102.894"/>
<polygon fill="red" stroke="red" stroke-width="0.307547" points="453.871,-105.034 458.195,-95.362 448.783,-100.227 453.871,-105.034"/>
</g>
<!-- &#45;6&#45;&gt;3 -->
<g id="edge52" class="edge"><title>&#45;6&#45;&gt;3</title>
<path fill="none" stroke="green" stroke-width="0.136938" d="M422.144,-140.549C438.426,-132.528 467.948,-117.479 491.907,-102.468 493.215,-101.649 494.546,-100.782 495.876,-99.8918"/>
<polygon fill="green" stroke="green" stroke-width="0.136938" points="498.239,-102.51 504.405,-93.8944 494.212,-96.7834 498.239,-102.51"/>
</g>
<!-- &#45;6&#45;&gt;4 -->
<g id="edge53" class="edge"><title>&#45;6&#45;&gt;4</title>
<path fill="none" stroke="green" stroke-width="0.299301" d="M422.31,-141.637C425.127,-140.569 428.113,-139.461 430.907,-138.468 478.979,-121.383 494.489,-125.707 539.907,-102.468 541.281,-101.765 542.662,-100.988 544.031,-100.164"/>
<polygon fill="green" stroke="green" stroke-width="0.299301" points="546.332,-102.833 552.653,-94.3309 542.409,-97.0353 546.332,-102.833"/>
</g>
<!-- &#45;6&#45;&gt;5 -->
<g id="edge54" class="edge"><title>&#45;6&#45;&gt;5</title>
<path fill="none" stroke="green" stroke-width="0.247253" d="M422.245,-141.442C425.066,-140.384 428.07,-139.329 430.907,-138.468 499.409,-117.676 522.721,-132.06 587.907,-102.468 589.312,-101.83 590.718,-101.103 592.104,-100.316"/>
<polygon fill="green" stroke="green" stroke-width="0.247253" points="594.367,-103.015 600.771,-94.5748 590.501,-97.1796 594.367,-103.015"/>
</g>
<!-- &#45;6&#45;&gt;6 -->
<g id="edge55" class="edge"><title>&#45;6&#45;&gt;6</title>
<path fill="none" stroke="green" stroke-width="0.279845" d="M397.596,-141.346C394.774,-140.293 391.763,-139.264 388.907,-138.468 302.75,-114.446 273.171,-137.576 190.907,-102.468 189.487,-101.862 188.071,-101.16 186.676,-100.391"/>
<polygon fill="green" stroke="green" stroke-width="0.279845" points="188.271,-97.2519 177.99,-94.6954 184.433,-103.106 188.271,-97.2519"/>
</g>
<!-- &#45;6&#45;&gt;7 -->
<g id="edge56" class="edge"><title>&#45;6&#45;&gt;7</title>
<path fill="none" stroke="red" stroke-width="0.172159" d="M397.562,-141.463C394.741,-140.404 391.74,-139.344 388.907,-138.468 323.404,-118.223 301.19,-131.125 238.907,-102.468 237.505,-101.823 236.101,-101.09 234.717,-100.299"/>
<polygon fill="red" stroke="red" stroke-width="0.172159" points="236.322,-97.1637 226.055,-94.5481 232.45,-102.995 236.322,-97.1637"/>
</g>
<!-- &#45;6&#45;&gt;8 -->
<g id="edge57" class="edge"><title>&#45;6&#45;&gt;8</title>
<path fill="none" stroke="red" stroke-width="0.140954" d="M397.489,-141.679C394.672,-140.609 391.69,-139.489 388.907,-138.468 343.774,-121.91 329.479,-124.799 286.907,-102.468 285.54,-101.751 284.164,-100.963 282.799,-100.131"/>
<polygon fill="red" stroke="red" stroke-width="0.140954" points="284.426,-97.0047 274.187,-94.2787 280.491,-102.794 284.426,-97.0047"/>
</g>
<!-- &#45;6&#45;&gt;9 -->
<g id="edge58" class="edge"><title>&#45;6&#45;&gt;9</title>
<path fill="none" stroke="red" stroke-width="0.349853" d="M397.74,-139.807C382.721,-131.476 356.518,-116.587 334.907,-102.468 333.615,-101.624 332.296,-100.739 330.974,-99.8339"/>
<polygon fill="red" stroke="red" stroke-width="0.349853" points="332.649,-96.7311 322.468,-93.8016 328.6,-102.441 332.649,-96.7311"/>
</g>
<!-- &#45;6&#45;&gt;10 -->
<g id="edge59" class="edge"><title>&#45;6&#45;&gt;10</title>
<path fill="none" stroke="red" stroke-width="0.207522" d="M403.632,-138.443C397.395,-130.467 387.549,-117.876 378.988,-106.927"/>
<polygon fill="red" stroke="red" stroke-width="0.207522" points="381.69,-104.7 372.773,-98.9789 376.175,-109.012 381.69,-104.7"/>
</g>
<!-- &#45;6&#45;&gt;11 -->
<g id="edge60" class="edge"><title>&#45;6&#45;&gt;11</title>
<path fill="none" stroke="red" stroke-width="0.449256" d="M410.822,-138.443C411.584,-131.761 412.715,-121.839 413.797,-112.358"/>
<polygon fill="red" stroke="red" stroke-width="0.449256" points="417.274,-112.749 414.93,-102.417 410.32,-111.956 417.274,-112.749"/>
</g>
<!-- &#45;7 -->
<g id="node7" class="node"><title>&#45;7</title>
<polygon fill="lightgray" stroke="black" points="379.907,-156.468 355.907,-156.468 355.907,-138.468 379.907,-138.468 379.907,-156.468"/>
<text text-anchor="middle" x="367.907" y="-145.268" font-family="Times New Roman,serif" font-size="9.00">&#45;7</text>
</g>
<!-- &#45;7&#45;&gt;0 -->
<g id="edge113" class="edge"><title>&#45;7&#45;&gt;0</title>
<path fill="none" stroke="red" stroke-width="0.342775" d="M380.197,-141.271C383.02,-140.222 386.037,-139.214 388.907,-138.468 442.591,-124.511 599.623,-144.424 635.907,-102.468 685.526,-45.0925 530.229,-24.0014 467.224,-17.9247"/>
<polygon fill="red" stroke="red" stroke-width="0.342775" points="467.214,-14.4094 456.938,-16.9879 466.58,-21.3806 467.214,-14.4094"/>
</g>
<!-- &#45;7&#45;&gt;1 -->
<g id="edge114" class="edge"><title>&#45;7&#45;&gt;1</title>
<path fill="none" stroke="green" stroke-width="0.250315" d="M355.613,-141.284C352.79,-140.234 349.774,-139.223 346.907,-138.468 295.391,-124.909 144.632,-142.866 109.907,-102.468 52.4481,-35.6223 240.914,-20.1657 310.844,-16.7634"/>
<polygon fill="green" stroke="green" stroke-width="0.250315" points="311.159,-20.253 320.994,-16.3148 310.849,-13.2598 311.159,-20.253"/>
</g>
<!-- &#45;7&#45;&gt;2 -->
<g id="edge61" class="edge"><title>&#45;7&#45;&gt;2</title>
<path fill="none" stroke="red" stroke-width="0.136978" d="M379.981,-139.977C395.165,-131.701 421.912,-116.748 443.907,-102.468 445.201,-101.628 446.522,-100.745 447.845,-99.8426"/>
<polygon fill="red" stroke="red" stroke-width="0.136978" points="450.217,-102.451 456.355,-93.8155 446.172,-96.739 450.217,-102.451"/>
</g>
<!-- &#45;7&#45;&gt;3 -->
<g id="edge62" class="edge"><title>&#45;7&#45;&gt;3</title>
<path fill="none" stroke="red" stroke-width="0.30138" d="M380.322,-141.673C383.139,-140.603 386.122,-139.485 388.907,-138.468 434.458,-121.835 448.929,-124.929 491.907,-102.468 493.275,-101.753 494.652,-100.967 496.017,-100.136"/>
<polygon fill="red" stroke="red" stroke-width="0.30138" points="498.324,-102.8 504.63,-94.2865 494.391,-97.0093 498.324,-102.8"/>
</g>
<!-- &#45;7&#45;&gt;4 -->
<g id="edge63" class="edge"><title>&#45;7&#45;&gt;4</title>
<path fill="none" stroke="green" stroke-width="0.123358" d="M380.251,-141.46C383.071,-140.401 386.073,-139.341 388.907,-138.468 454.838,-118.145 477.209,-131.258 539.907,-102.468 541.309,-101.824 542.713,-101.092 544.098,-100.302"/>
<polygon fill="green" stroke="green" stroke-width="0.123358" points="546.364,-102.998 552.761,-94.552 542.493,-97.1661 546.364,-102.998"/>
</g>
<!-- &#45;7&#45;&gt;5 -->
<g id="edge64" class="edge"><title>&#45;7&#45;&gt;5</title>
<path fill="none" stroke="green" stroke-width="0.180813" d="M380.217,-141.344C383.039,-140.291 386.05,-139.263 388.907,-138.468 475.495,-114.367 505.225,-137.711 587.907,-102.468 589.327,-101.863 590.743,-101.161 592.138,-100.393"/>
<polygon fill="green" stroke="green" stroke-width="0.180813" points="594.381,-103.107 600.825,-94.6978 590.543,-97.2533 594.381,-103.107"/>
</g>
<!-- &#45;7&#45;&gt;6 -->
<g id="edge65" class="edge"><title>&#45;7&#45;&gt;6</title>
<path fill="none" stroke="red" stroke-width="0.284238" d="M355.568,-141.445C352.747,-140.387 349.743,-139.331 346.907,-138.468 278.833,-117.754 255.678,-131.927 190.907,-102.468 189.502,-101.829 188.097,-101.101 186.71,-100.314"/>
<polygon fill="red" stroke="red" stroke-width="0.284238" points="188.314,-97.1775 178.044,-94.5711 184.447,-103.013 188.314,-97.1775"/>
</g>
<!-- &#45;7&#45;&gt;7 -->
<g id="edge66" class="edge"><title>&#45;7&#45;&gt;7</title>
<path fill="none" stroke="red" stroke-width="0.347132" d="M355.502,-141.643C352.685,-140.575 349.699,-139.465 346.907,-138.468 299.255,-121.458 283.918,-125.577 238.907,-102.468 237.534,-101.763 236.153,-100.985 234.785,-100.16"/>
<polygon fill="red" stroke="red" stroke-width="0.347132" points="236.407,-97.0311 226.164,-94.3238 232.483,-102.828 236.407,-97.0311"/>
</g>
<!-- &#45;7&#45;&gt;8 -->
<g id="edge67" class="edge"><title>&#45;7&#45;&gt;8</title>
<path fill="none" stroke="green" stroke-width="0.436454" d="M355.827,-140.525C339.752,-132.477 310.601,-117.398 286.907,-102.468 285.601,-101.645 284.272,-100.776 282.942,-99.8839"/>
<polygon fill="green" stroke="green" stroke-width="0.436454" points="284.608,-96.7763 274.416,-93.8818 280.578,-102.5 284.608,-96.7763"/>
</g>
<!-- &#45;7&#45;&gt;9 -->
<g id="edge68" class="edge"><title>&#45;7&#45;&gt;9</title>
<path fill="none" stroke="red" stroke-width="0.539863" d="M360.455,-138.443C352.217,-129.571 338.677,-114.99 327.831,-103.31"/>
<polygon fill="red" stroke="red" stroke-width="0.539863" points="330.221,-100.74 320.852,-95.7932 325.091,-105.503 330.221,-100.74"/>
</g>
<!-- &#45;7&#45;&gt;10 -->
<g id="edge69" class="edge"><title>&#45;7&#45;&gt;10</title>
<path fill="none" stroke="red" stroke-width="0.182327" d="M367.122,-138.443C366.476,-131.832 365.52,-122.05 364.602,-112.661"/>
<polygon fill="red" stroke="red" stroke-width="0.182327" points="368.057,-112.029 363.601,-102.417 361.091,-112.71 368.057,-112.029"/>
</g>
<!-- &#45;7&#45;&gt;11 -->
<g id="edge70" class="edge"><title>&#45;7&#45;&gt;11</title>
<path fill="none" stroke="green" stroke-width="0.116849" d="M374.313,-138.443C380.68,-130.467 390.73,-117.876 399.47,-106.927"/>
<polygon fill="green" stroke="green" stroke-width="0.116849" points="402.312,-108.978 405.815,-98.9789 396.841,-104.611 402.312,-108.978"/>
</g>
<!-- &#45;8 -->
<g id="node8" class="node"><title>&#45;8</title>
<polygon fill="lightgray" stroke="black" points="295.907,-156.468 271.907,-156.468 271.907,-138.468 295.907,-138.468 295.907,-156.468"/>
<text text-anchor="middle" x="283.907" y="-145.268" font-family="Times New Roman,serif" font-size="9.00">&#45;8</text>
</g>
<!-- &#45;8&#45;&gt;0 -->
<g id="edge115" class="edge"><title>&#45;8&#45;&gt;0</title>
<path fill="none" stroke="green" stroke-width="0.17579" d="M271.54,-141.532C268.721,-140.469 265.725,-139.39 262.907,-138.468 205.517,-119.699 168.511,-150.488 131.907,-102.468 122,-89.4713 121.291,-78.1225 131.907,-65.6985 165.229,-26.7019 309.284,-37.9697 359.907,-29.6985 379.125,-26.5585 400.854,-22.8829 417.114,-20.1077"/>
<polygon fill="green" stroke="green" stroke-width="0.17579" points="418.132,-23.4844 427.398,-18.3479 416.951,-16.5846 418.132,-23.4844"/>
</g>
<!-- &#45;8&#45;&gt;1 -->
<g id="edge116" class="edge"><title>&#45;8&#45;&gt;1</title>
<path fill="none" stroke="green" stroke-width="0.336429" d="M271.615,-141.279C268.791,-140.229 265.775,-139.219 262.907,-138.468 210.524,-124.75 57.2551,-143.489 21.9068,-102.468 11.2389,-90.0883 11.2958,-78.127 21.9068,-65.6985 59.1666,-22.0568 243.04,-16.4227 310.787,-15.8457"/>
<polygon fill="green" stroke="green" stroke-width="0.336429" points="310.995,-19.3447 320.976,-15.7907 310.958,-12.3448 310.995,-19.3447"/>
</g>
<!-- &#45;8&#45;&gt;2 -->
<g id="edge71" class="edge"><title>&#45;8&#45;&gt;2</title>
<path fill="none" stroke="red" stroke-width="0.621505" d="M296.263,-141.501C299.083,-140.44 302.082,-139.369 304.907,-138.468 365.706,-119.079 386.173,-129.659 443.907,-102.468 445.303,-101.81 446.702,-101.068 448.083,-100.27"/>
<polygon fill="red" stroke="red" stroke-width="0.621505" points="450.358,-102.96 456.737,-94.5012 446.475,-97.1358 450.358,-102.96"/>
</g>
<!-- &#45;8&#45;&gt;3 -->
<g id="edge72" class="edge"><title>&#45;8&#45;&gt;3</title>
<path fill="none" stroke="red" stroke-width="0.238813" d="M296.223,-141.368C299.045,-140.314 302.055,-139.279 304.907,-138.468 386.316,-115.315 414.235,-136.092 491.907,-102.468 493.323,-101.855 494.737,-101.147 496.13,-100.374"/>
<polygon fill="red" stroke="red" stroke-width="0.238813" points="498.378,-103.085 504.812,-94.668 494.533,-97.2354 498.378,-103.085"/>
</g>
<!-- &#45;8&#45;&gt;4 -->
<g id="edge73" class="edge"><title>&#45;8&#45;&gt;4</title>
<path fill="none" stroke="red" stroke-width="0.136135" d="M296.201,-141.287C299.024,-140.237 302.04,-139.225 304.907,-138.468 407.073,-111.509 442.156,-142.586 539.907,-102.468 541.335,-101.882 542.758,-101.195 544.157,-100.438"/>
<polygon fill="red" stroke="red" stroke-width="0.136135" points="546.388,-103.162 552.855,-94.7698 542.566,-97.2967 546.388,-103.162"/>
</g>
<!-- &#45;8&#45;&gt;5 -->
<g id="edge74" class="edge"><title>&#45;8&#45;&gt;5</title>
<path fill="none" stroke="red" stroke-width="0.45508" d="M296.187,-141.232C299.011,-140.186 302.03,-139.188 304.907,-138.468 427.904,-107.683 470.006,-149.11 587.907,-102.468 589.342,-101.9 590.771,-101.227 592.174,-100.48"/>
<polygon fill="red" stroke="red" stroke-width="0.45508" points="594.393,-103.213 600.883,-94.8382 590.587,-97.3381 594.393,-103.213"/>
</g>
<!-- &#45;8&#45;&gt;6 -->
<g id="edge75" class="edge"><title>&#45;8&#45;&gt;6</title>
<path fill="none" stroke="green" stroke-width="0.22428" d="M271.801,-141.591C253.699,-134.112 218.729,-118.934 190.907,-102.468 189.579,-101.682 188.232,-100.841 186.89,-99.9697"/>
<polygon fill="green" stroke="green" stroke-width="0.22428" points="188.54,-96.8546 178.332,-94.0194 184.544,-102.602 188.54,-96.8546"/>
</g>
<!-- &#45;8&#45;&gt;7 -->
<g id="edge76" class="edge"><title>&#45;8&#45;&gt;7</title>
<path fill="none" stroke="green" stroke-width="0.142179" d="M274.886,-138.443C264.359,-129.077 246.68,-113.35 233.235,-101.389"/>
<polygon fill="green" stroke="green" stroke-width="0.142179" points="235.311,-98.551 225.513,-94.5191 230.658,-103.781 235.311,-98.551"/>
</g>
<!-- &#45;8&#45;&gt;8 -->
<g id="edge77" class="edge"><title>&#45;8&#45;&gt;8</title>
<path fill="none" stroke="red" stroke-width="0.428281" d="M281.161,-138.443C278.533,-130.759 274.439,-118.793 270.794,-108.138"/>
<polygon fill="red" stroke="red" stroke-width="0.428281" points="274.048,-106.836 267.499,-98.507 267.424,-109.102 274.048,-106.836"/>
</g>
<!-- &#45;8&#45;&gt;9 -->
<g id="edge78" class="edge"><title>&#45;8&#45;&gt;9</title>
<path fill="none" stroke="green" stroke-width="0.140868" d="M287.437,-138.443C290.895,-130.581 296.326,-118.234 301.092,-107.397"/>
<polygon fill="green" stroke="green" stroke-width="0.140868" points="304.385,-108.603 305.208,-98.0404 297.978,-105.785 304.385,-108.603"/>
</g>
<!-- &#45;8&#45;&gt;10 -->
<g id="edge79" class="edge"><title>&#45;8&#45;&gt;10</title>
<path fill="none" stroke="green" stroke-width="0.262505" d="M294.104,-138.443C305.564,-129.424 324.523,-114.504 339.483,-102.731"/>
<polygon fill="green" stroke="green" stroke-width="0.262505" points="342.048,-105.166 347.742,-96.2307 337.719,-99.6647 342.048,-105.166"/>
</g>
<!-- &#45;8&#45;&gt;11 -->
<g id="edge80" class="edge"><title>&#45;8&#45;&gt;11</title>
<path fill="none" stroke="red" stroke-width="0.205389" d="M296.034,-141.669C319.822,-132.208 371.78,-111.302 388.907,-102.468 390.273,-101.763 391.662,-101.015 393.052,-100.239"/>
<polygon fill="red" stroke="red" stroke-width="0.205389" points="395.225,-103.021 402.049,-94.9161 391.66,-96.9961 395.225,-103.021"/>
</g>
<!-- 2&#45;&gt;0 -->
<g id="edge81" class="edge"><title>2&#45;&gt;0</title>
<path fill="none" stroke="green" stroke-width="0.324999" d="M462.77,-69.8C459.316,-60.8676 454.675,-48.8673 450.648,-38.4525"/>
<polygon fill="green" stroke="green" stroke-width="0.324999" points="453.904,-37.1694 447.033,-29.1049 447.375,-39.6942 453.904,-37.1694"/>
</g>
<!-- 2&#45;&gt;1 -->
<g id="edge82" class="edge"><title>2&#45;&gt;1</title>
<path fill="none" stroke="red" stroke-width="0.605479" d="M456.496,-74.1235C452.61,-71.2626 448.169,-68.194 443.907,-65.6985 415.78,-49.2312 381.284,-34.1213 358.964,-24.9542"/>
<polygon fill="red" stroke="red" stroke-width="0.605479" points="360.214,-21.6846 349.632,-21.1769 357.588,-28.1732 360.214,-21.6846"/>
</g>
<!-- 3&#45;&gt;0 -->
<g id="edge83" class="edge"><title>3&#45;&gt;0</title>
<path fill="none" stroke="red" stroke-width="0.105543" d="M505.304,-73.4503C493.545,-62.766 474.363,-45.3374 460.173,-32.4455"/>
<polygon fill="red" stroke="red" stroke-width="0.105543" points="462.245,-29.5985 452.49,-25.4644 457.537,-34.7795 462.245,-29.5985"/>
</g>
<!-- 3&#45;&gt;1 -->
<g id="edge84" class="edge"><title>3&#45;&gt;1</title>
<path fill="none" stroke="red" stroke-width="0.518338" d="M504.666,-73.8106C500.792,-70.9288 496.315,-67.927 491.907,-65.6985 447.873,-43.4364 391.852,-28.4494 360.331,-21.1042"/>
<polygon fill="red" stroke="red" stroke-width="0.518338" points="360.789,-17.6195 350.263,-18.8255 359.244,-24.4468 360.789,-17.6195"/>
</g>
<!-- 4&#45;&gt;0 -->
<g id="edge85" class="edge"><title>4&#45;&gt;0</title>
<path fill="none" stroke="green" stroke-width="0.119104" d="M552.439,-74.2182C548.549,-71.3635 544.121,-68.2747 539.907,-65.6985 514.968,-50.4521 484.8,-35.6095 464.582,-26.1426"/>
<polygon fill="green" stroke="green" stroke-width="0.119104" points="465.805,-22.852 455.259,-21.8287 462.865,-29.2048 465.805,-22.852"/>
</g>
<!-- 4&#45;&gt;1 -->
<g id="edge86" class="edge"><title>4&#45;&gt;1</title>
<path fill="none" stroke="red" stroke-width="0.376858" d="M552.754,-73.6292C548.885,-70.7353 544.39,-67.7722 539.907,-65.6985 507.827,-50.8585 407.314,-29.9015 360.435,-20.6068"/>
<polygon fill="red" stroke="red" stroke-width="0.376858" points="361.001,-17.1513 350.514,-18.6555 359.65,-24.0197 361.001,-17.1513"/>
</g>
<!-- 5&#45;&gt;0 -->
<g id="edge87" class="edge"><title>5&#45;&gt;0</title>
<path fill="none" stroke="red" stroke-width="0.150939" d="M600.64,-73.8615C596.764,-70.983 592.292,-67.9703 587.907,-65.6985 547.239,-44.6318 495.758,-29.467 466.055,-21.7192"/>
<polygon fill="red" stroke="red" stroke-width="0.150939" points="466.712,-18.2748 456.158,-19.2031 464.987,-25.059 466.712,-18.2748"/>
</g>
<!-- 5&#45;&gt;1 -->
<g id="edge88" class="edge"><title>5&#45;&gt;1</title>
<path fill="none" stroke="red" stroke-width="0.134118" d="M600.806,-73.5121C596.941,-70.6104 592.434,-67.6722 587.907,-65.6985 567.076,-56.6176 419.683,-30.399 360.456,-20.0871"/>
<polygon fill="red" stroke="red" stroke-width="0.134118" points="360.925,-16.6162 350.473,-18.3544 359.728,-23.5131 360.925,-16.6162"/>
</g>
<!-- 6&#45;&gt;0 -->
<g id="edge89" class="edge"><title>6&#45;&gt;0</title>
<path fill="none" stroke="red" stroke-width="0.329744" d="M178.008,-73.5141C181.873,-70.6125 186.38,-67.6739 190.907,-65.6985 211.655,-56.6445 358.463,-30.41 417.455,-20.0904"/>
<polygon fill="red" stroke="red" stroke-width="0.329744" points="418.148,-23.5225 427.398,-18.3565 416.945,-16.6266 418.148,-23.5225"/>
</g>
<!-- 6&#45;&gt;1 -->
<g id="edge90" class="edge"><title>6&#45;&gt;1</title>
<path fill="none" stroke="red" stroke-width="0.122032" d="M178.176,-73.8669C182.053,-70.9888 186.524,-67.975 190.907,-65.6985 231.093,-44.8276 281.897,-29.683 311.464,-21.8699"/>
<polygon fill="red" stroke="red" stroke-width="0.122032" points="312.526,-25.2105 321.337,-19.3261 310.78,-18.4319 312.526,-25.2105"/>
</g>
<!-- 7&#45;&gt;0 -->
<g id="edge91" class="edge"><title>7&#45;&gt;0</title>
<path fill="none" stroke="green" stroke-width="0.158386" d="M226.061,-73.6322C229.93,-70.7385 234.425,-67.7747 238.907,-65.6985 270.83,-50.909 370.85,-29.926 417.499,-20.6158"/>
<polygon fill="green" stroke="green" stroke-width="0.158386" points="418.242,-24.0368 427.371,-18.661 416.882,-17.1701 418.242,-24.0368"/>
</g>
<!-- 7&#45;&gt;1 -->
<g id="edge92" class="edge"><title>7&#45;&gt;1</title>
<path fill="none" stroke="green" stroke-width="0.363185" d="M226.381,-74.2285C230.271,-71.3745 234.698,-68.2835 238.907,-65.6985 263.612,-50.5242 293.468,-35.6674 313.473,-26.1776"/>
<polygon fill="green" stroke="green" stroke-width="0.363185" points="315.13,-29.2666 322.697,-21.8516 312.157,-22.929 315.13,-29.2666"/>
</g>
<!-- 8&#45;&gt;0 -->
<g id="edge93" class="edge"><title>8&#45;&gt;0</title>
<path fill="none" stroke="red" stroke-width="0.197311" d="M274.15,-73.8155C278.025,-70.934 282.501,-67.9311 286.907,-65.6985 330.438,-43.6392 385.75,-28.6615 417.155,-21.2465"/>
<polygon fill="red" stroke="red" stroke-width="0.197311" points="418.243,-24.5877 427.207,-18.9399 416.678,-17.765 418.243,-24.5877"/>
</g>
<!-- 8&#45;&gt;1 -->
<g id="edge94" class="edge"><title>8&#45;&gt;1</title>
<path fill="none" stroke="green" stroke-width="0.591846" d="M273.366,-73.4503C284.966,-62.766 303.89,-45.3374 317.887,-32.4455"/>
<polygon fill="green" stroke="green" stroke-width="0.591846" points="320.483,-34.8135 325.467,-25.4644 315.74,-29.6645 320.483,-34.8135"/>
</g>
<!-- 9&#45;&gt;0 -->
<g id="edge95" class="edge"><title>9&#45;&gt;0</title>
<path fill="none" stroke="green" stroke-width="0.299804" d="M322.323,-74.1324C326.209,-71.272 330.649,-68.2015 334.907,-65.6985 362.665,-49.3811 396.655,-34.3159 418.771,-25.1123"/>
<polygon fill="green" stroke="green" stroke-width="0.299804" points="420.39,-28.2315 428.314,-21.1989 417.734,-21.755 420.39,-28.2315"/>
</g>
<!-- 9&#45;&gt;1 -->
<g id="edge96" class="edge"><title>9&#45;&gt;1</title>
<path fill="none" stroke="green" stroke-width="0.379655" d="M315.846,-69.8C319.133,-60.9597 323.538,-49.1144 327.382,-38.7751"/>
<polygon fill="green" stroke="green" stroke-width="0.379655" points="330.773,-39.6978 330.978,-29.1049 324.212,-37.2581 330.773,-39.6978"/>
</g>
<!-- 10&#45;&gt;0 -->
<g id="edge97" class="edge"><title>10&#45;&gt;0</title>
<path fill="none" stroke="green" stroke-width="0.536487" d="M375.478,-71.6779C388.521,-60.7164 408.349,-44.052 422.949,-31.7819"/>
<polygon fill="green" stroke="green" stroke-width="0.536487" points="425.446,-34.2549 430.85,-25.1416 420.943,-28.896 425.446,-34.2549"/>
</g>
<!-- 10&#45;&gt;1 -->
<g id="edge98" class="edge"><title>10&#45;&gt;1</title>
<path fill="none" stroke="red" stroke-width="0.187276" d="M355.613,-66.8078C352.302,-58.2457 348.192,-47.6168 344.583,-38.2851"/>
<polygon fill="red" stroke="red" stroke-width="0.187276" points="347.797,-36.8921 340.926,-28.8276 341.268,-39.4169 347.797,-36.8921"/>
</g>
<!-- 11&#45;&gt;0 -->
<g id="edge99" class="edge"><title>11&#45;&gt;0</title>
<path fill="none" stroke="red" stroke-width="0.201654" d="M423.087,-66.4636C426.196,-58.1006 430.014,-47.833 433.397,-38.7364"/>
<polygon fill="red" stroke="red" stroke-width="0.201654" points="436.765,-39.7204 436.969,-29.1275 430.204,-37.2807 436.765,-39.7204"/>
</g>
<!-- 11&#45;&gt;1 -->
<g id="edge100" class="edge"><title>11&#45;&gt;1</title>
<path fill="none" stroke="red" stroke-width="0.200018" d="M403.166,-71.6779C389.885,-60.6538 369.654,-43.8614 354.849,-31.572"/>
<polygon fill="red" stroke="red" stroke-width="0.200018" points="356.782,-28.628 346.852,-24.9342 352.311,-34.0143 356.782,-28.628"/>
</g>
</g>
</svg>
