<?xml version="1.0" encoding="UTF-8" standalone="no"?>
<!DOCTYPE svg PUBLIC "-//W3C//DTD SVG 1.1//EN"
 "http://www.w3.org/Graphics/SVG/1.1/DTD/svg11.dtd">
<!-- Generated by graphviz version 2.38.0 (20140413.2041)
 -->
<!-- Title: %3 Pages: 1 -->
<svg width="1443pt" height="256pt"
 viewBox="0.00 0.00 1442.89 255.62" xmlns="http://www.w3.org/2000/svg" xmlns:xlink="http://www.w3.org/1999/xlink">
<g id="graph0" class="graph" transform="scale(1 1) rotate(0) translate(4 251.622)">
<title>%3</title>
<polygon fill="white" stroke="none" points="-4,4 -4,-251.622 1438.89,-251.622 1438.89,4 -4,4"/>
<!-- &#45;1 -->
<g id="node1" class="node"><title>&#45;1</title>
<polygon fill="lightgray" stroke="black" points="776.138,-247.622 752.138,-247.622 752.138,-229.622 776.138,-229.622 776.138,-247.622"/>
<text text-anchor="middle" x="764.138" y="-236.422" font-family="Times New Roman,serif" font-size="9.00">&#45;1</text>
</g>
<!-- 532 -->
<g id="node13" class="node"><title>532</title>
<ellipse fill="white" stroke="black" cx="492.138" cy="-168.874" rx="21.4286" ry="21.4286"/>
<text text-anchor="middle" x="492.138" y="-166.674" font-family="Times New Roman,serif" font-size="9.00">532</text>
</g>
<!-- &#45;1&#45;&gt;532 -->
<g id="edge1" class="edge"><title>&#45;1&#45;&gt;532</title>
<path fill="none" stroke="green" stroke-width="0.467947" stroke-dasharray="1,5" d="M751.958,-234.462C745.749,-232.904 738.065,-231.057 731.138,-229.622 638.839,-210.508 608.199,-232.065 522.138,-193.622 519.803,-192.579 517.491,-191.313 515.25,-189.914"/>
<polygon fill="green" stroke="green" stroke-width="0.467947" points="517.216,-187.017 507.044,-184.053 513.147,-192.713 517.216,-187.017"/>
</g>
<!-- 533 -->
<g id="node14" class="node"><title>533</title>
<ellipse fill="white" stroke="black" cx="700.138" cy="-86.9117" rx="21.4286" ry="21.4286"/>
<text text-anchor="middle" x="700.138" y="-84.7117" font-family="Times New Roman,serif" font-size="9.00">533</text>
</g>
<!-- &#45;1&#45;&gt;533 -->
<g id="edge2" class="edge"><title>&#45;1&#45;&gt;533</title>
<path fill="none" stroke="green" stroke-width="0.534748" d="M760.697,-229.573C751.717,-208.567 727.235,-151.299 712.293,-116.345"/>
<polygon fill="green" stroke="green" stroke-width="0.534748" points="715.32,-114.521 708.17,-106.702 708.883,-117.273 715.32,-114.521"/>
</g>
<!-- 534 -->
<g id="node15" class="node"><title>534</title>
<ellipse fill="white" stroke="black" cx="291.138" cy="-86.9117" rx="21.4286" ry="21.4286"/>
<text text-anchor="middle" x="291.138" y="-84.7117" font-family="Times New Roman,serif" font-size="9.00">534</text>
</g>
<!-- &#45;1&#45;&gt;534 -->
<g id="edge3" class="edge"><title>&#45;1&#45;&gt;534</title>
<path fill="none" stroke="red" stroke-width="0.565371" stroke-dasharray="1,5" d="M751.98,-234.352C745.776,-232.766 738.091,-230.927 731.138,-229.622 612.584,-207.383 575.718,-234.23 462.138,-193.622 405.361,-173.323 347.34,-132.28 315.611,-107.735"/>
<polygon fill="red" stroke="red" stroke-width="0.565371" points="317.41,-104.698 307.382,-101.281 313.09,-110.206 317.41,-104.698"/>
</g>
<!-- 535 -->
<g id="node16" class="node"><title>535</title>
<ellipse fill="white" stroke="black" cx="786.138" cy="-168.874" rx="21.4286" ry="21.4286"/>
<text text-anchor="middle" x="786.138" y="-166.674" font-family="Times New Roman,serif" font-size="9.00">535</text>
</g>
<!-- &#45;1&#45;&gt;535 -->
<g id="edge4" class="edge"><title>&#45;1&#45;&gt;535</title>
<path fill="none" stroke="green" stroke-width="0.44213" d="M766.748,-229.585C769.23,-221.94 773.116,-209.972 776.76,-198.753"/>
<polygon fill="green" stroke="green" stroke-width="0.44213" points="780.098,-199.805 779.858,-189.213 773.44,-197.643 780.098,-199.805"/>
</g>
<!-- 536 -->
<g id="node17" class="node"><title>536</title>
<ellipse fill="white" stroke="black" cx="922.138" cy="-168.874" rx="21.4286" ry="21.4286"/>
<text text-anchor="middle" x="922.138" y="-166.674" font-family="Times New Roman,serif" font-size="9.00">536</text>
</g>
<!-- &#45;1&#45;&gt;536 -->
<g id="edge5" class="edge"><title>&#45;1&#45;&gt;536</title>
<path fill="none" stroke="red" stroke-width="0.337562" d="M776.236,-233.207C779.453,-232.038 782.926,-230.779 786.138,-229.622 830.975,-213.479 844.635,-215.174 887.138,-193.622 890.478,-191.929 893.876,-189.967 897.177,-187.912"/>
<polygon fill="red" stroke="red" stroke-width="0.337562" points="899.158,-190.799 905.58,-182.372 895.305,-184.954 899.158,-190.799"/>
</g>
<!-- 537 -->
<g id="node18" class="node"><title>537</title>
<ellipse fill="white" stroke="black" cx="552.138" cy="-168.874" rx="21.4286" ry="21.4286"/>
<text text-anchor="middle" x="552.138" y="-166.674" font-family="Times New Roman,serif" font-size="9.00">537</text>
</g>
<!-- &#45;1&#45;&gt;537 -->
<g id="edge6" class="edge"><title>&#45;1&#45;&gt;537</title>
<path fill="none" stroke="green" stroke-width="0.15636" d="M751.914,-234.657C745.694,-233.148 738.013,-231.286 731.138,-229.622 664.922,-213.597 643.384,-223.46 582.138,-193.622 580.051,-192.606 577.976,-191.425 575.947,-190.142"/>
<polygon fill="green" stroke="green" stroke-width="0.15636" points="577.631,-187.044 567.461,-184.073 573.558,-192.737 577.631,-187.044"/>
</g>
<!-- 538 -->
<g id="node19" class="node"><title>538</title>
<ellipse fill="white" stroke="black" cx="612.138" cy="-168.874" rx="21.4286" ry="21.4286"/>
<text text-anchor="middle" x="612.138" y="-166.674" font-family="Times New Roman,serif" font-size="9.00">538</text>
</g>
<!-- &#45;1&#45;&gt;538 -->
<g id="edge7" class="edge"><title>&#45;1&#45;&gt;538</title>
<path fill="none" stroke="green" stroke-width="0.261186" d="M752.118,-234.138C730.464,-227.638 683.75,-212.587 647.138,-193.622 643.812,-191.9 640.423,-189.921 637.127,-187.857"/>
<polygon fill="green" stroke="green" stroke-width="0.261186" points="639.001,-184.9 628.728,-182.308 635.143,-190.741 639.001,-184.9"/>
</g>
<!-- 539 -->
<g id="node20" class="node"><title>539</title>
<ellipse fill="white" stroke="black" cx="836.138" cy="-86.9117" rx="21.4286" ry="21.4286"/>
<text text-anchor="middle" x="836.138" y="-84.7117" font-family="Times New Roman,serif" font-size="9.00">539</text>
</g>
<!-- &#45;1&#45;&gt;539 -->
<g id="edge8" class="edge"><title>&#45;1&#45;&gt;539</title>
<path fill="none" stroke="red" stroke-width="0.24742" d="M776.199,-233.175C797.634,-225 840.89,-207.18 849.138,-193.622 863.37,-170.229 856.786,-138.528 848.707,-115.957"/>
<polygon fill="red" stroke="red" stroke-width="0.24742" points="851.957,-114.657 845.085,-106.594 845.429,-117.183 851.957,-114.657"/>
</g>
<!-- 540 -->
<g id="node21" class="node"><title>540</title>
<ellipse fill="white" stroke="black" cx="982.138" cy="-168.874" rx="21.4286" ry="21.4286"/>
<text text-anchor="middle" x="982.138" y="-166.674" font-family="Times New Roman,serif" font-size="9.00">540</text>
</g>
<!-- &#45;1&#45;&gt;540 -->
<g id="edge9" class="edge"><title>&#45;1&#45;&gt;540</title>
<path fill="none" stroke="red" stroke-width="0.404074" stroke-dasharray="1,5" d="M776.145,-232.924C779.362,-231.757 782.858,-230.57 786.138,-229.622 858.666,-208.675 883.887,-225.886 952.138,-193.622 954.45,-192.529 956.745,-191.228 958.976,-189.806"/>
<polygon fill="red" stroke="red" stroke-width="0.404074" points="961.097,-192.591 967.163,-183.905 957.004,-186.913 961.097,-192.591"/>
</g>
<!-- 541 -->
<g id="node22" class="node"><title>541</title>
<ellipse fill="white" stroke="black" cx="1042.14" cy="-168.874" rx="21.4286" ry="21.4286"/>
<text text-anchor="middle" x="1042.14" y="-166.674" font-family="Times New Roman,serif" font-size="9.00">541</text>
</g>
<!-- &#45;1&#45;&gt;541 -->
<g id="edge10" class="edge"><title>&#45;1&#45;&gt;541</title>
<path fill="none" stroke="red" stroke-width="0.138445" d="M776.572,-232.633C779.661,-231.524 782.99,-230.437 786.138,-229.622 884.601,-204.127 919.011,-234.518 1012.14,-193.622 1014.48,-192.594 1016.8,-191.338 1019.04,-189.946"/>
<polygon fill="red" stroke="red" stroke-width="0.138445" points="1021.14,-192.749 1027.25,-184.096 1017.08,-187.048 1021.14,-192.749"/>
</g>
<!-- &#45;2 -->
<g id="node2" class="node"><title>&#45;2</title>
<polygon fill="lightgray" stroke="black" points="526.138,-247.622 502.138,-247.622 502.138,-229.622 526.138,-229.622 526.138,-247.622"/>
<text text-anchor="middle" x="514.138" y="-236.422" font-family="Times New Roman,serif" font-size="9.00">&#45;2</text>
</g>
<!-- &#45;2&#45;&gt;532 -->
<g id="edge11" class="edge"><title>&#45;2&#45;&gt;532</title>
<path fill="none" stroke="green" stroke-width="0.1527" stroke-dasharray="1,5" d="M511.528,-229.585C509.045,-221.94 505.159,-209.972 501.516,-198.753"/>
<polygon fill="green" stroke="green" stroke-width="0.1527" points="504.835,-197.643 498.418,-189.213 498.177,-199.805 504.835,-197.643"/>
</g>
<!-- &#45;2&#45;&gt;533 -->
<g id="edge12" class="edge"><title>&#45;2&#45;&gt;533</title>
<path fill="none" stroke="green" stroke-width="0.444419" d="M501.959,-236.464C465.668,-232.738 359.508,-219.748 339.138,-193.622 325.611,-176.274 324.829,-160.834 339.138,-144.125 381.496,-94.6601 588.166,-88.3813 668.3,-87.8333"/>
<polygon fill="green" stroke="green" stroke-width="0.444419" points="668.752,-91.3315 678.738,-87.7901 668.723,-84.3316 668.752,-91.3315"/>
</g>
<!-- &#45;2&#45;&gt;534 -->
<g id="edge13" class="edge"><title>&#45;2&#45;&gt;534</title>
<path fill="none" stroke="green" stroke-width="0.4263" d="M501.736,-237.507C427.888,-236.697 48.1267,-230.734 14.1377,-193.622 -58.6993,-114.094 173.214,-93.9349 259.846,-89.2359"/>
<polygon fill="green" stroke="green" stroke-width="0.4263" points="260.085,-92.7283 269.895,-88.7254 259.73,-85.7373 260.085,-92.7283"/>
</g>
<!-- &#45;2&#45;&gt;535 -->
<g id="edge14" class="edge"><title>&#45;2&#45;&gt;535</title>
<path fill="none" stroke="red" stroke-width="0.237454" d="M526.481,-232.614C529.302,-231.555 532.304,-230.495 535.138,-229.622 613.342,-205.531 707.75,-185.397 755.411,-175.84"/>
<polygon fill="red" stroke="red" stroke-width="0.237454" points="756.27,-179.238 765.396,-173.857 754.905,-172.373 756.27,-179.238"/>
</g>
<!-- &#45;2&#45;&gt;536 -->
<g id="edge15" class="edge"><title>&#45;2&#45;&gt;536</title>
<path fill="none" stroke="green" stroke-width="0.801202" stroke-dasharray="1,5" d="M526.419,-232.389C529.242,-231.342 532.262,-230.344 535.138,-229.622 657.266,-198.997 692.127,-215.409 816.138,-193.622 841.72,-189.128 870.458,-182.595 891.55,-177.519"/>
<polygon fill="green" stroke="green" stroke-width="0.801202" points="892.647,-180.854 901.534,-175.087 890.99,-174.053 892.647,-180.854"/>
</g>
<!-- &#45;2&#45;&gt;537 -->
<g id="edge16" class="edge"><title>&#45;2&#45;&gt;537</title>
<path fill="none" stroke="green" stroke-width="0.213345" stroke-dasharray="1,5" d="M518.646,-229.585C523.176,-221.509 530.411,-208.609 537,-196.863"/>
<polygon fill="green" stroke="green" stroke-width="0.213345" points="540.241,-198.238 542.081,-187.804 534.136,-194.814 540.241,-198.238"/>
</g>
<!-- &#45;2&#45;&gt;538 -->
<g id="edge17" class="edge"><title>&#45;2&#45;&gt;538</title>
<path fill="none" stroke="green" stroke-width="0.188019" stroke-dasharray="1,5" d="M526.159,-230.327C539.93,-221.86 563.053,-207.304 582.138,-193.622 584.024,-192.27 585.954,-190.845 587.881,-189.391"/>
<polygon fill="green" stroke="green" stroke-width="0.188019" points="590.398,-191.869 596.162,-182.979 586.113,-186.334 590.398,-191.869"/>
</g>
<!-- &#45;2&#45;&gt;539 -->
<g id="edge18" class="edge"><title>&#45;2&#45;&gt;539</title>
<path fill="none" stroke="green" stroke-width="0.267336" d="M501.934,-235.02C483.438,-230.347 448.901,-218.592 434.138,-193.622 422.941,-174.686 419.551,-160.593 434.138,-144.125 478.073,-94.5224 664.667,-118.337 730.138,-108.125 755.632,-104.148 784.376,-98.5999 805.494,-94.3219"/>
<polygon fill="green" stroke="green" stroke-width="0.267336" points="806.397,-97.7098 815.492,-92.2761 804.993,-90.8519 806.397,-97.7098"/>
</g>
<!-- &#45;2&#45;&gt;540 -->
<g id="edge19" class="edge"><title>&#45;2&#45;&gt;540</title>
<path fill="none" stroke="green" stroke-width="0.194907" d="M526.397,-232.3C529.222,-231.258 532.247,-230.284 535.138,-229.622 716.47,-188.111 779.238,-262.253 952.138,-193.622 954.515,-192.679 956.855,-191.482 959.117,-190.129"/>
<polygon fill="green" stroke="green" stroke-width="0.194907" points="961.181,-192.957 967.355,-184.347 957.159,-187.227 961.181,-192.957"/>
</g>
<!-- &#45;3 -->
<g id="node3" class="node"><title>&#45;3</title>
<polygon fill="lightgray" stroke="black" points="943.138,-247.622 919.138,-247.622 919.138,-229.622 943.138,-229.622 943.138,-247.622"/>
<text text-anchor="middle" x="931.138" y="-236.422" font-family="Times New Roman,serif" font-size="9.00">&#45;3</text>
</g>
<!-- &#45;3&#45;&gt;532 -->
<g id="edge20" class="edge"><title>&#45;3&#45;&gt;532</title>
<path fill="none" stroke="green" stroke-width="0.234154" d="M918.882,-236.712C854.803,-231.896 559.813,-209.038 522.138,-193.622 519.771,-192.654 517.437,-191.44 515.181,-190.075"/>
<polygon fill="green" stroke="green" stroke-width="0.234154" points="517.14,-187.174 506.95,-184.273 513.106,-192.895 517.14,-187.174"/>
</g>
<!-- &#45;3&#45;&gt;533 -->
<g id="edge21" class="edge"><title>&#45;3&#45;&gt;533</title>
<path fill="none" stroke="green" stroke-width="0.24379" d="M943.327,-234.375C980.499,-224.457 1089.98,-195.144 1091.14,-193.622 1104.47,-176.126 1105.69,-160.626 1091.14,-144.125 1048.92,-96.2406 869.189,-118.109 806.138,-108.125 780.652,-104.089 751.908,-98.5454 730.787,-94.2841"/>
<polygon fill="green" stroke="green" stroke-width="0.24379" points="731.285,-90.8138 720.788,-92.2476 729.888,-97.673 731.285,-90.8138"/>
</g>
<!-- &#45;3&#45;&gt;534 -->
<g id="edge22" class="edge"><title>&#45;3&#45;&gt;534</title>
<path fill="none" stroke="red" stroke-width="0.202027" d="M943.249,-234.263C976.701,-224.931 1068.17,-199.019 1072.14,-193.622 1085.17,-175.901 1087.12,-160.229 1072.14,-144.125 1059.13,-130.152 467.538,-97.4151 322.826,-89.6059"/>
<polygon fill="red" stroke="red" stroke-width="0.202027" points="322.618,-86.0897 312.444,-89.0471 322.242,-93.0796 322.618,-86.0897"/>
</g>
<!-- &#45;3&#45;&gt;535 -->
<g id="edge23" class="edge"><title>&#45;3&#45;&gt;535</title>
<path fill="none" stroke="green" stroke-width="0.11437" d="M918.775,-231.846C895.811,-221.116 846.037,-197.86 814.418,-183.087"/>
<polygon fill="green" stroke="green" stroke-width="0.11437" points="815.78,-179.86 805.238,-178.798 812.817,-186.202 815.78,-179.86"/>
</g>
<!-- &#45;3&#45;&gt;536 -->
<g id="edge24" class="edge"><title>&#45;3&#45;&gt;536</title>
<path fill="none" stroke="red" stroke-width="0.155881" d="M930.07,-229.585C929.096,-222.254 927.594,-210.948 926.158,-200.138"/>
<polygon fill="red" stroke="red" stroke-width="0.155881" points="929.607,-199.523 924.821,-190.071 922.668,-200.445 929.607,-199.523"/>
</g>
<!-- &#45;3&#45;&gt;537 -->
<g id="edge25" class="edge"><title>&#45;3&#45;&gt;537</title>
<path fill="none" stroke="green" stroke-width="0.714054" d="M918.808,-236.465C860.495,-230.938 613.881,-206.95 582.138,-193.622 579.78,-192.632 577.452,-191.403 575.2,-190.029"/>
<polygon fill="green" stroke="green" stroke-width="0.714054" points="577.161,-187.129 566.976,-184.209 573.118,-192.843 577.161,-187.129"/>
</g>
<!-- &#45;3&#45;&gt;538 -->
<g id="edge26" class="edge"><title>&#45;3&#45;&gt;538</title>
<path fill="none" stroke="red" stroke-width="0.54211" d="M919.022,-235.049C873.434,-225.367 711.337,-190.941 642.94,-176.415"/>
<polygon fill="red" stroke="red" stroke-width="0.54211" points="643.308,-172.916 632.799,-174.262 641.854,-179.763 643.308,-172.916"/>
</g>
<!-- &#45;3&#45;&gt;539 -->
<g id="edge27" class="edge"><title>&#45;3&#45;&gt;539</title>
<path fill="none" stroke="green" stroke-width="0.162445" d="M943.309,-233.963C948.727,-232.442 955.21,-230.767 961.138,-229.622 1026.2,-217.055 1213.2,-243.225 1257.14,-193.622 1271.72,-177.155 1271.63,-160.678 1257.14,-144.125 1231.47,-114.804 961.157,-95.5784 867.709,-89.7673"/>
<polygon fill="green" stroke="green" stroke-width="0.162445" points="867.662,-86.2579 857.466,-89.1403 867.234,-93.2449 867.662,-86.2579"/>
</g>
<!-- &#45;3&#45;&gt;540 -->
<g id="edge28" class="edge"><title>&#45;3&#45;&gt;540</title>
<path fill="none" stroke="red" stroke-width="0.388138" d="M937.188,-229.585C943.663,-220.984 954.255,-206.913 963.532,-194.59"/>
<polygon fill="red" stroke="red" stroke-width="0.388138" points="966.459,-196.521 969.677,-186.427 960.866,-192.311 966.459,-196.521"/>
</g>
<!-- &#45;3&#45;&gt;541 -->
<g id="edge29" class="edge"><title>&#45;3&#45;&gt;541</title>
<path fill="none" stroke="green" stroke-width="1.23697" d="M943.315,-231.83C959.497,-223.949 988.768,-209.055 1012.14,-193.622 1014.07,-192.343 1016.04,-190.971 1017.99,-189.555"/>
<polygon fill="green" stroke="green" stroke-width="1.23697" points="1020.49,-192.057 1026.33,-183.218 1016.25,-186.486 1020.49,-192.057"/>
</g>
<!-- &#45;4 -->
<g id="node4" class="node"><title>&#45;4</title>
<polygon fill="lightgray" stroke="black" points="615.138,-247.622 591.138,-247.622 591.138,-229.622 615.138,-229.622 615.138,-247.622"/>
<text text-anchor="middle" x="603.138" y="-236.422" font-family="Times New Roman,serif" font-size="9.00">&#45;4</text>
</g>
<!-- &#45;4&#45;&gt;532 -->
<g id="edge30" class="edge"><title>&#45;4&#45;&gt;532</title>
<path fill="none" stroke="green" stroke-width="0.84873" d="M590.961,-231.83C574.778,-223.949 545.508,-209.055 522.138,-193.622 520.201,-192.343 518.234,-190.971 516.282,-189.555"/>
<polygon fill="green" stroke="green" stroke-width="0.84873" points="518.027,-186.486 507.949,-183.218 513.79,-192.057 518.027,-186.486"/>
</g>
<!-- &#45;4&#45;&gt;533 -->
<g id="edge31" class="edge"><title>&#45;4&#45;&gt;533</title>
<path fill="none" stroke="green" stroke-width="0.556897" d="M591.013,-233.727C586.655,-232.37 581.691,-230.875 577.138,-229.622 511.868,-211.66 470.968,-246.848 429.138,-193.622 415.544,-176.326 415.251,-161.187 429.138,-144.125 459.09,-107.322 604.13,-93.8472 668.848,-89.6108"/>
<polygon fill="green" stroke="green" stroke-width="0.556897" points="669.113,-93.1011 678.876,-88.9867 668.678,-86.1147 669.113,-93.1011"/>
</g>
<!-- &#45;4&#45;&gt;534 -->
<g id="edge32" class="edge"><title>&#45;4&#45;&gt;534</title>
<path fill="none" stroke="red" stroke-width="0.273087" d="M591.1,-233.36C586.75,-231.97 581.769,-230.547 577.138,-229.622 494.823,-213.195 257.591,-255.739 201.138,-193.622 186.342,-177.342 190.471,-163.364 201.138,-144.125 213.939,-121.036 240.611,-106.182 261.612,-97.5782"/>
<polygon fill="red" stroke="red" stroke-width="0.273087" points="262.998,-100.796 271.086,-93.9529 260.496,-94.258 262.998,-100.796"/>
</g>
<!-- &#45;4&#45;&gt;535 -->
<g id="edge33" class="edge"><title>&#45;4&#45;&gt;535</title>
<path fill="none" stroke="red" stroke-width="0.77673" stroke-dasharray="1,5" d="M615.145,-233.177C643.647,-222.625 716.049,-195.821 756.913,-180.693"/>
<polygon fill="red" stroke="red" stroke-width="0.77673" points="758.173,-183.959 766.336,-177.204 755.743,-177.394 758.173,-183.959"/>
</g>
<!-- &#45;4&#45;&gt;536 -->
<g id="edge34" class="edge"><title>&#45;4&#45;&gt;536</title>
<path fill="none" stroke="red" stroke-width="0.221625" d="M615.163,-235.212C647.622,-228.688 739.726,-210.073 816.138,-193.622 841.53,-188.155 870.282,-181.697 891.429,-176.896"/>
<polygon fill="red" stroke="red" stroke-width="0.221625" points="892.468,-180.249 901.443,-174.618 890.915,-173.424 892.468,-180.249"/>
</g>
<!-- &#45;4&#45;&gt;537 -->
<g id="edge35" class="edge"><title>&#45;4&#45;&gt;537</title>
<path fill="none" stroke="red" stroke-width="0.281491" d="M597.087,-229.585C590.613,-220.984 580.02,-206.913 570.744,-194.59"/>
<polygon fill="red" stroke="red" stroke-width="0.281491" points="573.409,-192.311 564.598,-186.427 567.816,-196.521 573.409,-192.311"/>
</g>
<!-- &#45;4&#45;&gt;538 -->
<g id="edge36" class="edge"><title>&#45;4&#45;&gt;538</title>
<path fill="none" stroke="red" stroke-width="0.269649" d="M604.205,-229.585C605.179,-222.254 606.681,-210.948 608.117,-200.138"/>
<polygon fill="red" stroke="red" stroke-width="0.269649" points="611.607,-200.445 609.455,-190.071 604.668,-199.523 611.607,-200.445"/>
</g>
<!-- &#45;4&#45;&gt;539 -->
<g id="edge37" class="edge"><title>&#45;4&#45;&gt;539</title>
<path fill="none" stroke="red" stroke-width="0.472353" d="M590.675,-233.786C556.299,-223.197 462.634,-194.297 462.138,-193.622 449.103,-175.901 447.655,-160.684 462.138,-144.125 501.699,-98.8944 670.824,-117.756 730.138,-108.125 755.607,-103.989 784.353,-98.4527 805.478,-94.2199"/>
<polygon fill="red" stroke="red" stroke-width="0.472353" points="806.371,-97.6103 815.48,-92.1992 804.985,-90.7489 806.371,-97.6103"/>
</g>
<!-- &#45;4&#45;&gt;540 -->
<g id="edge38" class="edge"><title>&#45;4&#45;&gt;540</title>
<path fill="none" stroke="green" stroke-width="0.19489" stroke-dasharray="1,5" d="M615.467,-236.465C673.78,-230.938 920.394,-206.95 952.138,-193.622 954.496,-192.632 956.823,-191.403 959.076,-190.029"/>
<polygon fill="green" stroke="green" stroke-width="0.19489" points="961.158,-192.843 967.299,-184.209 957.114,-187.129 961.158,-192.843"/>
</g>
<!-- &#45;4&#45;&gt;541 -->
<g id="edge39" class="edge"><title>&#45;4&#45;&gt;541</title>
<path fill="none" stroke="red" stroke-width="0.228313" d="M615.195,-236.516C680.871,-230.464 993.217,-201.364 1012.14,-193.622 1014.5,-192.654 1016.84,-191.44 1019.09,-190.075"/>
<polygon fill="red" stroke="red" stroke-width="0.228313" points="1021.17,-192.895 1027.33,-184.273 1017.14,-187.174 1021.17,-192.895"/>
</g>
<!-- &#45;5 -->
<g id="node5" class="node"><title>&#45;5</title>
<polygon fill="lightgray" stroke="black" points="568.138,-247.622 544.138,-247.622 544.138,-229.622 568.138,-229.622 568.138,-247.622"/>
<text text-anchor="middle" x="556.138" y="-236.422" font-family="Times New Roman,serif" font-size="9.00">&#45;5</text>
</g>
<!-- 1177 -->
<g id="node11" class="node"><title>1177</title>
<ellipse fill="white" stroke="black" cx="48.1377" cy="-168.874" rx="25" ry="25"/>
<text text-anchor="middle" x="48.1377" y="-166.674" font-family="Times New Roman,serif" font-size="9.00">1177</text>
</g>
<!-- &#45;5&#45;&gt;1177 -->
<g id="edge103" class="edge"><title>&#45;5&#45;&gt;1177</title>
<path fill="none" stroke="green" stroke-width="0.3027" d="M543.877,-232.303C541.052,-231.261 538.028,-230.286 535.138,-229.622 356.857,-188.672 304.652,-228.775 125.138,-193.622 110.369,-190.73 94.4148,-186.075 80.88,-181.649"/>
<polygon fill="green" stroke="green" stroke-width="0.3027" points="81.6552,-178.217 71.0611,-178.343 79.4211,-184.851 81.6552,-178.217"/>
</g>
<!-- &#45;5&#45;&gt;532 -->
<g id="edge40" class="edge"><title>&#45;5&#45;&gt;532</title>
<path fill="none" stroke="green" stroke-width="0.505068" stroke-dasharray="1,5" d="M548.545,-229.585C539.935,-220.47 525.521,-205.212 513.419,-192.402"/>
<polygon fill="green" stroke="green" stroke-width="0.505068" points="515.667,-189.685 506.256,-184.819 510.579,-194.492 515.667,-189.685"/>
</g>
<!-- &#45;5&#45;&gt;533 -->
<g id="edge41" class="edge"><title>&#45;5&#45;&gt;533</title>
<path fill="none" stroke="green" stroke-width="0.300329" stroke-dasharray="1,5" d="M543.818,-232.533C540.996,-231.478 537.988,-230.441 535.138,-229.622 455.884,-206.864 405.481,-257.334 353.138,-193.622 339.173,-176.624 338.88,-160.878 353.138,-144.125 393.558,-96.6294 590.621,-89.1419 668.439,-88.0534"/>
<polygon fill="green" stroke="green" stroke-width="0.300329" points="668.64,-91.5515 678.6,-87.9388 668.561,-84.5519 668.64,-91.5515"/>
</g>
<!-- &#45;5&#45;&gt;534 -->
<g id="edge42" class="edge"><title>&#45;5&#45;&gt;534</title>
<path fill="none" stroke="green" stroke-width="0.243704" d="M543.873,-232.323C541.048,-231.279 538.025,-230.299 535.138,-229.622 454.276,-210.67 218.965,-255.113 163.138,-193.622 148.35,-177.335 151.11,-162.544 163.138,-144.125 184.446,-111.495 229.38,-97.6827 259.92,-91.9193"/>
<polygon fill="green" stroke="green" stroke-width="0.243704" points="260.786,-95.3224 270.06,-90.1988 259.615,-88.4211 260.786,-95.3224"/>
</g>
<!-- &#45;5&#45;&gt;535 -->
<g id="edge43" class="edge"><title>&#45;5&#45;&gt;535</title>
<path fill="none" stroke="red" stroke-width="0.365801" stroke-dasharray="1,5" d="M568.296,-233.844C572.658,-232.498 577.615,-230.981 582.138,-229.622 643.916,-211.072 716.431,-190 756.223,-178.497"/>
<polygon fill="red" stroke="red" stroke-width="0.365801" points="757.206,-181.857 765.842,-175.719 755.264,-175.131 757.206,-181.857"/>
</g>
<!-- &#45;5&#45;&gt;536 -->
<g id="edge44" class="edge"><title>&#45;5&#45;&gt;536</title>
<path fill="none" stroke="red" stroke-width="0.549999" stroke-dasharray="1,5" d="M568.207,-233.508C572.56,-232.13 577.535,-230.679 582.138,-229.622 684.696,-206.087 712.739,-213.136 816.138,-193.622 841.662,-188.805 870.404,-182.297 891.513,-177.312"/>
<polygon fill="red" stroke="red" stroke-width="0.549999" points="892.589,-180.654 901.506,-174.931 890.967,-173.844 892.589,-180.654"/>
</g>
<!-- &#45;5&#45;&gt;537 -->
<g id="edge45" class="edge"><title>&#45;5&#45;&gt;537</title>
<path fill="none" stroke="red" stroke-width="0.171912" d="M555.663,-229.585C555.23,-222.254 554.563,-210.948 553.925,-200.138"/>
<polygon fill="red" stroke="red" stroke-width="0.171912" points="557.414,-199.848 553.33,-190.071 550.426,-200.26 557.414,-199.848"/>
</g>
<!-- &#45;5&#45;&gt;538 -->
<g id="edge46" class="edge"><title>&#45;5&#45;&gt;538</title>
<path fill="none" stroke="green" stroke-width="0.131489" d="M562.782,-229.585C570.054,-220.786 582.059,-206.263 592.408,-193.743"/>
<polygon fill="green" stroke="green" stroke-width="0.131489" points="595.23,-195.823 598.903,-185.885 589.834,-191.363 595.23,-195.823"/>
</g>
<!-- &#45;5&#45;&gt;539 -->
<g id="edge47" class="edge"><title>&#45;5&#45;&gt;539</title>
<path fill="none" stroke="red" stroke-width="0.474457" d="M543.939,-232.858C515.982,-221.913 449.564,-195.744 448.138,-193.622 435.863,-175.367 433.6,-160.636 448.138,-144.125 489.885,-96.7091 667.746,-118.046 730.138,-108.125 755.62,-104.073 784.365,-98.5298 805.486,-94.2734"/>
<polygon fill="red" stroke="red" stroke-width="0.474457" points="806.384,-97.6625 815.486,-92.2395 804.989,-90.8029 806.384,-97.6625"/>
</g>
<!-- &#45;5&#45;&gt;540 -->
<g id="edge48" class="edge"><title>&#45;5&#45;&gt;540</title>
<path fill="none" stroke="green" stroke-width="0.245148" stroke-dasharray="1,5" d="M568.177,-233.364C572.527,-231.974 577.507,-230.55 582.138,-229.622 744.139,-197.163 798.906,-255.413 952.138,-193.622 954.51,-192.666 956.847,-191.46 959.106,-190.101"/>
<polygon fill="green" stroke="green" stroke-width="0.245148" points="961.175,-192.925 967.34,-184.308 957.147,-187.2 961.175,-192.925"/>
</g>
<!-- &#45;5&#45;&gt;541 -->
<g id="edge49" class="edge"><title>&#45;5&#45;&gt;541</title>
<path fill="none" stroke="green" stroke-width="1.55991" d="M568.17,-233.33C572.519,-231.936 577.501,-230.519 582.138,-229.622 770.429,-193.212 833.796,-264.146 1012.14,-193.622 1014.52,-192.682 1016.86,-191.487 1019.12,-190.136"/>
<polygon fill="green" stroke="green" stroke-width="1.55991" points="1021.18,-192.964 1027.36,-184.356 1017.16,-187.234 1021.18,-192.964"/>
</g>
<!-- &#45;6 -->
<g id="node6" class="node"><title>&#45;6</title>
<polygon fill="lightgray" stroke="black" points="722.138,-247.622 698.138,-247.622 698.138,-229.622 722.138,-229.622 722.138,-247.622"/>
<text text-anchor="middle" x="710.138" y="-236.422" font-family="Times New Roman,serif" font-size="9.00">&#45;6</text>
</g>
<!-- &#45;6&#45;&gt;532 -->
<g id="edge50" class="edge"><title>&#45;6&#45;&gt;532</title>
<path fill="none" stroke="green" stroke-width="0.174843" d="M698.095,-236.636C667.35,-233.741 584.022,-223.497 522.138,-193.622 520.048,-192.613 517.969,-191.437 515.939,-190.159"/>
<polygon fill="green" stroke="green" stroke-width="0.174843" points="517.622,-187.06 507.45,-184.097 513.554,-192.757 517.622,-187.06"/>
</g>
<!-- &#45;6&#45;&gt;533 -->
<g id="edge51" class="edge"><title>&#45;6&#45;&gt;533</title>
<path fill="none" stroke="red" stroke-width="0.219458" d="M709.6,-229.573C708.225,-208.988 704.524,-153.577 702.179,-118.47"/>
<polygon fill="red" stroke="red" stroke-width="0.219458" points="705.658,-118.032 701.499,-108.287 698.673,-118.498 705.658,-118.032"/>
</g>
<!-- &#45;6&#45;&gt;534 -->
<g id="edge52" class="edge"><title>&#45;6&#45;&gt;534</title>
<path fill="none" stroke="green" stroke-width="0.439039" d="M697.759,-236.478C627.391,-229.957 280.779,-197.652 277.138,-193.622 258.048,-172.495 266.951,-138.595 277.1,-114.898"/>
<polygon fill="green" stroke="green" stroke-width="0.439039" points="280.311,-116.293 281.297,-105.744 273.948,-113.376 280.311,-116.293"/>
</g>
<!-- &#45;6&#45;&gt;535 -->
<g id="edge53" class="edge"><title>&#45;6&#45;&gt;535</title>
<path fill="none" stroke="green" stroke-width="0.124979" d="M719.154,-229.585C729.837,-220.062 748.043,-203.832 762.781,-190.695"/>
<polygon fill="green" stroke="green" stroke-width="0.124979" points="765.406,-193.043 770.542,-183.777 760.748,-187.818 765.406,-193.043"/>
</g>
<!-- &#45;6&#45;&gt;536 -->
<g id="edge54" class="edge"><title>&#45;6&#45;&gt;536</title>
<path fill="none" stroke="red" stroke-width="0.395912" d="M722.42,-233.77C746.665,-226.159 802.381,-208.628 849.138,-193.622 863.396,-189.046 879.201,-183.912 892.448,-179.592"/>
<polygon fill="red" stroke="red" stroke-width="0.395912" points="893.592,-182.9 902.011,-176.469 891.419,-176.246 893.592,-182.9"/>
</g>
<!-- &#45;6&#45;&gt;537 -->
<g id="edge55" class="edge"><title>&#45;6&#45;&gt;537</title>
<path fill="none" stroke="green" stroke-width="0.419184" d="M697.927,-234.893C674.475,-229.339 621.93,-215.379 582.138,-193.622 580.101,-192.509 578.062,-191.257 576.059,-189.925"/>
<polygon fill="green" stroke="green" stroke-width="0.419184" points="577.762,-186.835 567.624,-183.757 573.63,-192.485 577.762,-186.835"/>
</g>
<!-- &#45;6&#45;&gt;538 -->
<g id="edge56" class="edge"><title>&#45;6&#45;&gt;538</title>
<path fill="none" stroke="green" stroke-width="0.243677" d="M698.511,-229.585C683.583,-219.265 657.261,-201.068 637.586,-187.466"/>
<polygon fill="green" stroke="green" stroke-width="0.243677" points="639.563,-184.578 629.346,-181.77 635.582,-190.336 639.563,-184.578"/>
</g>
<!-- &#45;6&#45;&gt;539 -->
<g id="edge57" class="edge"><title>&#45;6&#45;&gt;539</title>
<path fill="none" stroke="red" stroke-width="0.513704" d="M722.462,-234.116C747.663,-226.7 803.764,-208.857 816.138,-193.622 833.217,-172.596 837.363,-141.465 837.749,-118.427"/>
<polygon fill="red" stroke="red" stroke-width="0.513704" points="841.248,-118.141 837.686,-108.163 834.248,-118.185 841.248,-118.141"/>
</g>
<!-- &#45;6&#45;&gt;540 -->
<g id="edge58" class="edge"><title>&#45;6&#45;&gt;540</title>
<path fill="none" stroke="red" stroke-width="1.51287" stroke-dasharray="1,5" d="M722.318,-234.462C728.527,-232.904 736.211,-231.057 743.138,-229.622 835.436,-210.508 866.076,-232.065 952.138,-193.622 954.473,-192.579 956.784,-191.313 959.026,-189.914"/>
<polygon fill="red" stroke="red" stroke-width="1.51287" points="961.128,-192.713 967.231,-184.053 957.06,-187.017 961.128,-192.713"/>
</g>
<!-- &#45;6&#45;&gt;541 -->
<g id="edge59" class="edge"><title>&#45;6&#45;&gt;541</title>
<path fill="none" stroke="green" stroke-width="0.781532" d="M722.296,-234.352C728.499,-232.766 736.185,-230.927 743.138,-229.622 861.691,-207.383 901.1,-240.742 1012.14,-193.622 1014.49,-192.623 1016.82,-191.388 1019.07,-190.009"/>
<polygon fill="green" stroke="green" stroke-width="0.781532" points="1021.15,-192.821 1027.29,-184.183 1017.11,-187.11 1021.15,-192.821"/>
</g>
<!-- &#45;7 -->
<g id="node7" class="node"><title>&#45;7</title>
<polygon fill="lightgray" stroke="black" points="819.138,-247.622 795.138,-247.622 795.138,-229.622 819.138,-229.622 819.138,-247.622"/>
<text text-anchor="middle" x="807.138" y="-236.422" font-family="Times New Roman,serif" font-size="9.00">&#45;7</text>
</g>
<!-- &#45;7&#45;&gt;532 -->
<g id="edge60" class="edge"><title>&#45;7&#45;&gt;532</title>
<path fill="none" stroke="red" stroke-width="0.546695" d="M794.716,-232.584C791.626,-231.477 788.294,-230.403 785.138,-229.622 670.608,-201.303 630.673,-239.872 522.138,-193.622 519.785,-192.62 517.461,-191.382 515.211,-190.001"/>
<polygon fill="red" stroke="red" stroke-width="0.546695" points="517.174,-187.102 506.992,-184.172 513.124,-192.812 517.174,-187.102"/>
</g>
<!-- &#45;7&#45;&gt;533 -->
<g id="edge61" class="edge"><title>&#45;7&#45;&gt;533</title>
<path fill="none" stroke="red" stroke-width="0.36793" stroke-dasharray="1,5" d="M819.369,-236.514C869.25,-231.872 1055.44,-213.322 1072.14,-193.622 1086.36,-176.841 1086.61,-160.691 1072.14,-144.125 1032.89,-99.2065 865.012,-117.715 806.138,-108.125 780.67,-103.976 751.924,-98.441 730.799,-94.2118"/>
<polygon fill="red" stroke="red" stroke-width="0.36793" points="731.292,-90.7407 720.797,-92.1931 729.907,-97.6024 731.292,-90.7407"/>
</g>
<!-- &#45;7&#45;&gt;534 -->
<g id="edge62" class="edge"><title>&#45;7&#45;&gt;534</title>
<path fill="none" stroke="green" stroke-width="0.283322" d="M796.21,-229.561C770.691,-211.171 704.591,-166.018 642.138,-144.125 528.726,-104.368 384.753,-92.5686 322.338,-89.1982"/>
<polygon fill="green" stroke="green" stroke-width="0.283322" points="322.51,-85.7025 312.346,-88.6941 322.157,-92.6936 322.51,-85.7025"/>
</g>
<!-- &#45;7&#45;&gt;535 -->
<g id="edge63" class="edge"><title>&#45;7&#45;&gt;535</title>
<path fill="none" stroke="red" stroke-width="0.170042" d="M804.646,-229.585C802.317,-222.071 798.694,-210.381 795.268,-199.33"/>
<polygon fill="red" stroke="red" stroke-width="0.170042" points="798.524,-198.013 792.221,-189.498 791.838,-200.086 798.524,-198.013"/>
</g>
<!-- &#45;7&#45;&gt;536 -->
<g id="edge64" class="edge"><title>&#45;7&#45;&gt;536</title>
<path fill="none" stroke="red" stroke-width="0.657444" d="M819.264,-231.405C835.112,-223.177 863.617,-208.027 887.138,-193.622 890.331,-191.666 893.642,-189.547 896.895,-187.408"/>
<polygon fill="red" stroke="red" stroke-width="0.657444" points="898.906,-190.274 905.257,-181.794 895.004,-184.462 898.906,-190.274"/>
</g>
<!-- &#45;7&#45;&gt;537 -->
<g id="edge65" class="edge"><title>&#45;7&#45;&gt;537</title>
<path fill="none" stroke="red" stroke-width="0.376242" d="M794.693,-232.673C791.604,-231.562 788.278,-230.465 785.138,-229.622 696.638,-205.876 665.708,-231.2 582.138,-193.622 579.805,-192.574 577.496,-191.303 575.255,-189.901"/>
<polygon fill="red" stroke="red" stroke-width="0.376242" points="577.222,-187.005 567.052,-184.036 573.151,-192.699 577.222,-187.005"/>
</g>
<!-- &#45;7&#45;&gt;538 -->
<g id="edge66" class="edge"><title>&#45;7&#45;&gt;538</title>
<path fill="none" stroke="green" stroke-width="0.202308" stroke-dasharray="1,5" d="M795.103,-233.016C791.886,-231.848 788.397,-230.638 785.138,-229.622 724.62,-210.771 704.867,-219.797 647.138,-193.622 643.727,-192.076 640.286,-190.203 636.962,-188.195"/>
<polygon fill="green" stroke="green" stroke-width="0.202308" points="638.827,-185.233 628.54,-182.697 635,-191.094 638.827,-185.233"/>
</g>
<!-- &#45;7&#45;&gt;539 -->
<g id="edge67" class="edge"><title>&#45;7&#45;&gt;539</title>
<path fill="none" stroke="red" stroke-width="0.581736" d="M819.447,-236.466C878.704,-230.842 1132.18,-206.114 1143.14,-193.622 1221.82,-103.962 960.633,-90.2997 867.711,-88.2573"/>
<polygon fill="red" stroke="red" stroke-width="0.581736" points="867.56,-84.7539 857.496,-88.0653 867.429,-91.7527 867.56,-84.7539"/>
</g>
<!-- &#45;7&#45;&gt;540 -->
<g id="edge68" class="edge"><title>&#45;7&#45;&gt;540</title>
<path fill="none" stroke="red" stroke-width="0.191983" d="M819.376,-235.517C845.107,-230.754 906.22,-217.651 952.138,-193.622 954.194,-192.546 956.248,-191.322 958.261,-190.009"/>
<polygon fill="red" stroke="red" stroke-width="0.191983" points="960.675,-192.582 966.716,-183.879 956.566,-186.915 960.675,-192.582"/>
</g>
<!-- &#45;7&#45;&gt;541 -->
<g id="edge69" class="edge"><title>&#45;7&#45;&gt;541</title>
<path fill="none" stroke="green" stroke-width="0.263337" stroke-dasharray="1,5" d="M819.303,-236.935C852.013,-234.69 943.982,-225.752 1012.14,-193.622 1014.45,-192.532 1016.75,-191.232 1018.98,-189.811"/>
<polygon fill="green" stroke="green" stroke-width="0.263337" points="1021.1,-192.597 1027.17,-183.912 1017.01,-186.918 1021.1,-192.597"/>
</g>
<!-- &#45;8 -->
<g id="node8" class="node"><title>&#45;8</title>
<polygon fill="lightgray" stroke="black" points="994.138,-247.622 970.138,-247.622 970.138,-229.622 994.138,-229.622 994.138,-247.622"/>
<text text-anchor="middle" x="982.138" y="-236.422" font-family="Times New Roman,serif" font-size="9.00">&#45;8</text>
</g>
<!-- 1167 -->
<g id="node12" class="node"><title>1167</title>
<ellipse fill="white" stroke="black" cx="1410.14" cy="-168.874" rx="25" ry="25"/>
<text text-anchor="middle" x="1410.14" y="-166.674" font-family="Times New Roman,serif" font-size="9.00">1167</text>
</g>
<!-- &#45;8&#45;&gt;1167 -->
<g id="edge101" class="edge"><title>&#45;8&#45;&gt;1167</title>
<path fill="none" stroke="green" stroke-width="0.236546" d="M994.3,-236.954C1052.03,-233.676 1298.64,-218.44 1371.14,-193.622 1374.64,-192.422 1378.17,-190.868 1381.59,-189.13"/>
<polygon fill="green" stroke="green" stroke-width="0.236546" points="1383.33,-192.171 1390.32,-184.214 1379.89,-186.071 1383.33,-192.171"/>
</g>
<!-- &#45;8&#45;&gt;532 -->
<g id="edge70" class="edge"><title>&#45;8&#45;&gt;532</title>
<path fill="none" stroke="green" stroke-width="0.446584" d="M969.986,-233.857C964.571,-232.316 958.086,-230.656 952.138,-229.622 763.19,-196.787 700.48,-264.146 522.138,-193.622 519.759,-192.682 517.418,-191.487 515.156,-190.136"/>
<polygon fill="green" stroke="green" stroke-width="0.446584" points="517.113,-187.234 506.917,-184.356 513.093,-192.964 517.113,-187.234"/>
</g>
<!-- &#45;8&#45;&gt;533 -->
<g id="edge71" class="edge"><title>&#45;8&#45;&gt;533</title>
<path fill="none" stroke="red" stroke-width="0.189543" d="M994.309,-237.711C1020.7,-237.16 1082.97,-231.685 1110.14,-193.622 1122.92,-175.716 1124.75,-160.57 1110.14,-144.125 1064.95,-93.2723 873.369,-118.503 806.138,-108.125 780.637,-104.189 751.893,-98.637 730.777,-94.3476"/>
<polygon fill="red" stroke="red" stroke-width="0.189543" points="731.28,-90.8779 720.781,-92.2955 729.872,-97.7349 731.28,-90.8779"/>
</g>
<!-- &#45;8&#45;&gt;534 -->
<g id="edge72" class="edge"><title>&#45;8&#45;&gt;534</title>
<path fill="none" stroke="green" stroke-width="0.442605" stroke-dasharray="1,5" d="M994.325,-236.905C1017.82,-234.787 1068.99,-226.441 1091.14,-193.622 1103.44,-175.386 1106.14,-160.216 1091.14,-144.125 1077.78,-129.796 469.294,-97.1993 322.674,-89.543"/>
<polygon fill="green" stroke="green" stroke-width="0.442605" points="322.72,-86.0407 312.551,-89.0157 322.355,-93.0312 322.72,-86.0407"/>
</g>
<!-- &#45;8&#45;&gt;535 -->
<g id="edge73" class="edge"><title>&#45;8&#45;&gt;535</title>
<path fill="none" stroke="green" stroke-width="0.475039" d="M969.877,-233.384C939.321,-222.822 859.109,-195.097 815.458,-180.008"/>
<polygon fill="green" stroke="green" stroke-width="0.475039" points="816.558,-176.685 805.963,-176.726 814.271,-183.301 816.558,-176.685"/>
</g>
<!-- &#45;8&#45;&gt;536 -->
<g id="edge74" class="edge"><title>&#45;8&#45;&gt;536</title>
<path fill="none" stroke="green" stroke-width="0.212176" d="M975.019,-229.585C967.05,-220.586 953.778,-205.6 942.524,-192.893"/>
<polygon fill="green" stroke="green" stroke-width="0.212176" points="945.093,-190.515 935.843,-185.349 939.853,-195.156 945.093,-190.515"/>
</g>
<!-- &#45;8&#45;&gt;537 -->
<g id="edge75" class="edge"><title>&#45;8&#45;&gt;537</title>
<path fill="none" stroke="red" stroke-width="0.14334" d="M969.979,-233.895C964.563,-232.362 958.079,-230.696 952.138,-229.622 789.551,-200.238 735.369,-255.413 582.138,-193.622 579.766,-192.666 577.429,-191.46 575.17,-190.101"/>
<polygon fill="red" stroke="red" stroke-width="0.14334" points="577.128,-187.2 566.936,-184.308 573.101,-192.925 577.128,-187.2"/>
</g>
<!-- &#45;8&#45;&gt;538 -->
<g id="edge76" class="edge"><title>&#45;8&#45;&gt;538</title>
<path fill="none" stroke="red" stroke-width="0.132423" d="M969.936,-234.112C964.512,-232.618 958.033,-230.924 952.138,-229.622 893.132,-216.596 716.128,-187.02 643.628,-175.048"/>
<polygon fill="red" stroke="red" stroke-width="0.132423" points="643.755,-171.522 633.319,-173.348 642.617,-178.429 643.755,-171.522"/>
</g>
<!-- &#45;8&#45;&gt;539 -->
<g id="edge77" class="edge"><title>&#45;8&#45;&gt;539</title>
<path fill="none" stroke="green" stroke-width="0.524382" stroke-dasharray="1,5" d="M994.386,-237.797C1059.28,-238.349 1357.01,-235.985 1276.14,-144.125 1249.1,-113.409 963.621,-94.9466 867.513,-89.565"/>
<polygon fill="green" stroke="green" stroke-width="0.524382" points="867.447,-86.0562 857.27,-89.0012 867.063,-93.0456 867.447,-86.0562"/>
</g>
<!-- &#45;8&#45;&gt;540 -->
<g id="edge78" class="edge"><title>&#45;8&#45;&gt;540</title>
<path fill="none" stroke="green" stroke-width="0.269156" stroke-dasharray="1,5" d="M982.138,-229.585C982.138,-222.307 982.138,-211.111 982.138,-200.373"/>
<polygon fill="green" stroke="green" stroke-width="0.269156" points="985.638,-200.36 982.138,-190.36 978.638,-200.36 985.638,-200.36"/>
</g>
<!-- &#45;8&#45;&gt;541 -->
<g id="edge79" class="edge"><title>&#45;8&#45;&gt;541</title>
<path fill="none" stroke="green" stroke-width="0.191937" d="M989.256,-229.585C997.225,-220.586 1010.5,-205.6 1021.75,-192.893"/>
<polygon fill="green" stroke="green" stroke-width="0.191937" points="1024.42,-195.156 1028.43,-185.349 1019.18,-190.515 1024.42,-195.156"/>
</g>
<!-- 0 -->
<g id="node9" class="node"><title>0</title>
<ellipse fill="lightblue" stroke="black" cx="700.138" cy="-14.8492" rx="14.7" ry="14.7"/>
<text text-anchor="middle" x="700.138" y="-12.6492" font-family="Times New Roman,serif" font-size="9.00">0</text>
</g>
<!-- 1 -->
<g id="node10" class="node"><title>1</title>
<ellipse fill="lightblue" stroke="black" cx="767.138" cy="-14.8492" rx="14.7" ry="14.7"/>
<text text-anchor="middle" x="767.138" y="-12.6492" font-family="Times New Roman,serif" font-size="9.00">1</text>
</g>
<!-- 1177&#45;&gt;534 -->
<g id="edge104" class="edge"><title>1177&#45;&gt;534</title>
<path fill="none" stroke="red" stroke-width="0.227382" stroke-dasharray="1,5" d="M68.2073,-154.19C74.1245,-150.563 80.734,-146.892 87.1377,-144.125 146.079,-118.652 219.631,-101.759 260.367,-93.6037"/>
<polygon fill="red" stroke="red" stroke-width="0.227382" points="261.086,-97.0293 270.227,-91.6727 259.741,-90.1598 261.086,-97.0293"/>
</g>
<!-- 1167&#45;&gt;539 -->
<g id="edge102" class="edge"><title>1167&#45;&gt;539</title>
<path fill="none" stroke="green" stroke-width="0.134686" d="M1390.33,-153.499C1384.42,-149.862 1377.75,-146.358 1371.14,-144.125 1276.59,-112.181 967.052,-94.3956 867.369,-89.3916"/>
<polygon fill="green" stroke="green" stroke-width="0.134686" points="867.49,-85.8933 857.329,-88.8954 867.144,-92.8848 867.49,-85.8933"/>
</g>
<!-- 532&#45;&gt;0 -->
<g id="edge80" class="edge"><title>532&#45;&gt;0</title>
<path fill="none" stroke="red" stroke-width="0.185422" stroke-dasharray="1,5" d="M483.932,-149.04C475.59,-126.655 466.332,-89.3629 485.138,-65.6985 508.624,-36.1441 623.328,-22.5532 674.916,-17.8607"/>
<polygon fill="red" stroke="red" stroke-width="0.185422" points="675.532,-21.3205 685.192,-16.9687 674.927,-14.3468 675.532,-21.3205"/>
</g>
<!-- 532&#45;&gt;1 -->
<g id="edge81" class="edge"><title>532&#45;&gt;1</title>
<path fill="none" stroke="red" stroke-width="0.41182" d="M504.683,-151.523C522.868,-128.936 558.715,-88.4102 598.138,-65.6985 648.603,-36.6252 668.412,-46.6282 724.138,-29.6985 730.387,-27.7998 737.122,-25.6708 743.364,-23.6623"/>
<polygon fill="red" stroke="red" stroke-width="0.41182" points="744.801,-26.8753 753.231,-20.4577 742.639,-20.2176 744.801,-26.8753"/>
</g>
<!-- 533&#45;&gt;0 -->
<g id="edge82" class="edge"><title>533&#45;&gt;0</title>
<path fill="none" stroke="green" stroke-width="0.932165" d="M700.138,-65.6467C700.138,-57.6662 700.138,-48.4341 700.138,-40.1031"/>
<polygon fill="green" stroke="green" stroke-width="0.932165" points="703.638,-39.8511 700.138,-29.8512 696.638,-39.8512 703.638,-39.8511"/>
</g>
<!-- 533&#45;&gt;1 -->
<g id="edge83" class="edge"><title>533&#45;&gt;1</title>
<path fill="none" stroke="green" stroke-width="0.448339" d="M714.347,-71.0532C724.833,-60.0873 739.146,-45.1207 750.223,-33.5374"/>
<polygon fill="green" stroke="green" stroke-width="0.448339" points="752.906,-35.7958 757.288,-26.1496 747.847,-30.9579 752.906,-35.7958"/>
</g>
<!-- 534&#45;&gt;0 -->
<g id="edge84" class="edge"><title>534&#45;&gt;0</title>
<path fill="none" stroke="red" stroke-width="0.987914" d="M311.982,-82.341C380.885,-70.5378 601.143,-32.8072 675.414,-20.0844"/>
<polygon fill="red" stroke="red" stroke-width="0.987914" points="676.393,-23.4679 685.658,-18.3296 675.211,-16.5684 676.393,-23.4679"/>
</g>
<!-- 534&#45;&gt;1 -->
<g id="edge85" class="edge"><title>534&#45;&gt;1</title>
<path fill="none" stroke="red" stroke-width="0.698906" d="M312.114,-83.7025C387.387,-75.6946 643.694,-47.7163 724.138,-29.6985 730.511,-28.2709 737.289,-26.3065 743.533,-24.3056"/>
<polygon fill="red" stroke="red" stroke-width="0.698906" points="745.012,-27.5006 753.372,-20.9921 742.778,-20.8667 745.012,-27.5006"/>
</g>
<!-- 535&#45;&gt;0 -->
<g id="edge86" class="edge"><title>535&#45;&gt;0</title>
<path fill="none" stroke="red" stroke-width="0.463293" d="M776.444,-149.663C765.448,-129.131 746.868,-94.8129 730.138,-65.6985 724.61,-56.0786 718.302,-45.5365 712.902,-36.6346"/>
<polygon fill="red" stroke="red" stroke-width="0.463293" points="715.868,-34.7753 707.674,-28.0591 709.891,-38.4193 715.868,-34.7753"/>
</g>
<!-- 535&#45;&gt;1 -->
<g id="edge87" class="edge"><title>535&#45;&gt;1</title>
<path fill="none" stroke="red" stroke-width="0.482127" d="M783.615,-147.686C780.126,-119.775 773.841,-69.4849 770.123,-39.7381"/>
<polygon fill="red" stroke="red" stroke-width="0.482127" points="773.593,-39.2765 768.88,-29.7878 766.647,-40.1447 773.593,-39.2765"/>
</g>
<!-- 535&#45;&gt;533 -->
<g id="edge99" class="edge"><title>535&#45;&gt;533</title>
<path fill="none" stroke="green" stroke-width="1.04294" d="M770.763,-153.578C757.433,-141.184 737.96,-123.079 722.836,-109.017"/>
<polygon fill="green" stroke="green" stroke-width="1.04294" points="725.086,-106.33 715.38,-102.084 720.32,-111.456 725.086,-106.33"/>
</g>
<!-- 535&#45;&gt;539 -->
<g id="edge100" class="edge"><title>535&#45;&gt;539</title>
<path fill="none" stroke="green" stroke-width="0.602632" d="M796.987,-150.523C803.67,-139.835 812.365,-125.93 819.863,-113.939"/>
<polygon fill="green" stroke="green" stroke-width="0.602632" points="822.975,-115.563 825.31,-105.228 817.04,-111.852 822.975,-115.563"/>
</g>
<!-- 536&#45;&gt;0 -->
<g id="edge88" class="edge"><title>536&#45;&gt;0</title>
<path fill="none" stroke="red" stroke-width="0.126441" d="M914.013,-149.221C902.248,-122.985 880.327,-77.1046 866.138,-65.6985 821.743,-30.0119 797.585,-46.431 743.138,-29.6985 736.894,-27.7797 730.162,-25.6437 723.92,-23.6348"/>
<polygon fill="red" stroke="red" stroke-width="0.126441" points="724.643,-20.1899 714.051,-20.4349 722.484,-26.8486 724.643,-20.1899"/>
</g>
<!-- 536&#45;&gt;1 -->
<g id="edge89" class="edge"><title>536&#45;&gt;1</title>
<path fill="none" stroke="red" stroke-width="0.562062" d="M922.95,-147.314C922.731,-124.677 918.939,-88.4785 899.138,-65.6985 871.657,-34.0839 821.993,-22.4626 792.042,-18.2307"/>
<polygon fill="red" stroke="red" stroke-width="0.562062" points="792.332,-14.7399 781.977,-16.9825 791.471,-21.6867 792.332,-14.7399"/>
</g>
<!-- 537&#45;&gt;0 -->
<g id="edge90" class="edge"><title>537&#45;&gt;0</title>
<path fill="none" stroke="red" stroke-width="0.444407" d="M560.519,-149.055C571.042,-127.023 590.826,-90.4096 616.138,-65.6985 634.055,-48.2067 659.248,-34.3091 677.364,-25.6786"/>
<polygon fill="red" stroke="red" stroke-width="0.444407" points="678.979,-28.7882 686.609,-21.4365 676.06,-22.426 678.979,-28.7882"/>
</g>
<!-- 537&#45;&gt;1 -->
<g id="edge91" class="edge"><title>537&#45;&gt;1</title>
<path fill="none" stroke="red" stroke-width="1.07157" d="M564.914,-151.409C586.18,-124.148 627.373,-71.9973 636.138,-65.6985 645.22,-59.1711 708.823,-36.3086 743.952,-23.9404"/>
<polygon fill="red" stroke="red" stroke-width="1.07157" points="745.165,-27.2238 753.442,-20.6103 742.848,-20.6186 745.165,-27.2238"/>
</g>
<!-- 538&#45;&gt;0 -->
<g id="edge92" class="edge"><title>538&#45;&gt;0</title>
<path fill="none" stroke="green" stroke-width="0.252448" d="M613.235,-147.536C615.249,-125.746 620.959,-90.9021 637.138,-65.6985 647.361,-49.7727 664.446,-36.725 678.246,-27.9785"/>
<polygon fill="green" stroke="green" stroke-width="0.252448" points="680.382,-30.7784 687.151,-22.6278 676.777,-24.7782 680.382,-30.7784"/>
</g>
<!-- 538&#45;&gt;1 -->
<g id="edge93" class="edge"><title>538&#45;&gt;1</title>
<path fill="none" stroke="green" stroke-width="0.191929" d="M619.061,-148.761C627.953,-126.447 645.261,-89.5617 670.138,-65.6985 691.274,-45.4235 722.283,-31.45 743.517,-23.5654"/>
<polygon fill="green" stroke="green" stroke-width="0.191929" points="744.811,-26.8201 753.069,-20.183 742.475,-20.2216 744.811,-26.8201"/>
</g>
<!-- 539&#45;&gt;0 -->
<g id="edge94" class="edge"><title>539&#45;&gt;0</title>
<path fill="none" stroke="green" stroke-width="0.274693" d="M817.513,-76.3167C792.633,-63.4995 748.62,-40.8258 722.136,-27.182"/>
<polygon fill="green" stroke="green" stroke-width="0.274693" points="723.732,-24.0672 713.24,-22.5989 720.527,-30.29 723.732,-24.0672"/>
</g>
<!-- 539&#45;&gt;1 -->
<g id="edge95" class="edge"><title>539&#45;&gt;1</title>
<path fill="none" stroke="red" stroke-width="0.336477" d="M821.505,-71.0532C810.705,-60.0873 795.965,-45.1207 784.558,-33.5374"/>
<polygon fill="red" stroke="red" stroke-width="0.336477" points="786.792,-30.8186 777.282,-26.1496 781.805,-35.7304 786.792,-30.8186"/>
</g>
<!-- 540&#45;&gt;0 -->
<g id="edge96" class="edge"><title>540&#45;&gt;0</title>
<path fill="none" stroke="green" stroke-width="0.409714" d="M971.793,-150.059C957.404,-126.928 929.131,-87.0049 894.138,-65.6985 835.21,-29.8186 809.578,-48.2878 743.138,-29.6985 736.848,-27.9386 730.099,-25.858 723.857,-23.8517"/>
<polygon fill="green" stroke="green" stroke-width="0.409714" points="724.591,-20.4091 713.998,-20.6151 722.407,-27.0598 724.591,-20.4091"/>
</g>
<!-- 540&#45;&gt;1 -->
<g id="edge97" class="edge"><title>540&#45;&gt;1</title>
<path fill="none" stroke="green" stroke-width="0.112555" d="M987.063,-148.039C991.413,-125.382 994.426,-88.5067 975.138,-65.6985 951.619,-37.8885 842.013,-23.4286 792.061,-18.1883"/>
<polygon fill="green" stroke="green" stroke-width="0.112555" points="792.115,-14.676 781.814,-17.1557 791.413,-21.6408 792.115,-14.676"/>
</g>
<!-- 541&#45;&gt;1 -->
<g id="edge98" class="edge"><title>541&#45;&gt;1</title>
<path fill="none" stroke="green" stroke-width="0.123314" d="M1038.87,-147.67C1034,-124.308 1022.51,-86.4151 997.138,-65.6985 965.744,-40.0671 844.88,-24.2248 792.07,-18.3925"/>
<polygon fill="green" stroke="green" stroke-width="0.123314" points="792.207,-14.8872 781.891,-17.2999 791.46,-21.8472 792.207,-14.8872"/>
</g>
</g>
</svg>
