<?xml version="1.0" encoding="UTF-8" standalone="no"?>
<!DOCTYPE svg PUBLIC "-//W3C//DTD SVG 1.1//EN"
 "http://www.w3.org/Graphics/SVG/1.1/DTD/svg11.dtd">
<!-- Generated by graphviz version 2.38.0 (20140413.2041)
 -->
<!-- Title: %3 Pages: 1 -->
<svg width="920pt" height="164pt"
 viewBox="0.00 0.00 920.41 164.47" xmlns="http://www.w3.org/2000/svg" xmlns:xlink="http://www.w3.org/1999/xlink">
<g id="graph0" class="graph" transform="scale(1 1) rotate(0) translate(4 160.468)">
<title>%3</title>
<polygon fill="white" stroke="none" points="-4,4 -4,-160.468 916.412,-160.468 916.412,4 -4,4"/>
<!-- &#45;1 -->
<g id="node1" class="node"><title>&#45;1</title>
<polygon fill="lightgray" stroke="black" points="570.245,-156.468 546.245,-156.468 546.245,-138.468 570.245,-138.468 570.245,-156.468"/>
<text text-anchor="middle" x="558.245" y="-145.268" font-family="Times New Roman,serif" font-size="9.00">&#45;1</text>
</g>
<!-- 0 -->
<g id="node10" class="node"><title>0</title>
<ellipse fill="lightblue" stroke="black" cx="363.245" cy="-14.8492" rx="14.7" ry="14.7"/>
<text text-anchor="middle" x="363.245" y="-12.6492" font-family="Times New Roman,serif" font-size="9.00">0</text>
</g>
<!-- &#45;1&#45;&gt;0 -->
<g id="edge111" class="edge"><title>&#45;1&#45;&gt;0</title>
<path fill="none" stroke="green" stroke-width="0.389289" d="M570.447,-144.959C604.327,-140.495 698.247,-126.163 716.245,-102.468 726.13,-89.4544 727.14,-77.8791 716.245,-65.6985 668.244,-12.0319 463.719,-48.608 394.245,-29.6985 391.366,-28.9148 388.413,-27.8994 385.528,-26.7747"/>
<polygon fill="green" stroke="green" stroke-width="0.389289" points="386.755,-23.4915 376.189,-22.7072 383.96,-29.9092 386.755,-23.4915"/>
</g>
<!-- 1 -->
<g id="node11" class="node"><title>1</title>
<ellipse fill="lightblue" stroke="black" cx="418.245" cy="-14.8492" rx="14.7" ry="14.7"/>
<text text-anchor="middle" x="418.245" y="-12.6492" font-family="Times New Roman,serif" font-size="9.00">1</text>
</g>
<!-- &#45;1&#45;&gt;1 -->
<g id="edge112" class="edge"><title>&#45;1&#45;&gt;1</title>
<path fill="none" stroke="green" stroke-width="0.186012" d="M570.455,-145.855C629.287,-142.777 881.631,-128.141 904.245,-102.468 915.047,-90.2052 915.195,-77.8293 904.245,-65.6985 873.084,-31.1777 538.619,-19.2187 443.404,-16.5001"/>
<polygon fill="green" stroke="green" stroke-width="0.186012" points="443.346,-12.9973 433.253,-16.2199 443.152,-19.9946 443.346,-12.9973"/>
</g>
<!-- 12 -->
<g id="node12" class="node"><title>12</title>
<ellipse fill="white" stroke="black" cx="308.245" cy="-84.0833" rx="18.2703" ry="18.2703"/>
<text text-anchor="middle" x="308.245" y="-81.8833" font-family="Times New Roman,serif" font-size="9.00">12</text>
</g>
<!-- &#45;1&#45;&gt;12 -->
<g id="edge1" class="edge"><title>&#45;1&#45;&gt;12</title>
<path fill="none" stroke="red" stroke-width="0.224798" d="M545.937,-141.34C543.114,-140.288 540.102,-139.261 537.245,-138.468 449.793,-114.208 420.975,-134.984 336.245,-102.468 334.81,-101.917 333.367,-101.29 331.934,-100.609"/>
<polygon fill="red" stroke="red" stroke-width="0.224798" points="333.256,-97.3412 322.811,-95.568 329.871,-103.468 333.256,-97.3412"/>
</g>
<!-- 13 -->
<g id="node13" class="node"><title>13</title>
<ellipse fill="white" stroke="black" cx="363.245" cy="-84.0833" rx="18.2703" ry="18.2703"/>
<text text-anchor="middle" x="363.245" y="-81.8833" font-family="Times New Roman,serif" font-size="9.00">13</text>
</g>
<!-- &#45;1&#45;&gt;13 -->
<g id="edge2" class="edge"><title>&#45;1&#45;&gt;13</title>
<path fill="none" stroke="green" stroke-width="0.17682" d="M545.896,-141.476C543.076,-140.417 540.075,-139.352 537.245,-138.468 473.455,-118.535 452.836,-128.413 391.245,-102.468 389.828,-101.871 388.4,-101.208 386.979,-100.499"/>
<polygon fill="green" stroke="green" stroke-width="0.17682" points="388.319,-97.2365 377.889,-95.3731 384.881,-103.334 388.319,-97.2365"/>
</g>
<!-- 14 -->
<g id="node14" class="node"><title>14</title>
<ellipse fill="white" stroke="black" cx="418.245" cy="-84.0833" rx="18.2703" ry="18.2703"/>
<text text-anchor="middle" x="418.245" y="-81.8833" font-family="Times New Roman,serif" font-size="9.00">14</text>
</g>
<!-- &#45;1&#45;&gt;14 -->
<g id="edge3" class="edge"><title>&#45;1&#45;&gt;14</title>
<path fill="none" stroke="green" stroke-width="0.385372" d="M545.852,-141.745C518.689,-131.373 455.582,-107.152 446.245,-102.468 444.871,-101.778 443.476,-101.042 442.081,-100.276"/>
<polygon fill="green" stroke="green" stroke-width="0.385372" points="443.465,-97.0299 433.07,-94.9813 439.918,-103.065 443.465,-97.0299"/>
</g>
<!-- 15 -->
<g id="node15" class="node"><title>15</title>
<ellipse fill="white" stroke="black" cx="473.245" cy="-84.0833" rx="18.2703" ry="18.2703"/>
<text text-anchor="middle" x="473.245" y="-81.8833" font-family="Times New Roman,serif" font-size="9.00">15</text>
</g>
<!-- &#45;1&#45;&gt;15 -->
<g id="edge4" class="edge"><title>&#45;1&#45;&gt;15</title>
<path fill="none" stroke="green" stroke-width="0.371934" d="M547.133,-138.443C534.181,-129.089 512.44,-113.389 495.886,-101.434"/>
<polygon fill="green" stroke="green" stroke-width="0.371934" points="497.932,-98.5941 487.776,-95.5768 493.834,-104.269 497.932,-98.5941"/>
</g>
<!-- 16 -->
<g id="node16" class="node"><title>16</title>
<ellipse fill="white" stroke="black" cx="528.245" cy="-84.0833" rx="18.2703" ry="18.2703"/>
<text text-anchor="middle" x="528.245" y="-81.8833" font-family="Times New Roman,serif" font-size="9.00">16</text>
</g>
<!-- &#45;1&#45;&gt;16 -->
<g id="edge5" class="edge"><title>&#45;1&#45;&gt;16</title>
<path fill="none" stroke="green" stroke-width="0.315899" d="M554.323,-138.443C550.809,-131.252 545.461,-120.31 540.521,-110.202"/>
<polygon fill="green" stroke="green" stroke-width="0.315899" points="543.519,-108.364 535.983,-100.916 537.23,-111.438 543.519,-108.364"/>
</g>
<!-- 17 -->
<g id="node17" class="node"><title>17</title>
<ellipse fill="white" stroke="black" cx="583.245" cy="-84.0833" rx="18.2703" ry="18.2703"/>
<text text-anchor="middle" x="583.245" y="-81.8833" font-family="Times New Roman,serif" font-size="9.00">17</text>
</g>
<!-- &#45;1&#45;&gt;17 -->
<g id="edge6" class="edge"><title>&#45;1&#45;&gt;17</title>
<path fill="none" stroke="green" stroke-width="0.309632" d="M561.514,-138.443C564.372,-131.423 568.687,-120.83 572.72,-110.927"/>
<polygon fill="green" stroke="green" stroke-width="0.309632" points="576.065,-111.994 576.595,-101.412 569.582,-109.354 576.065,-111.994"/>
</g>
<!-- 18 -->
<g id="node18" class="node"><title>18</title>
<ellipse fill="white" stroke="black" cx="638.245" cy="-84.0833" rx="18.2703" ry="18.2703"/>
<text text-anchor="middle" x="638.245" y="-81.8833" font-family="Times New Roman,serif" font-size="9.00">18</text>
</g>
<!-- &#45;1&#45;&gt;18 -->
<g id="edge7" class="edge"><title>&#45;1&#45;&gt;18</title>
<path fill="none" stroke="red" stroke-width="0.466887" d="M568.704,-138.443C580.64,-129.285 600.504,-114.042 615.953,-102.188"/>
<polygon fill="red" stroke="red" stroke-width="0.466887" points="618.2,-104.876 624.003,-96.0112 613.939,-99.322 618.2,-104.876"/>
</g>
<!-- 19 -->
<g id="node19" class="node"><title>19</title>
<ellipse fill="white" stroke="black" cx="143.245" cy="-84.0833" rx="18.2703" ry="18.2703"/>
<text text-anchor="middle" x="143.245" y="-81.8833" font-family="Times New Roman,serif" font-size="9.00">19</text>
</g>
<!-- &#45;1&#45;&gt;19 -->
<g id="edge8" class="edge"><title>&#45;1&#45;&gt;19</title>
<path fill="none" stroke="green" stroke-width="0.289139" d="M545.98,-141.172C543.155,-140.128 540.132,-139.147 537.245,-138.468 378.136,-101.044 326.044,-154.945 171.245,-102.468 169.789,-101.974 168.33,-101.393 166.884,-100.747"/>
<polygon fill="green" stroke="green" stroke-width="0.289139" points="168.187,-97.4731 157.723,-95.8104 164.866,-103.635 168.187,-97.4731"/>
</g>
<!-- 20 -->
<g id="node20" class="node"><title>20</title>
<ellipse fill="white" stroke="black" cx="198.245" cy="-84.0833" rx="18.2703" ry="18.2703"/>
<text text-anchor="middle" x="198.245" y="-81.8833" font-family="Times New Roman,serif" font-size="9.00">20</text>
</g>
<!-- &#45;1&#45;&gt;20 -->
<g id="edge9" class="edge"><title>&#45;1&#45;&gt;20</title>
<path fill="none" stroke="green" stroke-width="0.193161" d="M545.971,-141.208C543.147,-140.163 540.126,-139.172 537.245,-138.468 402.075,-105.445 357.635,-148.272 226.245,-102.468 224.793,-101.962 223.338,-101.37 221.895,-100.717"/>
<polygon fill="green" stroke="green" stroke-width="0.193161" points="223.201,-97.4441 212.742,-95.7574 219.866,-103.599 223.201,-97.4441"/>
</g>
<!-- 21 -->
<g id="node21" class="node"><title>21</title>
<ellipse fill="white" stroke="black" cx="253.245" cy="-84.0833" rx="18.2703" ry="18.2703"/>
<text text-anchor="middle" x="253.245" y="-81.8833" font-family="Times New Roman,serif" font-size="9.00">21</text>
</g>
<!-- &#45;1&#45;&gt;21 -->
<g id="edge10" class="edge"><title>&#45;1&#45;&gt;21</title>
<path fill="none" stroke="red" stroke-width="0.303612" d="M545.958,-141.26C543.134,-140.212 540.117,-139.207 537.245,-138.468 425.973,-109.837 389.268,-141.615 281.245,-102.468 279.8,-101.944 278.349,-101.339 276.91,-100.674"/>
<polygon fill="red" stroke="red" stroke-width="0.303612" points="278.222,-97.4032 267.768,-95.6824 274.867,-103.547 278.222,-97.4032"/>
</g>
<!-- &#45;2 -->
<g id="node2" class="node"><title>&#45;2</title>
<polygon fill="lightgray" stroke="black" points="234.245,-156.468 210.245,-156.468 210.245,-138.468 234.245,-138.468 234.245,-156.468"/>
<text text-anchor="middle" x="222.245" y="-145.268" font-family="Times New Roman,serif" font-size="9.00">&#45;2</text>
</g>
<!-- &#45;2&#45;&gt;0 -->
<g id="edge113" class="edge"><title>&#45;2&#45;&gt;0</title>
<path fill="none" stroke="red" stroke-width="0.357003" d="M210.071,-146.106C157.176,-144.135 -47.4845,-132.153 10.2453,-65.6985 53.0036,-16.4778 264.472,-14.5098 337.998,-15.3554"/>
<polygon fill="red" stroke="red" stroke-width="0.357003" points="338.14,-18.8577 348.189,-15.5018 338.241,-11.8584 338.14,-18.8577"/>
</g>
<!-- &#45;2&#45;&gt;1 -->
<g id="edge114" class="edge"><title>&#45;2&#45;&gt;1</title>
<path fill="none" stroke="red" stroke-width="0.21856" d="M209.917,-146.932C181.852,-147.23 113.306,-143.515 83.2453,-102.468 73.5896,-89.2836 72.3905,-77.9146 83.2453,-65.6985 128.431,-14.8459 321.664,-47.7787 387.245,-29.6985 390.122,-28.9054 393.073,-27.8843 395.957,-26.7566"/>
<polygon fill="red" stroke="red" stroke-width="0.21856" points="397.527,-29.8906 405.296,-22.6871 394.73,-23.4735 397.527,-29.8906"/>
</g>
<!-- &#45;2&#45;&gt;12 -->
<g id="edge11" class="edge"><title>&#45;2&#45;&gt;12</title>
<path fill="none" stroke="green" stroke-width="0.24631" d="M233.488,-138.443C246.593,-129.089 268.589,-113.389 285.338,-101.434"/>
<polygon fill="green" stroke="green" stroke-width="0.24631" points="287.438,-104.235 293.544,-95.5768 283.371,-98.5377 287.438,-104.235"/>
</g>
<!-- &#45;2&#45;&gt;13 -->
<g id="edge12" class="edge"><title>&#45;2&#45;&gt;13</title>
<path fill="none" stroke="green" stroke-width="0.190399" d="M234.573,-141.738C262.883,-130.866 330.49,-104.845 335.245,-102.468 336.621,-101.781 338.016,-101.046 339.412,-100.281"/>
<polygon fill="green" stroke="green" stroke-width="0.190399" points="341.573,-103.071 348.425,-94.9901 338.029,-97.0345 341.573,-103.071"/>
</g>
<!-- &#45;2&#45;&gt;14 -->
<g id="edge13" class="edge"><title>&#45;2&#45;&gt;14</title>
<path fill="none" stroke="red" stroke-width="0.199393" d="M234.593,-141.473C237.414,-140.414 240.414,-139.35 243.245,-138.468 307.464,-118.457 328.236,-128.532 390.245,-102.468 391.663,-101.872 393.091,-101.21 394.513,-100.502"/>
<polygon fill="red" stroke="red" stroke-width="0.199393" points="396.61,-103.337 403.603,-95.3779 393.173,-97.2391 396.61,-103.337"/>
</g>
<!-- &#45;2&#45;&gt;15 -->
<g id="edge14" class="edge"><title>&#45;2&#45;&gt;15</title>
<path fill="none" stroke="red" stroke-width="0.285151" d="M234.554,-141.338C237.376,-140.286 240.388,-139.259 243.245,-138.468 331.13,-114.129 360.093,-135.104 445.245,-102.468 446.681,-101.918 448.124,-101.291 449.557,-100.611"/>
<polygon fill="red" stroke="red" stroke-width="0.285151" points="451.62,-103.47 458.681,-95.5706 448.235,-97.3426 451.62,-103.47"/>
</g>
<!-- &#45;2&#45;&gt;16 -->
<g id="edge15" class="edge"><title>&#45;2&#45;&gt;16</title>
<path fill="none" stroke="red" stroke-width="0.18271" d="M234.533,-141.259C237.356,-140.211 240.374,-139.206 243.245,-138.468 354.952,-109.757 391.798,-141.736 500.245,-102.468 501.691,-101.944 503.142,-101.339 504.581,-100.675"/>
<polygon fill="red" stroke="red" stroke-width="0.18271" points="506.623,-103.548 513.723,-95.684 503.269,-97.4041 506.623,-103.548"/>
</g>
<!-- &#45;2&#45;&gt;17 -->
<g id="edge16" class="edge"><title>&#45;2&#45;&gt;17</title>
<path fill="none" stroke="green" stroke-width="0.167414" d="M234.52,-141.208C237.344,-140.162 240.365,-139.171 243.245,-138.468 378.85,-105.366 423.43,-148.394 555.245,-102.468 556.697,-101.962 558.153,-101.371 559.596,-100.718"/>
<polygon fill="green" stroke="green" stroke-width="0.167414" points="561.624,-103.6 568.749,-95.7586 558.29,-97.4447 561.624,-103.6"/>
</g>
<!-- &#45;2&#45;&gt;18 -->
<g id="edge17" class="edge"><title>&#45;2&#45;&gt;18</title>
<path fill="none" stroke="green" stroke-width="0.432619" d="M234.511,-141.171C237.335,-140.127 240.359,-139.147 243.245,-138.468 402.79,-100.964 455.021,-155.066 610.245,-102.468 611.702,-101.975 613.161,-101.393 614.606,-100.747"/>
<polygon fill="green" stroke="green" stroke-width="0.432619" points="616.624,-103.636 623.768,-95.8112 613.304,-97.4735 616.624,-103.636"/>
</g>
<!-- &#45;2&#45;&gt;19 -->
<g id="edge18" class="edge"><title>&#45;2&#45;&gt;19</title>
<path fill="none" stroke="red" stroke-width="0.329882" d="M211.917,-138.443C200.131,-129.285 180.515,-114.042 165.259,-102.188"/>
<polygon fill="red" stroke="red" stroke-width="0.329882" points="167.353,-99.3832 157.309,-96.0112 163.058,-104.911 167.353,-99.3832"/>
</g>
<!-- &#45;2&#45;&gt;20 -->
<g id="edge19" class="edge"><title>&#45;2&#45;&gt;20</title>
<path fill="none" stroke="red" stroke-width="0.373314" d="M219.108,-138.443C216.363,-131.423 212.221,-120.83 208.35,-110.927"/>
<polygon fill="red" stroke="red" stroke-width="0.373314" points="211.531,-109.451 204.63,-101.412 205.011,-112 211.531,-109.451"/>
</g>
<!-- &#45;2&#45;&gt;21 -->
<g id="edge20" class="edge"><title>&#45;2&#45;&gt;21</title>
<path fill="none" stroke="red" stroke-width="0.298117" d="M226.298,-138.443C229.967,-131.178 235.57,-120.084 240.718,-109.889"/>
<polygon fill="red" stroke="red" stroke-width="0.298117" points="243.866,-111.42 245.249,-100.916 237.617,-108.265 243.866,-111.42"/>
</g>
<!-- &#45;3 -->
<g id="node3" class="node"><title>&#45;3</title>
<polygon fill="lightgray" stroke="black" points="402.245,-156.468 378.245,-156.468 378.245,-138.468 402.245,-138.468 402.245,-156.468"/>
<text text-anchor="middle" x="390.245" y="-145.268" font-family="Times New Roman,serif" font-size="9.00">&#45;3</text>
</g>
<!-- &#45;3&#45;&gt;0 -->
<g id="edge115" class="edge"><title>&#45;3&#45;&gt;0</title>
<path fill="none" stroke="green" stroke-width="0.403138" d="M377.957,-141.264C375.133,-140.215 372.116,-139.209 369.245,-138.468 314.26,-124.272 153.465,-145.359 116.245,-102.468 53.2131,-29.8319 263.207,-18.0942 337.884,-16.2074"/>
<polygon fill="green" stroke="green" stroke-width="0.403138" points="338.335,-19.6987 348.259,-15.9878 338.187,-12.7003 338.335,-19.6987"/>
</g>
<!-- &#45;3&#45;&gt;1 -->
<g id="edge116" class="edge"><title>&#45;3&#45;&gt;1</title>
<path fill="none" stroke="green" stroke-width="0.342479" d="M402.533,-141.263C405.357,-140.214 408.374,-139.208 411.245,-138.468 466.448,-124.232 627.869,-145.515 665.245,-102.468 728.298,-29.8492 518.29,-18.1002 443.609,-16.209"/>
<polygon fill="green" stroke="green" stroke-width="0.342479" points="443.305,-12.7018 433.233,-15.9887 443.156,-19.7002 443.305,-12.7018"/>
</g>
<!-- &#45;3&#45;&gt;12 -->
<g id="edge21" class="edge"><title>&#45;3&#45;&gt;12</title>
<path fill="none" stroke="red" stroke-width="0.22498" d="M379.525,-138.443C367.218,-129.23 346.686,-113.86 330.811,-101.976"/>
<polygon fill="red" stroke="red" stroke-width="0.22498" points="332.655,-98.9842 322.552,-95.7932 328.46,-104.588 332.655,-98.9842"/>
</g>
<!-- &#45;3&#45;&gt;13 -->
<g id="edge22" class="edge"><title>&#45;3&#45;&gt;13</title>
<path fill="none" stroke="red" stroke-width="0.164651" d="M386.716,-138.443C383.596,-131.35 378.871,-120.609 374.477,-110.618"/>
<polygon fill="red" stroke="red" stroke-width="0.164651" points="377.658,-109.157 370.428,-101.412 371.25,-111.975 377.658,-109.157"/>
</g>
<!-- &#45;3&#45;&gt;14 -->
<g id="edge23" class="edge"><title>&#45;3&#45;&gt;14</title>
<path fill="none" stroke="red" stroke-width="0.622474" d="M393.906,-138.443C397.141,-131.35 402.041,-120.609 406.598,-110.618"/>
<polygon fill="red" stroke="red" stroke-width="0.622474" points="409.831,-111.963 410.797,-101.412 403.463,-109.058 409.831,-111.963"/>
</g>
<!-- &#45;3&#45;&gt;15 -->
<g id="edge24" class="edge"><title>&#45;3&#45;&gt;15</title>
<path fill="none" stroke="green" stroke-width="0.465157" d="M401.096,-138.443C413.554,-129.23 434.336,-113.86 450.405,-101.976"/>
<polygon fill="green" stroke="green" stroke-width="0.465157" points="452.805,-104.554 458.764,-95.7932 448.643,-98.9255 452.805,-104.554"/>
</g>
<!-- &#45;3&#45;&gt;16 -->
<g id="edge25" class="edge"><title>&#45;3&#45;&gt;16</title>
<path fill="none" stroke="green" stroke-width="0.406972" d="M402.416,-141.739C429.091,-131.353 491.067,-107.108 500.245,-102.468 501.618,-101.774 503.01,-101.035 504.404,-100.266"/>
<polygon fill="green" stroke="green" stroke-width="0.406972" points="506.57,-103.053 513.412,-94.9633 503.019,-97.0206 506.57,-103.053"/>
</g>
<!-- &#45;3&#45;&gt;17 -->
<g id="edge26" class="edge"><title>&#45;3&#45;&gt;17</title>
<path fill="none" stroke="red" stroke-width="0.556758" d="M402.596,-141.483C405.417,-140.423 408.417,-139.357 411.245,-138.468 474.181,-118.691 494.491,-128.176 555.245,-102.468 556.661,-101.869 558.089,-101.204 559.51,-100.493"/>
<polygon fill="red" stroke="red" stroke-width="0.556758" points="561.609,-103.327 568.597,-95.3635 558.168,-97.2314 561.609,-103.327"/>
</g>
<!-- &#45;3&#45;&gt;18 -->
<g id="edge27" class="edge"><title>&#45;3&#45;&gt;18</title>
<path fill="none" stroke="red" stroke-width="0.155429" d="M402.555,-141.344C405.378,-140.291 408.389,-139.263 411.245,-138.468 497.834,-114.367 526.36,-134.744 610.245,-102.468 611.68,-101.916 613.123,-101.288 614.555,-100.606"/>
<polygon fill="red" stroke="red" stroke-width="0.155429" points="616.62,-103.464 623.678,-95.5627 613.233,-97.3384 616.62,-103.464"/>
</g>
<!-- &#45;3&#45;&gt;19 -->
<g id="edge28" class="edge"><title>&#45;3&#45;&gt;19</title>
<path fill="none" stroke="green" stroke-width="0.192966" d="M377.935,-141.346C375.113,-140.293 372.101,-139.264 369.245,-138.468 283.089,-114.446 254.708,-134.624 171.245,-102.468 169.81,-101.915 168.368,-101.287 166.936,-100.605"/>
<polygon fill="green" stroke="green" stroke-width="0.192966" points="168.259,-97.3369 157.814,-95.56 164.871,-103.463 168.259,-97.3369"/>
</g>
<!-- &#45;3&#45;&gt;20 -->
<g id="edge29" class="edge"><title>&#45;3&#45;&gt;20</title>
<path fill="none" stroke="green" stroke-width="0.108761" d="M377.893,-141.486C375.073,-140.426 372.073,-139.359 369.245,-138.468 306.737,-118.768 286.582,-128.058 226.245,-102.468 224.83,-101.868 223.403,-101.202 221.982,-100.491"/>
<polygon fill="green" stroke="green" stroke-width="0.108761" points="223.324,-97.2287 212.895,-95.3585 219.882,-103.324 223.324,-97.2287"/>
</g>
<!-- &#45;3&#45;&gt;21 -->
<g id="edge30" class="edge"><title>&#45;3&#45;&gt;21</title>
<path fill="none" stroke="green" stroke-width="0.185204" d="M378.186,-141.736C351.754,-131.344 290.344,-107.086 281.245,-102.468 279.874,-101.772 278.482,-101.031 277.089,-100.261"/>
<polygon fill="green" stroke="green" stroke-width="0.185204" points="278.476,-97.0158 268.084,-94.9542 274.922,-103.047 278.476,-97.0158"/>
</g>
<!-- &#45;4 -->
<g id="node4" class="node"><title>&#45;4</title>
<polygon fill="lightgray" stroke="black" points="486.245,-156.468 462.245,-156.468 462.245,-138.468 486.245,-138.468 486.245,-156.468"/>
<text text-anchor="middle" x="474.245" y="-145.268" font-family="Times New Roman,serif" font-size="9.00">&#45;4</text>
</g>
<!-- &#45;4&#45;&gt;0 -->
<g id="edge117" class="edge"><title>&#45;4&#45;&gt;0</title>
<path fill="none" stroke="red" stroke-width="0.1671" d="M486.562,-141.368C489.384,-140.314 492.393,-139.279 495.245,-138.468 576.654,-115.315 628.351,-167.728 682.245,-102.468 692.651,-89.8675 693.061,-77.9497 682.245,-65.6985 639.56,-17.3457 456.368,-47.042 394.245,-29.6985 391.371,-28.896 388.421,-27.8694 385.538,-26.7386"/>
<polygon fill="red" stroke="red" stroke-width="0.1671" points="386.766,-23.4556 376.2,-22.6671 383.968,-29.8722 386.766,-23.4556"/>
</g>
<!-- &#45;4&#45;&gt;1 -->
<g id="edge118" class="edge"><title>&#45;4&#45;&gt;1</title>
<path fill="none" stroke="red" stroke-width="0.186765" d="M486.51,-141.168C489.335,-140.124 492.358,-139.144 495.245,-138.468 576.325,-119.475 812.261,-164.115 868.245,-102.468 879.232,-90.3701 879.146,-77.8736 868.245,-65.6985 839.682,-33.796 533.69,-20.0861 443.269,-16.7127"/>
<polygon fill="red" stroke="red" stroke-width="0.186765" points="443.236,-13.2093 433.116,-16.344 442.982,-20.2047 443.236,-13.2093"/>
</g>
<!-- &#45;4&#45;&gt;12 -->
<g id="edge31" class="edge"><title>&#45;4&#45;&gt;12</title>
<path fill="none" stroke="green" stroke-width="0.104276" d="M461.857,-141.595C459.039,-140.529 456.049,-139.432 453.245,-138.468 401.797,-120.774 385.765,-125.003 336.245,-102.468 334.846,-101.831 333.431,-101.136 332.021,-100.403"/>
<polygon fill="green" stroke="green" stroke-width="0.104276" points="333.379,-97.1466 322.963,-95.204 329.894,-103.218 333.379,-97.1466"/>
</g>
<!-- &#45;4&#45;&gt;13 -->
<g id="edge32" class="edge"><title>&#45;4&#45;&gt;13</title>
<path fill="none" stroke="red" stroke-width="0.138186" d="M462.008,-140.311C445.691,-132.028 415.992,-116.688 391.245,-102.468 389.943,-101.72 388.613,-100.942 387.276,-100.149"/>
<polygon fill="red" stroke="red" stroke-width="0.138186" points="388.9,-97.0402 378.536,-94.8382 385.264,-103.022 388.9,-97.0402"/>
</g>
<!-- &#45;4&#45;&gt;14 -->
<g id="edge33" class="edge"><title>&#45;4&#45;&gt;14</title>
<path fill="none" stroke="red" stroke-width="0.212111" d="M466.924,-138.443C459.481,-130.284 447.633,-117.296 437.489,-106.177"/>
<polygon fill="red" stroke="red" stroke-width="0.212111" points="439.817,-103.536 430.491,-98.507 434.645,-108.254 439.817,-103.536"/>
</g>
<!-- &#45;4&#45;&gt;15 -->
<g id="edge34" class="edge"><title>&#45;4&#45;&gt;15</title>
<path fill="none" stroke="red" stroke-width="0.287018" d="M474.115,-138.443C474.008,-131.879 473.85,-122.189 473.698,-112.862"/>
<polygon fill="red" stroke="red" stroke-width="0.287018" points="477.194,-112.613 473.532,-102.671 470.195,-112.727 477.194,-112.613"/>
</g>
<!-- &#45;4&#45;&gt;16 -->
<g id="edge35" class="edge"><title>&#45;4&#45;&gt;16</title>
<path fill="none" stroke="green" stroke-width="0.225017" d="M481.305,-138.443C488.482,-130.284 499.908,-117.296 509.689,-106.177"/>
<polygon fill="green" stroke="green" stroke-width="0.225017" points="512.459,-108.327 516.437,-98.507 507.204,-103.704 512.459,-108.327"/>
</g>
<!-- &#45;4&#45;&gt;17 -->
<g id="edge36" class="edge"><title>&#45;4&#45;&gt;17</title>
<path fill="none" stroke="red" stroke-width="0.233248" d="M486.444,-140.125C502.404,-131.761 531.172,-116.464 555.245,-102.468 556.544,-101.713 557.87,-100.93 559.206,-100.133"/>
<polygon fill="red" stroke="red" stroke-width="0.233248" points="561.221,-103.003 567.938,-94.8096 557.578,-97.0264 561.221,-103.003"/>
</g>
<!-- &#45;4&#45;&gt;18 -->
<g id="edge37" class="edge"><title>&#45;4&#45;&gt;18</title>
<path fill="none" stroke="red" stroke-width="0.117738" d="M486.637,-141.605C489.455,-140.539 492.444,-139.439 495.245,-138.468 545.848,-120.927 561.553,-124.77 610.245,-102.468 611.643,-101.828 613.057,-101.13 614.466,-100.395"/>
<polygon fill="red" stroke="red" stroke-width="0.117738" points="616.595,-103.208 623.521,-95.1895 613.107,-97.139 616.595,-103.208"/>
</g>
<!-- &#45;4&#45;&gt;19 -->
<g id="edge38" class="edge"><title>&#45;4&#45;&gt;19</title>
<path fill="none" stroke="red" stroke-width="0.340918" d="M461.965,-141.233C459.141,-140.186 456.122,-139.189 453.245,-138.468 330.683,-107.763 290.308,-144.76 171.245,-102.468 169.796,-101.953 168.343,-101.355 166.902,-100.697"/>
<polygon fill="red" stroke="red" stroke-width="0.340918" points="168.211,-97.4245 157.754,-95.7214 164.867,-103.574 168.211,-97.4245"/>
</g>
<!-- &#45;4&#45;&gt;20 -->
<g id="edge39" class="edge"><title>&#45;4&#45;&gt;20</title>
<path fill="none" stroke="green" stroke-width="0.532915" d="M461.948,-141.298C459.125,-140.248 456.11,-139.232 453.245,-138.468 354.545,-112.145 321.974,-138.114 226.245,-102.468 224.804,-101.931 223.357,-101.316 221.921,-100.644"/>
<polygon fill="green" stroke="green" stroke-width="0.532915" points="223.238,-97.3741 212.788,-95.6287 219.869,-103.51 223.238,-97.3741"/>
</g>
<!-- &#45;4&#45;&gt;21 -->
<g id="edge40" class="edge"><title>&#45;4&#45;&gt;21</title>
<path fill="none" stroke="green" stroke-width="0.169427" d="M461.919,-141.402C459.097,-140.346 456.091,-139.302 453.245,-138.468 378.298,-116.498 353.746,-131.508 281.245,-102.468 279.818,-101.896 278.381,-101.253 276.954,-100.559"/>
<polygon fill="green" stroke="green" stroke-width="0.169427" points="278.284,-97.2937 267.845,-95.4798 274.874,-103.407 278.284,-97.2937"/>
</g>
<!-- &#45;5 -->
<g id="node5" class="node"><title>&#45;5</title>
<polygon fill="lightgray" stroke="black" points="360.245,-156.468 336.245,-156.468 336.245,-138.468 360.245,-138.468 360.245,-156.468"/>
<text text-anchor="middle" x="348.245" y="-145.268" font-family="Times New Roman,serif" font-size="9.00">&#45;5</text>
</g>
<!-- &#45;5&#45;&gt;0 -->
<g id="edge119" class="edge"><title>&#45;5&#45;&gt;0</title>
<path fill="none" stroke="green" stroke-width="0.474604" d="M335.965,-141.233C333.141,-140.186 330.122,-139.189 327.245,-138.468 265.964,-123.115 86.9928,-149.884 45.2453,-102.468 34.4462,-90.2026 34.6222,-78.1166 45.2453,-65.6985 83.0112,-21.5512 269.208,-16.2328 337.809,-15.7922"/>
<polygon fill="green" stroke="green" stroke-width="0.474604" points="338.138,-19.2913 348.127,-15.7581 338.115,-12.2913 338.138,-19.2913"/>
</g>
<!-- &#45;5&#45;&gt;1 -->
<g id="edge120" class="edge"><title>&#45;5&#45;&gt;1</title>
<path fill="none" stroke="green" stroke-width="0.149593" d="M335.941,-141.323C333.119,-140.271 330.106,-139.249 327.245,-138.468 281.358,-125.942 146.921,-138.821 116.245,-102.468 105.706,-89.9785 105.477,-77.9914 116.245,-65.6985 156.275,-19.9999 328.795,-46.2601 387.245,-29.6985 390.116,-28.885 393.064,-27.8516 395.946,-26.7172"/>
<polygon fill="green" stroke="green" stroke-width="0.149593" points="397.518,-29.8503 405.284,-22.6435 394.718,-23.4344 397.518,-29.8503"/>
</g>
<!-- &#45;5&#45;&gt;12 -->
<g id="edge41" class="edge"><title>&#45;5&#45;&gt;12</title>
<path fill="none" stroke="green" stroke-width="0.332383" d="M343.016,-138.443C338.053,-130.826 330.347,-119.001 323.45,-108.417"/>
<polygon fill="green" stroke="green" stroke-width="0.332383" points="326.317,-106.405 317.925,-99.9379 320.452,-110.227 326.317,-106.405"/>
</g>
<!-- &#45;5&#45;&gt;13 -->
<g id="edge42" class="edge"><title>&#45;5&#45;&gt;13</title>
<path fill="none" stroke="green" stroke-width="0.131771" d="M350.206,-138.443C351.851,-131.713 354.298,-121.697 356.63,-112.155"/>
<polygon fill="green" stroke="green" stroke-width="0.131771" points="360.097,-112.71 359.071,-102.165 353.298,-111.048 360.097,-112.71"/>
</g>
<!-- &#45;5&#45;&gt;14 -->
<g id="edge43" class="edge"><title>&#45;5&#45;&gt;14</title>
<path fill="none" stroke="red" stroke-width="0.421088" d="M357.397,-138.443C367.401,-129.67 383.773,-115.313 397.016,-103.7"/>
<polygon fill="red" stroke="red" stroke-width="0.421088" points="399.561,-106.123 404.772,-96.8984 394.946,-100.86 399.561,-106.123"/>
</g>
<!-- &#45;5&#45;&gt;15 -->
<g id="edge44" class="edge"><title>&#45;5&#45;&gt;15</title>
<path fill="none" stroke="green" stroke-width="0.294043" d="M360.434,-141.54C379.058,-133.877 415.562,-118.329 445.245,-102.468 446.57,-101.76 447.918,-101.015 449.269,-100.247"/>
<polygon fill="green" stroke="green" stroke-width="0.294043" points="451.253,-103.139 458.052,-95.0135 447.67,-97.1256 451.253,-103.139"/>
</g>
<!-- &#45;5&#45;&gt;16 -->
<g id="edge45" class="edge"><title>&#45;5&#45;&gt;16</title>
<path fill="none" stroke="green" stroke-width="0.163768" d="M360.612,-141.532C363.431,-140.469 366.427,-139.39 369.245,-138.468 426.635,-119.699 444.915,-126.642 500.245,-102.468 501.654,-101.852 503.076,-101.174 504.493,-100.454"/>
<polygon fill="green" stroke="green" stroke-width="0.163768" points="506.604,-103.28 513.567,-95.2941 503.144,-97.1944 506.604,-103.28"/>
</g>
<!-- &#45;5&#45;&gt;17 -->
<g id="edge46" class="edge"><title>&#45;5&#45;&gt;17</title>
<path fill="none" stroke="green" stroke-width="0.375057" d="M360.562,-141.37C363.384,-140.316 366.394,-139.281 369.245,-138.468 450.223,-115.394 476.847,-133.184 555.245,-102.468 556.677,-101.907 558.117,-101.272 559.547,-100.585"/>
<polygon fill="green" stroke="green" stroke-width="0.375057" points="561.618,-103.439 568.663,-95.5256 558.221,-97.3184 561.618,-103.439"/>
</g>
<!-- &#45;5&#45;&gt;18 -->
<g id="edge47" class="edge"><title>&#45;5&#45;&gt;18</title>
<path fill="none" stroke="red" stroke-width="0.115802" d="M360.538,-141.279C363.361,-140.229 366.377,-139.219 369.245,-138.468 474.012,-111.032 508.585,-139.803 610.245,-102.468 611.689,-101.938 613.138,-101.328 614.575,-100.66"/>
<polygon fill="red" stroke="red" stroke-width="0.115802" points="616.623,-103.529 623.713,-95.6562 613.261,-97.389 616.623,-103.529"/>
</g>
<!-- &#45;5&#45;&gt;19 -->
<g id="edge48" class="edge"><title>&#45;5&#45;&gt;19</title>
<path fill="none" stroke="red" stroke-width="0.588948" d="M335.906,-141.445C333.085,-140.387 330.082,-139.331 327.245,-138.468 259.172,-117.754 237.025,-129.601 171.245,-102.468 169.824,-101.882 168.392,-101.227 166.968,-100.524"/>
<polygon fill="red" stroke="red" stroke-width="0.588948" points="168.304,-97.2606 157.871,-95.4181 164.878,-103.365 168.304,-97.2606"/>
</g>
<!-- &#45;5&#45;&gt;20 -->
<g id="edge49" class="edge"><title>&#45;5&#45;&gt;20</title>
<path fill="none" stroke="red" stroke-width="0.26677" d="M335.825,-141.686C333.008,-140.615 330.027,-139.494 327.245,-138.468 282.532,-121.985 269.177,-123.154 226.245,-102.468 224.86,-101.801 223.457,-101.082 222.055,-100.329"/>
<polygon fill="red" stroke="red" stroke-width="0.26677" points="223.428,-97.0786 213.024,-95.0746 219.907,-103.129 223.428,-97.0786"/>
</g>
<!-- &#45;5&#45;&gt;21 -->
<g id="edge50" class="edge"><title>&#45;5&#45;&gt;21</title>
<path fill="none" stroke="green" stroke-width="0.330707" d="M336.213,-138.694C321.368,-129.101 295.783,-112.569 276.939,-100.393"/>
<polygon fill="green" stroke="green" stroke-width="0.330707" points="278.605,-97.3027 268.307,-94.8152 274.806,-103.182 278.605,-97.3027"/>
</g>
<!-- &#45;6 -->
<g id="node6" class="node"><title>&#45;6</title>
<polygon fill="lightgray" stroke="black" points="444.245,-156.468 420.245,-156.468 420.245,-138.468 444.245,-138.468 444.245,-156.468"/>
<text text-anchor="middle" x="432.245" y="-145.268" font-family="Times New Roman,serif" font-size="9.00">&#45;6</text>
</g>
<!-- &#45;6&#45;&gt;0 -->
<g id="edge121" class="edge"><title>&#45;6&#45;&gt;0</title>
<path fill="none" stroke="red" stroke-width="0.190444" d="M444.549,-141.321C447.372,-140.27 450.385,-139.248 453.245,-138.468 499.349,-125.902 634.414,-138.977 665.245,-102.468 675.789,-89.9826 676.013,-77.9914 665.245,-65.6985 625.216,-19.9999 452.696,-46.2601 394.245,-29.6985 391.374,-28.885 388.426,-27.8516 385.544,-26.7172"/>
<polygon fill="red" stroke="red" stroke-width="0.190444" points="386.772,-23.4344 376.207,-22.6435 383.973,-29.8503 386.772,-23.4344"/>
</g>
<!-- &#45;6&#45;&gt;1 -->
<g id="edge122" class="edge"><title>&#45;6&#45;&gt;1</title>
<path fill="none" stroke="red" stroke-width="0.136871" d="M444.507,-141.155C447.332,-140.112 450.356,-139.136 453.245,-138.468 539.553,-118.514 790.502,-167.874 850.245,-102.468 861.267,-90.402 861.118,-77.8984 850.245,-65.6985 823.028,-35.1602 532.265,-20.6007 443.701,-16.8526"/>
<polygon fill="red" stroke="red" stroke-width="0.136871" points="443.619,-13.3463 433.483,-16.4306 443.33,-20.3404 443.619,-13.3463"/>
</g>
<!-- &#45;6&#45;&gt;12 -->
<g id="edge51" class="edge"><title>&#45;6&#45;&gt;12</title>
<path fill="none" stroke="green" stroke-width="0.232189" d="M420.188,-141.52C401.763,-133.832 365.644,-118.251 336.245,-102.468 334.922,-101.758 333.576,-101.01 332.225,-100.24"/>
<polygon fill="green" stroke="green" stroke-width="0.232189" points="333.826,-97.1201 323.445,-95.0023 330.239,-103.132 333.826,-97.1201"/>
</g>
<!-- &#45;6&#45;&gt;13 -->
<g id="edge52" class="edge"><title>&#45;6&#45;&gt;13</title>
<path fill="none" stroke="green" stroke-width="0.194314" d="M423.225,-138.443C413.363,-129.67 397.225,-115.313 384.172,-103.7"/>
<polygon fill="green" stroke="green" stroke-width="0.194314" points="386.324,-100.93 376.526,-96.8984 381.671,-106.16 386.324,-100.93"/>
</g>
<!-- &#45;6&#45;&gt;14 -->
<g id="edge53" class="edge"><title>&#45;6&#45;&gt;14</title>
<path fill="none" stroke="green" stroke-width="0.137072" d="M430.415,-138.443C428.88,-131.713 426.596,-121.697 424.42,-112.155"/>
<polygon fill="green" stroke="green" stroke-width="0.137072" points="427.777,-111.136 422.141,-102.165 420.952,-112.692 427.777,-111.136"/>
</g>
<!-- &#45;6&#45;&gt;15 -->
<g id="edge54" class="edge"><title>&#45;6&#45;&gt;15</title>
<path fill="none" stroke="red" stroke-width="0.222659" d="M437.605,-138.443C442.693,-130.826 450.591,-119.001 457.66,-108.417"/>
<polygon fill="red" stroke="red" stroke-width="0.222659" points="460.68,-110.198 463.324,-99.9379 454.859,-106.31 460.68,-110.198"/>
</g>
<!-- &#45;6&#45;&gt;16 -->
<g id="edge55" class="edge"><title>&#45;6&#45;&gt;16</title>
<path fill="none" stroke="green" stroke-width="0.464497" d="M444.404,-138.694C459.474,-129.057 485.496,-112.419 504.562,-100.227"/>
<polygon fill="green" stroke="green" stroke-width="0.464497" points="506.486,-103.151 513.026,-94.8152 502.715,-97.2536 506.486,-103.151"/>
</g>
<!-- &#45;6&#45;&gt;17 -->
<g id="edge56" class="edge"><title>&#45;6&#45;&gt;17</title>
<path fill="none" stroke="red" stroke-width="0.157346" d="M444.663,-141.679C447.48,-140.609 450.462,-139.489 453.245,-138.468 498.378,-121.91 511.904,-123.269 555.245,-102.468 556.632,-101.803 558.036,-101.085 559.438,-100.335"/>
<polygon fill="red" stroke="red" stroke-width="0.157346" points="561.584,-103.135 568.471,-95.0837 558.067,-97.0833 561.584,-103.135"/>
</g>
<!-- &#45;6&#45;&gt;18 -->
<g id="edge57" class="edge"><title>&#45;6&#45;&gt;18</title>
<path fill="none" stroke="green" stroke-width="0.105129" d="M444.584,-141.442C447.405,-140.384 450.408,-139.329 453.245,-138.468 521.748,-117.676 544.046,-129.72 610.245,-102.468 611.667,-101.883 613.099,-101.229 614.524,-100.527"/>
<polygon fill="green" stroke="green" stroke-width="0.105129" points="616.613,-103.368 623.622,-95.4223 613.188,-97.2628 616.613,-103.368"/>
</g>
<!-- &#45;6&#45;&gt;19 -->
<g id="edge58" class="edge"><title>&#45;6&#45;&gt;19</title>
<path fill="none" stroke="red" stroke-width="0.253236" d="M419.953,-141.28C417.129,-140.231 414.113,-139.22 411.245,-138.468 306.912,-111.111 272.482,-139.682 171.245,-102.468 169.802,-101.937 168.353,-101.327 166.916,-100.658"/>
<polygon fill="red" stroke="red" stroke-width="0.253236" points="168.23,-97.388 157.778,-95.6543 164.868,-103.528 168.23,-97.388"/>
</g>
<!-- &#45;6&#45;&gt;20 -->
<g id="edge59" class="edge"><title>&#45;6&#45;&gt;20</title>
<path fill="none" stroke="green" stroke-width="0.260796" d="M419.928,-141.372C417.106,-140.318 414.096,-139.282 411.245,-138.468 330.699,-115.473 304.222,-133.064 226.245,-102.468 224.814,-101.906 223.374,-101.271 221.944,-100.584"/>
<polygon fill="green" stroke="green" stroke-width="0.260796" points="223.27,-97.3167 212.829,-95.5226 219.872,-103.437 223.27,-97.3167"/>
</g>
<!-- &#45;6&#45;&gt;21 -->
<g id="edge60" class="edge"><title>&#45;6&#45;&gt;21</title>
<path fill="none" stroke="red" stroke-width="0.216931" d="M419.877,-141.536C417.058,-140.473 414.063,-139.392 411.245,-138.468 354.281,-119.776 336.159,-126.525 281.245,-102.468 279.837,-101.851 278.415,-101.172 276.999,-100.451"/>
<polygon fill="red" stroke="red" stroke-width="0.216931" points="278.348,-97.1913 267.926,-95.2882 274.887,-103.275 278.348,-97.1913"/>
</g>
<!-- &#45;7 -->
<g id="node7" class="node"><title>&#45;7</title>
<polygon fill="lightgray" stroke="black" points="318.245,-156.468 294.245,-156.468 294.245,-138.468 318.245,-138.468 318.245,-156.468"/>
<text text-anchor="middle" x="306.245" y="-145.268" font-family="Times New Roman,serif" font-size="9.00">&#45;7</text>
</g>
<!-- &#45;7&#45;&gt;0 -->
<g id="edge123" class="edge"><title>&#45;7&#45;&gt;0</title>
<path fill="none" stroke="red" stroke-width="0.219329" d="M293.957,-141.265C291.133,-140.217 288.116,-139.21 285.245,-138.468 230.477,-124.312 70.3091,-145.203 33.2453,-102.468 22.538,-90.1224 22.5876,-78.087 33.2453,-65.6985 72.7904,-19.7311 268.261,-15.6068 338.258,-15.6316"/>
<polygon fill="red" stroke="red" stroke-width="0.219329" points="338.359,-19.1319 348.371,-15.6655 338.383,-12.1319 338.359,-19.1319"/>
</g>
<!-- &#45;7&#45;&gt;1 -->
<g id="edge124" class="edge"><title>&#45;7&#45;&gt;1</title>
<path fill="none" stroke="green" stroke-width="0.2147" d="M293.924,-141.383C291.103,-140.328 288.094,-139.289 285.245,-138.468 206.854,-115.868 156.969,-165.561 105.245,-102.468 94.8847,-89.8301 94.4462,-77.9639 105.245,-65.6985 146.993,-18.2827 326.419,-46.766 387.245,-29.6985 390.118,-28.8923 393.068,-27.8633 395.95,-26.7313"/>
<polygon fill="green" stroke="green" stroke-width="0.2147" points="397.521,-29.8648 405.288,-22.6591 394.723,-23.4484 397.521,-29.8648"/>
</g>
<!-- &#45;7&#45;&gt;12 -->
<g id="edge61" class="edge"><title>&#45;7&#45;&gt;12</title>
<path fill="none" stroke="green" stroke-width="0.121526" d="M306.507,-138.443C306.721,-131.879 307.036,-122.189 307.34,-112.862"/>
<polygon fill="green" stroke="green" stroke-width="0.121526" points="310.845,-112.78 307.672,-102.671 303.848,-112.552 310.845,-112.78"/>
</g>
<!-- &#45;7&#45;&gt;13 -->
<g id="edge62" class="edge"><title>&#45;7&#45;&gt;13</title>
<path fill="none" stroke="red" stroke-width="0.574467" d="M313.697,-138.443C321.445,-130.099 333.882,-116.705 344.357,-105.425"/>
<polygon fill="red" stroke="red" stroke-width="0.574467" points="346.974,-107.75 351.214,-98.0404 341.844,-102.987 346.974,-107.75"/>
</g>
<!-- &#45;7&#45;&gt;14 -->
<g id="edge63" class="edge"><title>&#45;7&#45;&gt;14</title>
<path fill="none" stroke="red" stroke-width="0.144604" d="M318.357,-140.474C334.818,-132.248 365.087,-116.842 390.245,-102.468 391.549,-101.723 392.881,-100.948 394.219,-100.157"/>
<polygon fill="red" stroke="red" stroke-width="0.144604" points="396.229,-103.032 402.963,-94.8522 392.598,-97.047 396.229,-103.032"/>
</g>
<!-- &#45;7&#45;&gt;15 -->
<g id="edge64" class="edge"><title>&#45;7&#45;&gt;15</title>
<path fill="none" stroke="red" stroke-width="0.311597" d="M318.631,-141.59C321.45,-140.524 324.44,-139.429 327.245,-138.468 379.117,-120.698 395.312,-125.12 445.245,-102.468 446.646,-101.833 448.061,-101.139 449.472,-100.407"/>
<polygon fill="red" stroke="red" stroke-width="0.311597" points="451.597,-103.222 458.53,-95.211 448.115,-97.1504 451.597,-103.222"/>
</g>
<!-- &#45;7&#45;&gt;16 -->
<g id="edge65" class="edge"><title>&#45;7&#45;&gt;16</title>
<path fill="none" stroke="red" stroke-width="0.190372" d="M318.571,-141.399C321.393,-140.344 324.399,-139.3 327.245,-138.468 402.623,-116.419 427.323,-131.628 500.245,-102.468 501.673,-101.897 503.11,-101.254 504.538,-100.561"/>
<polygon fill="red" stroke="red" stroke-width="0.190372" points="506.616,-103.41 513.647,-95.4833 503.208,-97.2956 506.616,-103.41"/>
</g>
<!-- &#45;7&#45;&gt;17 -->
<g id="edge66" class="edge"><title>&#45;7&#45;&gt;17</title>
<path fill="none" stroke="green" stroke-width="0.274575" d="M318.542,-141.296C321.365,-140.246 324.38,-139.231 327.245,-138.468 426.378,-112.066 459.093,-138.234 555.245,-102.468 556.687,-101.932 558.134,-101.317 559.57,-100.645"/>
<polygon fill="green" stroke="green" stroke-width="0.274575" points="561.622,-103.511 568.703,-95.6308 558.253,-97.3752 561.622,-103.511"/>
</g>
<!-- &#45;7&#45;&gt;18 -->
<g id="edge67" class="edge"><title>&#45;7&#45;&gt;18</title>
<path fill="none" stroke="green" stroke-width="0.319141" d="M318.526,-141.232C321.35,-140.186 324.369,-139.188 327.245,-138.468 450.243,-107.683 490.758,-144.881 610.245,-102.468 611.694,-101.954 613.148,-101.356 614.589,-100.697"/>
<polygon fill="green" stroke="green" stroke-width="0.319141" points="616.624,-103.575 623.737,-95.7228 613.28,-97.4252 616.624,-103.575"/>
</g>
<!-- &#45;7&#45;&gt;19 -->
<g id="edge68" class="edge"><title>&#45;7&#45;&gt;19</title>
<path fill="none" stroke="green" stroke-width="0.421233" d="M293.852,-141.61C291.034,-140.544 288.046,-139.443 285.245,-138.468 235.065,-121.003 219.525,-124.654 171.245,-102.468 169.848,-101.826 168.436,-101.127 167.026,-100.39"/>
<polygon fill="green" stroke="green" stroke-width="0.421233" points="168.387,-97.1351 157.973,-95.1821 164.896,-103.203 168.387,-97.1351"/>
</g>
<!-- &#45;7&#45;&gt;20 -->
<g id="edge69" class="edge"><title>&#45;7&#45;&gt;20</title>
<path fill="none" stroke="green" stroke-width="0.178472" d="M294.207,-140.103C278.455,-131.716 250.053,-116.393 226.245,-102.468 224.949,-101.71 223.624,-100.924 222.29,-100.125"/>
<polygon fill="green" stroke="green" stroke-width="0.178472" points="223.92,-97.0193 213.561,-94.7949 220.272,-102.994 223.92,-97.0193"/>
</g>
<!-- &#45;7&#45;&gt;21 -->
<g id="edge70" class="edge"><title>&#45;7&#45;&gt;21</title>
<path fill="none" stroke="green" stroke-width="0.299683" d="M299.316,-138.443C292.272,-130.284 281.058,-117.296 271.458,-106.177"/>
<polygon fill="green" stroke="green" stroke-width="0.299683" points="274.02,-103.789 264.835,-98.507 268.721,-108.363 274.02,-103.789"/>
</g>
<!-- &#45;8 -->
<g id="node8" class="node"><title>&#45;8</title>
<polygon fill="lightgray" stroke="black" points="276.245,-156.468 252.245,-156.468 252.245,-138.468 276.245,-138.468 276.245,-156.468"/>
<text text-anchor="middle" x="264.245" y="-145.268" font-family="Times New Roman,serif" font-size="9.00">&#45;8</text>
</g>
<!-- &#45;8&#45;&gt;0 -->
<g id="edge125" class="edge"><title>&#45;8&#45;&gt;0</title>
<path fill="none" stroke="red" stroke-width="0.19533" d="M251.946,-141.305C249.123,-140.255 246.109,-139.237 243.245,-138.468 194.978,-125.505 53.6332,-140.531 21.2453,-102.468 10.6549,-90.0219 10.5555,-78.0593 21.2453,-65.6985 62.4133,-18.0949 265.76,-15.0351 337.849,-15.482"/>
<polygon fill="red" stroke="red" stroke-width="0.19533" points="338.216,-18.9854 348.247,-15.5776 338.28,-11.9857 338.216,-18.9854"/>
</g>
<!-- &#45;8&#45;&gt;1 -->
<g id="edge126" class="edge"><title>&#45;8&#45;&gt;1</title>
<path fill="none" stroke="red" stroke-width="0.347373" d="M251.899,-141.466C249.079,-140.407 246.078,-139.346 243.245,-138.468 178.171,-118.301 136.384,-156 94.2453,-102.468 84.1374,-89.627 83.4173,-77.9384 94.2453,-65.6985 137.712,-16.5647 324.042,-47.2722 387.245,-29.6985 390.12,-28.8991 393.071,-27.8742 395.954,-26.7444"/>
<polygon fill="red" stroke="red" stroke-width="0.347373" points="397.524,-29.8782 405.292,-22.6736 394.727,-23.4614 397.524,-29.8782"/>
</g>
<!-- &#45;8&#45;&gt;12 -->
<g id="edge71" class="edge"><title>&#45;8&#45;&gt;12</title>
<path fill="none" stroke="green" stroke-width="0.3719" d="M269.998,-138.443C275.585,-130.648 284.333,-118.444 292.052,-107.674"/>
<polygon fill="green" stroke="green" stroke-width="0.3719" points="294.962,-109.623 297.943,-99.4559 289.273,-105.545 294.962,-109.623"/>
</g>
<!-- &#45;8&#45;&gt;13 -->
<g id="edge72" class="edge"><title>&#45;8&#45;&gt;13</title>
<path fill="none" stroke="red" stroke-width="0.27649" d="M276.307,-138.997C290.435,-130.246 314.542,-115.31 335.245,-102.468 336.522,-101.676 337.831,-100.864 339.152,-100.044"/>
<polygon fill="red" stroke="red" stroke-width="0.27649" points="341.192,-102.898 347.842,-94.6501 337.5,-96.9502 341.192,-102.898"/>
</g>
<!-- &#45;8&#45;&gt;14 -->
<g id="edge73" class="edge"><title>&#45;8&#45;&gt;14</title>
<path fill="none" stroke="red" stroke-width="0.177165" d="M276.656,-141.661C279.474,-140.592 282.457,-139.477 285.245,-138.468 331.636,-121.684 345.673,-123.613 390.245,-102.468 391.635,-101.809 393.041,-101.097 394.445,-100.35"/>
<polygon fill="red" stroke="red" stroke-width="0.177165" points="396.587,-103.153 403.484,-95.1101 393.077,-97.0972 396.587,-103.153"/>
</g>
<!-- &#45;8&#45;&gt;15 -->
<g id="edge74" class="edge"><title>&#45;8&#45;&gt;15</title>
<path fill="none" stroke="red" stroke-width="0.638155" d="M276.581,-141.433C279.402,-140.376 282.406,-139.323 285.245,-138.468 355.035,-117.441 377.788,-130.077 445.245,-102.468 446.668,-101.886 448.101,-101.234 449.526,-100.534"/>
<polygon fill="red" stroke="red" stroke-width="0.638155" points="451.614,-103.376 458.627,-95.4346 448.192,-97.2694 451.614,-103.376"/>
</g>
<!-- &#45;8&#45;&gt;16 -->
<g id="edge75" class="edge"><title>&#45;8&#45;&gt;16</title>
<path fill="none" stroke="green" stroke-width="0.213277" d="M276.548,-141.316C279.37,-140.265 282.384,-139.244 285.245,-138.468 378.751,-113.098 409.596,-136.668 500.245,-102.468 501.684,-101.925 503.129,-101.305 504.564,-100.629"/>
<polygon fill="green" stroke="green" stroke-width="0.213277" points="506.621,-103.492 513.693,-95.6024 503.245,-97.3599 506.621,-103.492"/>
</g>
<!-- &#45;8&#45;&gt;17 -->
<g id="edge76" class="edge"><title>&#45;8&#45;&gt;17</title>
<path fill="none" stroke="red" stroke-width="0.186576" d="M276.529,-141.245C279.353,-140.198 282.371,-139.197 285.245,-138.468 402.596,-108.72 441.28,-143.307 555.245,-102.468 556.693,-101.949 558.145,-101.348 559.585,-100.687"/>
<polygon fill="red" stroke="red" stroke-width="0.186576" points="561.624,-103.562 568.73,-95.7043 558.275,-97.4152 561.624,-103.562"/>
</g>
<!-- &#45;8&#45;&gt;18 -->
<g id="edge77" class="edge"><title>&#45;8&#45;&gt;18</title>
<path fill="none" stroke="green" stroke-width="0.256887" d="M276.517,-141.198C279.342,-140.153 282.363,-139.165 285.245,-138.468 426.506,-104.326 472.9,-149.97 610.245,-102.468 611.699,-101.965 613.155,-101.377 614.599,-100.726"/>
<polygon fill="green" stroke="green" stroke-width="0.256887" points="616.624,-103.609 623.754,-95.7726 613.294,-97.4524 616.624,-103.609"/>
</g>
<!-- &#45;8&#45;&gt;19 -->
<g id="edge78" class="edge"><title>&#45;8&#45;&gt;19</title>
<path fill="none" stroke="green" stroke-width="0.456307" d="M251.988,-141.203C233.987,-133.352 199.479,-117.847 171.245,-102.468 169.926,-101.75 168.583,-100.996 167.235,-100.221"/>
<polygon fill="green" stroke="green" stroke-width="0.456307" points="168.841,-97.1031 158.464,-94.9675 165.244,-103.108 168.841,-97.1031"/>
</g>
<!-- &#45;8&#45;&gt;20 -->
<g id="edge79" class="edge"><title>&#45;8&#45;&gt;20</title>
<path fill="none" stroke="red" stroke-width="0.136338" d="M255.617,-138.443C246.445,-129.912 231.597,-116.103 219.305,-104.67"/>
<polygon fill="red" stroke="red" stroke-width="0.136338" points="221.387,-101.827 211.681,-97.5794 216.62,-106.953 221.387,-101.827"/>
</g>
<!-- &#45;8&#45;&gt;21 -->
<g id="edge80" class="edge"><title>&#45;8&#45;&gt;21</title>
<path fill="none" stroke="red" stroke-width="0.351383" d="M262.807,-138.443C261.61,-131.761 259.832,-121.839 258.133,-112.358"/>
<polygon fill="red" stroke="red" stroke-width="0.351383" points="261.561,-111.643 256.352,-102.417 254.67,-112.878 261.561,-111.643"/>
</g>
<!-- &#45;9 -->
<g id="node9" class="node"><title>&#45;9</title>
<polygon fill="lightgray" stroke="black" points="528.245,-156.468 504.245,-156.468 504.245,-138.468 528.245,-138.468 528.245,-156.468"/>
<text text-anchor="middle" x="516.245" y="-145.268" font-family="Times New Roman,serif" font-size="9.00">&#45;9</text>
</g>
<!-- &#45;9&#45;&gt;0 -->
<g id="edge127" class="edge"><title>&#45;9&#45;&gt;0</title>
<path fill="none" stroke="red" stroke-width="0.363073" d="M528.579,-141.428C531.401,-140.371 534.405,-139.32 537.245,-138.468 607.894,-117.284 653.094,-160.001 699.245,-102.468 709.471,-89.7206 710.102,-77.9125 699.245,-65.6985 653.903,-14.6896 460.042,-47.8247 394.245,-29.6985 391.368,-28.9059 388.417,-27.8852 385.533,-26.7576"/>
<polygon fill="red" stroke="red" stroke-width="0.363073" points="386.76,-23.4745 376.195,-22.6883 383.964,-29.8917 386.76,-23.4745"/>
</g>
<!-- &#45;9&#45;&gt;1 -->
<g id="edge128" class="edge"><title>&#45;9&#45;&gt;1</title>
<path fill="none" stroke="red" stroke-width="0.221959" d="M528.513,-141.182C531.338,-140.137 534.361,-139.154 537.245,-138.468 613.099,-120.437 834.019,-160.358 886.245,-102.468 897.192,-90.3341 897.172,-77.8506 886.245,-65.6985 856.387,-32.491 536.238,-19.6468 443.364,-16.6035"/>
<polygon fill="red" stroke="red" stroke-width="0.221959" points="443.306,-13.1 433.2,-16.2803 443.083,-20.0964 443.306,-13.1"/>
</g>
<!-- &#45;9&#45;&gt;12 -->
<g id="edge81" class="edge"><title>&#45;9&#45;&gt;12</title>
<path fill="none" stroke="red" stroke-width="0.215128" d="M503.909,-141.436C501.088,-140.379 498.084,-139.325 495.245,-138.468 425.885,-117.519 403.283,-129.958 336.245,-102.468 334.823,-101.885 333.39,-101.232 331.965,-100.531"/>
<polygon fill="red" stroke="red" stroke-width="0.215128" points="333.3,-97.2672 322.865,-95.4305 329.877,-103.373 333.3,-97.2672"/>
</g>
<!-- &#45;9&#45;&gt;13 -->
<g id="edge82" class="edge"><title>&#45;9&#45;&gt;13</title>
<path fill="none" stroke="green" stroke-width="0.408704" d="M503.832,-141.667C501.015,-140.597 498.032,-139.481 495.245,-138.468 449.274,-121.76 435.407,-123.498 391.245,-102.468 389.857,-101.807 388.452,-101.093 387.048,-100.345"/>
<polygon fill="green" stroke="green" stroke-width="0.408704" points="388.417,-97.0927 378.011,-95.1014 384.904,-103.147 388.417,-97.0927"/>
</g>
<!-- &#45;9&#45;&gt;14 -->
<g id="edge83" class="edge"><title>&#45;9&#45;&gt;14</title>
<path fill="none" stroke="green" stroke-width="0.580745" d="M504.229,-138.941C488.874,-129.323 461.935,-112.449 442.293,-100.146"/>
<polygon fill="green" stroke="green" stroke-width="0.580745" points="443.917,-97.0337 433.585,-94.6915 440.202,-102.966 443.917,-97.0337"/>
</g>
<!-- &#45;9&#45;&gt;15 -->
<g id="edge84" class="edge"><title>&#45;9&#45;&gt;15</title>
<path fill="none" stroke="green" stroke-width="0.215423" d="M510.624,-138.443C505.288,-130.826 497.005,-119.001 489.591,-108.417"/>
<polygon fill="green" stroke="green" stroke-width="0.215423" points="492.255,-106.12 483.651,-99.9379 486.522,-110.136 492.255,-106.12"/>
</g>
<!-- &#45;9&#45;&gt;16 -->
<g id="edge85" class="edge"><title>&#45;9&#45;&gt;16</title>
<path fill="none" stroke="red" stroke-width="0.240843" d="M517.814,-138.443C519.13,-131.713 521.088,-121.697 522.953,-112.155"/>
<polygon fill="red" stroke="red" stroke-width="0.240843" points="526.422,-112.65 524.906,-102.165 519.553,-111.307 526.422,-112.65"/>
</g>
<!-- &#45;9&#45;&gt;17 -->
<g id="edge86" class="edge"><title>&#45;9&#45;&gt;17</title>
<path fill="none" stroke="green" stroke-width="0.510814" d="M525.004,-138.443C534.522,-129.723 550.058,-115.489 562.692,-103.914"/>
<polygon fill="green" stroke="green" stroke-width="0.510814" points="565.094,-106.46 570.103,-97.124 560.365,-101.299 565.094,-106.46"/>
</g>
<!-- &#45;9&#45;&gt;18 -->
<g id="edge87" class="edge"><title>&#45;9&#45;&gt;18</title>
<path fill="none" stroke="red" stroke-width="0.306969" d="M528.339,-141.353C546.455,-133.57 581.573,-118.01 610.245,-102.468 611.566,-101.752 612.91,-101.001 614.259,-100.228"/>
<polygon fill="red" stroke="red" stroke-width="0.306969" points="616.248,-103.116 623.033,-94.9793 612.655,-97.1089 616.248,-103.116"/>
</g>
<!-- &#45;9&#45;&gt;19 -->
<g id="edge88" class="edge"><title>&#45;9&#45;&gt;19</title>
<path fill="none" stroke="green" stroke-width="0.125728" d="M503.973,-141.199C501.149,-140.153 498.127,-139.165 495.245,-138.468 354.42,-104.406 308.165,-149.848 171.245,-102.468 169.792,-101.965 168.335,-101.376 166.892,-100.725"/>
<polygon fill="green" stroke="green" stroke-width="0.125728" points="168.197,-97.4518 157.737,-95.7715 164.866,-103.608 168.197,-97.4518"/>
</g>
<!-- &#45;9&#45;&gt;20 -->
<g id="edge89" class="edge"><title>&#45;9&#45;&gt;20</title>
<path fill="none" stroke="red" stroke-width="0.101401" d="M503.961,-141.246C501.138,-140.199 498.119,-139.197 495.245,-138.468 378.329,-108.8 339.786,-143.186 226.245,-102.468 224.798,-101.949 223.346,-101.347 221.906,-100.686"/>
<polygon fill="red" stroke="red" stroke-width="0.101401" points="223.217,-97.4144 212.761,-95.7028 219.867,-103.561 223.217,-97.4144"/>
</g>
<!-- &#45;9&#45;&gt;21 -->
<g id="edge90" class="edge"><title>&#45;9&#45;&gt;21</title>
<path fill="none" stroke="red" stroke-width="0.405514" d="M503.943,-141.318C501.12,-140.266 498.107,-139.246 495.245,-138.468 402.173,-113.178 371.471,-136.548 281.245,-102.468 279.807,-101.925 278.362,-101.304 276.927,-100.628"/>
<polygon fill="red" stroke="red" stroke-width="0.405514" points="278.247,-97.3586 267.799,-95.6001 274.87,-103.49 278.247,-97.3586"/>
</g>
<!-- 12&#45;&gt;0 -->
<g id="edge91" class="edge"><title>12&#45;&gt;0</title>
<path fill="none" stroke="red" stroke-width="0.417307" d="M319.641,-69.1523C327.765,-59.2216 338.784,-45.7519 347.712,-34.8379"/>
<polygon fill="red" stroke="red" stroke-width="0.417307" points="350.427,-37.0471 354.049,-27.0909 345.008,-32.6149 350.427,-37.0471"/>
</g>
<!-- 12&#45;&gt;1 -->
<g id="edge92" class="edge"><title>12&#45;&gt;1</title>
<path fill="none" stroke="red" stroke-width="0.4923" d="M323.634,-73.4927C327.728,-70.9512 332.15,-68.2145 336.245,-65.6985 356.774,-53.086 380.277,-38.8153 396.843,-28.7848"/>
<polygon fill="red" stroke="red" stroke-width="0.4923" points="398.976,-31.5849 405.72,-23.4135 395.352,-25.5959 398.976,-31.5849"/>
</g>
<!-- 13&#45;&gt;0 -->
<g id="edge93" class="edge"><title>13&#45;&gt;0</title>
<path fill="none" stroke="red" stroke-width="0.132785" stroke-dasharray="1,5" d="M363.245,-65.4183C363.245,-57.7354 363.245,-48.6054 363.245,-40.2874"/>
<polygon fill="red" stroke="red" stroke-width="0.132785" points="366.745,-40.0103 363.245,-30.0103 359.745,-40.0103 366.745,-40.0103"/>
</g>
<!-- 13&#45;&gt;1 -->
<g id="edge94" class="edge"><title>13&#45;&gt;1</title>
<path fill="none" stroke="red" stroke-width="0.231157" d="M374.641,-69.1523C382.765,-59.2216 393.784,-45.7519 402.712,-34.8379"/>
<polygon fill="red" stroke="red" stroke-width="0.231157" points="405.427,-37.0471 409.049,-27.0909 400.008,-32.6149 405.427,-37.0471"/>
</g>
<!-- 14&#45;&gt;0 -->
<g id="edge95" class="edge"><title>14&#45;&gt;0</title>
<path fill="none" stroke="red" stroke-width="0.322669" d="M406.849,-69.1523C398.726,-59.2216 387.707,-45.7519 378.779,-34.8379"/>
<polygon fill="red" stroke="red" stroke-width="0.322669" points="381.482,-32.6149 372.441,-27.0909 376.064,-37.0471 381.482,-32.6149"/>
</g>
<!-- 14&#45;&gt;1 -->
<g id="edge96" class="edge"><title>14&#45;&gt;1</title>
<path fill="none" stroke="green" stroke-width="0.27885" d="M418.245,-65.4183C418.245,-57.7354 418.245,-48.6054 418.245,-40.2874"/>
<polygon fill="green" stroke="green" stroke-width="0.27885" points="421.745,-40.0103 418.245,-30.0103 414.745,-40.0103 421.745,-40.0103"/>
</g>
<!-- 15&#45;&gt;0 -->
<g id="edge97" class="edge"><title>15&#45;&gt;0</title>
<path fill="none" stroke="green" stroke-width="0.277868" d="M457.857,-73.4927C453.763,-70.9512 449.341,-68.2145 445.245,-65.6985 424.717,-53.086 401.213,-38.8153 384.648,-28.7848"/>
<polygon fill="green" stroke="green" stroke-width="0.277868" points="386.138,-25.5959 375.771,-23.4135 382.514,-31.5849 386.138,-25.5959"/>
</g>
<!-- 15&#45;&gt;1 -->
<g id="edge98" class="edge"><title>15&#45;&gt;1</title>
<path fill="none" stroke="green" stroke-width="0.350794" d="M461.849,-69.1523C453.726,-59.2216 442.707,-45.7519 433.779,-34.8379"/>
<polygon fill="green" stroke="green" stroke-width="0.350794" points="436.482,-32.6149 427.441,-27.0909 431.064,-37.0471 436.482,-32.6149"/>
</g>
<!-- 16&#45;&gt;0 -->
<g id="edge99" class="edge"><title>16&#45;&gt;0</title>
<path fill="none" stroke="green" stroke-width="0.352199" d="M513.488,-73.0479C509.314,-70.4531 504.694,-67.8012 500.245,-65.6985 455.263,-44.438 440.564,-47.8652 394.245,-29.6985 391.467,-28.6089 388.576,-27.4086 385.724,-26.1841"/>
<polygon fill="green" stroke="green" stroke-width="0.352199" points="386.966,-22.9064 376.406,-22.0529 384.129,-29.3057 386.966,-22.9064"/>
</g>
<!-- 16&#45;&gt;1 -->
<g id="edge100" class="edge"><title>16&#45;&gt;1</title>
<path fill="none" stroke="green" stroke-width="0.226413" d="M512.857,-73.4927C508.763,-70.9512 504.341,-68.2145 500.245,-65.6985 479.717,-53.086 456.213,-38.8153 439.648,-28.7848"/>
<polygon fill="green" stroke="green" stroke-width="0.226413" points="441.138,-25.5959 430.771,-23.4135 437.514,-31.5849 441.138,-25.5959"/>
</g>
<!-- 17&#45;&gt;0 -->
<g id="edge101" class="edge"><title>17&#45;&gt;0</title>
<path fill="none" stroke="red" stroke-width="0.357023" d="M568.628,-72.7279C564.455,-70.1319 559.801,-67.5593 555.245,-65.6985 487.368,-37.9707 463.844,-52.7679 394.245,-29.6985 391.413,-28.7596 388.488,-27.6504 385.619,-26.4751"/>
<polygon fill="red" stroke="red" stroke-width="0.357023" points="386.853,-23.1943 376.289,-22.3753 384.036,-29.6028 386.853,-23.1943"/>
</g>
<!-- 17&#45;&gt;1 -->
<g id="edge102" class="edge"><title>17&#45;&gt;1</title>
<path fill="none" stroke="red" stroke-width="0.238739" d="M568.457,-73.1112C564.283,-70.5167 559.671,-67.8491 555.245,-65.6985 516.891,-47.0623 469.684,-31.3653 441.887,-22.8103"/>
<polygon fill="red" stroke="red" stroke-width="0.238739" points="442.828,-19.4385 432.243,-19.89 440.8,-26.138 442.828,-19.4385"/>
</g>
<!-- 18&#45;&gt;0 -->
<g id="edge103" class="edge"><title>18&#45;&gt;0</title>
<path fill="none" stroke="green" stroke-width="0.507876" d="M623.694,-72.5618C619.521,-69.9651 614.85,-67.4338 610.245,-65.6985 519.173,-31.378 487.432,-57.7754 394.245,-29.6985 391.388,-28.8376 388.449,-27.7756 385.571,-26.6257"/>
<polygon fill="green" stroke="green" stroke-width="0.507876" points="386.801,-23.3436 376.237,-22.5421 383.996,-29.7568 386.801,-23.3436"/>
</g>
<!-- 18&#45;&gt;1 -->
<g id="edge104" class="edge"><title>18&#45;&gt;1</title>
<path fill="none" stroke="green" stroke-width="0.176427" d="M623.586,-72.8301C619.412,-70.2345 614.768,-67.6366 610.245,-65.6985 552.768,-41.0695 480.234,-26.3001 442.918,-19.7942"/>
<polygon fill="green" stroke="green" stroke-width="0.176427" points="443.389,-16.3242 432.946,-18.1076 442.222,-23.2262 443.389,-16.3242"/>
</g>
<!-- 19&#45;&gt;0 -->
<g id="edge105" class="edge"><title>19&#45;&gt;0</title>
<path fill="none" stroke="green" stroke-width="0.138807" d="M157.905,-72.8301C162.078,-70.2345 166.722,-67.6366 171.245,-65.6985 228.723,-41.0695 301.256,-26.3001 338.572,-19.7942"/>
<polygon fill="green" stroke="green" stroke-width="0.138807" points="339.269,-23.2262 348.545,-18.1076 338.101,-16.3242 339.269,-23.2262"/>
</g>
<!-- 19&#45;&gt;1 -->
<g id="edge106" class="edge"><title>19&#45;&gt;1</title>
<path fill="none" stroke="green" stroke-width="0.303854" d="M157.797,-72.5618C161.97,-69.9651 166.641,-67.4338 171.245,-65.6985 262.317,-31.378 294.059,-57.7754 387.245,-29.6985 390.103,-28.8376 393.042,-27.7756 395.92,-26.6257"/>
<polygon fill="green" stroke="green" stroke-width="0.303854" points="397.495,-29.7568 405.254,-22.5421 394.689,-23.3436 397.495,-29.7568"/>
</g>
<!-- 20&#45;&gt;0 -->
<g id="edge107" class="edge"><title>20&#45;&gt;0</title>
<path fill="none" stroke="green" stroke-width="0.23631" d="M213.033,-73.1112C217.207,-70.5167 221.819,-67.8491 226.245,-65.6985 264.599,-47.0623 311.807,-31.3653 339.604,-22.8103"/>
<polygon fill="green" stroke="green" stroke-width="0.23631" points="340.691,-26.138 349.247,-19.89 338.662,-19.4385 340.691,-26.138"/>
</g>
<!-- 20&#45;&gt;1 -->
<g id="edge108" class="edge"><title>20&#45;&gt;1</title>
<path fill="none" stroke="green" stroke-width="0.111142" d="M212.862,-72.7279C217.035,-70.1319 221.69,-67.5593 226.245,-65.6985 294.123,-37.9707 317.646,-52.7679 387.245,-29.6985 390.078,-28.7596 393.002,-27.6504 395.872,-26.4751"/>
<polygon fill="green" stroke="green" stroke-width="0.111142" points="397.454,-29.6028 405.201,-22.3753 394.638,-23.1943 397.454,-29.6028"/>
</g>
<!-- 21&#45;&gt;0 -->
<g id="edge109" class="edge"><title>21&#45;&gt;0</title>
<path fill="none" stroke="green" stroke-width="0.15993" d="M268.634,-73.4927C272.728,-70.9512 277.15,-68.2145 281.245,-65.6985 301.774,-53.086 325.277,-38.8153 341.843,-28.7848"/>
<polygon fill="green" stroke="green" stroke-width="0.15993" points="343.976,-31.5849 350.72,-23.4135 340.352,-25.5959 343.976,-31.5849"/>
</g>
<!-- 21&#45;&gt;1 -->
<g id="edge110" class="edge"><title>21&#45;&gt;1</title>
<path fill="none" stroke="red" stroke-width="0.233606" d="M268.003,-73.0479C272.177,-70.4531 276.796,-67.8012 281.245,-65.6985 326.228,-44.438 340.927,-47.8652 387.245,-29.6985 390.023,-28.6089 392.915,-27.4086 395.767,-26.1841"/>
<polygon fill="red" stroke="red" stroke-width="0.233606" points="397.361,-29.3057 405.085,-22.0529 394.524,-22.9064 397.361,-29.3057"/>
</g>
</g>
</svg>
